<svg xmlns="http://www.w3.org/2000/svg" width="596" height="417" fill="none" viewBox="0 0 596 417"><path fill="#14161B" d="M27.1117 120.67C24.8426 124.638 24.3919 129.36 24.1199 133.918C23.8479 138.484 23.6847 143.167 21.8897 147.369C20.3355 151.011 17.6079 154.133 16.52 157.946C14.7016 164.337 18.2296 171.512 23.9023 174.984C29.5673 178.455 36.8563 178.603 43.1663 176.521C46.127 175.543 48.9711 174.106 52.0639 173.71C55.4443 173.283 58.8324 174.129 62.2049 174.619C65.5775 175.108 69.2375 175.178 72.1361 173.384C75.3144 171.411 76.8996 167.505 76.9229 163.762C76.9462 160.019 75.633 156.408 74.1021 152.991C72.579 149.574 70.8073 146.242 69.8359 142.631C67.9476 135.642 69.02 127.674 65.0335 121.625C62.2671 117.416 57.4181 114.915 52.468 113.991C44.5184 112.5 31.6809 112.686 27.1117 120.67Z"/><path fill="#02231F" d="M25.9777 401.303C25.9777 401.303 17.1734 412.33 24.2293 414.349C31.2852 416.368 60.1151 416.578 60.255 414.59C60.7523 407.546 43.2291 407.702 38.2402 401.823C33.3367 396.045 25.9777 401.303 25.9777 401.303Z"/><path fill="#FCB095" d="M21.9141 261.697L25.9782 401.303C25.9782 401.303 30.5786 402.786 38.2407 401.823C38.2407 401.823 47.7211 284.311 47.4103 261.666L21.9141 261.697Z"/><path fill="#FCB095" d="M37.2925 352.425C38.9788 352.176 40.7195 351.741 42.1571 350.864C42.4524 346.919 42.7477 342.88 43.0352 338.811C37.9919 337.553 32.8398 336.707 27.6567 336.303C26.4755 336.21 25.1855 336.179 24.0898 336.551L24.5328 351.64C28.4182 353.17 33.7568 352.96 37.2925 352.425Z"/><path fill="#02231F" d="M70.7905 402.786C70.7905 402.786 67.8298 413.502 70.7905 415.133C73.7512 416.756 107.127 417.898 106.443 415.133C104.671 407.888 86.6197 409.239 81.2423 401.675L70.7905 402.786Z"/><path fill="#FCB095" d="M77.3898 253.76C77.3898 253.76 81.3841 370.861 81.2442 401.667L70.7924 402.778L52.4531 256.043L77.3898 253.76Z"/><path fill="#FCB095" d="M79.86 333.15C79.8133 333.103 79.7745 333.057 79.7278 333.01C78.8109 332.218 77.4355 332.389 76.2465 332.63C71.5918 333.569 66.9914 334.773 62.4766 336.233L64.497 352.417C68.7166 351.431 72.8118 349.916 76.6506 347.913C77.8628 347.252 79.1606 346.491 80.1941 345.505C80.0931 341.428 79.9765 337.289 79.86 333.15Z"/><path fill="#3DC0B3" d="M21.4945 290.36C21.4945 290.36 21.3468 320.926 22.0851 342.787C22.0851 342.787 52.4536 350.165 81.2524 340.116V286.369L50.3943 273.951L21.4945 290.36Z"/><path fill="#3DC0B3" d="M37.2689 281.398L21.4863 290.36C21.4863 290.36 21.4396 300.029 21.5329 312.384C25.6359 312.656 29.2804 312.881 30.042 312.865C43.3224 312.555 56.5484 310.124 69.0595 305.674C72.1523 304.579 75.1985 303.352 78.1825 302.017C79.0761 301.621 80.1796 301.217 81.2364 300.72V286.376L66.8448 280.583C56.9991 280.847 47.1301 281.119 37.2689 281.398Z"/><path fill="#25998B" d="M26.513 338.454C26.3887 338.454 26.2799 338.353 26.2799 338.221L26.0312 303.849C26.0312 303.717 26.1323 303.616 26.2644 303.616C26.3887 303.616 26.4975 303.717 26.4975 303.849L26.7462 338.221C26.7462 338.345 26.6452 338.454 26.513 338.454Z"/><path fill="#25998B" d="M52.9738 339.16C52.8883 339.16 52.8106 339.114 52.764 339.036C52.7018 338.92 52.7484 338.78 52.865 338.726C57.1001 336.543 60.6591 333.033 62.8816 328.832C62.9438 328.715 63.0836 328.677 63.1924 328.739C63.309 328.801 63.3479 328.941 63.2857 329.049C61.0088 333.336 57.3798 336.916 53.067 339.137C53.0437 339.153 53.0126 339.16 52.9738 339.16Z"/><path fill="#FCB095" d="M14.873 182.998C14.873 182.998 17.3131 176.234 24.8586 173.462C32.4041 170.689 41.838 166.472 41.9467 159.048C41.9856 156.501 41.3328 154.459 40.4547 152.875C45.669 153.325 51.536 153.845 55.7867 154.234C54.6677 155.662 53.9683 157.604 53.8206 160.99C53.5875 166.465 57.3253 167.567 61.677 169.128C69.5644 171.955 76.8146 178.051 79.9541 185.941L73.683 200.525C73.683 200.525 77.4518 234.237 79.006 252.642C79.006 252.642 54.5977 259.072 22.4186 255.08L25.5269 193.87L14.873 182.998Z"/><path fill="#FCB095" d="M41.6731 156.214C41.4089 154.932 40.966 153.822 40.4453 152.882C45.3954 153.309 50.936 153.799 55.1167 154.179C55.1789 154.218 55.2333 154.257 55.2877 154.311C55.3809 154.404 55.4353 154.521 55.482 154.645C54.565 155.989 53.9822 157.806 53.8268 160.718C52.226 161.137 50.3454 161.052 48.8223 160.757C47.6955 160.539 46.5843 160.167 45.5741 159.607C44.0432 158.776 42.7144 157.604 41.6731 156.214Z"/><path fill="#4E3454" d="M50.9767 201.201C54.256 199.5 56.8748 196.775 59.3382 194.01C64.2494 188.496 68.9041 182.392 70.5593 175.201C70.637 174.852 70.7147 174.487 70.7691 174.122C67.9949 171.978 64.8944 170.27 61.6695 169.121C60.465 168.686 59.3071 168.29 58.2658 167.824C57.0691 168.593 54.8233 167.637 53.5334 168.243C50.0132 169.905 47.8995 170.689 44.7678 169.618C42.8329 168.958 40.8979 169.493 39.0407 168.624C38.388 168.321 37.5332 167.987 36.5929 167.699C34.215 169.447 31.3009 170.876 28.4102 172.072C28.55 176.832 29.4592 181.647 30.8502 186.167C31.7361 189.024 32.8473 191.82 34.1839 194.499C35.6215 197.38 37.4554 200.261 40.3151 201.737C43.6022 203.445 47.6897 202.902 50.9767 201.201Z"/><path fill="#63446B" d="M39.2969 164.904C39.2969 164.904 41.6515 169.121 47.06 170.076L44.993 175.1C44.993 175.1 37.665 173.57 34.9297 168.826L39.2969 164.904Z"/><path fill="#63446B" d="M55.0101 165.502C55.0101 165.502 52.6011 169.928 47.0527 170.076L48.9799 175.1C48.9799 175.1 55.4841 174.658 59.4473 168.313L55.0101 165.502Z"/><path fill="#FCB095" d="M79.4343 185.941C79.4343 185.941 86.296 234.625 86.5835 269.113C86.5835 269.113 91.6968 289.809 83.0089 292.286C74.3211 294.763 74.4299 292.286 74.4299 292.286L69.3633 198.832L79.4343 185.941Z"/><path fill="#4E3454" d="M88.8154 263.102L89.3826 268.593C89.3826 268.593 83.3913 271.07 79.5059 269.595V263.863L88.8154 263.102Z"/><path fill="#fff" d="M80.5841 184.877C80.5841 184.877 85.5342 193.094 89.3808 262.341C89.3808 262.341 87.1583 266.775 78.7269 265.005L70.7695 199.508L80.5841 184.877Z"/><path fill="#F2EDE4" d="M78.726 264.997C84.1423 266.139 86.9942 264.717 88.3385 263.553C82.2151 252.502 79.5963 240.053 78.0266 227.706C77.6069 224.436 77.2573 221.159 76.9231 217.874C76.3248 212.081 75.773 206.28 74.9649 200.51C74.755 199.034 74.5374 197.566 74.2888 196.091C74.2266 195.734 74.2033 195.113 74.1411 194.476L71.4602 198.475C71.4136 200.308 71.3669 202.141 71.3203 203.973L78.726 264.997Z"/><path fill="#fff" d="M34.9296 168.833C34.9296 168.833 35.2638 189.591 47.9691 199.205C47.9691 199.205 58.5375 184.303 59.4545 168.321C59.4545 168.321 69.8441 170.674 75.6179 176.879C81.3916 183.091 81.0885 187.821 81.0885 187.821L73.6752 200.525C73.6752 200.525 81.9667 261.029 83.008 292.294C83.008 292.294 63.2622 299.904 54.6054 299.345L52.1654 288.481L51.2096 298.903C51.2096 298.903 25.5035 300.176 18.0668 295.299C18.0668 295.299 20.8721 230.859 24.2214 206L14.8652 183.014C14.8652 183.014 16.2562 176.156 23.7551 173.493C31.2618 170.821 34.9296 168.833 34.9296 168.833Z"/><path fill="#DBD6CC" d="M46.0274 199.99C46.0974 199.99 46.1751 199.951 46.2139 199.889C46.2761 199.788 46.2528 199.648 46.144 199.586C39.7952 195.54 34.309 190.422 29.8407 184.365L31.4493 180.591C31.4726 180.529 31.4726 180.459 31.4415 180.404C31.4104 180.342 31.356 180.303 31.2939 180.288L27.0743 179.34L31.9311 170.262C31.7213 170.355 31.5037 170.449 31.2706 170.55L26.5459 179.387C26.5148 179.449 26.5148 179.519 26.5381 179.581C26.5692 179.643 26.6236 179.69 26.6935 179.705L30.9364 180.661L29.39 184.303C29.3589 184.373 29.3667 184.458 29.4133 184.52C33.9282 190.663 39.4844 195.851 45.9109 199.951C45.9419 199.982 45.9886 199.99 46.0274 199.99Z"/><path fill="#DBD6CC" d="M65.261 186.081C65.3232 186.003 65.331 185.902 65.2766 185.825L63.3649 182.851L66.9395 181.227C67.0405 181.181 67.0872 181.072 67.0639 180.971C65.9215 176.366 64.3907 172.281 63.2017 169.455C63.0075 169.385 62.821 169.323 62.6345 169.26C63.8156 172.048 65.4009 176.195 66.5821 180.901L62.9375 182.555C62.8754 182.579 62.8365 182.633 62.8132 182.695C62.7977 182.757 62.8054 182.827 62.8365 182.882L64.7948 185.934C63.7923 187.137 55.6251 196.759 48.6314 199.827C48.5226 199.873 48.4682 200.005 48.5148 200.122C48.5537 200.207 48.6314 200.254 48.7169 200.254C48.7479 200.254 48.779 200.246 48.8023 200.238C56.3556 196.922 65.1755 186.19 65.261 186.081Z"/><path fill="#DBD6CC" d="M49.1048 218.651C48.9883 218.651 48.8872 218.558 48.8872 218.441L48.1645 204.688C48.1567 204.564 48.25 204.463 48.3743 204.455C48.4987 204.447 48.5997 204.54 48.6075 204.665L49.3302 218.418C49.3379 218.542 49.2447 218.643 49.1204 218.651C49.1126 218.651 49.1048 218.651 49.1048 218.651Z"/><path fill="#DBD6CC" d="M52.4794 284.668C52.3628 284.668 52.2618 284.575 52.2618 284.458L49.6352 237.134C49.6274 237.009 49.7207 236.908 49.845 236.901C49.9771 236.893 50.0704 236.986 50.0782 237.11L52.7047 284.435C52.7125 284.559 52.6192 284.66 52.4949 284.668C52.4871 284.668 52.4871 284.668 52.4794 284.668Z"/><path fill="#DBD6CC" d="M24.7815 206.404C24.7504 206.404 24.7194 206.397 24.6883 206.381C24.5795 206.327 24.5328 206.195 24.5872 206.086L26.8253 201.442C26.8797 201.333 27.0118 201.287 27.1206 201.341C27.2294 201.395 27.276 201.527 27.2216 201.636L24.9836 206.28C24.9447 206.358 24.867 206.404 24.7815 206.404Z"/><path fill="#DBD6CC" d="M37.3015 273.058C32.7089 273.058 28.1241 272.328 23.7491 270.876C23.6325 270.837 23.5704 270.713 23.6092 270.596C23.6481 270.48 23.7724 270.418 23.889 270.457C30.7584 272.732 38.1407 273.221 45.2511 271.87C45.3677 271.847 45.4842 271.924 45.5075 272.049C45.5309 272.165 45.4531 272.282 45.3288 272.305C42.6789 272.802 39.9902 273.058 37.3015 273.058Z"/><path fill="#DBD6CC" d="M64.1028 271.715C62.6651 271.715 61.2275 271.622 59.8055 271.435C59.6811 271.42 59.5957 271.311 59.6112 271.187C59.6267 271.062 59.7355 270.977 59.8599 270.992C66.0377 271.808 72.5419 270.806 78.1835 268.166C78.2923 268.111 78.4244 268.166 78.4788 268.274C78.5332 268.383 78.4866 268.515 78.37 268.57C73.9562 270.635 69.0062 271.715 64.1028 271.715Z"/><path fill="#7A4C4C" d="M88.6253 202.467L48.9395 238.477C48.9395 238.477 56.959 259.173 75.8655 269.098L114.86 231.527C114.86 231.534 97.5618 216.841 88.6253 202.467Z"/><path fill="#6F6F6E" d="M94.0174 213.215C94.0407 213.564 94.2893 213.852 94.5225 214.108C97.0247 216.88 99.5269 219.653 102.029 222.425C102.441 222.883 102.946 223.38 103.56 223.334C103.871 223.31 104.151 223.147 104.415 222.984L105.386 222.402C106.451 221.765 106.591 220.282 105.666 219.451L101.648 215.855C100.677 214.985 99.7056 214.116 98.742 213.246C98.1359 212.71 97.1957 211.436 96.302 211.444C95.5715 211.444 93.9552 212.368 94.0174 213.215Z"/><path fill="#6F6F6E" d="M105.097 220.786L105.004 220.305C105.657 220.173 106.014 219.358 105.929 218.713C105.835 217.991 105.353 217.346 104.856 216.756C103.582 215.257 102.129 213.929 100.52 212.788C99.9139 212.361 99.2533 211.941 98.5306 211.794C97.7769 211.638 97.0231 211.832 96.5957 212.291L96.2305 211.957C96.7744 211.367 97.6914 211.118 98.6239 211.312C99.4321 211.483 100.147 211.933 100.8 212.392C102.439 213.549 103.924 214.915 105.221 216.438C105.773 217.082 106.294 217.804 106.41 218.651C106.542 219.528 106.037 220.6 105.097 220.786Z"/><path fill="#FCB095" d="M16.7782 218.48C19.3426 214.473 33.0815 190.803 33.0815 190.803L22.4509 184.877L10.375 192.573C10.375 192.573 7.14233 200.51 1.74158 217.999C-3.65917 235.487 12.6363 233.996 20.4927 234.035C26.6006 234.066 44.1239 231.721 51.6305 230.672C51.9725 230.626 52.3066 230.618 52.633 230.657L54.1949 222.394C44.2249 222.922 16.7782 218.48 16.7782 218.48Z"/><path fill="#FCB095" d="M77.4744 234.307C76.5186 230.835 64.8234 224.6 64.8234 224.6C64.8234 224.6 60.8758 221.633 59.7956 221.54C58.6999 221.711 57.5499 221.913 56.3609 222.13C55.8092 222.231 55.0787 222.363 54.1851 222.41L52.6387 230.657C54.0297 230.789 55.4362 230.835 56.0656 232.163C58.1094 236.458 62.0492 241.715 63.8987 243.183C66.1755 244.993 63.2614 235.58 63.2614 235.58C63.2614 235.58 68.8565 243.082 70.1154 241.661C71.3742 240.248 65.7326 233.849 65.7326 233.849C65.7326 233.849 73.6045 242.003 74.9799 240.294C76.3554 238.586 68.4291 231.628 68.4291 231.628C68.4291 231.628 78.4302 237.778 77.4744 234.307Z"/><path fill="#FCB095" d="M59.7891 221.54C59.7891 221.54 65.9358 218.503 69.2307 220.057L64.8168 224.607L60.5584 225.159L59.7891 221.54Z"/><path fill="#4E3454" d="M47.045 221.827H52.6401C52.6401 221.827 50.3554 225.524 51.389 231.511L44.5117 232.878V223.675L47.045 221.827Z"/><path fill="#fff" d="M16.0467 180.024C16.0467 180.024 -0.575212 210.885 0.0153732 223.901C0.605959 236.908 15.6581 240.519 45.8402 233.849C45.8402 233.849 44.589 224.693 47.4099 221.33C47.4099 221.33 17.8728 218.208 18.5955 217.02C19.3182 215.832 34.044 190.189 34.044 190.189L16.0467 180.024Z"/><path fill="#FCB095" d="M61.7942 126.447C61.7942 126.447 65.8428 141.637 64.5762 149.543C63.3095 157.448 52.034 161.021 36.6321 152.354C36.6321 152.354 35.4432 154.334 31.752 152.137C28.0609 149.947 28.2862 141.622 34.1377 144.386C34.1377 144.386 28.2784 126.665 33.9201 122.875C39.5617 119.078 61.7942 126.447 61.7942 126.447Z"/><path fill="#14161B" d="M49.3983 124.483C49.0331 126.735 47.067 128.358 45.0855 129.484C43.1039 130.61 40.9125 131.526 39.4438 133.266C36.8017 136.419 36.8794 141.311 34.1363 144.379C29.5204 139.618 28.1294 132.381 30.0566 126.028C30.7327 123.784 31.8905 121.609 33.7322 120.149C36.5919 117.882 40.5317 117.703 44.184 117.711C47.0204 117.711 49.8801 117.765 52.6621 118.34C55.444 118.915 58.1638 120.048 60.2464 121.982C61.5986 123.24 62.6398 124.801 63.4325 126.463C63.8132 127.271 65.5151 130.369 64.5359 131.099C64.0308 131.48 62.6554 131.029 62.0881 130.921C61.1712 130.75 60.2542 130.524 59.3605 130.253C57.5966 129.717 55.887 128.979 54.2784 128.071C53.4003 127.573 52.5455 127.022 51.7296 126.416C51.4187 126.214 49.3439 124.84 49.3983 124.483Z"/><path fill="#FFB27D" d="M140.031 349.253L144.854 369.565L152.076 369.525L152.343 349.253H140.031Z"/><path fill="#FFB27D" d="M200.791 350.118L214.516 369.565L219.862 362.697L211.605 347.445L200.791 350.118Z"/><path fill="#14161B" d="M165.12 82.3445C162.627 80.9269 159.637 80.7717 157.548 80.8944C158.086 80.3389 159.146 80.1369 159.146 80.1369C157.851 79.9457 154.958 81.2299 154.958 81.2299C136.929 74.2824 134.094 100.831 134.473 107C134.848 113.168 128.413 115.181 119.034 120.04C101.131 129.31 99.5586 141.726 99.5586 141.726C99.6993 141.809 99.8436 141.903 99.9987 142.008C100.886 140.503 102.715 137.679 104.255 137.253C104.197 137.39 102.434 141.142 101.777 143.292C107.058 147.31 116.935 156.209 123.821 162.518C123.792 161.285 123.839 159.535 124.29 158.608L125.141 163.73C128.824 167.117 131.363 169.498 131.363 169.498C130.909 164.513 153.905 138.213 165.902 130.335C168.824 126.035 169.863 118.438 169.939 117.839C169.434 123.863 168.406 127.24 167.482 129.144C177.644 119.798 171.728 86.0996 165.12 82.3445Z"/><path fill="#FFB27D" d="M165.193 130.732C165.254 130.757 159.399 133.798 154.999 132.593C150.858 131.464 148.152 126.093 148.21 126.082C149.963 125.732 150.468 123.322 150.432 112.966L151.226 113.121L164.558 115.762C164.558 115.762 164.255 119.957 164.244 123.91C164.233 127.229 164.432 130.374 165.193 130.732Z"/><path fill="#D68D5D" d="M164.553 115.762C164.553 115.762 164.25 119.957 164.239 123.91C156.779 123.701 152.837 116.894 151.221 113.125L164.553 115.762Z"/><path fill="#14161B" d="M149.844 111.671C149.844 111.671 145.933 105.496 144.995 100.211C144.325 96.4415 146.247 82.4636 160.294 84.4764C160.294 84.4764 164.373 84.8768 168.208 87.4668C171.256 89.5265 175.66 93.9742 170.737 106.17L169.46 110.29L149.844 111.671Z"/><path fill="#3DC0B3" d="M217.688 357.369L210.621 357.585L202.974 357.82C202.974 357.82 185.306 338.15 175.397 306.615C175.166 305.883 174.921 305.14 174.665 304.39C169.24 288.576 157.996 268.725 152.073 250.758C151.131 247.897 150.284 245.203 149.523 242.652C149.281 241.837 149.043 241.033 148.816 240.243C144.451 225.071 143.185 215.111 142.02 204.467L184.805 204.809C184.801 204.809 191.709 277.484 217.688 357.369Z"/><path fill="#4E3454" d="M178.814 180.222C178.706 200.581 181.801 209.318 181.801 209.318C181.801 209.318 163.484 218.625 141.71 211.775C141.454 211.695 123.682 207.637 123.682 207.637C124.046 206.815 127.285 193.093 127.642 192.335C132.238 182.462 135.73 178.134 136.274 175.1C137.284 169.433 137.31 163.572 136.805 158.042C135.477 143.404 131.524 131.255 131.524 131.255C137.458 129.905 143.164 127.597 149.34 125.281C150.761 127.049 154.949 128.838 158.715 128.751C163.051 128.657 164.407 126.821 164.248 124.754C168.869 127.326 172.545 129.772 172.545 129.772C176.473 136.593 184.438 143.22 185.015 153.688C185.156 156.263 178.818 179.652 178.814 180.222Z"/><path fill="#DE8D64" d="M142.015 182.491C140.143 185.139 136.557 201.227 127.637 203.251C132.232 191.784 135.724 186.755 136.269 183.231C137.279 176.648 137.304 169.841 136.799 163.416C139.786 158.182 142.015 154.593 142.015 154.593C142.25 153.746 146.762 139.796 148.205 152.267C149.648 164.74 144.104 179.53 142.015 182.491Z"/><path fill="#FFB27D" d="M167.044 119.506C167.044 119.506 149.394 119.798 149.383 108.803C149.372 97.8087 147.085 90.4428 158.354 89.7935C169.623 89.1442 171.816 93.3357 172.715 97.0043C173.613 100.673 171.636 119.145 167.044 119.506Z"/><path fill="#14161B" d="M172.187 90.8864C169.464 87.5858 167.404 88.3036 166.246 89.2956C162.433 83.5962 150.378 91.8387 150.378 91.8387C149.198 99.7277 143.51 104.247 143.51 104.247C143.51 104.247 146.727 106.235 154.144 104.327C159.98 102.826 164.215 94.5189 165.755 91.0487C166.805 91.983 169.02 94.1365 169.684 96.2503C170.564 99.0495 170.961 104.814 172.638 104.619C172.638 104.615 176.278 95.8463 172.187 90.8864Z"/><path fill="#FFB27D" d="M144.611 368.428C144.611 368.428 145.191 372.451 143.691 376.758C143.691 376.758 142.508 382.143 147.814 382.244C153.12 382.345 154.422 381.844 153.82 378.539C153.221 375.235 152.077 369.521 152.077 369.521L144.611 368.428Z"/><path fill="#02231F" d="M154.32 384.888C154.32 384.888 154.313 384.892 154.302 384.899H143.325C143.314 384.892 143.307 384.888 143.307 384.888C142.708 382.071 143.689 376.765 143.689 376.765C149.699 382.507 153.458 376.62 153.458 376.62C154.435 379.073 154.32 384.888 154.32 384.888Z"/><path fill="#FFB27D" d="M232.652 379.329C232.652 379.329 222.869 368.219 219.868 362.697L212.596 366.423L228.853 381.692L232.659 381.191L232.652 379.329Z"/><path fill="#02231F" d="M238.65 384.87H225.079C223.885 383.792 222.746 381.624 221.35 378.778C220.549 377.147 218.76 376.249 216.92 375.758V384.87H214.114L211.513 375.181C209.781 371.935 211.084 368.959 212.299 366.39C213.717 366.387 217.825 367.411 225.051 375.715C227.424 378.442 230.047 379.416 232.651 379.333C232.687 379.355 232.723 379.376 232.759 379.391C236.871 381.277 238.213 383.597 238.65 384.87Z"/><path fill="#fff" d="M237.991 137.751C237.991 137.751 226.404 144.23 222.267 146.098C220.795 146.762 218.129 148.003 215.406 149.276C213.761 150.045 212.095 150.827 210.655 151.505C208.224 152.649 205.327 152.021 203.578 149.98C197.305 142.653 181.069 126.778 164.303 124.787L164.245 124.762C164.245 124.762 164.249 124.769 164.252 124.78C164.245 124.78 164.238 124.776 164.23 124.776L164.324 124.956C165.266 127.301 174.457 150.265 174.742 155.109C175.041 160.213 175.943 238.594 175.943 238.594C175.943 238.594 175.341 242.198 182.248 240.697C189.156 239.197 190.956 237.692 190.956 237.692C190.956 237.692 184.348 189.341 186.151 172.525C186.505 169.224 186.188 165.516 185.448 161.685C195.66 167.871 207.697 170.62 207.697 170.62C207.697 170.62 212.188 168.661 219.165 164.336C222.094 162.518 225.492 159.622 228.836 156.556C232.876 152.851 239.827 143.905 239.827 143.905L237.991 137.751Z"/><path fill="#25998B" d="M210.622 357.582L202.975 357.816C202.975 357.816 185.307 338.146 175.398 306.612C175.167 305.88 174.922 305.137 174.666 304.386C169.24 288.572 157.997 268.722 152.074 250.754C151.132 247.894 150.285 245.199 149.523 242.649C149.282 241.834 149.044 241.029 148.816 240.239L155.118 235.46C155.118 235.46 174.034 266.092 179.892 294.917C184.975 319.962 205.349 350.09 210.622 357.582Z"/><path fill="#3DC0B3" d="M155.771 297.605C155.879 311.622 155.169 343.853 153.344 357.196H146.569C142.825 357.196 140.956 357.142 140.956 357.142C136.375 333.944 133.118 314.746 130.744 298.203C128.8 284.63 127.069 272.993 125.738 262.975C124.399 252.893 123.469 244.452 123.133 237.321C123.083 236.199 123.043 235.106 123.021 234.046C123 232.978 122.996 231.943 123.003 230.936L159.974 227.333C159.512 251.894 155.71 289.456 155.771 297.605Z"/><path fill="#25998B" d="M146.569 357.196C142.825 357.196 140.956 357.142 140.956 357.142C136.375 333.944 133.118 314.746 130.744 298.203C128.8 284.629 127.068 272.993 125.737 262.975C124.399 252.893 123.468 244.452 123.133 237.321L136.7 245.3C136.7 245.3 128.042 248.355 131.346 271.478C134.651 294.603 141.973 353.924 146.569 357.196Z"/><path fill="#fff" d="M148.314 237.094C148.314 237.094 145.71 246.501 136.703 245.3C127.692 244.099 114.883 238.692 114.883 238.692C114.883 238.692 118.732 226.525 123.518 210.545C129.315 191.196 136.49 166.252 139.87 150.517C140.819 146.109 141.468 142.426 141.71 139.789L149.339 125.281C149.339 125.281 160.33 150.301 160.929 156.606C161.528 162.915 148.314 237.094 148.314 237.094Z"/><path fill="#FFB27D" d="M180.491 163.647C176.155 164.217 174.492 166.522 173.959 169.632C173.67 171.309 172.804 172.968 172.072 174.137C167.754 174.368 157.466 174.927 148.824 175.475L148.109 186.809C155.208 185.926 163.934 184.126 173.973 180.688C174.745 180.554 175.708 180.078 176.917 179.086C183.139 173.989 186.67 165.458 186.681 164.235C186.692 163.016 184.827 163.077 180.491 163.647Z"/><path fill="#fff" d="M147.915 169.823C147.511 180.035 145.109 199.853 123.689 210.465C123.631 210.491 123.574 210.523 123.52 210.545C129.316 191.196 136.491 166.252 139.871 150.517C143.806 156.397 148.135 164.199 147.915 169.823Z"/><path fill="#F5F4F3" d="M149.34 125.281C149.34 125.281 131.015 126.58 126.611 136.391C122.207 146.203 120.803 178.834 126.409 188.447C126.409 188.447 134.128 190.644 147.778 188.093C147.944 188.061 148.114 188.028 148.283 187.996C148.283 187.996 152.637 177.333 148.734 175.234C148.734 175.234 137.223 175.833 138.425 172.031C139.626 168.225 149.34 125.281 149.34 125.281Z"/><path fill="#FFB27D" d="M250.416 130.05C240.557 128.784 238.068 137.751 238.068 137.751L239.908 143.909C242.945 144.327 245.607 143.537 248.057 140.031C250.506 136.525 251.181 137.87 252.739 135.262C254.853 131.724 251.548 130.407 250.416 130.05Z"/><path fill="#FFB27D" d="M222.267 146.098C220.795 146.762 218.13 148.003 215.406 149.276C216.864 151.866 218.689 156.57 219.172 164.343C222.101 162.525 225.892 159.499 229.132 156.321C234.326 151.224 239.834 143.912 239.834 143.912L237.995 137.755C237.991 137.751 226.405 144.23 222.267 146.098Z"/><path fill="#3F3E3E" d="M167.363 125.866C166.538 125.494 165.732 125.257 164.877 125.071L164.869 125.649C165.626 125.825 166.381 126.075 167.115 126.408C169.771 127.604 172.177 129.728 174.26 132.71C176.122 135.374 177.505 138.39 178.843 141.302C178.913 141.451 179.087 141.517 179.24 141.45C179.256 141.443 179.266 141.435 179.282 141.427C179.402 141.348 179.447 141.19 179.388 141.054C178.04 138.116 176.645 135.077 174.754 132.369C172.604 129.297 170.116 127.106 167.363 125.866Z"/><path fill="#6F6F6E" d="M181.267 140.786C181.941 141.794 181.669 143.16 180.655 143.834C179.646 144.509 178.28 144.238 177.606 143.224C176.932 142.216 177.204 140.85 178.219 140.176C179.224 139.504 180.593 139.778 181.267 140.786Z"/><path fill="#989797" d="M180.637 141.207C181.079 141.869 180.899 142.767 180.237 143.209C179.574 143.651 178.676 143.472 178.234 142.81C177.793 142.148 177.973 141.249 178.635 140.807C179.297 140.366 180.193 140.541 180.637 141.207Z"/><path fill="#6F6F6E" d="M149.176 148.074C148.422 148.139 147.742 147.879 147.295 147.646C146.658 147.308 146.125 146.836 145.688 146.416C144.5 145.277 143.46 143.99 142.602 142.587C142.554 142.509 142.58 142.405 142.658 142.358C142.736 142.31 142.84 142.336 142.888 142.414C143.733 143.791 144.756 145.056 145.922 146.173C146.342 146.576 146.858 147.035 147.456 147.351C147.885 147.581 148.548 147.827 149.267 147.732C149.354 147.715 149.445 147.784 149.454 147.875C149.467 147.966 149.402 148.053 149.311 148.061C149.263 148.066 149.22 148.07 149.176 148.074Z"/><path fill="#6F6F6E" d="M146.282 149.101C146.2 149.109 146.122 149.053 146.104 148.971C146.083 148.88 146.139 148.793 146.23 148.772C146.594 148.689 146.945 148.434 147.209 148.053C147.443 147.719 147.591 147.334 147.747 146.857C148.366 144.934 148.661 142.938 148.626 140.915C148.626 140.824 148.7 140.751 148.791 140.746C148.882 140.746 148.96 140.82 148.96 140.911C148.995 142.968 148.691 144.999 148.063 146.961C147.933 147.368 147.768 147.836 147.482 148.248C147.17 148.698 146.75 149.001 146.304 149.101C146.299 149.101 146.291 149.101 146.282 149.101Z"/><path fill="#6F6F6E" d="M149.052 147.615C148.905 147.672 148.762 147.737 148.654 147.854C148.55 147.966 148.493 148.139 148.55 148.282C148.623 148.46 148.836 148.533 149.026 148.555C149.382 148.594 149.746 148.529 150.062 148.365C150.218 148.282 150.378 148.157 150.396 147.983C150.478 147.304 149.386 147.49 149.052 147.615Z"/><path fill="#6F6F6E" d="M146.199 149.56C146.498 149.456 146.888 149.274 146.879 148.897C146.875 148.637 146.628 148.425 146.39 148.365C145.9 148.239 145.358 148.702 145.323 149.196C145.293 149.711 145.861 149.677 146.199 149.56Z"/><path fill="#3F3E3E" d="M142.918 142.92C142.793 142.933 142.663 142.868 142.598 142.752C141.285 140.387 141.038 137.468 141.935 134.939C142.121 134.415 142.437 133.665 143.061 133.163C143.634 132.704 144.405 132.513 145.124 132.656C146.923 133.007 147.859 135.419 148.167 136.212C148.73 137.658 149.064 139.308 149.159 141.11C149.168 141.296 149.033 141.457 148.843 141.461C148.656 141.47 148.5 141.331 148.492 141.145C148.401 139.412 148.08 137.836 147.547 136.454C146.801 134.527 145.965 133.501 144.999 133.31C144.47 133.206 143.902 133.345 143.482 133.683C143.109 133.981 142.814 134.454 142.563 135.159C141.727 137.507 141.956 140.222 143.178 142.422C143.269 142.583 143.209 142.786 143.048 142.877C143.009 142.903 142.966 142.916 142.918 142.92Z"/><path fill="#3F3E3E" d="M149.116 124.874C148.696 125.185 148.262 125.549 147.877 125.904C145.866 127.762 144.371 130.244 143.669 132.89C143.625 133.05 143.721 133.211 143.881 133.254C143.907 133.262 143.933 133.262 143.959 133.262C144.089 133.262 144.21 133.176 144.249 133.042C144.925 130.504 146.356 128.126 148.284 126.342C148.613 126.039 148.96 125.757 149.316 125.484C149.255 125.359 149.168 125.068 149.116 124.874Z"/><path fill="#6B98F6" d="M502.028 0H234.828V365.403H502.028V0Z"/><path fill="#F1F9FF" d="M490.644 9.8584H246.213V355.331H490.644V9.8584Z"/><path fill="#415485" d="M317.754 0V12.4485C317.754 19.3238 323.32 24.8969 330.188 24.8969H396.986C403.854 24.8969 409.42 19.3238 409.42 12.4485V0H317.754Z"/><path fill="#A9C2FF" d="M304.829 321.601H274.586V324.663H304.829V321.601Z"/><path fill="#A9C2FF" d="M342.077 321.6H311.834V324.663H342.077V321.6Z"/><path fill="#A9C2FF" d="M316.527 328.393H274.586V331.455H316.527V328.393Z"/><path fill="#A9C2FF" d="M472.095 124.925H266.812V129.239H472.095V124.925Z"/><path fill="#A9C2FF" d="M456 144.191H266.812V148.505H456V144.191Z"/><path fill="#A9C2FF" d="M397.433 134.556H341.475V138.87H397.433V134.556Z"/><path fill="#A9C2FF" d="M472.094 134.556H407.125V138.87H472.094V134.556Z"/><path fill="#A9C2FF" d="M333.145 134.556H266.812V138.87H333.145V134.556Z"/><path fill="#A9C2FF" d="M397.433 113.999H341.475V118.313H397.433V113.999Z"/><path fill="#A9C2FF" d="M472.094 113.999H407.125V118.313H472.094V113.999Z"/><path fill="#A9C2FF" d="M333.145 113.999H266.812V118.313H333.145V113.999Z"/><path fill="#A9C2FF" d="M472.095 182.593H266.812V186.907H472.095V182.593Z"/><path fill="#A9C2FF" d="M425.205 201.859H266.812V206.173H425.205V201.859Z"/><path fill="#A9C2FF" d="M397.433 171.667H341.475V175.981H397.433V171.667Z"/><path fill="#A9C2FF" d="M472.094 171.667H407.125V175.981H472.094V171.667Z"/><path fill="#A9C2FF" d="M333.145 171.667H266.812V175.981H333.145V171.667Z"/><path fill="#A9C2FF" d="M460.628 53.5417H411.354V57.856H460.628V53.5417Z"/><path fill="#A9C2FF" d="M386.921 62.5958H345.615V66.91H386.921V62.5958Z"/><path fill="#A9C2FF" d="M449.871 62.5958H393.818V66.91H449.871V62.5958Z"/><path fill="#A9C2FF" d="M396.001 73.0531H345.615V77.3673H396.001V73.0531Z"/><path fill="#A9C2FF" d="M431.694 73.0531H404.211V77.3673H431.694V73.0531Z"/><path fill="#A9C2FF" d="M404.023 53.5417H345.615V57.856H404.023V53.5417Z"/><path fill="#A9C2FF" d="M366.632 241.806H320.232V244.598H366.632V241.806Z"/><path fill="#A9C2FF" d="M362.996 254.283H320.232V257.075H362.996V254.283Z"/><path fill="#A9C2FF" d="M366.637 248.042H353.986V250.834H366.637V248.042Z"/><path fill="#A9C2FF" d="M350.479 248.042H320.232V250.834H350.479V248.042Z"/><path fill="#A9C2FF" d="M475.735 241.806H429.332V244.598H475.735V241.806Z"/><path fill="#A9C2FF" d="M472.095 254.283H429.332V257.075H472.095V254.283Z"/><path fill="#A9C2FF" d="M475.734 248.042H463.084V250.834H475.734V248.042Z"/><path fill="#A9C2FF" d="M459.578 248.042H429.332V250.834H459.578V248.042Z"/><path fill="#A9C2FF" d="M386.422 331.376C377.556 331.376 369.829 325.078 368.054 316.403C367.91 315.706 368.361 315.028 369.053 314.888C369.746 314.747 370.428 315.194 370.568 315.887C372.102 323.372 378.768 328.804 386.422 328.804C394.001 328.804 400.653 323.437 402.243 316.038C402.391 315.346 403.077 314.906 403.769 315.053C404.462 315.201 404.905 315.887 404.754 316.579C402.914 325.154 395.202 331.376 386.422 331.376Z"/><path fill="#A9C2FF" d="M369.276 310.57C369.193 310.57 369.114 310.563 369.031 310.545C368.335 310.411 367.88 309.736 368.013 309.04C369.716 300.253 377.457 293.876 386.421 293.876C395.035 293.876 402.513 299.701 404.609 308.048C404.782 308.737 404.363 309.433 403.674 309.607C402.985 309.78 402.289 309.361 402.116 308.672C400.309 301.472 393.856 296.444 386.421 296.444C378.684 296.444 372.003 301.949 370.535 309.531C370.416 310.144 369.878 310.57 369.276 310.57Z"/><path fill="#A9C2FF" d="M386.421 339.279C371.725 339.279 359.768 327.322 359.768 312.626C359.768 297.93 371.725 285.972 386.421 285.972C401.117 285.972 413.075 297.93 413.075 312.626C413.075 327.322 401.117 339.279 386.421 339.279ZM386.421 289.623C373.738 289.623 363.418 299.943 363.418 312.626C363.418 325.309 373.738 335.629 386.421 335.629C399.104 335.629 409.424 325.309 409.424 312.626C409.424 299.939 399.104 289.623 386.421 289.623Z"/><path fill="#A9C2FF" d="M391.703 309.286H381.145V310.974H391.703V309.286Z"/><path fill="#A9C2FF" d="M391.703 316.201H381.145V317.889H391.703V316.201Z"/><path fill="#A9C2FF" d="M394.192 312.626H378.652V314.314H394.192V312.626Z"/><path fill="#A8CCFF" d="M310.303 268.07H278.574V236.341H310.303V268.07ZM280.071 266.576H308.81V237.838H280.071V266.576Z"/><path fill="#3567D6" d="M295.23 261.692C294.566 261.692 293.932 261.396 293.502 260.88L283.712 249.038C282.922 248.082 283.056 246.672 284.012 245.882C284.964 245.092 286.378 245.225 287.168 246.181L294.934 255.574L308.981 231.998C309.616 230.933 310.99 230.587 312.054 231.218C313.118 231.853 313.465 233.228 312.833 234.292L297.16 260.599C296.788 261.227 296.132 261.631 295.407 261.688C295.346 261.688 295.288 261.692 295.23 261.692Z"/><path fill="#A8CCFF" d="M421.54 268.07H389.811V236.341H421.54V268.07ZM391.304 266.576H420.043V237.838H391.304V266.576Z"/><path fill="#3567D6" d="M406.461 261.692C405.797 261.692 405.162 261.396 404.733 260.88L394.943 249.038C394.153 248.082 394.286 246.672 395.242 245.882C396.194 245.092 397.608 245.225 398.398 246.181L406.165 255.574L420.211 231.998C420.846 230.933 422.22 230.587 423.285 231.218C424.349 231.853 424.695 233.228 424.064 234.292L408.39 260.599C408.019 261.227 407.362 261.631 406.637 261.688C406.576 261.688 406.518 261.692 406.461 261.692Z"/><path fill="#A8B0C6" d="M330.527 66.6071C330.527 75.4592 326.974 83.478 321.217 89.3108C315.348 95.27 307.192 98.9601 298.167 98.9601C289.145 98.9601 280.986 95.27 275.117 89.3108C269.36 83.4744 265.807 75.4556 265.807 66.6071C265.807 48.7334 280.297 34.2468 298.167 34.2468C316.041 34.2504 330.527 48.7334 330.527 66.6071Z"/><path fill="#14161B" d="M298.243 41.7137C298.243 41.7137 286.076 40.7578 279.673 53.7473C273.945 65.3626 271.756 66.1597 274.223 69.8427C276.694 73.5257 300.397 80.1882 317.928 72.6094C317.928 72.6094 324.284 69.8427 321.845 65.0307C319.41 60.2151 312.881 40.4873 298.243 41.7137Z"/><path fill="#fff" d="M311.267 63.5402C312.974 56.3103 308.497 49.0654 301.267 47.3583C294.037 45.6511 286.792 50.1281 285.085 57.358C283.378 64.5878 287.855 71.8327 295.085 73.5398C302.315 75.247 309.56 70.77 311.267 63.5402Z"/><path fill="#fff" d="M321.217 89.3144C315.348 95.2736 307.192 98.9637 298.167 98.9637C289.146 98.9637 280.986 95.2736 275.117 89.3144C276.979 81.0467 283.172 74.4167 291.195 71.9457C293.399 71.264 295.74 70.8997 298.164 70.8997C300.588 70.8997 302.929 71.264 305.133 71.9457C313.159 74.4131 319.36 81.0431 321.217 89.3144Z"/><path fill="#14161B" d="M299.275 46.3022C299.275 46.3022 295.155 57.0913 284.716 56.6837C284.716 56.6837 283.291 44.2533 299.275 46.3022Z"/><path fill="#14161B" d="M297.033 46.3022C297.033 46.3022 301.153 57.0913 311.592 56.6837C311.592 56.6837 313.017 44.2533 297.033 46.3022Z"/><path fill="#EBF4F5" d="M569.74 146.26C569.74 146.26 593.167 170.444 594.292 179.566C595.416 188.683 583.144 202.951 583.144 202.951L569.74 146.26Z"/><path fill="#2C3F4E" d="M559.726 397.146C559.726 397.146 558.929 410.005 556.441 410.186C556.11 410.211 543.826 410.211 543.826 410.211L528.145 410.12C528.145 410.12 528.248 406.343 532.832 405.541C537.415 404.743 545.087 401.519 547.864 395.46C550.786 389.09 559.726 397.146 559.726 397.146Z"/><path fill="#2C3F4E" d="M594.657 397.146C594.657 397.146 593.859 410.005 591.371 410.186C591.04 410.211 578.756 410.211 578.756 410.211L563.025 410.158C563.025 410.158 563.174 406.343 567.758 405.545C572.342 404.747 580.013 401.523 582.79 395.464C585.717 389.091 594.657 397.146 594.657 397.146Z"/><path fill="#384974" d="M542.357 259.275C542.357 259.275 546.458 285.508 561.759 332.073C577.06 378.642 579.143 398.804 579.143 398.804C579.143 398.804 583.28 399.403 587.653 399.403C590.418 399.403 595.556 398.341 595.556 398.341C595.556 398.341 595.697 347.448 588.645 324.03C581.594 300.611 587.124 239.609 587.124 239.609L542.357 259.275Z"/><path fill="#415485" d="M534.37 241.055C534.37 241.055 533.787 280.585 540.627 329.122C547.468 377.658 545.149 398.262 545.149 398.262C545.149 398.262 550.779 399.271 552.758 399.337C554.875 399.407 561.529 398.808 561.529 398.808C561.529 398.808 571.317 350.251 568.51 325.96C565.704 301.665 581.914 242.597 581.914 242.597L534.37 241.055Z"/><path fill="#FCB095" d="M566.084 148.546L558.359 154.266L547.191 151.914C547.344 150.898 548.084 146.678 548.754 142.854C548.795 142.627 548.836 142.404 548.874 142.185C549.448 138.932 549.944 136.138 549.944 136.138L560.372 130.938L564.262 129C564.253 129.07 563.96 132.608 563.919 133.125C563.191 142.309 566.084 148.546 566.084 148.546Z"/><path fill="#D0DEE9" d="M547.97 145.657C548.214 145.553 563.16 141.143 564.784 141.68C566.409 142.218 567.368 145.359 567.368 145.359L542.924 150.885C542.924 150.885 544.846 146.975 547.97 145.657Z"/><path fill="#fff" d="M588.217 245.932C585.683 257.489 543.524 258.857 532.658 248.367C531.422 247.172 531.36 241.609 531.827 234.107C532.741 219.455 535.667 197.409 535.783 186.146C535.836 180.706 536.585 175.143 537.581 170.092C539.697 159.325 542.929 150.877 542.929 150.877C542.929 150.877 563.521 144.218 567.373 145.351C585.931 150.815 590.746 234.376 588.217 245.932Z"/><path fill="#EFF0F0" d="M531.822 234.111C532.736 219.459 535.662 197.413 535.778 186.15C535.831 180.71 536.58 175.147 537.576 170.096L549.963 167.91C549.963 167.91 562.073 217.38 531.822 234.111Z"/><path fill="#FFB27D" d="M538.53 213.685C538.53 213.685 539.374 215.702 537.6 217.058C535.827 218.414 534.678 220.608 535.083 222.212C535.488 223.816 539.378 226.432 540.729 226.01C542.077 225.589 544.821 223.477 544.528 222.629C544.234 221.782 546.375 215.202 543.085 212.668C539.799 210.139 538.53 213.685 538.53 213.685Z"/><path fill="#fff" d="M552.382 147.918C552.382 147.918 540.3 150.178 530.674 164.364C521.048 178.549 514.716 189.097 516.489 194.21C518.262 199.322 534.427 217.054 537.213 217.054C539.999 217.054 544.496 215.029 544.748 210.47C544.748 210.47 533.369 193.412 535.609 190.858C536.568 189.766 550.385 178.549 552.357 183.616C555.622 191.998 552.382 147.918 552.382 147.918Z"/><path fill="#FCB095" d="M563.136 133.29C560.846 137.671 552.311 141.461 548.752 142.854C548.793 142.627 548.835 142.404 548.872 142.185C549.446 138.932 549.942 136.138 549.942 136.138L560.37 130.938C562.677 130.905 564.082 131.488 563.136 133.29Z"/><path fill="#FCB095" d="M546.584 136.378C546.584 136.378 562.021 141.193 564.873 131.533C567.725 121.874 571.635 115.988 561.902 112.504C552.164 109.02 549.155 112.14 547.419 115.133C545.683 118.125 542.641 134.873 546.584 136.378Z"/><path fill="#14161B" d="M548.022 114.199C548.022 114.199 549.006 125.441 551.333 124.953C553.655 124.466 555.767 124.102 555.424 127.491C555.086 130.88 551.862 134.795 559.025 135.394C566.187 135.993 576.487 117.518 574.52 114.017C568.845 103.924 539.813 101.886 548.022 114.199Z"/></svg>