<svg width="268" height="286" viewBox="0 0 268 286" fill="none" xmlns="http://www.w3.org/2000/svg">
<path d="M15.9626 176.276C15.2605 175.88 14.2992 176.03 13.7646 176.577C13.3488 177.002 12.8735 177.568 12.6683 178.106C12.2066 179.32 12.5873 181.114 13.2435 181.48C13.8996 181.847 15.7006 178.146 16.2704 177.116C16.4837 176.727 16.2893 176.46 15.9626 176.276Z" fill="#F48C7F"/>
<path d="M8.4653 15.1166L184.272 14.8009C188.956 14.7916 192.761 18.5776 192.77 23.255L193.191 256.835C193.2 261.512 189.409 265.312 184.725 265.322L8.91855 265.637C4.23498 265.647 0.430022 261.861 0.420725 257.183L1.70648e-05 23.6032C-0.00928034 18.9235 3.78173 15.1259 8.4653 15.1166Z" fill="#073484"/>
<path d="M182.753 21.5925L10.3555 21.9032L10.7788 257.109L183.176 256.798L182.753 21.5925Z" fill="white"/>
<path d="M133.978 11.2148C133.976 10.1816 133.116 9.3479 132.057 9.3479L59.5631 9.47478C58.5035 9.47704 57.6484 10.3153 57.6484 11.3484L57.6624 18.6958L133.99 18.5622L133.978 11.2148Z" fill="#86B1F2"/>
<path d="M95.7964 2.02104e-05C89.3435 0.0118951 84.121 5.25348 84.1328 11.7063C84.1447 18.1591 89.3863 23.3817 95.8391 23.3698C102.292 23.358 107.515 18.1164 107.503 11.6635C107.491 5.21073 102.249 -0.0118547 95.7964 2.02104e-05ZM95.832 19.1804C91.6924 19.1875 88.3318 15.8388 88.3247 11.6992C88.3175 7.55958 91.6663 4.19899 95.8059 4.19186C99.9455 4.18474 103.306 7.53346 103.313 11.673C103.318 15.8103 99.9692 19.1709 95.832 19.1804Z" fill="#86B1F2"/>
<path d="M132.802 9.3479C133.49 9.64766 133.976 10.3503 133.976 11.168L133.99 18.945L57.6484 19.0865C57.6577 24.4726 61.897 28.8323 67.1194 28.8228L124.554 28.7148C129.774 28.7053 133.999 24.3311 133.99 18.9426L133.976 11.1656C133.976 10.3479 133.49 9.64526 132.802 9.3479Z" fill="#9BC1F9"/>
<path d="M59.9854 9.3479C59.0103 9.35003 58.1514 9.65736 57.6484 10.1269C58.1548 9.65736 59.0137 9.3479 59.9854 9.3479Z" fill="#9BC1F9"/>
<path d="M162.806 89.0979C162.807 90.2024 161.914 91.0993 160.809 91.1014L140.704 91.1387C139.599 91.1408 138.702 90.2469 138.7 89.1422L138.664 68.2591C138.662 67.1547 139.555 66.2577 140.66 66.2556L160.765 66.2183C161.87 66.2163 162.767 67.1102 162.769 68.2148L162.806 89.0979ZM139.682 88.1245C139.683 89.2291 140.58 90.1231 141.685 90.1211L159.821 90.0883C160.925 90.0863 161.819 89.1893 161.817 88.0849L161.785 69.2349C161.783 68.1303 160.886 67.2363 159.782 67.2383L141.646 67.2711C140.541 67.2731 139.648 68.1701 139.65 69.2745L139.682 88.1245Z" fill="#184655"/>
<path d="M162.805 129.607C162.807 130.711 161.914 131.608 160.809 131.61L140.704 131.647C139.599 131.649 138.702 130.755 138.7 129.65L138.664 109.545C138.662 108.44 139.556 107.543 140.66 107.541L160.766 107.505C161.87 107.503 162.767 108.397 162.769 109.501L162.805 129.607ZM139.684 128.664C139.686 129.769 140.583 130.663 141.687 130.661L159.823 130.629C160.928 130.627 161.821 129.73 161.82 128.625L161.788 110.49C161.786 109.385 160.889 108.491 159.784 108.493L141.648 108.525C140.544 108.527 139.65 109.424 139.652 110.528L139.684 128.664Z" fill="#184655"/>
<path d="M162.806 170.892C162.807 171.997 161.914 172.894 160.809 172.896L140.704 172.933C139.599 172.935 138.702 172.041 138.7 170.937L138.664 150.054C138.662 148.949 139.555 148.052 140.66 148.05L160.765 148.013C161.87 148.011 162.767 148.905 162.769 150.009L162.806 170.892ZM139.682 169.919C139.683 171.024 140.58 171.918 141.685 171.916L159.821 171.883C160.925 171.881 161.819 170.984 161.817 169.879L161.785 151.029C161.783 149.925 160.886 149.031 159.782 149.033L141.646 149.066C140.541 149.068 139.648 149.964 139.65 151.069L139.682 169.919Z" fill="#184655"/>
<path d="M163.584 211.4C163.586 212.504 162.693 213.401 161.588 213.403L140.705 213.441C139.6 213.443 138.703 212.549 138.701 211.445L138.664 190.561C138.662 189.457 139.556 188.56 140.66 188.558L161.543 188.52C162.648 188.518 163.545 189.412 163.547 190.517L163.584 211.4ZM139.714 210.427C139.716 211.531 140.613 212.425 141.718 212.423L160.568 212.39C161.672 212.388 162.566 211.491 162.564 210.387L162.531 191.537C162.529 190.432 161.632 189.538 160.528 189.54L141.678 189.573C140.573 189.575 139.679 190.472 139.681 191.577L139.714 210.427Z" fill="#184655"/>
<path d="M128.166 67.0177L23.2812 67.2067L23.2876 70.7357L128.172 70.5467L128.166 67.0177Z" fill="#9BC1F9"/>
<path d="M128.186 77.0148L23.3008 77.2039L23.3071 80.7329L128.192 80.5439L128.186 77.0148Z" fill="#9BC1F9"/>
<path d="M128.205 87.0098L23.3203 87.1989L23.3267 90.7279L128.211 90.5388L128.205 87.0098Z" fill="#9BC1F9"/>
<path d="M128.24 109.218L23.3555 109.407L23.3618 112.936L128.247 112.747L128.24 109.218Z" fill="#9BC1F9"/>
<path d="M128.26 119.212L23.375 119.401L23.3814 122.931L128.266 122.741L128.26 119.212Z" fill="#9BC1F9"/>
<path d="M128.275 129.207L23.3906 129.396L23.397 132.926L128.282 132.736L128.275 129.207Z" fill="#9BC1F9"/>
<path d="M128.311 149.198L23.4258 149.387L23.4321 152.916L128.317 152.727L128.311 149.198Z" fill="#9BC1F9"/>
<path d="M128.33 159.195L23.4453 159.384L23.4517 162.913L128.336 162.724L128.33 159.195Z" fill="#9BC1F9"/>
<path d="M128.35 169.19L23.4648 169.379L23.4712 172.908L128.356 172.719L128.35 169.19Z" fill="#9BC1F9"/>
<path d="M128.389 189.181L23.5039 189.37L23.5103 192.899L128.395 192.71L128.389 189.181Z" fill="#9BC1F9"/>
<path d="M128.404 199.175L23.5195 199.365L23.5259 202.894L128.411 202.705L128.404 199.175Z" fill="#9BC1F9"/>
<path d="M128.42 209.17L23.5352 209.359L23.5415 212.889L128.426 212.699L128.42 209.17Z" fill="#9BC1F9"/>
<path d="M144.583 234.986L23.582 235.204L23.5884 238.733L144.59 238.515L144.583 234.986Z" fill="#9BC1F9"/>
<path d="M168.46 243.494L23.5977 243.755L23.604 247.284L168.467 247.023L168.46 243.494Z" fill="#9BC1F9"/>
<path d="M150.887 87.2474L143.332 73.8886L146.036 72.2651L150.422 80.0173L157.581 62.3196L160.47 63.561L150.887 87.2474Z" fill="#073484"/>
<path d="M150.887 128.534L143.332 115.175L146.036 113.552L150.422 121.306L157.581 103.606L160.47 104.848L150.887 128.534Z" fill="#073484"/>
<path d="M150.887 208.771L143.332 195.83L146.036 194.257L150.422 201.768L157.581 184.622L160.47 185.822L150.887 208.771Z" fill="#073484"/>
<path d="M159.669 154.163L157.45 151.904L151.12 158.236L144.765 151.925L142.555 154.194L148.88 160.477L142.576 166.783L144.795 169.042L151.127 162.71L157.48 169.021L159.693 166.752L153.365 160.469L159.669 154.163Z" fill="#F47458"/>
<path d="M176.479 122.29C176.479 122.29 174.858 118.782 174.593 118.254C174.328 117.725 172.779 116.888 170.938 116.423C169.151 115.971 166.718 115.07 166.44 115.242C166.163 115.416 165.836 115.441 165.507 116.212C165.176 116.986 165.321 117.819 165.321 117.819C165.321 117.819 164.466 118.58 164.722 119.595C164.722 119.595 163.951 120.347 164.429 121.455C164.429 121.455 163.695 122.209 164.113 122.985C164.113 122.985 165.549 123.801 165.993 124.255C166.438 124.71 169.541 126.201 172.735 127.174C172.735 127.176 176.064 127.073 176.479 122.29Z" fill="#FCB095"/>
<path d="M172.734 127.176C172.734 127.176 176.699 127.869 178.042 127.095C179.385 126.321 177.821 122.28 177.821 122.28L175.312 120.762L172.734 127.176Z" fill="#FCB095"/>
<path d="M171.263 120.59C171.263 120.59 171.324 122.53 171.616 123.066C171.909 123.602 167.961 124.437 167.961 124.437C167.961 124.437 168.906 120.727 171.263 120.59Z" fill="#E9A188"/>
<path d="M166.938 115.411C166.938 115.411 171.266 117.517 171.016 118.256C170.765 118.996 170.223 119.113 170.223 119.113L171.612 120.789C171.612 120.789 171.907 122.418 170.048 122.263C170.048 122.263 170.48 123.756 168.703 123.39C168.703 123.39 168.548 124.503 167.696 124.479C166.845 124.457 164.115 122.985 164.115 122.985C164.115 122.985 163.597 122.383 164.353 121.423C164.353 121.423 163.84 120.398 164.652 119.573C164.652 119.573 164.404 118.229 165.29 117.345C165.29 117.345 165.2 115.854 166.479 115.22C166.476 115.222 166.756 115.32 166.938 115.411Z" fill="#FCB095"/>
<path d="M174.466 118.175C174.466 118.175 171.164 118.246 169.377 119.077C168.972 119.263 168.616 119.521 168.638 119.966C168.66 120.413 169.332 120.946 170.766 120.99C172.198 121.032 174.029 121.745 174.029 121.745C174.029 121.745 175.514 121.354 174.466 118.175Z" fill="#F5AB90"/>
<path d="M165.325 117.355C165.325 117.355 170.237 119.037 170.574 119.448C170.91 119.858 171.546 118.052 171.234 117.723C170.922 117.394 167.075 115.34 166.651 115.227C166.226 115.114 164.802 116.114 165.325 117.355Z" fill="#F5AB90"/>
<path d="M167.567 115.433C167.567 115.433 159.871 113.856 159.713 114.795C159.556 115.733 160.303 115.89 166.61 117.733C172.742 119.521 167.567 115.433 167.567 115.433Z" fill="#FCB095"/>
<path d="M220.45 273.381C220.45 273.381 217.997 277.054 214.558 277.848C211.118 278.641 207.728 279.901 207.703 282.075C207.676 284.247 217.651 285.544 221.586 283.353C227.461 280.083 228.06 281.071 228.711 279.435C229.362 277.801 227.928 273.431 227.97 272.912C228.024 272.271 220.45 273.381 220.45 273.381Z" fill="#213759"/>
<path d="M220.833 271.571C220.833 271.571 220.386 273.345 220.452 273.382C220.518 273.418 228.205 274.335 227.972 272.912C227.783 271.758 227.515 270.502 227.515 270.502L220.833 271.571Z" fill="#81807E"/>
<path d="M246.324 273.138C246.324 273.138 244.574 276.651 241.586 277.848C238.392 279.128 235.829 280.597 235.888 282.712C235.947 284.829 243.7 286.974 249.339 282.911C252.901 280.344 254.031 280.331 254.603 278.715C255.175 277.098 253.611 272.898 253.63 272.391C253.657 271.765 246.324 273.138 246.324 273.138Z" fill="#213759"/>
<path d="M246.23 271.313C246.23 271.313 246.253 273.104 246.319 273.138C246.385 273.173 253.814 273.784 253.625 272.391C253.475 271.286 252.903 269.949 252.903 269.949L246.23 271.313Z" fill="#81807E"/>
<path d="M218.996 164.018C218.996 164.018 212.095 194.48 210.518 203.761C209.176 211.659 208.108 219.884 208.751 225.583C209.546 232.641 219.533 269.225 219.116 271.294C218.699 273.362 231.021 272.104 231.021 272.104C231.021 272.104 221.971 230.818 223.486 223.223C224.61 217.597 234.455 180.229 235.963 182.148C237.472 184.064 239.343 217.413 240.46 222.95C241.577 228.487 245.007 272.227 245.007 272.227C245.007 272.227 252.677 273.36 254.727 271.625C254.727 271.625 255.659 234.275 254.947 223.896C254.675 219.94 259.58 176.471 253.293 158.97C249.969 149.721 218.996 164.018 218.996 164.018Z" fill="#415485"/>
<path d="M173.922 128.677C173.922 128.677 197.832 133.981 202.589 132.812C204.789 132.271 207.686 129.232 210.438 125.661C211.347 124.484 212.235 123.251 213.082 122.027C213.085 122.025 213.085 122.022 213.085 122.022C216.463 117.143 219.109 112.466 219.109 112.466C219.109 112.466 229.092 100.758 221.081 95.5399C221.081 95.5399 218.174 94.4492 215.503 97.3136C212.832 100.178 209.697 106.167 208.997 107.695C208.297 109.221 198.492 123.373 197.984 123.693C197.476 124.012 193.192 122.882 189.754 122.597C184.152 122.128 175.758 119.946 175.758 119.946L173.922 128.677Z" fill="#DBDFF0"/>
<path d="M228.574 92.9285C228.574 92.9285 218.297 95.0559 217.077 96.1344C215.754 97.2841 213.419 108.548 213.279 111.685C213.139 114.822 214.519 127.928 215.842 132.809C217.166 137.691 216.923 161.728 216.088 168.492C216.088 168.492 236.782 174.373 257.127 171.722C257.127 171.722 253.716 146.431 254.529 139.744C255.572 131.176 258.082 111.437 258.082 111.437C258.082 111.437 256.28 97.687 254.468 96.1516C252.656 94.6186 240.174 92.9236 240.174 92.9236H228.574V92.9285Z" fill="#BAD7FD"/>
<path d="M232.824 61.1298C232.824 61.1298 220.463 56.5532 221.234 72.9904C222.007 89.4301 224.904 91.1006 233.035 88.8036C241.169 86.5067 241.849 76.1324 242.907 71.1406C243.968 66.1536 236.868 61.8472 232.824 61.1298Z" fill="#FCB095"/>
<path d="M226.959 95.154C226.959 95.154 229.502 96.8368 239.148 92.5844C239.148 92.5844 238.876 85.9662 240.768 79.7854C242.661 73.6046 227.823 88.0273 227.823 88.0273C227.978 88.1379 228.007 88.7545 227.919 89.6168C227.843 90.3464 227.683 91.2529 227.442 92.1717C226.902 94.2377 226.959 93.3508 226.959 95.154Z" fill="#FCB095"/>
<path d="M241.188 79.2966C241.188 79.2966 241.222 74.9042 239.398 74.5013C237.574 74.0959 237.333 72.6367 237.333 72.6367L236.288 72.8799C236.288 72.8799 236.479 72.1061 234.738 71.0866C232.998 70.0671 222.591 70.9638 221.285 69.4652C219.979 67.9667 221.872 59.0688 224.712 58.1943C227.553 57.3197 234.149 57.4008 240.174 59.0959C240.174 59.0959 244.75 60.2505 245.096 65.6403C245.32 69.1287 242.673 76.9161 241.188 79.2966Z" fill="#14161B"/>
<path d="M227.445 92.1718C237.027 90.5603 238.459 85.1066 238.481 85.0231C234.756 89.8307 227.922 89.6194 227.922 89.6194C227.845 90.349 227.686 91.2531 227.445 92.1718Z" fill="#E0A089"/>
<path d="M227.872 97.3135C227.872 97.3135 226.126 99.8905 225.073 106.501C224.02 113.112 224.199 124.503 224.199 124.503L226.625 124.798C226.625 124.798 230.297 101.568 229.666 97.5198L227.872 97.3135Z" fill="#263A5A"/>
<path d="M237.336 72.6366C237.881 71.1872 240.965 71.3715 240.651 73.666C240.334 75.9629 237.788 79.5004 236.764 78.8371C235.738 78.1739 236.583 74.6339 237.336 72.6366Z" fill="#FCB095"/>
<path d="M216.95 96.1244C216.95 96.1244 211.112 103.855 213.274 124.081C217.183 160.63 206.945 219.302 206.945 219.302L217.507 222.608C217.507 222.608 227.6 147.605 225.029 120.383C223.858 107.98 220.382 103.853 225.866 93.5179C225.866 93.5204 220.524 93.7906 216.95 96.1244Z" fill="#DBDFF0"/>
<path d="M243.018 93.3511C243.018 93.3511 226.301 110.248 224.993 123.056C223.684 135.865 221.551 222.611 221.551 222.611L261.347 220.292C261.347 220.292 257.689 174.5 256.795 168.772C255.904 163.043 254.056 130.154 258.084 114.891C260.247 106.69 257.674 96.2892 252.73 95.1542C247.788 94.0193 243.018 93.3511 243.018 93.3511Z" fill="#DBDFF0"/>
<path d="M248.667 95.5399C248.667 95.5399 242.23 97.3136 245.77 109.137C248.544 118.399 248.92 120.386 248.92 120.386L263.775 116.674C263.775 116.674 259.42 96.3309 252.31 95.2378C252.31 95.2378 250.047 94.9159 248.667 95.5399Z" fill="#DBDFF0"/>
<path d="M239.148 90.7567C239.148 90.7567 234.106 93.8005 229.117 94.4859L231.771 98.7235L240.18 92.9308L239.148 90.7567Z" fill="#D0DEE9"/>
<path d="M227.447 92.1716C227.447 92.1716 227.978 93.9158 229.117 94.4858L226.625 97.9643L226.716 93.3508L227.447 92.1716Z" fill="#D0DEE9"/>
<path d="M229.114 94.4858L227.141 97.2397C227.141 97.2397 228.39 98.8218 231.081 97.6229L229.114 94.4858Z" fill="#263A5A"/>
<path d="M210.44 125.658C211.349 124.484 212.237 123.251 213.084 122.027C213.087 122.025 213.087 122.022 213.087 122.022C213.087 122.022 212.768 113.11 213.048 110.55C213.048 110.55 210.136 120.15 210.44 125.658Z" fill="#A7AAB8"/>
<path d="M251.461 119.752C251.461 119.752 253.403 132.391 253.265 133.202C253.13 134.01 262.052 130.662 251.461 119.752Z" fill="#A7AAB8"/>
<path d="M216.402 122.396H221.094V115.23H216.402V122.396Z" fill="#C6CAD9"/>
<path d="M237.255 149.59C237.255 149.59 236.826 150.44 236.111 150.728C234.879 151.224 232.908 150.438 232.146 152.202C231.383 153.965 236.3 158.11 237.533 158.326C238.765 158.542 240.511 156.523 241.648 152.631C242.787 148.738 237.255 149.59 237.255 149.59Z" fill="#FCB095"/>
<path d="M232.491 151.646C232.491 151.646 230.375 153.54 228.283 155.945C226.446 158.058 224.681 160.893 224.998 161.429C225.7 162.618 227.406 159.962 229.37 157.997C231.177 156.186 230.878 156.503 230.878 156.503C230.878 156.503 230.88 156.311 229.304 158.682C227.608 161.232 226.13 164.03 226.532 164.652C226.726 164.954 227.517 165.693 227.895 164.475C227.556 165.045 227.497 164.905 227.723 165.079C228.897 165.973 231.978 162.637 233.203 161.313C232.27 162.338 231.695 163.195 232.754 163.281C233.964 163.379 238.106 158.456 239.76 156.842C241.562 155.081 232.491 151.646 232.491 151.646Z" fill="#FCB095"/>
<path d="M247.895 96.3309C246.547 96.8541 246.036 99.2469 246.591 106.184C247.144 113.122 249.586 116.313 250.497 117.917C251.408 119.521 256.416 129.414 255.515 130.714C254.614 132.016 246.112 140.407 245.621 141.09C245.13 141.773 235.637 150.372 235.637 150.372L240.468 157.13C240.468 157.13 260.965 141.11 262.564 139.511C264.162 137.912 268.942 134.551 267.174 128.965C265.377 123.285 262.149 109.992 261.574 108.951C261.002 107.911 256.804 92.8793 247.895 96.3309Z" fill="#D7DBEC"/>
<path d="M49.3687 45.741C49.3687 46.5789 49.0661 47.239 48.4609 47.7214C47.86 48.2039 47.0221 48.4451 45.9473 48.4451C44.957 48.4451 44.0811 48.2589 43.3193 47.8865V46.0583C43.9456 46.3376 44.4746 46.5344 44.9062 46.6487C45.3421 46.7629 45.7399 46.8201 46.0996 46.8201C46.5312 46.8201 46.8613 46.7375 47.0898 46.5725C47.3226 46.4075 47.439 46.162 47.439 45.8362C47.439 45.6542 47.3882 45.4934 47.2866 45.3538C47.1851 45.2099 47.0348 45.0723 46.8359 44.9412C46.6413 44.81 46.2414 44.6005 45.6362 44.3127C45.0692 44.0461 44.6439 43.7901 44.3604 43.5447C44.0768 43.2992 43.8504 43.0136 43.6812 42.6877C43.5119 42.3619 43.4272 41.981 43.4272 41.5452C43.4272 40.7242 43.7044 40.0789 44.2588 39.6091C44.8174 39.1394 45.5876 38.9045 46.5693 38.9045C47.0518 38.9045 47.5109 38.9617 47.9468 39.0759C48.3869 39.1902 48.846 39.351 49.3242 39.5583L48.6895 41.0881C48.1943 40.885 47.7839 40.7432 47.458 40.6628C47.1364 40.5824 46.819 40.5422 46.5059 40.5422C46.1335 40.5422 45.8478 40.629 45.6489 40.8025C45.45 40.976 45.3506 41.2024 45.3506 41.4817C45.3506 41.6552 45.3908 41.8075 45.4712 41.9387C45.5516 42.0657 45.6785 42.1905 45.8521 42.3132C46.0298 42.4317 46.4466 42.6475 47.1025 42.9607C47.9701 43.3754 48.5646 43.7922 48.8862 44.2112C49.2078 44.6259 49.3687 45.1358 49.3687 45.741ZM57.2524 48.3181H55.3164V44.1731C55.3164 43.6611 55.2297 43.2781 55.0562 43.0242C54.8869 42.766 54.6182 42.637 54.25 42.637C53.7549 42.637 53.3952 42.8189 53.1709 43.1829C52.9466 43.5468 52.8345 44.1456 52.8345 44.9792V48.3181H50.8984V41.2214H52.3774L52.6377 42.1292H52.7456C52.936 41.8033 53.2111 41.5494 53.5708 41.3674C53.9305 41.1812 54.3431 41.0881 54.8086 41.0881C55.8708 41.0881 56.5902 41.4351 56.9668 42.1292H57.1382C57.3286 41.7991 57.6079 41.5431 57.9761 41.3611C58.3485 41.1791 58.7674 41.0881 59.2329 41.0881C60.0369 41.0881 60.6442 41.2955 61.0547 41.7102C61.4694 42.1207 61.6768 42.7808 61.6768 43.6907V48.3181H59.7344V44.1731C59.7344 43.6611 59.6476 43.2781 59.4741 43.0242C59.3049 42.766 59.0361 42.637 58.668 42.637C58.194 42.637 57.8385 42.8062 57.6016 43.1448C57.3688 43.4833 57.2524 44.0208 57.2524 44.7571V48.3181ZM68.1768 48.3181L67.8022 47.3533H67.7515C67.4256 47.7638 67.0892 48.0494 66.7422 48.2102C66.3994 48.3668 65.9508 48.4451 65.3965 48.4451C64.7152 48.4451 64.1777 48.2504 63.7842 47.8611C63.3949 47.4718 63.2002 46.9174 63.2002 46.198C63.2002 45.4447 63.4626 44.8904 63.9873 44.5349C64.5163 44.1752 65.3118 43.9763 66.374 43.9382L67.6055 43.9001V43.5891C67.6055 42.8697 67.2373 42.51 66.501 42.51C65.9339 42.51 65.2674 42.6814 64.5015 43.0242L63.8604 41.7166C64.6771 41.2891 65.5827 41.0754 66.5771 41.0754C67.5293 41.0754 68.2593 41.2828 68.7671 41.6975C69.2749 42.1122 69.5288 42.7428 69.5288 43.5891V48.3181H68.1768ZM67.6055 45.03L66.8564 45.0554C66.2936 45.0723 65.8747 45.1739 65.5996 45.3601C65.3245 45.5463 65.187 45.8298 65.187 46.2107C65.187 46.7566 65.5002 47.0295 66.1265 47.0295C66.575 47.0295 66.9326 46.9005 67.1992 46.6423C67.4701 46.3842 67.6055 46.0414 67.6055 45.614V45.03ZM75.4893 41.0881C75.7516 41.0881 75.9696 41.1072 76.1431 41.1453L75.9971 42.9607C75.8405 42.9184 75.6501 42.8972 75.4258 42.8972C74.8079 42.8972 74.3255 43.0559 73.9785 43.3733C73.6357 43.6907 73.4644 44.135 73.4644 44.7063V48.3181H71.5283V41.2214H72.9946L73.2803 42.4148H73.3755C73.5955 42.017 73.8918 41.6975 74.2642 41.4563C74.6408 41.2109 75.0492 41.0881 75.4893 41.0881ZM80.4214 46.9026C80.7599 46.9026 81.1662 46.8285 81.6401 46.6804V48.1213C81.1577 48.3372 80.5653 48.4451 79.8628 48.4451C79.0884 48.4451 78.5234 48.2504 78.168 47.8611C77.8167 47.4675 77.6411 46.8793 77.6411 46.0964V42.675H76.7144V41.8562L77.7808 41.2087L78.3394 39.7107H79.5771V41.2214H81.564V42.675H79.5771V46.0964C79.5771 46.3715 79.6533 46.5746 79.8057 46.7058C79.9622 46.837 80.1675 46.9026 80.4214 46.9026ZM88.5781 43.1575H89.2129C89.835 43.1575 90.2941 43.0538 90.5903 42.8464C90.8866 42.6391 91.0347 42.3132 91.0347 41.8689C91.0347 41.4288 90.8823 41.1156 90.5776 40.9294C90.2772 40.7432 89.8096 40.6501 89.1748 40.6501H88.5781V43.1575ZM88.5781 44.7571V48.3181H86.6104V39.0378H89.3145C90.5755 39.0378 91.5086 39.2685 92.1138 39.7297C92.7189 40.1868 93.0215 40.8829 93.0215 41.8181C93.0215 42.364 92.8713 42.8507 92.5708 43.2781C92.2703 43.7013 91.8451 44.0334 91.2949 44.2747C92.6914 46.3609 93.6012 47.7087 94.0244 48.3181H91.8408L89.6255 44.7571H88.5781ZM97.979 42.4656C97.5685 42.4656 97.2469 42.5968 97.0142 42.8591C96.7814 43.1173 96.6481 43.4854 96.6143 43.9636H99.3311C99.3226 43.4854 99.1978 43.1173 98.9565 42.8591C98.7153 42.5968 98.3895 42.4656 97.979 42.4656ZM98.252 48.4451C97.1094 48.4451 96.2165 48.1298 95.5732 47.4993C94.93 46.8687 94.6084 45.9758 94.6084 44.8206C94.6084 43.6314 94.9046 42.7131 95.4971 42.0657C96.0938 41.414 96.9168 41.0881 97.9663 41.0881C98.9692 41.0881 99.75 41.3738 100.309 41.9451C100.867 42.5164 101.146 43.3056 101.146 44.3127V45.2522H96.5698C96.591 45.8023 96.7539 46.2319 97.0586 46.5408C97.3633 46.8497 97.7907 47.0042 98.3408 47.0042C98.7682 47.0042 99.1724 46.9597 99.5532 46.8708C99.9341 46.782 100.332 46.6402 100.747 46.4456V47.9436C100.408 48.1129 100.046 48.2377 99.6611 48.3181C99.276 48.4028 98.8063 48.4451 98.252 48.4451ZM106.618 48.4451C105.785 48.4451 105.131 48.1425 104.657 47.5374H104.555C104.623 48.1298 104.657 48.4726 104.657 48.5657V51.4412H102.721V41.2214H104.295L104.568 42.1418H104.657C105.11 41.4394 105.78 41.0881 106.669 41.0881C107.507 41.0881 108.163 41.4119 108.637 42.0593C109.111 42.7068 109.348 43.606 109.348 44.7571C109.348 45.5146 109.236 46.1726 109.011 46.7312C108.791 47.2898 108.476 47.7151 108.065 48.0071C107.655 48.2991 107.173 48.4451 106.618 48.4451ZM106.047 42.637C105.569 42.637 105.22 42.7851 105 43.0813C104.779 43.3733 104.665 43.8578 104.657 44.5349V44.7444C104.657 45.5061 104.769 46.052 104.993 46.3821C105.222 46.7122 105.581 46.8772 106.072 46.8772C106.94 46.8772 107.374 46.162 107.374 44.7317C107.374 44.0334 107.266 43.5108 107.05 43.1638C106.838 42.8126 106.504 42.637 106.047 42.637ZM112.49 44.7571C112.49 45.4596 112.604 45.9906 112.833 46.3503C113.065 46.71 113.442 46.8899 113.962 46.8899C114.479 46.8899 114.849 46.7122 115.073 46.3567C115.302 45.997 115.416 45.4638 115.416 44.7571C115.416 44.0546 115.302 43.5278 115.073 43.1765C114.845 42.8253 114.47 42.6497 113.95 42.6497C113.433 42.6497 113.061 42.8253 112.833 43.1765C112.604 43.5235 112.49 44.0504 112.49 44.7571ZM117.396 44.7571C117.396 45.9124 117.092 46.8158 116.482 47.4675C115.873 48.1192 115.025 48.4451 113.937 48.4451C113.256 48.4451 112.655 48.297 112.134 48.0007C111.614 47.7003 111.214 47.2708 110.935 46.7122C110.655 46.1536 110.516 45.5019 110.516 44.7571C110.516 43.5976 110.818 42.6962 111.423 42.053C112.028 41.4097 112.879 41.0881 113.975 41.0881C114.656 41.0881 115.257 41.2362 115.778 41.5325C116.298 41.8287 116.698 42.254 116.978 42.8083C117.257 43.3627 117.396 44.0123 117.396 44.7571ZM122.957 41.0881C123.219 41.0881 123.437 41.1072 123.611 41.1453L123.465 42.9607C123.308 42.9184 123.118 42.8972 122.894 42.8972C122.276 42.8972 121.793 43.0559 121.446 43.3733C121.104 43.6907 120.932 44.135 120.932 44.7063V48.3181H118.996V41.2214H120.462L120.748 42.4148H120.843C121.063 42.017 121.36 41.6975 121.732 41.4563C122.109 41.2109 122.517 41.0881 122.957 41.0881ZM127.889 46.9026C128.228 46.9026 128.634 46.8285 129.108 46.6804V48.1213C128.625 48.3372 128.033 48.4451 127.331 48.4451C126.556 48.4451 125.991 48.2504 125.636 47.8611C125.285 47.4675 125.109 46.8793 125.109 46.0964V42.675H124.182V41.8562L125.249 41.2087L125.807 39.7107H127.045V41.2214H129.032V42.675H127.045V46.0964C127.045 46.3715 127.121 46.5746 127.273 46.7058C127.43 46.837 127.635 46.9026 127.889 46.9026Z" fill="#073484"/>
</svg>
