<svg xmlns="http://www.w3.org/2000/svg" width="430" height="430" fill="none" viewBox="0 0 430 430"><path fill="#F48C7F" d="M116.61 250.339C115.911 249.978 114.955 250.115 114.422 250.614C114.009 251.002 113.536 251.519 113.331 252.009C112.872 253.118 113.251 254.755 113.904 255.09C114.557 255.424 116.349 252.046 116.916 251.106C117.129 250.751 116.935 250.507 116.61 250.339Z"/><path fill="#073484" d="M109.147 103.235L284.113 102.947C288.774 102.939 292.561 106.394 292.57 110.664L292.989 323.872C292.998 328.142 289.225 331.61 284.564 331.619L109.599 331.907C104.937 331.915 101.151 328.46 101.141 324.19L100.723 110.982C100.713 106.71 104.486 103.244 109.147 103.235Z"/><path fill="#fff" d="M282.248 109.518L110.676 109.802L111.097 324.495L282.669 324.211L282.248 109.518Z"/><path fill="#86B1F2" d="M234.062 99.6737C234.06 98.7306 233.204 97.9696 232.15 97.9696L160.003 98.0854C158.949 98.0875 158.098 98.8527 158.098 99.7957L158.112 106.502L234.074 106.38L234.062 99.6737Z"/><path fill="#86B1F2" d="M196.061 89.437C189.639 89.4479 184.441 94.2323 184.453 100.122C184.465 106.012 189.681 110.78 196.103 110.769C202.525 110.758 207.723 105.973 207.711 100.083C207.699 94.1933 202.483 89.4262 196.061 89.437ZM196.096 106.945C191.977 106.951 188.632 103.894 188.625 100.116C188.618 96.3373 191.951 93.2698 196.07 93.2633C200.19 93.2568 203.535 96.3134 203.542 100.092C203.546 103.868 200.214 106.936 196.096 106.945Z"/><path fill="#9BC1F9" d="M232.892 97.9696C233.576 98.2432 234.06 98.8846 234.06 99.631L234.074 106.73L158.098 106.859C158.107 111.775 162.326 115.755 167.523 115.746L224.683 115.647C229.878 115.639 234.083 111.646 234.074 106.728L234.06 99.6288C234.06 98.8824 233.576 98.241 232.892 97.9696Z"/><path fill="#9BC1F9" d="M160.423 97.9696C159.453 97.9716 158.598 98.2521 158.098 98.6807C158.602 98.2521 159.456 97.9696 160.423 97.9696Z"/><path fill="#184655" d="M262.748 170.589C262.75 171.694 261.856 172.591 260.752 172.593L240.762 172.627C239.657 172.629 238.76 171.735 238.758 170.631L238.723 151.918C238.72 150.813 239.614 149.916 240.719 149.914L260.709 149.88C261.814 149.878 262.711 150.772 262.713 151.876L262.748 170.589ZM239.735 169.702C239.737 170.806 240.634 171.7 241.738 171.698L259.768 171.668C260.873 171.667 261.767 170.769 261.765 169.665L261.734 152.808C261.732 151.703 260.835 150.809 259.73 150.811L241.7 150.841C240.596 150.843 239.702 151.74 239.704 152.845L239.735 169.702Z"/><path fill="#184655" d="M262.748 207.565C262.75 208.67 261.856 209.567 260.751 209.569L240.761 209.602C239.657 209.604 238.76 208.71 238.758 207.606L238.723 189.603C238.721 188.498 239.615 187.601 240.719 187.599L260.709 187.566C261.814 187.564 262.711 188.458 262.713 189.562L262.748 207.565ZM239.737 206.706C239.739 207.81 240.636 208.704 241.74 208.702L259.77 208.673C260.875 208.672 261.769 207.774 261.767 206.669L261.736 190.464C261.734 189.36 260.837 188.466 259.733 188.468L241.703 188.497C240.598 188.499 239.704 189.396 239.706 190.501L239.737 206.706Z"/><path fill="#184655" d="M262.748 245.25C262.75 246.355 261.856 247.252 260.752 247.254L240.762 247.288C239.657 247.29 238.76 246.396 238.758 245.292L238.723 226.579C238.72 225.474 239.614 224.577 240.719 224.575L260.709 224.541C261.814 224.539 262.711 225.433 262.713 226.537L262.748 245.25ZM239.735 244.363C239.737 245.467 240.634 246.361 241.738 246.359L259.768 246.329C260.873 246.327 261.767 245.43 261.765 244.325L261.734 227.468C261.732 226.364 260.835 225.47 259.73 225.472L241.7 225.502C240.596 225.504 239.702 226.401 239.704 227.506L239.735 244.363Z"/><path fill="#184655" d="M263.523 282.225C263.526 283.33 262.631 284.227 261.527 284.229L240.763 284.263C239.658 284.265 238.762 283.371 238.759 282.267L238.723 263.554C238.721 262.449 239.615 261.552 240.719 261.55L261.483 261.516C262.588 261.514 263.484 262.408 263.487 263.512L263.523 282.225ZM239.768 281.338C239.77 282.442 240.667 283.336 241.771 283.334L260.511 283.304C261.616 283.302 262.51 282.405 262.508 281.3L262.476 264.443C262.474 263.339 261.577 262.445 260.473 262.447L241.732 262.477C240.627 262.479 239.733 263.376 239.735 264.481L239.768 281.338Z"/><path fill="#9BC1F9" d="M228.273 150.61L123.891 150.782L123.897 154.004L228.28 153.831L228.273 150.61Z"/><path fill="#9BC1F9" d="M228.297 159.735L123.914 159.908L123.92 163.129L228.303 162.956L228.297 159.735Z"/><path fill="#9BC1F9" d="M228.312 168.858L123.93 169.031L123.936 172.252L228.319 172.08L228.312 168.858Z"/><path fill="#9BC1F9" d="M228.348 189.129L123.965 189.302L123.971 192.523L228.354 192.351L228.348 189.129Z"/><path fill="#9BC1F9" d="M228.367 198.252L123.984 198.425L123.991 201.646L228.373 201.474L228.367 198.252Z"/><path fill="#9BC1F9" d="M228.387 207.376L124.004 207.548L124.01 210.77L228.393 210.597L228.387 207.376Z"/><path fill="#9BC1F9" d="M228.422 225.623L124.039 225.795L124.045 229.017L228.428 228.844L228.422 225.623Z"/><path fill="#9BC1F9" d="M228.437 234.748L124.055 234.921L124.061 238.142L228.444 237.969L228.437 234.748Z"/><path fill="#9BC1F9" d="M228.457 243.871L124.074 244.044L124.081 247.265L228.463 247.093L228.457 243.871Z"/><path fill="#9BC1F9" d="M228.496 262.118L124.113 262.291L124.12 265.512L228.502 265.34L228.496 262.118Z"/><path fill="#9BC1F9" d="M228.512 271.242L124.129 271.414L124.135 274.635L228.518 274.463L228.512 271.242Z"/><path fill="#9BC1F9" d="M228.527 280.365L124.145 280.537L124.151 283.759L228.534 283.586L228.527 280.365Z"/><path fill="#9BC1F9" d="M244.613 303.929L124.191 304.128L124.198 307.349L244.62 307.15L244.613 303.929Z"/><path fill="#9BC1F9" d="M268.38 311.695L124.211 311.933L124.217 315.154L268.387 314.916L268.38 311.695Z"/><path fill="#073484" d="M250.886 169.075L243.367 156.881L246.059 155.4L250.423 162.476L257.548 146.321L260.423 147.455L250.886 169.075Z"/><path fill="#073484" d="M250.886 206.761L243.367 194.568L246.059 193.086L250.423 200.164L257.548 184.007L260.423 185.141L250.886 206.761Z"/><path fill="#073484" d="M250.886 280L243.367 268.188L246.059 266.753L250.423 273.608L257.548 257.957L260.423 259.053L250.886 280Z"/><path fill="#F47458" d="M259.63 230.155L257.421 228.093L251.122 233.873L244.797 228.112L242.598 230.183L248.892 235.918L242.619 241.674L244.827 243.736L251.129 237.956L257.452 243.717L259.654 241.646L253.357 235.911L259.63 230.155Z"/><path fill="#FCB095" d="M276.357 201.062C276.357 201.062 274.744 197.86 274.48 197.377C274.216 196.895 272.674 196.131 270.842 195.707C269.063 195.294 266.642 194.471 266.366 194.628C266.09 194.787 265.765 194.81 265.437 195.514C265.108 196.22 265.252 196.981 265.252 196.981C265.252 196.981 264.401 197.676 264.656 198.602C264.656 198.602 263.888 199.288 264.365 200.299C264.365 200.299 263.634 200.988 264.05 201.696C264.05 201.696 265.479 202.441 265.921 202.856C266.363 203.27 269.452 204.631 272.63 205.519C272.63 205.522 275.944 205.428 276.357 201.062Z"/><path fill="#FCB095" d="M272.633 205.522C272.633 205.522 276.579 206.154 277.915 205.448C279.252 204.741 277.695 201.053 277.695 201.053L275.198 199.667L272.633 205.522Z"/><path fill="#E9A188" d="M271.169 199.51C271.169 199.51 271.23 201.281 271.521 201.77C271.812 202.259 267.883 203.021 267.883 203.021C267.883 203.021 268.823 199.635 271.169 199.51Z"/><path fill="#FCB095" d="M266.865 194.783C266.865 194.783 271.172 196.705 270.923 197.38C270.674 198.055 270.134 198.162 270.134 198.162L271.517 199.691C271.517 199.691 271.81 201.178 269.961 201.037C269.961 201.037 270.391 202.4 268.622 202.066C268.622 202.066 268.468 203.082 267.62 203.06C266.772 203.039 264.055 201.696 264.055 201.696C264.055 201.696 263.54 201.147 264.292 200.27C264.292 200.27 263.781 199.335 264.59 198.582C264.59 198.582 264.343 197.355 265.225 196.548C265.225 196.548 265.135 195.187 266.408 194.608C266.406 194.61 266.684 194.7 266.865 194.783Z"/><path fill="#F5AB90" d="M274.36 197.306C274.36 197.306 271.074 197.371 269.295 198.129C268.892 198.299 268.538 198.534 268.56 198.94C268.582 199.348 269.251 199.835 270.678 199.875C272.102 199.914 273.925 200.564 273.925 200.564C273.925 200.564 275.403 200.207 274.36 197.306Z"/><path fill="#F5AB90" d="M265.258 196.557C265.258 196.557 270.147 198.093 270.482 198.467C270.816 198.842 271.449 197.194 271.139 196.893C270.829 196.593 267 194.718 266.577 194.615C266.155 194.512 264.737 195.424 265.258 196.557Z"/><path fill="#FCB095" d="M267.49 194.803C267.49 194.803 259.831 193.363 259.674 194.22C259.518 195.077 260.261 195.22 266.538 196.902C272.641 198.534 267.49 194.803 267.49 194.803Z"/><path fill="#213759" d="M320.119 338.976C320.119 338.976 317.678 342.328 314.255 343.052C310.832 343.777 307.458 344.927 307.434 346.912C307.407 348.894 317.334 350.078 321.25 348.078C327.097 345.093 327.693 345.994 328.341 344.501C328.988 343.01 327.562 339.021 327.603 338.548C327.657 337.962 320.119 338.976 320.119 338.976Z"/><path fill="#81807E" d="M320.499 337.323C320.499 337.323 320.054 338.942 320.12 338.976C320.186 339.01 327.836 339.846 327.604 338.548C327.416 337.494 327.149 336.348 327.149 336.348L320.499 337.323Z"/><path fill="#213759" d="M345.868 338.754C345.868 338.754 344.126 341.961 341.152 343.053C337.974 344.221 335.423 345.562 335.481 347.492C335.54 349.425 343.256 351.383 348.868 347.674C352.413 345.331 353.537 345.32 354.107 343.844C354.676 342.369 353.12 338.534 353.139 338.072C353.166 337.5 345.868 338.754 345.868 338.754Z"/><path fill="#81807E" d="M345.777 337.088C345.777 337.088 345.799 338.722 345.865 338.754C345.931 338.785 353.325 339.344 353.137 338.072C352.987 337.063 352.418 335.843 352.418 335.843L345.777 337.088Z"/><path fill="#415485" d="M318.672 239.151C318.672 239.151 311.804 266.956 310.236 275.428C308.899 282.637 307.836 290.144 308.476 295.346C309.268 301.789 319.207 335.182 318.792 337.07C318.377 338.958 330.64 337.81 330.64 337.81C330.64 337.81 321.634 300.125 323.141 293.192C324.26 288.057 334.058 253.948 335.558 255.699C337.061 257.448 338.922 287.888 340.034 292.943C341.146 297.997 344.559 337.922 344.559 337.922C344.559 337.922 352.192 338.956 354.232 337.373C354.232 337.373 355.161 303.28 354.452 293.806C354.181 290.196 359.062 250.517 352.805 234.542C349.497 226.1 318.672 239.151 318.672 239.151Z"/><path fill="#DBDFF0" d="M273.816 206.892C273.816 206.892 297.612 211.733 302.347 210.666C304.536 210.172 307.419 207.399 310.158 204.138C311.062 203.064 311.946 201.938 312.789 200.822C312.792 200.82 312.792 200.817 312.792 200.817C316.154 196.364 318.788 192.094 318.788 192.094C318.788 192.094 328.722 181.407 320.75 176.645C320.75 176.645 317.857 175.649 315.198 178.264C312.54 180.878 309.42 186.345 308.724 187.74C308.027 189.132 298.269 202.051 297.763 202.342C297.257 202.634 292.994 201.602 289.573 201.342C283.998 200.914 275.644 198.922 275.644 198.922L273.816 206.892Z"/><path fill="#BAD7FD" d="M328.204 174.261C328.204 174.261 317.977 176.203 316.762 177.187C315.445 178.237 313.122 188.518 312.982 191.381C312.843 194.245 314.216 206.208 315.533 210.663C316.85 215.119 316.608 237.061 315.778 243.234C315.778 243.234 336.372 248.602 356.62 246.182C356.62 246.182 353.226 223.097 354.035 216.994C355.073 209.172 357.57 191.155 357.57 191.155C357.57 191.155 355.777 178.604 353.974 177.203C352.17 175.804 339.749 174.256 339.749 174.256H328.204V174.261Z"/><path fill="#FCB095" d="M332.436 145.236C332.436 145.236 320.134 141.058 320.902 156.062C321.671 171.068 324.554 172.592 332.647 170.496C340.741 168.399 341.418 158.93 342.471 154.373C343.527 149.821 336.461 145.89 332.436 145.236Z"/><path fill="#FCB095" d="M326.599 176.292C326.599 176.292 329.131 177.828 338.73 173.947C338.73 173.947 338.459 167.906 340.343 162.264C342.227 156.622 327.459 169.787 327.459 169.787C327.613 169.888 327.643 170.451 327.555 171.238C327.479 171.904 327.32 172.731 327.081 173.57C326.543 175.456 326.599 174.646 326.599 176.292Z"/><path fill="#14161B" d="M340.759 161.818C340.759 161.818 340.793 157.809 338.977 157.441C337.162 157.071 336.923 155.739 336.923 155.739L335.882 155.961C335.882 155.961 336.072 155.254 334.34 154.324C332.608 153.393 322.251 154.212 320.951 152.844C319.651 151.476 321.535 143.354 324.362 142.556C327.188 141.758 333.754 141.832 339.749 143.379C339.749 143.379 344.304 144.433 344.648 149.353C344.871 152.537 342.237 159.645 340.759 161.818Z"/><path fill="#E0A089" d="M327.082 173.57C336.618 172.099 338.043 167.121 338.065 167.045C334.358 171.433 327.556 171.24 327.556 171.24C327.48 171.906 327.321 172.732 327.082 173.57Z"/><path fill="#263A5A" d="M327.506 178.263C327.506 178.263 325.769 180.616 324.721 186.65C323.673 192.684 323.851 203.082 323.851 203.082L326.265 203.351C326.265 203.351 329.92 182.147 329.293 178.452L327.506 178.263Z"/><path fill="#FCB095" d="M336.925 155.739C337.468 154.416 340.536 154.584 340.224 156.678C339.908 158.775 337.375 162.004 336.356 161.398C335.335 160.793 336.175 157.562 336.925 155.739Z"/><path fill="#DBDFF0" d="M316.636 177.178C316.636 177.178 310.826 184.235 312.979 202.696C316.868 236.058 306.68 289.613 306.68 289.613L317.191 292.631C317.191 292.631 327.235 224.169 324.677 199.321C323.512 188 320.052 184.233 325.51 174.799C325.51 174.801 320.194 175.048 316.636 177.178Z"/><path fill="#DBDFF0" d="M342.579 174.647C342.579 174.647 325.943 190.07 324.64 201.761C323.338 213.453 321.215 292.633 321.215 292.633L360.821 290.516C360.821 290.516 357.18 248.719 356.291 243.489C355.404 238.26 353.564 208.239 357.574 194.308C359.726 186.823 357.165 177.328 352.245 176.293C347.326 175.257 342.579 174.647 342.579 174.647Z"/><path fill="#DBDFF0" d="M348.203 176.645C348.203 176.645 341.796 178.264 345.32 189.056C348.081 197.51 348.454 199.324 348.454 199.324L363.239 195.936C363.239 195.936 358.904 177.367 351.829 176.369C351.829 176.369 349.576 176.075 348.203 176.645Z"/><path fill="#D0DEE9" d="M338.729 172.279C338.729 172.279 333.711 175.057 328.746 175.682L331.387 179.551L339.756 174.263L338.729 172.279Z"/><path fill="#D0DEE9" d="M327.084 173.57C327.084 173.57 327.612 175.162 328.746 175.682L326.266 178.858L326.356 174.646L327.084 173.57Z"/><path fill="#263A5A" d="M328.742 175.682L326.777 178.196C326.777 178.196 328.021 179.64 330.699 178.546L328.742 175.682Z"/><path fill="#A7AAB8" d="M310.155 204.136C311.059 203.064 311.944 201.938 312.786 200.822C312.789 200.819 312.789 200.817 312.789 200.817C312.789 200.817 312.471 192.682 312.75 190.345C312.75 190.345 309.852 199.109 310.155 204.136Z"/><path fill="#A7AAB8" d="M350.98 198.745C350.98 198.745 352.913 210.282 352.776 211.022C352.642 211.76 361.521 208.704 350.98 198.745Z"/><path fill="#C6CAD9" d="M316.089 201.159H320.758V194.618H316.089V201.159Z"/><path fill="#FCB095" d="M336.844 225.981C336.844 225.981 336.416 226.757 335.705 227.019C334.479 227.472 332.517 226.754 331.759 228.364C331 229.974 335.893 233.757 337.12 233.955C338.346 234.152 340.084 232.309 341.215 228.757C342.349 225.203 336.844 225.981 336.844 225.981Z"/><path fill="#FCB095" d="M332.103 227.858C332.103 227.858 329.997 229.587 327.915 231.782C326.088 233.71 324.331 236.298 324.646 236.787C325.345 237.872 327.043 235.448 328.998 233.654C330.796 232.002 330.498 232.291 330.498 232.291C330.498 232.291 330.5 232.116 328.932 234.28C327.243 236.608 325.773 239.162 326.173 239.729C326.366 240.005 327.153 240.68 327.529 239.567C327.192 240.088 327.134 239.96 327.358 240.119C328.526 240.935 331.593 237.89 332.812 236.682C331.883 237.617 331.312 238.399 332.365 238.478C333.569 238.567 337.691 234.074 339.338 232.6C341.131 230.993 332.103 227.858 332.103 227.858Z"/><path fill="#D7DBEC" d="M347.43 177.367C346.088 177.844 345.58 180.028 346.132 186.361C346.682 192.693 349.113 195.606 350.02 197.07C350.926 198.534 355.911 207.564 355.014 208.751C354.117 209.939 345.656 217.599 345.167 218.222C344.679 218.846 335.23 226.694 335.23 226.694L340.039 232.863C340.039 232.863 360.438 218.24 362.029 216.781C363.619 215.321 368.376 212.253 366.617 207.154C364.829 201.97 361.616 189.836 361.044 188.886C360.475 187.937 356.297 174.216 347.43 177.367Z"/><path fill="#073484" d="M149.888 132.185C149.888 133.023 149.586 133.683 148.98 134.165C148.38 134.648 147.542 134.889 146.467 134.889C145.477 134.889 144.601 134.703 143.839 134.33V132.502C144.465 132.782 144.994 132.978 145.426 133.093C145.862 133.207 146.259 133.264 146.619 133.264C147.051 133.264 147.381 133.182 147.609 133.016C147.842 132.851 147.958 132.606 147.958 132.28C147.958 132.098 147.908 131.937 147.806 131.798C147.705 131.654 147.554 131.516 147.355 131.385C147.161 131.254 146.761 131.044 146.156 130.757C145.589 130.49 145.163 130.234 144.88 129.989C144.596 129.743 144.37 129.458 144.201 129.132C144.031 128.806 143.947 128.425 143.947 127.989C143.947 127.168 144.224 126.523 144.778 126.053C145.337 125.583 146.107 125.349 147.089 125.349C147.571 125.349 148.03 125.406 148.466 125.52C148.906 125.634 149.366 125.795 149.844 126.002L149.209 127.532C148.714 127.329 148.303 127.187 147.978 127.107C147.656 127.026 147.339 126.986 147.025 126.986C146.653 126.986 146.367 127.073 146.168 127.246C145.97 127.42 145.87 127.646 145.87 127.926C145.87 128.099 145.91 128.252 145.991 128.383C146.071 128.51 146.198 128.634 146.372 128.757C146.549 128.876 146.966 129.092 147.622 129.405C148.49 129.819 149.084 130.236 149.406 130.655C149.727 131.07 149.888 131.58 149.888 132.185ZM157.772 134.762H155.836V130.617C155.836 130.105 155.749 129.722 155.576 129.468C155.406 129.21 155.138 129.081 154.77 129.081C154.274 129.081 153.915 129.263 153.69 129.627C153.466 129.991 153.354 130.59 153.354 131.423V134.762H151.418V127.665H152.897L153.157 128.573H153.265C153.456 128.247 153.731 127.993 154.09 127.811C154.45 127.625 154.863 127.532 155.328 127.532C156.39 127.532 157.11 127.879 157.486 128.573H157.658C157.848 128.243 158.127 127.987 158.496 127.805C158.868 127.623 159.287 127.532 159.752 127.532C160.556 127.532 161.164 127.739 161.574 128.154C161.989 128.565 162.196 129.225 162.196 130.135V134.762H160.254V130.617C160.254 130.105 160.167 129.722 159.994 129.468C159.824 129.21 159.556 129.081 159.188 129.081C158.714 129.081 158.358 129.25 158.121 129.589C157.888 129.927 157.772 130.465 157.772 131.201V134.762ZM168.696 134.762L168.322 133.797H168.271C167.945 134.208 167.609 134.493 167.262 134.654C166.919 134.811 166.47 134.889 165.916 134.889C165.235 134.889 164.697 134.694 164.304 134.305C163.914 133.916 163.72 133.361 163.72 132.642C163.72 131.889 163.982 131.334 164.507 130.979C165.036 130.619 165.831 130.42 166.894 130.382L168.125 130.344V130.033C168.125 129.314 167.757 128.954 167.021 128.954C166.453 128.954 165.787 129.125 165.021 129.468L164.38 128.161C165.197 127.733 166.102 127.519 167.097 127.519C168.049 127.519 168.779 127.727 169.287 128.141C169.794 128.556 170.048 129.187 170.048 130.033V134.762H168.696ZM168.125 131.474L167.376 131.499C166.813 131.516 166.394 131.618 166.119 131.804C165.844 131.99 165.707 132.274 165.707 132.655C165.707 133.201 166.02 133.474 166.646 133.474C167.095 133.474 167.452 133.344 167.719 133.086C167.99 132.828 168.125 132.485 168.125 132.058V131.474ZM176.009 127.532C176.271 127.532 176.489 127.551 176.663 127.589L176.517 129.405C176.36 129.362 176.17 129.341 175.945 129.341C175.327 129.341 174.845 129.5 174.498 129.817C174.155 130.135 173.984 130.579 173.984 131.15V134.762H172.048V127.665H173.514L173.8 128.859H173.895C174.115 128.461 174.411 128.141 174.784 127.9C175.16 127.655 175.569 127.532 176.009 127.532ZM180.941 133.347C181.279 133.347 181.686 133.273 182.16 133.124V134.565C181.677 134.781 181.085 134.889 180.382 134.889C179.608 134.889 179.043 134.694 178.688 134.305C178.336 133.911 178.161 133.323 178.161 132.54V129.119H177.234V128.3L178.3 127.653L178.859 126.155H180.097V127.665H182.083V129.119H180.097V132.54C180.097 132.815 180.173 133.019 180.325 133.15C180.482 133.281 180.687 133.347 180.941 133.347ZM189.098 129.601H189.732C190.354 129.601 190.814 129.498 191.11 129.29C191.406 129.083 191.554 128.757 191.554 128.313C191.554 127.873 191.402 127.56 191.097 127.373C190.797 127.187 190.329 127.094 189.694 127.094H189.098V129.601ZM189.098 131.201V134.762H187.13V125.482H189.834C191.095 125.482 192.028 125.712 192.633 126.174C193.238 126.631 193.541 127.327 193.541 128.262C193.541 128.808 193.391 129.295 193.09 129.722C192.79 130.145 192.365 130.477 191.814 130.719C193.211 132.805 194.121 134.153 194.544 134.762H192.36L190.145 131.201H189.098ZM198.499 128.91C198.088 128.91 197.766 129.041 197.534 129.303C197.301 129.561 197.168 129.929 197.134 130.408H199.851C199.842 129.929 199.717 129.561 199.476 129.303C199.235 129.041 198.909 128.91 198.499 128.91ZM198.771 134.889C197.629 134.889 196.736 134.574 196.093 133.943C195.45 133.313 195.128 132.42 195.128 131.265C195.128 130.075 195.424 129.157 196.017 128.51C196.613 127.858 197.436 127.532 198.486 127.532C199.489 127.532 200.27 127.818 200.828 128.389C201.387 128.96 201.666 129.75 201.666 130.757V131.696H197.089C197.111 132.246 197.273 132.676 197.578 132.985C197.883 133.294 198.31 133.448 198.86 133.448C199.288 133.448 199.692 133.404 200.073 133.315C200.454 133.226 200.851 133.084 201.266 132.89V134.388C200.928 134.557 200.566 134.682 200.181 134.762C199.796 134.847 199.326 134.889 198.771 134.889ZM207.138 134.889C206.304 134.889 205.65 134.586 205.176 133.981H205.075C205.142 134.574 205.176 134.917 205.176 135.01V137.885H203.24V127.665H204.814L205.087 128.586H205.176C205.629 127.883 206.3 127.532 207.188 127.532C208.026 127.532 208.682 127.856 209.156 128.503C209.63 129.151 209.867 130.05 209.867 131.201C209.867 131.959 209.755 132.617 209.531 133.175C209.311 133.734 208.995 134.159 208.585 134.451C208.174 134.743 207.692 134.889 207.138 134.889ZM206.566 129.081C206.088 129.081 205.739 129.229 205.519 129.525C205.299 129.817 205.185 130.302 205.176 130.979V131.188C205.176 131.95 205.288 132.496 205.513 132.826C205.741 133.156 206.101 133.321 206.592 133.321C207.459 133.321 207.893 132.606 207.893 131.176C207.893 130.477 207.785 129.955 207.569 129.608C207.358 129.257 207.023 129.081 206.566 129.081ZM213.009 131.201C213.009 131.904 213.124 132.435 213.352 132.794C213.585 133.154 213.961 133.334 214.482 133.334C214.998 133.334 215.368 133.156 215.593 132.801C215.821 132.441 215.936 131.908 215.936 131.201C215.936 130.499 215.821 129.972 215.593 129.62C215.364 129.269 214.99 129.094 214.469 129.094C213.953 129.094 213.581 129.269 213.352 129.62C213.124 129.967 213.009 130.494 213.009 131.201ZM217.916 131.201C217.916 132.356 217.611 133.26 217.002 133.911C216.393 134.563 215.544 134.889 214.457 134.889C213.775 134.889 213.174 134.741 212.654 134.445C212.133 134.144 211.733 133.715 211.454 133.156C211.175 132.598 211.035 131.946 211.035 131.201C211.035 130.042 211.338 129.14 211.943 128.497C212.548 127.854 213.399 127.532 214.495 127.532C215.176 127.532 215.777 127.68 216.297 127.976C216.818 128.273 217.218 128.698 217.497 129.252C217.776 129.807 217.916 130.456 217.916 131.201ZM223.477 127.532C223.739 127.532 223.957 127.551 224.13 127.589L223.984 129.405C223.828 129.362 223.637 129.341 223.413 129.341C222.795 129.341 222.313 129.5 221.966 129.817C221.623 130.135 221.452 130.579 221.452 131.15V134.762H219.516V127.665H220.982L221.268 128.859H221.363C221.583 128.461 221.879 128.141 222.251 127.9C222.628 127.655 223.036 127.532 223.477 127.532ZM228.409 133.347C228.747 133.347 229.153 133.273 229.627 133.124V134.565C229.145 134.781 228.553 134.889 227.85 134.889C227.076 134.889 226.511 134.694 226.155 134.305C225.804 133.911 225.628 133.323 225.628 132.54V129.119H224.702V128.3L225.768 127.653L226.327 126.155H227.564V127.665H229.551V129.119H227.564V132.54C227.564 132.815 227.641 133.019 227.793 133.15C227.95 133.281 228.155 133.347 228.409 133.347Z"/><defs><filter id="filter0_d" width="430" height="430" x="0" y="0" color-interpolation-filters="sRGB" filterUnits="userSpaceOnUse"><feFlood flood-opacity="0" result="BackgroundImageFix"/><feColorMatrix in="SourceAlpha" result="hardAlpha" type="matrix" values="0 0 0 0 0 0 0 0 0 0 0 0 0 0 0 0 0 0 127 0"/><feOffset dy="2"/><feGaussianBlur stdDeviation="7.5"/><feComposite in2="hardAlpha" operator="out"/><feColorMatrix type="matrix" values="0 0 0 0 0 0 0 0 0 0 0 0 0 0 0 0 0 0 0.11 0"/><feBlend in2="BackgroundImageFix" mode="normal" result="effect1_dropShadow"/><feBlend in="SourceGraphic" in2="effect1_dropShadow" mode="normal" result="shape"/></filter></defs></svg>