<svg xmlns="http://www.w3.org/2000/svg" width="430" height="430" fill="none" viewBox="0 0 430 430"><g filter="url(#filter0_d)"><circle cx="215" cy="213" r="200" fill="#fff" fill-opacity="0"/></g><path fill="#DFF3FC" d="M202.896 113.232C197.592 134.541 217.295 155.635 238.063 164.38C258.824 173.133 282.633 172.09 304.882 167.917C314.478 166.119 324.348 163.588 331.798 157.47C339.256 151.351 343.577 140.726 339.493 132.144C335.89 124.575 327.108 120.698 318.74 118.707C310.371 116.717 301.478 115.903 294.028 111.715C286.954 107.742 281.938 101.165 275.789 95.956C264.425 86.3449 248.466 81.5801 233.69 84.621C218.915 87.6619 207.41 95.1199 202.896 113.232Z"/><path fill="#2842A2" d="M285.083 129.014C285.083 137.116 281.295 144.337 275.405 148.998C271.07 152.439 265.587 154.481 259.609 154.481C253.653 154.481 248.163 152.439 243.812 148.998C237.916 144.33 234.135 137.108 234.135 129.014C234.135 114.949 245.536 103.54 259.609 103.54C273.681 103.54 285.083 114.949 285.083 129.014Z"/><path fill="#fff" d="M260.637 128.912C265.208 128.348 268.456 124.185 267.892 119.615C267.328 115.044 263.165 111.796 258.594 112.36C254.024 112.924 250.776 117.087 251.34 121.658C251.904 126.228 256.067 129.476 260.637 128.912Z"/><path fill="#fff" d="M275.405 145.787C271.07 149.228 265.587 151.27 259.609 151.27C253.653 151.27 248.163 149.228 243.812 145.787C245.44 138.618 246.942 132.432 248.503 130.864C250.708 128.659 256.561 127.379 259.602 127.379C262.642 127.379 268.776 128.94 269.908 130.072C272.217 132.373 274.207 138.729 275.405 145.787Z"/><path fill="#0097D8" d="M223.008 191.8V179.222C223.008 175.789 225.79 173.007 229.223 173.007H268.851C272.284 173.007 275.066 175.789 275.066 179.222V191.8C275.066 195.233 272.284 198.015 268.851 198.015H229.23C225.797 198.023 223.008 195.233 223.008 191.8Z"/><path fill="#0097D8" d="M239.744 191.142L220.566 209.824L251.649 194.116"/><path fill="#fff" d="M227.816 178.912V178.845C227.816 178.334 228.231 177.92 228.741 177.92H248.333C248.844 177.92 249.258 178.334 249.258 178.845V178.912C249.258 179.422 248.844 179.836 248.333 179.836H228.741C228.231 179.836 227.816 179.422 227.816 178.912Z"/><path fill="#fff" d="M250.139 178.911V178.845C250.139 178.334 250.553 177.92 251.064 177.92H268.162C268.673 177.92 269.087 178.334 269.087 178.845V178.911C269.087 179.422 268.673 179.836 268.162 179.836H251.064C250.553 179.836 250.139 179.422 250.139 178.911Z"/><path fill="#fff" d="M242.674 183.121V183.055C242.674 182.544 243.088 182.13 243.599 182.13H268.163C268.673 182.13 269.088 182.544 269.088 183.055V183.121C269.088 183.632 268.673 184.046 268.163 184.046H243.599C243.088 184.046 242.674 183.632 242.674 183.121Z"/><path fill="#fff" d="M227.816 183.121V183.055C227.816 182.544 228.231 182.13 228.741 182.13H239.714C240.224 182.13 240.639 182.544 240.639 183.055V183.121C240.639 183.632 240.224 184.046 239.714 184.046H228.741C228.231 184.046 227.816 183.632 227.816 183.121Z"/><path fill="#fff" d="M246.084 187.331V187.265C246.084 186.754 246.498 186.34 247.009 186.34H268.162C268.673 186.34 269.087 186.754 269.087 187.265V187.331C269.087 187.842 268.673 188.256 268.162 188.256H247.009C246.498 188.256 246.084 187.842 246.084 187.331Z"/><path fill="#fff" d="M227.816 187.331V187.265C227.816 186.754 228.231 186.34 228.741 186.34H243.354C243.864 186.34 244.279 186.754 244.279 187.265V187.331C244.279 187.842 243.864 188.256 243.354 188.256H228.741C228.231 188.256 227.816 187.842 227.816 187.331Z"/><path fill="#fff" d="M227.816 191.541V191.475C227.816 190.964 228.231 190.55 228.741 190.55H234.165C234.675 190.55 235.089 190.964 235.089 191.475V191.541C235.089 192.052 234.675 192.466 234.165 192.466H228.741C228.231 192.466 227.816 192.052 227.816 191.541Z"/><path fill="#fff" d="M237.006 191.541V191.475C237.006 190.964 237.42 190.55 237.931 190.55H268.162C268.673 190.55 269.087 190.964 269.087 191.475V191.541C269.087 192.052 268.673 192.466 268.162 192.466H237.931C237.42 192.466 237.006 192.052 237.006 191.541Z"/><path fill="#2842A2" d="M182.034 122.226C187.314 110.018 181.698 95.8415 169.491 90.5611C157.284 85.2807 143.107 90.8961 137.827 103.104C132.546 115.311 138.162 129.488 150.369 134.768C162.577 140.048 176.753 134.433 182.034 122.226Z"/><path fill="#fff" d="M160.74 92.1383H159.135V112.367H160.74V92.1383Z"/><path fill="#fff" d="M142.166 124.044L143.08 125.365L159.937 113.697L159.023 112.377L142.166 124.044Z"/><path fill="#fff" d="M162.152 112.663C162.152 113.883 161.161 114.882 159.933 114.882C158.712 114.882 157.713 113.891 157.713 112.663C157.713 111.442 158.704 110.443 159.933 110.443C161.161 110.443 162.152 111.442 162.152 112.663Z"/><path stroke="#6F8BBF" stroke-linecap="round" stroke-miterlimit="10" d="M259.305 286.52C244.922 295.517 229.406 302.161 213.41 306.156"/><path fill="#A2C7EB" d="M117.796 276.746C114.933 259.447 120.852 241.121 133.341 228.594C134.776 246.485 129.301 264.715 117.796 276.746Z"/><path stroke="#6F8BBF" stroke-linecap="round" stroke-miterlimit="10" d="M130.595 235.616C129.13 250.266 124.602 264.582 117.373 277.478"/><path fill="#FFB989" d="M203.63 279.135C203.63 279.135 205.25 293.985 207.063 295.176C210.303 297.314 247.815 302.257 247.815 302.257L246.587 312.016C246.587 312.016 195.21 316.633 193.027 314.065C189.239 309.611 182.58 288.125 182.58 288.125L203.63 279.135Z"/><path fill="#2842A2" d="M178.857 240.906L183.008 230.94C183.008 230.94 194.269 236.23 197.983 242.763C201.956 249.748 206.818 286.882 206.818 286.882C206.818 286.882 186.937 291.462 183.282 289.516C179.627 287.57 178.857 240.906 178.857 240.906Z"/><path fill="#14161B" d="M147.242 194.649C144.335 193.583 141.257 192.651 138.142 192.888C135.027 193.124 131.845 194.774 130.787 197.512C130.033 199.45 130.38 201.737 129.189 203.483C128.05 205.155 125.786 205.85 123.67 205.991C121.546 206.139 119.408 205.858 117.299 206.132C110.788 206.997 106.142 214.07 108.28 219.864C109.131 222.172 110.877 224.377 110.478 226.782C110.056 229.356 107.355 231.051 106.246 233.441C104.773 236.622 106.534 240.477 109.442 242.645C112.35 244.805 116.13 245.626 119.8 246.174C124.854 246.929 130.07 247.284 135.064 246.218C140.058 245.153 144.83 242.519 147.412 238.405C148.559 236.585 149.255 234.528 150.587 232.819C153.339 229.29 158.215 227.921 162.055 225.42C166.25 222.675 169.328 217.333 166.857 213.153C164.474 209.135 158.274 208.24 155.788 204.282C154.759 202.647 154.515 200.701 153.849 198.918C153.169 197.127 151.541 196.225 147.242 194.649Z"/><path fill="#FFB27D" d="M164.185 243.932C164.917 244.776 165.783 245.7 166.982 245.782C168.247 245.871 169.305 244.975 170.119 244.11C174.321 239.663 177.096 234.203 178.22 228.572C177.177 227.98 176.171 227.411 175.261 226.878C174.417 226.375 173.781 225.672 173.419 224.851C173.167 224.244 173.078 223.608 173.145 222.942C173.737 217.378 174.262 214.278 176.215 208.632C166.937 206.539 158.184 204.053 153.153 199.85C152.539 202.44 151.814 207.508 150.268 212.532C148.618 217.851 146.043 223.112 141.678 225.376C150.246 230.437 157.889 236.726 164.185 243.932Z"/><path fill="#FFB27D" d="M173.145 222.949C173.078 223.615 173.167 224.259 173.418 224.858C167.929 231.517 155.654 222.816 150.268 212.539C151.814 207.515 152.539 202.447 153.153 199.857C158.177 204.06 166.937 206.553 176.215 208.64C174.262 214.285 173.737 217.378 173.145 222.949Z"/><path fill="#2842A2" d="M188.431 303.448C187.217 311.483 195.889 320.132 196.103 324.424C177.688 324.424 139.11 325.548 119.467 322.877C118.571 317.92 128.271 306.77 128.271 295.761C128.271 294.303 128.212 292.705 128.094 290.988C127.783 286.076 127.058 280.231 126.251 274.238C124.061 258.16 121.146 240.965 123.299 237.399C127.516 230.451 137.379 225.731 142.27 223.704C143.949 223.008 145.044 222.631 145.126 222.587C151.259 233.048 163.741 241.971 168.454 241.572C169.764 241.468 173.648 240.114 176.215 227.189C177.214 227.758 178.213 228.284 179.205 228.794C184.08 231.332 188.653 233.426 189.97 236.689C193.447 245.279 196.858 266.935 196.103 274.637C195.341 282.406 192.219 288.34 190.029 296.138C189.518 297.966 189.052 299.904 188.675 301.99C188.579 302.457 188.505 302.945 188.431 303.448Z"/><path fill="#2842A2" d="M196.103 324.424C177.688 324.424 139.11 325.548 119.467 322.877C118.571 317.92 128.271 306.77 128.271 295.761C128.271 294.303 128.212 292.705 128.094 290.988C127.783 286.076 127.058 280.231 126.251 274.237C129.736 277.915 134.819 262.377 137.068 266.927C149.239 291.491 158.836 297.951 175.513 297.951C180.485 297.951 185.072 297.263 190.029 296.138C189.518 297.965 189.052 299.904 188.675 301.99C188.586 302.464 188.505 302.952 188.431 303.455C187.217 311.476 195.889 320.125 196.103 324.424Z"/><path fill="#DFF3FC" d="M179.204 228.794C178.413 234.543 176.067 242.289 169.246 244.332C160.027 247.091 146.687 229.867 142.27 223.704C143.949 223.008 145.044 222.631 145.125 222.586C151.259 233.048 163.741 241.971 168.454 241.572C169.763 241.468 173.648 240.114 176.215 227.188C177.214 227.751 178.213 228.276 179.204 228.794Z"/><path fill="#325F73" d="M182.994 315.775L182.928 322.189L297.609 322.87L297.846 315.597L182.994 315.775Z"/><path fill="#325F73" d="M347.314 258.545L344.762 255.955L261.229 255.408L219.322 316.011L221.512 317.772L347.314 258.545Z"/><path fill="#0B2D50" d="M262.841 257.65L221.512 317.772L300.457 318.164L347.314 258.545L262.841 257.65Z"/><path fill="#3C738C" d="M282.789 296.027C287.864 296.027 291.978 293.97 291.978 291.432C291.978 288.895 287.864 286.838 282.789 286.838C277.714 286.838 273.6 288.895 273.6 291.432C273.6 293.97 277.714 296.027 282.789 296.027Z"/><path fill="#56C4F9" d="M201.379 201.407C202.681 194.421 200.001 188.062 195.393 187.204C190.786 186.345 185.995 191.312 184.693 198.298C183.391 205.284 186.071 211.643 190.679 212.502C195.287 213.36 200.077 208.393 201.379 201.407Z"/><path fill="#0B2D50" d="M201.386 179.481C200.528 185.563 197.812 192.266 193.854 199.673C192.463 193.606 191.575 186.214 190.347 178.823C189.097 171.417 187.506 164.01 184.746 157.958C184.125 156.619 183.451 155.339 182.719 154.155C184.354 154 186.011 154.155 187.587 154.592C190.051 155.25 192.359 156.523 194.246 158.225C197.383 161.014 199.484 164.817 200.735 168.827C201.763 172.156 201.948 175.693 201.386 179.481Z"/><path fill="#FFB27D" d="M196.74 185.77C196.696 186.969 196.614 188.19 196.503 189.403C194.816 209.084 186.552 222.587 173.907 222.587C156.054 222.587 144.482 202.566 144.482 182.951C144.482 163.603 156.335 149.597 170.208 151.218C178.206 152.135 184.051 154.791 188.202 158.683C190.947 161.273 192.93 164.402 194.284 167.961C195.83 171.949 196.577 176.463 196.733 181.324C196.733 181.338 196.748 181.353 196.748 181.368C196.807 182.803 196.792 184.268 196.74 185.77Z"/><path fill="#FFB27D" d="M196.74 185.77C196.208 183.869 195.416 182.012 194.336 180.347C183.807 185.852 171.259 187.975 159.362 185.963C157.097 187.849 154.885 189.707 152.658 191.564C152.703 182.611 152.828 176.551 156.321 172.216C159.598 168.146 165.066 166.615 170.245 165.949C176.075 165.187 182.002 165.217 187.817 166.06C190.044 166.371 192.353 166.852 194.291 167.976C195.838 171.964 196.585 176.477 196.74 181.338C196.74 181.353 196.755 181.368 196.755 181.383C196.807 182.803 196.792 184.268 196.74 185.77Z"/><path fill="#14161B" d="M199.315 173.651C196.865 175.723 193.795 177.439 190.347 178.83C180.536 182.789 167.788 184.098 157.852 183.617C152.968 194.346 150.993 198.193 149.743 207.552C144.97 203.076 141.086 194.878 139.932 188.434C138.792 182.012 138.903 175.271 140.694 168.96C143.513 159.009 150.623 153.682 155.551 151.092C156.779 150.419 157.889 149.953 158.747 149.612C165.043 147.178 172.139 147.4 178.598 149.376C182.12 150.471 185.087 152.32 187.58 154.599C192.619 159.149 195.733 165.313 197.746 169.929C198.382 171.343 198.893 172.623 199.315 173.651Z"/><path fill="#14161B" d="M201.387 179.481C200.98 177.328 200.374 175.242 199.515 173.229C199.034 172.09 198.442 170.987 197.754 169.922C195.513 166.4 192.25 163.5 188.306 162.22C187.181 160.644 185.998 159.223 184.755 157.966C180.278 153.415 175.025 150.811 169.461 149.901C164.83 149.154 160.013 149.575 155.566 151.085C156.795 150.411 157.904 149.945 158.763 149.605C165.059 147.171 172.155 147.393 178.614 149.368C182.136 150.463 185.102 152.313 187.596 154.592C190.06 155.25 192.368 156.523 194.255 158.225C197.392 161.014 199.493 164.817 200.743 168.827C201.765 172.156 201.949 175.693 201.387 179.481Z"/><path fill="#3D86E0" d="M149.787 188.153C149.787 188.153 149.632 178.926 153.472 169.759C158.289 158.254 168.107 153.334 177.629 153.001C189.105 152.594 196.289 160.296 196.289 160.296C196.289 160.296 192.552 153.704 185.183 151.81C180.344 150.567 173.042 150.367 167.182 152.749C161.145 155.198 153.62 161.998 150.897 169.182C148.182 176.366 146.857 187.553 146.857 187.553L149.787 188.153Z"/><path fill="#56C4F9" d="M149.594 212.174C154.508 211.663 157.864 205.213 157.09 197.767C156.316 190.322 151.705 184.7 146.791 185.211C141.878 185.722 138.522 192.171 139.296 199.617C140.07 207.063 144.681 212.684 149.594 212.174Z"/><path fill="#3D86E0" d="M147.333 209.785C150.505 209.309 152.397 204.398 151.558 198.818C150.72 193.237 147.468 189.1 144.296 189.576C141.124 190.053 139.233 194.963 140.071 200.544C140.91 206.124 144.161 210.262 147.333 209.785Z"/><path fill="#3A92C9" d="M177.702 222.86C180.334 222.86 182.467 221.532 182.467 219.893C182.467 218.255 180.334 216.926 177.702 216.926C175.071 216.926 172.938 218.255 172.938 219.893C172.938 221.532 175.071 222.86 177.702 222.86Z"/><path stroke="#3A92C9" stroke-linecap="round" stroke-miterlimit="10" stroke-width="2" d="M153.768 209.972C153.768 209.972 160.767 218.969 172.938 219.893"/><path fill="#FFB27D" d="M182.927 298.646L182.469 310.477C182.469 310.477 139.681 323.299 132.615 319.245C129.168 317.262 125.949 306.356 123.545 295.709C121.029 284.522 119.416 273.631 119.416 273.631L144.498 268.718C144.498 268.718 144.513 284.011 145.364 292.853C145.667 296.146 146.103 298.543 146.688 298.935C148.9 300.392 182.927 298.646 182.927 298.646Z"/><path fill="#DFF3FC" d="M145.364 292.838C140.806 294.318 132.009 296.604 123.545 295.702C121.029 284.515 119.416 273.624 119.416 273.624L144.498 268.711C144.498 268.704 144.513 283.997 145.364 292.838Z"/><path fill="#FFB27D" d="M181.706 298.765C188.069 297.404 198.841 294.133 203.31 293.009C206.484 292.21 214.749 296.486 216.931 300.518C217.886 302.279 218.788 312.253 215.481 311.224C213.824 310.707 214.098 306.43 213.58 304.684C213.158 303.263 211.811 301.887 209.762 300.703C211.131 304.114 211.079 307.089 210.931 310.773C210.901 311.587 210.85 312.438 210.457 313.141C210.058 313.844 209.2 314.347 208.46 314.036C207.705 313.725 207.446 312.786 207.276 311.964C206.691 309.123 206.1 306.282 205.863 303.071C205.922 306.23 205.855 309.397 205.656 312.549C205.508 314.961 204.309 316.285 202.837 315.864C202.178 315.679 201.912 315.072 201.631 314.273C201.187 315.819 200.077 317.528 198.642 316.877C197.768 316.485 197.228 313.333 197.384 310.092C194.631 311.802 191.524 312.527 187.943 312.689C184.732 312.837 181.447 312.238 179.516 310.055C179.708 306.645 180.833 301.599 181.706 298.765Z"/><path stroke="#FFA160" stroke-linecap="round" stroke-miterlimit="10" d="M201.698 313.784C201.912 311.224 201.69 308.627 201.039 306.156"/><path fill="#2842A2" d="M141.68 243.903C139.859 238.775 133.193 228.284 133.193 228.284C133.193 228.284 123.02 232.516 119.409 239.7C113.298 251.864 116.405 286.786 116.405 286.786C124.64 290.234 141.169 290.286 148.205 289.294C148.205 289.294 145.327 254.15 141.68 243.903Z"/><path fill="#DFF3FC" d="M142.975 246.048C145.749 259.329 147.236 271.715 147.71 283.849L142.975 246.048Z"/><path fill="#0B2D50" d="M360.72 320.761H69V328.079H360.72V320.761Z"/><defs><filter id="filter0_d" width="430" height="430" x="0" y="0" color-interpolation-filters="sRGB" filterUnits="userSpaceOnUse"><feFlood flood-opacity="0" result="BackgroundImageFix"/><feColorMatrix in="SourceAlpha" result="hardAlpha" type="matrix" values="0 0 0 0 0 0 0 0 0 0 0 0 0 0 0 0 0 0 127 0"/><feOffset dy="2"/><feGaussianBlur stdDeviation="7.5"/><feComposite in2="hardAlpha" operator="out"/><feColorMatrix type="matrix" values="0 0 0 0 0 0 0 0 0 0 0 0 0 0 0 0 0 0 0.11 0"/><feBlend in2="BackgroundImageFix" mode="normal" result="effect1_dropShadow"/><feBlend in="SourceGraphic" in2="effect1_dropShadow" mode="normal" result="shape"/></filter></defs></svg>