<svg width="292" height="248" viewBox="0 0 292 248" fill="none" xmlns="http://www.w3.org/2000/svg">
<path d="M17.4034 152.71C16.638 152.368 15.5899 152.498 15.007 152.971C14.5536 153.34 14.0354 153.83 13.8117 154.296C13.3083 155.348 13.7234 156.902 14.4388 157.219C15.1542 157.537 17.1178 154.331 17.739 153.439C17.9716 153.102 17.7596 152.87 17.4034 152.71Z" fill="#F48C7F"/>
<path d="M9.22974 13.0958L200.912 12.8223C206.019 12.8142 210.168 16.0941 210.178 20.1462L210.636 222.5C210.646 226.552 206.513 229.844 201.407 229.852L9.72392 230.126C4.61741 230.134 0.468854 226.854 0.458717 222.802L1.86058e-05 20.4478C-0.0101184 16.3937 4.12324 13.1038 9.22974 13.0958Z" fill="#073484"/>
<path d="M198.867 19.0589L10.9023 19.3281L11.364 223.091L199.329 222.821L198.867 19.0589Z" fill="white"/>
<path d="M146.078 9.71557C146.076 8.82056 145.138 8.09827 143.983 8.09827L64.9431 8.20818C63.7878 8.21014 62.8555 8.93636 62.8555 9.83137L62.8707 16.1965L146.091 16.0807L146.078 9.71557Z" fill="#86B1F2"/>
<path d="M104.447 1.75086e-05C97.4117 0.0103049 91.7175 4.55117 91.7305 10.1414C91.7434 15.7315 97.4583 20.2559 104.494 20.2457C111.529 20.2354 117.224 15.6945 117.211 10.1043C117.198 4.51414 111.483 -0.0102699 104.447 1.75086e-05ZM104.486 16.6163C99.9727 16.6224 96.3086 13.7214 96.3009 10.1352C96.2931 6.54899 99.9442 3.63765 104.458 3.63148C108.971 3.6253 112.635 6.52636 112.643 10.1125C112.648 13.6967 108.997 16.608 104.486 16.6163Z" fill="#86B1F2"/>
<path d="M144.796 8.09827C145.546 8.35795 146.076 8.96666 146.076 9.67509L146.091 16.4124L62.8555 16.535C62.8656 21.2011 67.4877 24.978 73.1816 24.9696L135.803 24.8762C141.494 24.8679 146.101 21.0785 146.091 16.4103L146.076 9.67301C146.076 8.96458 145.546 8.35588 144.796 8.09827Z" fill="#9BC1F9"/>
<path d="M65.4035 8.09827C64.3403 8.10012 63.4039 8.36636 62.8555 8.77312C63.4076 8.36636 64.344 8.09827 65.4035 8.09827Z" fill="#9BC1F9"/>
<path d="M177.505 76.918C177.507 78.0231 176.613 78.9207 175.508 78.9224L153.226 78.9552C152.122 78.9569 151.225 78.0636 151.223 76.9596L151.184 59.403C151.182 58.2979 152.076 57.4002 153.181 57.3986L175.463 57.3657C176.567 57.3641 177.464 58.2573 177.466 59.3614L177.505 76.918ZM152.293 76.0779C152.295 77.1819 153.192 78.0752 154.296 78.0736L174.43 78.0447C175.535 78.0431 176.43 77.1455 176.427 76.0404L176.394 60.2451C176.391 59.1411 175.495 58.2478 174.391 58.2494L154.256 58.2783C153.151 58.2799 152.257 59.1775 152.259 60.2826L152.293 76.0779Z" fill="#184655"/>
<path d="M177.505 112.011C177.507 113.117 176.613 114.014 175.508 114.016L153.225 114.048C152.121 114.049 151.225 113.156 151.222 112.052L151.184 95.1694C151.182 94.0641 152.076 93.1664 153.181 93.1648L175.464 93.133C176.568 93.1314 177.464 94.0245 177.466 95.1285L177.505 112.011ZM152.295 111.198C152.297 112.302 153.194 113.195 154.298 113.194L174.433 113.166C175.538 113.164 176.432 112.266 176.43 111.161L176.396 95.9846C176.394 94.8807 175.497 93.9875 174.394 93.989L154.259 94.0171C153.154 94.0186 152.259 94.9163 152.262 96.0215L152.295 111.198Z" fill="#184655"/>
<path d="M177.505 147.778C177.507 148.883 176.613 149.781 175.508 149.782L153.226 149.815C152.122 149.817 151.225 148.923 151.223 147.819L151.184 130.263C151.182 129.158 152.076 128.26 153.181 128.258L175.463 128.226C176.567 128.224 177.464 129.117 177.466 130.221L177.505 147.778ZM152.293 146.938C152.295 148.042 153.192 148.935 154.296 148.933L174.43 148.905C175.535 148.903 176.43 148.005 176.427 146.9L176.394 131.105C176.391 130.001 175.495 129.108 174.391 129.109L154.256 129.138C153.151 129.14 152.257 130.037 152.259 131.142L152.293 146.938Z" fill="#184655"/>
<path d="M178.354 182.87C178.357 183.975 177.462 184.873 176.357 184.875L153.227 184.908C152.123 184.909 151.226 184.016 151.224 182.912L151.184 165.356C151.182 164.25 152.076 163.353 153.181 163.351L176.311 163.318C177.415 163.316 178.312 164.209 178.314 165.313L178.354 182.87ZM152.329 182.03C152.331 183.134 153.227 184.028 154.331 184.026L175.245 183.997C176.35 183.995 177.244 183.098 177.242 181.992L177.207 166.197C177.205 165.093 176.308 164.2 175.204 164.202L154.291 164.231C153.186 164.232 152.291 165.13 152.294 166.235L152.329 182.03Z" fill="#184655"/>
<path d="M139.739 58.0584L25.3828 58.2222L25.3897 61.2794L139.746 61.1157L139.739 58.0584Z" fill="#9BC1F9"/>
<path d="M139.762 66.7192L25.4062 66.8829L25.4132 69.9402L139.769 69.7764L139.762 66.7192Z" fill="#9BC1F9"/>
<path d="M139.782 75.378L25.4258 75.5417L25.4327 78.599L139.789 78.4352L139.782 75.378Z" fill="#9BC1F9"/>
<path d="M139.821 94.617L25.4648 94.7808L25.4718 97.838L139.828 97.6743L139.821 94.617Z" fill="#9BC1F9"/>
<path d="M139.84 103.276L25.4844 103.439L25.4913 106.497L139.847 106.333L139.84 103.276Z" fill="#9BC1F9"/>
<path d="M139.86 111.935L25.5039 112.098L25.5108 115.156L139.867 114.992L139.86 111.935Z" fill="#9BC1F9"/>
<path d="M139.899 129.252L25.543 129.416L25.5499 132.474L139.906 132.31L139.899 129.252Z" fill="#9BC1F9"/>
<path d="M139.919 137.913L25.5625 138.077L25.5694 141.134L139.925 140.971L139.919 137.913Z" fill="#9BC1F9"/>
<path d="M139.938 146.572L25.582 146.736L25.589 149.793L139.945 149.629L139.938 146.572Z" fill="#9BC1F9"/>
<path d="M139.981 163.89L25.625 164.054L25.6319 167.111L139.988 166.947L139.981 163.89Z" fill="#9BC1F9"/>
<path d="M140.001 172.549L25.6445 172.713L25.6515 175.77L140.008 175.606L140.001 172.549Z" fill="#9BC1F9"/>
<path d="M140.016 181.208L25.6602 181.371L25.6671 184.429L140.023 184.265L140.016 181.208Z" fill="#9BC1F9"/>
<path d="M157.639 203.572L25.7109 203.761L25.7179 206.818L157.646 206.629L157.639 203.572Z" fill="#9BC1F9"/>
<path d="M183.675 210.943L25.7305 211.169L25.7374 214.226L183.682 214L183.675 210.943Z" fill="#9BC1F9"/>
<path d="M164.511 75.5838L156.273 64.0109L159.222 62.6044L164.004 69.3203L171.81 53.9884L174.959 55.0639L164.511 75.5838Z" fill="#073484"/>
<path d="M164.511 111.351L156.273 99.7783L159.222 98.3718L164.004 105.09L171.81 89.7559L174.959 90.8313L164.511 111.351Z" fill="#073484"/>
<path d="M164.511 180.861L156.273 169.651L159.222 168.288L164.004 174.795L171.81 159.941L174.959 160.981L164.511 180.861Z" fill="#073484"/>
<path d="M174.09 133.554L171.67 131.597L164.769 137.083L157.839 131.615L155.43 133.581L162.326 139.023L155.453 144.487L157.872 146.444L164.776 140.958L171.703 146.425L174.115 144.46L167.217 139.017L174.09 133.554Z" fill="#F47458"/>
<path d="M192.416 105.942C192.416 105.942 190.649 102.903 190.36 102.445C190.071 101.988 188.382 101.262 186.374 100.86C184.426 100.468 181.773 99.6869 181.47 99.8359C181.168 99.987 180.812 100.008 180.453 100.677C180.092 101.347 180.25 102.068 180.25 102.068C180.25 102.068 179.318 102.728 179.597 103.607C179.597 103.607 178.756 104.258 179.278 105.218C179.278 105.218 178.478 105.871 178.933 106.544C178.933 106.544 180.499 107.251 180.983 107.644C181.468 108.038 184.851 109.33 188.334 110.173C188.334 110.175 191.963 110.085 192.416 105.942Z" fill="#FCB095"/>
<path d="M188.332 110.175C188.332 110.175 192.655 110.775 194.119 110.104C195.583 109.434 193.878 105.933 193.878 105.933L191.143 104.618L188.332 110.175Z" fill="#FCB095"/>
<path d="M186.729 104.469C186.729 104.469 186.796 106.15 187.115 106.614C187.433 107.078 183.129 107.802 183.129 107.802C183.129 107.802 184.159 104.588 186.729 104.469Z" fill="#E9A188"/>
<path d="M182.013 99.9827C182.013 99.9827 186.732 101.807 186.459 102.447C186.186 103.088 185.595 103.19 185.595 103.19L187.11 104.641C187.11 104.641 187.431 106.052 185.405 105.918C185.405 105.918 185.876 107.212 183.938 106.895C183.938 106.895 183.769 107.859 182.84 107.838C181.911 107.819 178.935 106.544 178.935 106.544C178.935 106.544 178.37 106.023 179.194 105.19C179.194 105.19 178.635 104.303 179.521 103.588C179.521 103.588 179.251 102.424 180.217 101.658C180.217 101.658 180.118 100.366 181.513 99.8167C181.51 99.8188 181.815 99.9039 182.013 99.9827Z" fill="#FCB095"/>
<path d="M190.223 102.377C190.223 102.377 186.623 102.439 184.674 103.158C184.232 103.32 183.844 103.543 183.868 103.928C183.892 104.316 184.626 104.778 186.189 104.816C187.75 104.852 189.746 105.469 189.746 105.469C189.746 105.469 191.366 105.131 190.223 102.377Z" fill="#F5AB90"/>
<path d="M180.253 101.666C180.253 101.666 185.609 103.124 185.976 103.48C186.343 103.835 187.036 102.271 186.696 101.986C186.356 101.7 182.162 99.9211 181.698 99.8232C181.235 99.7253 179.683 100.592 180.253 101.666Z" fill="#F5AB90"/>
<path d="M182.7 100.002C182.7 100.002 174.308 98.6353 174.137 99.4483C173.966 100.261 174.779 100.397 181.656 101.994C188.342 103.543 182.7 100.002 182.7 100.002Z" fill="#FCB095"/>
<path d="M240.359 236.835C240.359 236.835 237.685 240.016 233.934 240.704C230.184 241.391 226.488 242.483 226.461 244.366C226.432 246.248 237.307 247.371 241.598 245.473C248.003 242.64 248.657 243.496 249.366 242.079C250.075 240.663 248.512 236.877 248.558 236.428C248.616 235.873 240.359 236.835 240.359 236.835Z" fill="#213759"/>
<path d="M240.774 235.266C240.774 235.266 240.287 236.803 240.359 236.835C240.431 236.867 248.812 237.661 248.558 236.428C248.352 235.428 248.06 234.341 248.06 234.341L240.774 235.266Z" fill="#81807E"/>
<path d="M268.567 236.624C268.567 236.624 266.659 239.667 263.401 240.704C259.919 241.813 257.124 243.085 257.189 244.918C257.253 246.752 265.706 248.61 271.854 245.09C275.738 242.866 276.97 242.856 277.593 241.455C278.217 240.055 276.512 236.416 276.533 235.977C276.563 235.434 268.567 236.624 268.567 236.624Z" fill="#213759"/>
<path d="M268.465 235.043C268.465 235.043 268.489 236.594 268.561 236.624C268.633 236.654 276.733 237.184 276.527 235.977C276.364 235.019 275.74 233.862 275.74 233.862L268.465 235.043Z" fill="#81807E"/>
<path d="M238.77 142.092C238.77 142.092 231.246 168.481 229.527 176.522C228.063 183.364 226.899 190.489 227.6 195.426C228.467 201.541 239.356 233.234 238.901 235.026C238.446 236.818 251.881 235.728 251.881 235.728C251.881 235.728 242.014 199.962 243.666 193.381C244.892 188.508 255.626 156.136 257.269 157.798C258.915 159.458 260.955 188.348 262.173 193.145C263.391 197.942 267.13 235.835 267.13 235.835C267.13 235.835 275.493 236.816 277.728 235.313C277.728 235.313 278.745 202.956 277.969 193.964C277.671 190.538 283.02 152.879 276.164 137.718C272.54 129.705 238.77 142.092 238.77 142.092Z" fill="#415485"/>
<path d="M189.629 111.475C189.629 111.475 215.698 116.07 220.885 115.057C223.284 114.589 226.442 111.956 229.443 108.862C230.433 107.842 231.402 106.774 232.326 105.714C232.328 105.712 232.328 105.71 232.328 105.71C236.012 101.483 238.897 97.4311 238.897 97.4311C238.897 97.4311 249.781 87.2881 241.046 82.7678C241.046 82.7678 237.877 81.8229 234.965 84.3044C232.053 86.7859 228.634 91.9744 227.872 93.2982C227.109 94.6198 216.418 106.88 215.864 107.157C215.31 107.434 210.639 106.455 206.891 106.208C200.783 105.801 191.631 103.912 191.631 103.912L189.629 111.475Z" fill="#DBDFF0"/>
<path d="M249.214 80.5055C249.214 80.5055 238.009 82.3485 236.679 83.2828C235.236 84.2788 232.691 94.0366 232.538 96.7543C232.385 99.472 233.89 110.826 235.333 115.055C236.775 119.284 236.51 140.108 235.6 145.967C235.6 145.967 258.163 151.062 280.345 148.766C280.345 148.766 276.627 126.856 277.513 121.063C278.65 113.64 281.386 96.5394 281.386 96.5394C281.386 96.5394 279.421 84.6278 277.446 83.2977C275.47 81.9697 261.862 80.5012 261.862 80.5012H249.214V80.5055Z" fill="#BAD7FD"/>
<path d="M253.85 52.9578C253.85 52.9578 240.373 48.993 241.214 63.2328C242.057 77.4747 245.215 78.9219 254.081 76.9321C262.949 74.9422 263.69 65.9548 264.844 61.6303C266 57.31 258.259 53.5793 253.85 52.9578Z" fill="#FCB095"/>
<path d="M247.455 82.4334C247.455 82.4334 250.228 83.8912 260.745 80.2073C260.745 80.2073 260.448 74.4739 262.512 69.1194C264.575 63.7648 248.397 76.2595 248.397 76.2595C248.566 76.3552 248.598 76.8894 248.502 77.6364C248.419 78.2685 248.245 79.0538 247.982 79.8498C247.393 81.6396 247.455 80.8713 247.455 82.4334Z" fill="#FCB095"/>
<path d="M262.969 68.6959C262.969 68.6959 263.006 64.8907 261.017 64.5417C259.028 64.1905 258.766 62.9263 258.766 62.9263L257.626 63.137C257.626 63.137 257.835 62.4667 255.937 61.5835C254.039 60.7002 242.692 61.477 241.268 60.1788C239.844 58.8806 241.908 51.1723 245.005 50.4146C248.102 49.657 255.294 49.7272 261.863 51.1957C261.863 51.1957 266.852 52.1959 267.23 56.8652C267.474 59.8873 264.588 66.6337 262.969 68.6959Z" fill="#14161B"/>
<path d="M247.984 79.8499C258.432 78.4538 259.992 73.7292 260.016 73.6569C255.956 77.8218 248.504 77.6387 248.504 77.6387C248.421 78.2708 248.247 79.054 247.984 79.8499Z" fill="#E0A089"/>
<path d="M248.451 84.3042C248.451 84.3042 246.547 86.5367 245.399 92.2637C244.251 97.9907 244.446 107.859 244.446 107.859L247.091 108.115C247.091 108.115 251.095 87.9902 250.407 84.483L248.451 84.3042Z" fill="#263A5A"/>
<path d="M258.767 62.9262C259.361 61.6706 262.723 61.8302 262.381 63.818C262.035 65.8078 259.259 68.8724 258.143 68.2978C257.024 67.7232 257.945 64.6565 258.767 62.9262Z" fill="#FCB095"/>
<path d="M236.541 83.2741C236.541 83.2741 230.175 89.9716 232.533 107.493C236.795 139.157 225.633 189.984 225.633 189.984L237.148 192.849C237.148 192.849 248.152 127.873 245.35 104.29C244.073 93.5449 240.283 89.9695 246.262 81.0161C246.262 81.0182 240.438 81.2523 236.541 83.2741Z" fill="#DBDFF0"/>
<path d="M264.964 80.8716C264.964 80.8716 246.738 95.5094 245.311 106.606C243.885 117.702 241.559 192.851 241.559 192.851L284.949 190.842C284.949 190.842 280.96 151.173 279.986 146.21C279.014 141.247 276.999 112.754 281.391 99.5317C283.749 92.4277 280.944 83.4169 275.553 82.4337C270.165 81.4505 264.964 80.8716 264.964 80.8716Z" fill="#DBDFF0"/>
<path d="M271.122 82.7677C271.122 82.7677 264.104 84.3043 267.964 94.5474C270.988 102.571 271.398 104.292 271.398 104.292L287.595 101.077C287.595 101.077 282.846 83.453 275.094 82.506C275.094 82.506 272.626 82.2272 271.122 82.7677Z" fill="#DBDFF0"/>
<path d="M260.746 78.624C260.746 78.624 255.248 81.2609 249.809 81.8546L252.702 85.5258L261.87 80.5075L260.746 78.624Z" fill="#D0DEE9"/>
<path d="M247.987 79.8497C247.987 79.8497 248.565 81.3608 249.807 81.8545L247.09 84.868L247.189 80.8713L247.987 79.8497Z" fill="#D0DEE9"/>
<path d="M249.804 81.8546L247.652 84.2403C247.652 84.2403 249.015 85.6109 251.948 84.5723L249.804 81.8546Z" fill="#263A5A"/>
<path d="M229.442 108.86C230.433 107.842 231.402 106.774 232.325 105.714C232.328 105.712 232.328 105.71 232.328 105.71C232.328 105.71 231.98 97.9887 232.285 95.7711C232.285 95.7711 229.11 104.088 229.442 108.86Z" fill="#A7AAB8"/>
<path d="M274.168 103.743C274.168 103.743 276.285 114.693 276.135 115.395C275.988 116.095 285.715 113.195 274.168 103.743Z" fill="#A7AAB8"/>
<path d="M235.943 106.034H241.059V99.8259H235.943V106.034Z" fill="#C6CAD9"/>
<path d="M258.681 129.592C258.681 129.592 258.213 130.329 257.434 130.578C256.09 131.008 253.941 130.327 253.111 131.855C252.278 133.383 257.64 136.973 258.984 137.16C260.327 137.348 262.23 135.598 263.47 132.227C264.712 128.854 258.681 129.592 258.681 129.592Z" fill="#FCB095"/>
<path d="M253.487 131.374C253.487 131.374 251.18 133.015 248.899 135.098C246.897 136.928 244.972 139.384 245.318 139.848C246.083 140.878 247.944 138.578 250.085 136.875C252.055 135.307 251.729 135.581 251.729 135.581C251.729 135.581 251.731 135.415 250.013 137.469C248.163 139.678 246.552 142.102 246.991 142.64C247.202 142.902 248.064 143.543 248.476 142.487C248.107 142.981 248.043 142.86 248.289 143.011C249.568 143.785 252.928 140.895 254.263 139.748C253.246 140.636 252.62 141.378 253.774 141.453C255.093 141.538 259.609 137.273 261.413 135.875C263.378 134.349 253.487 131.374 253.487 131.374Z" fill="#FCB095"/>
<path d="M270.279 83.453C268.81 83.9063 268.253 85.9792 268.858 91.9892C269.46 97.9993 272.123 100.764 273.116 102.154C274.109 103.543 279.57 112.114 278.588 113.239C277.605 114.367 268.336 121.637 267.8 122.229C267.265 122.821 256.914 130.269 256.914 130.269L262.182 136.124C262.182 136.124 284.53 122.246 286.273 120.86C288.015 119.475 293.227 116.564 291.3 111.724C289.34 106.804 285.82 95.2879 285.194 94.3856C284.57 93.4854 279.993 80.4629 270.279 83.453Z" fill="#D7DBEC"/>
<path d="M53.228 41.1532C53.228 41.9911 52.9255 42.6512 52.3203 43.1337C51.7194 43.6161 50.8815 43.8573 49.8066 43.8573C48.8164 43.8573 47.9404 43.6711 47.1787 43.2987V41.4706C47.805 41.7499 48.334 41.9467 48.7656 42.0609C49.2015 42.1752 49.5993 42.2323 49.959 42.2323C50.3906 42.2323 50.7207 42.1498 50.9492 41.9847C51.182 41.8197 51.2983 41.5743 51.2983 41.2484C51.2983 41.0664 51.2476 40.9056 51.146 40.766C51.0444 40.6221 50.8942 40.4846 50.6953 40.3534C50.5007 40.2222 50.1007 40.0127 49.4956 39.725C48.9285 39.4584 48.5033 39.2024 48.2197 38.9569C47.9362 38.7115 47.7098 38.4258 47.5405 38.1C47.3713 37.7741 47.2866 37.3933 47.2866 36.9574C47.2866 36.1364 47.5638 35.4911 48.1182 35.0214C48.6768 34.5516 49.4469 34.3168 50.4287 34.3168C50.9111 34.3168 51.3703 34.3739 51.8062 34.4882C52.2463 34.6024 52.7054 34.7632 53.1836 34.9706L52.5488 36.5004C52.0537 36.2972 51.6432 36.1555 51.3174 36.0751C50.9958 35.9947 50.6784 35.9545 50.3652 35.9545C49.9928 35.9545 49.7072 36.0412 49.5083 36.2147C49.3094 36.3882 49.21 36.6146 49.21 36.8939C49.21 37.0674 49.2502 37.2198 49.3306 37.351C49.411 37.4779 49.5379 37.6027 49.7114 37.7255C49.8892 37.844 50.306 38.0598 50.9619 38.3729C51.8294 38.7876 52.424 39.2045 52.7456 39.6234C53.0672 40.0381 53.228 40.5481 53.228 41.1532ZM61.1118 43.7303H59.1758V39.5853C59.1758 39.0733 59.089 38.6903 58.9155 38.4364C58.7463 38.1783 58.4775 38.0492 58.1094 38.0492C57.6143 38.0492 57.2546 38.2312 57.0303 38.5951C56.806 38.959 56.6938 39.5578 56.6938 40.3915V43.7303H54.7578V36.6337H56.2368L56.4971 37.5414H56.605C56.7954 37.2155 57.0705 36.9616 57.4302 36.7797C57.7899 36.5935 58.2025 36.5004 58.668 36.5004C59.7301 36.5004 60.4495 36.8474 60.8262 37.5414H60.9976C61.188 37.2113 61.4673 36.9553 61.8354 36.7733C62.2078 36.5913 62.6268 36.5004 63.0923 36.5004C63.8963 36.5004 64.5036 36.7077 64.9141 37.1224C65.3288 37.5329 65.5361 38.1931 65.5361 39.1029V43.7303H63.5938V39.5853C63.5938 39.0733 63.507 38.6903 63.3335 38.4364C63.1642 38.1783 62.8955 38.0492 62.5273 38.0492C62.0534 38.0492 61.6979 38.2185 61.4609 38.557C61.2282 38.8955 61.1118 39.433 61.1118 40.1693V43.7303ZM72.0361 43.7303L71.6616 42.7655H71.6108C71.285 43.176 70.9486 43.4616 70.6016 43.6224C70.2588 43.779 69.8102 43.8573 69.2559 43.8573C68.5745 43.8573 68.0371 43.6626 67.6436 43.2733C67.2542 42.884 67.0596 42.3296 67.0596 41.6102C67.0596 40.857 67.3219 40.3026 67.8467 39.9471C68.3757 39.5874 69.1712 39.3885 70.2334 39.3505L71.4648 39.3124V39.0013C71.4648 38.2819 71.0967 37.9222 70.3604 37.9222C69.7933 37.9222 69.1268 38.0936 68.3608 38.4364L67.7197 37.1288C68.5365 36.7014 69.4421 36.4877 70.4365 36.4877C71.3887 36.4877 72.1187 36.695 72.6265 37.1097C73.1343 37.5245 73.3882 38.155 73.3882 39.0013V43.7303H72.0361ZM71.4648 40.4423L70.7158 40.4677C70.153 40.4846 69.734 40.5861 69.459 40.7723C69.1839 40.9585 69.0464 41.2421 69.0464 41.6229C69.0464 42.1688 69.3595 42.4418 69.9858 42.4418C70.4344 42.4418 70.792 42.3127 71.0586 42.0546C71.3294 41.7964 71.4648 41.4537 71.4648 41.0262V40.4423ZM79.3486 36.5004C79.611 36.5004 79.8289 36.5194 80.0024 36.5575L79.8564 38.3729C79.6999 38.3306 79.5094 38.3094 79.2852 38.3094C78.6673 38.3094 78.1849 38.4681 77.8379 38.7855C77.4951 39.1029 77.3237 39.5472 77.3237 40.1185V43.7303H75.3877V36.6337H76.854L77.1396 37.827H77.2349C77.4549 37.4292 77.7511 37.1097 78.1235 36.8685C78.5002 36.6231 78.9085 36.5004 79.3486 36.5004ZM84.2808 42.3148C84.6193 42.3148 85.0256 42.2408 85.4995 42.0927V43.5336C85.0171 43.7494 84.4246 43.8573 83.7222 43.8573C82.9478 43.8573 82.3828 43.6626 82.0273 43.2733C81.6761 42.8798 81.5005 42.2915 81.5005 41.5087V38.0873H80.5737V37.2684L81.6401 36.621L82.1987 35.1229H83.4365V36.6337H85.4233V38.0873H83.4365V41.5087C83.4365 41.7837 83.5127 41.9869 83.665 42.118C83.8216 42.2492 84.0269 42.3148 84.2808 42.3148ZM92.4375 38.5697H93.0723C93.6943 38.5697 94.1535 38.466 94.4497 38.2587C94.7459 38.0513 94.894 37.7255 94.894 37.2811C94.894 36.841 94.7417 36.5279 94.437 36.3417C94.1366 36.1555 93.6689 36.0624 93.0342 36.0624H92.4375V38.5697ZM92.4375 40.1693V43.7303H90.4697V34.4501H93.1738C94.4349 34.4501 95.368 34.6807 95.9731 35.142C96.5783 35.599 96.8809 36.2951 96.8809 37.2303C96.8809 37.7762 96.7306 38.2629 96.4302 38.6903C96.1297 39.1135 95.7044 39.4457 95.1543 39.6869C96.5508 41.7732 97.4606 43.121 97.8838 43.7303H95.7002L93.4849 40.1693H92.4375ZM101.838 37.8778C101.428 37.8778 101.106 38.009 100.874 38.2714C100.641 38.5295 100.507 38.8977 100.474 39.3759H103.19C103.182 38.8977 103.057 38.5295 102.816 38.2714C102.575 38.009 102.249 37.8778 101.838 37.8778ZM102.111 43.8573C100.969 43.8573 100.076 43.542 99.4326 42.9115C98.7894 42.281 98.4678 41.3881 98.4678 40.2328C98.4678 39.0437 98.764 38.1254 99.3564 37.4779C99.9531 36.8262 100.776 36.5004 101.826 36.5004C102.829 36.5004 103.609 36.786 104.168 37.3573C104.727 37.9286 105.006 38.7178 105.006 39.725V40.6644H100.429C100.45 41.2146 100.613 41.6441 100.918 41.953C101.223 42.2619 101.65 42.4164 102.2 42.4164C102.628 42.4164 103.032 42.3719 103.413 42.2831C103.793 42.1942 104.191 42.0524 104.606 41.8578V43.3558C104.267 43.5251 103.906 43.6499 103.521 43.7303C103.135 43.815 102.666 43.8573 102.111 43.8573ZM110.478 43.8573C109.644 43.8573 108.99 43.5547 108.516 42.9496H108.415C108.482 43.542 108.516 43.8848 108.516 43.9779V46.8534H106.58V36.6337H108.154L108.427 37.5541H108.516C108.969 36.8516 109.64 36.5004 110.528 36.5004C111.366 36.5004 112.022 36.8241 112.496 37.4716C112.97 38.119 113.207 39.0183 113.207 40.1693C113.207 40.9268 113.095 41.5848 112.871 42.1434C112.651 42.702 112.335 43.1273 111.925 43.4193C111.514 43.7113 111.032 43.8573 110.478 43.8573ZM109.906 38.0492C109.428 38.0492 109.079 38.1973 108.859 38.4935C108.639 38.7855 108.525 39.2701 108.516 39.9471V40.1566C108.516 40.9183 108.628 41.4642 108.853 41.7943C109.081 42.1244 109.441 42.2894 109.932 42.2894C110.799 42.2894 111.233 41.5743 111.233 40.1439C111.233 39.4457 111.125 38.9231 110.909 38.576C110.698 38.2248 110.363 38.0492 109.906 38.0492ZM116.349 40.1693C116.349 40.8718 116.463 41.4029 116.692 41.7626C116.925 42.1223 117.301 42.3021 117.822 42.3021C118.338 42.3021 118.708 42.1244 118.933 41.7689C119.161 41.4092 119.275 40.876 119.275 40.1693C119.275 39.4668 119.161 38.94 118.933 38.5887C118.704 38.2375 118.33 38.0619 117.809 38.0619C117.293 38.0619 116.92 38.2375 116.692 38.5887C116.463 38.9358 116.349 39.4626 116.349 40.1693ZM121.256 40.1693C121.256 41.3246 120.951 42.2281 120.342 42.8798C119.732 43.5315 118.884 43.8573 117.796 43.8573C117.115 43.8573 116.514 43.7092 115.994 43.413C115.473 43.1125 115.073 42.683 114.794 42.1244C114.515 41.5658 114.375 40.9141 114.375 40.1693C114.375 39.0098 114.678 38.1084 115.283 37.4652C115.888 36.822 116.738 36.5004 117.834 36.5004C118.516 36.5004 119.117 36.6485 119.637 36.9447C120.158 37.2409 120.558 37.6662 120.837 38.2206C121.116 38.7749 121.256 39.4245 121.256 40.1693ZM126.816 36.5004C127.079 36.5004 127.297 36.5194 127.47 36.5575L127.324 38.3729C127.168 38.3306 126.977 38.3094 126.753 38.3094C126.135 38.3094 125.653 38.4681 125.306 38.7855C124.963 39.1029 124.792 39.5472 124.792 40.1185V43.7303H122.855V36.6337H124.322L124.607 37.827H124.703C124.923 37.4292 125.219 37.1097 125.591 36.8685C125.968 36.6231 126.376 36.5004 126.816 36.5004ZM131.749 42.3148C132.087 42.3148 132.493 42.2408 132.967 42.0927V43.5336C132.485 43.7494 131.892 43.8573 131.19 43.8573C130.416 43.8573 129.851 43.6626 129.495 43.2733C129.144 42.8798 128.968 42.2915 128.968 41.5087V38.0873H128.042V37.2684L129.108 36.621L129.667 35.1229H130.904V36.6337H132.891V38.0873H130.904V41.5087C130.904 41.7837 130.98 41.9869 131.133 42.118C131.289 42.2492 131.495 42.3148 131.749 42.3148Z" fill="#073484"/>
</svg>
