<svg xmlns="http://www.w3.org/2000/svg" width="702" height="387" fill="none" viewBox="0 0 702 387"><path fill="#DFEDF7" d="M1.99986 365.5C1.99986 365.5 -18 192.5 97.0027 204.017C177.727 204.017 97.8683 159.609 152.75 107.187C207.632 54.7657 399.561 12.8832 440.414 114.112C481.264 215.341 380.308 292.197 477.861 279.012C595.091 263.169 702.001 386.342 702.001 386.342L4.6662 369.998L1.99986 365.5Z"/><path fill="#4A75CB" d="M248.918 342.535H138.176V367.543H248.918V342.535Z"/><path fill="#699DEE" d="M214.767 342.535H104.027V367.546H214.767V342.535Z"/><path fill="#09ABD1" d="M292.482 367.537H374.941V252.27H292.482V367.537Z"/><path fill="#3CD0FF" d="M268.849 367.537H351.309V252.27H268.849V367.537Z"/><path fill="#049EB7" d="M349.512 252.27L374.937 269.578V252.27H349.512Z"/><path fill="#ED975D" d="M423.085 89.537C421.81 89.3423 417.968 92.8965 417.968 92.8965C409.766 93.8454 397.772 96.0229 393.456 96.8539C390.396 97.4435 382.166 94.638 374.126 91.4156C364.565 87.5817 355.274 83.1609 355.274 83.1609C349.968 82.8894 343.943 92.5702 354.704 98.7269C356.346 99.6676 362.519 101.269 369.624 102.734C369.624 102.734 369.624 102.734 369.627 102.734C379.43 104.755 391.01 106.507 394.953 105.89C399.533 105.174 412.495 100.433 420.206 96.799C420.206 96.799 420.214 96.7963 420.225 96.788C420.255 96.7743 420.283 96.7606 420.31 96.7469C420.773 96.5302 422.66 95.6911 423.919 95.7651C425.364 95.8501 428.58 93.2064 428.679 92.5016C428.775 91.7941 424.36 89.729 423.085 89.537Z"/><path fill="#415485" d="M413.07 211.488L408.554 212.406C408.554 212.406 387.886 189.183 384.697 179.409C382.991 174.188 372.08 171.931 360.676 168.983C350.752 166.416 340.455 163.325 335.535 157.292C324.964 144.331 342.174 128.403 342.174 128.403C342.174 128.403 360.47 139.279 376.257 150.512C387.288 158.364 397.094 166.391 398.572 171.004C402.162 182.226 409.771 203.551 413.07 211.488Z"/><path fill="#233862" d="M407.019 219.15H409.558C410.408 219.016 411.036 218.769 411.911 218.656C413.236 218.484 413.847 219.027 413.968 219.15C413.984 219.166 413.992 219.175 413.992 219.175H424.783C425.054 218.788 424.794 217.888 424.539 217.228C424.366 216.778 423.993 216.438 423.53 216.303C422.386 215.971 420.129 215.675 418.065 213.805C416.902 212.755 412.451 209.944 412.451 209.944L412.427 209.938C412.328 209.941 411.865 210.083 409.838 211.792C408.791 212.675 407.008 210.547 407.008 210.547C407.008 210.547 406.674 210.824 406.424 211.34C406.224 211.748 406.076 212.308 406.191 212.996C406.353 213.97 405.832 215.777 405.418 216.997C405.165 217.738 404.954 218.264 404.954 218.264C404.954 218.264 404.834 218.876 407.019 219.15Z"/><path fill="#334877" d="M376.256 150.515L360.676 168.985C350.752 166.418 340.455 163.328 335.535 157.294C324.964 144.334 342.174 128.406 342.174 128.406C342.174 128.406 360.473 139.279 376.256 150.515Z"/><path fill="#415485" d="M362.1 140.867C362.1 140.867 360.844 144.827 358.798 150.787C356.212 158.323 352.362 169.051 348.183 179.001C347.264 181.186 346.332 183.337 345.392 185.407C341.917 193.064 338.361 199.627 335.232 202.964C329.605 208.962 315.93 247.509 315.93 247.509L312.521 246.566C312.521 246.566 307.769 213.649 324.601 194.918C324.781 194.718 324.921 194.487 324.941 194.219C324.943 194.216 324.943 194.213 324.943 194.21C325.168 191.438 325.969 179.02 327.71 166.44C328.138 163.352 328.623 160.259 329.169 157.294C329.202 157.105 329.24 156.916 329.273 156.729C331.834 143.017 334.286 136.918 337.45 133.852L360.72 140.478L362.1 140.867Z"/><path fill="#233862" d="M312.138 252.246H314.677C315.527 252.111 316.155 251.864 317.03 251.752C318.354 251.579 318.966 252.122 319.086 252.246C319.103 252.262 319.111 252.27 319.111 252.27H329.901C330.173 251.884 329.912 250.984 329.657 250.323C329.485 249.873 329.112 249.533 328.648 249.399C327.505 249.067 325.248 248.774 323.183 246.903C322.02 245.853 317.57 243.042 317.57 243.042L317.545 243.037C317.446 243.039 316.983 243.182 314.957 244.89C313.909 245.774 312.127 243.645 312.127 243.645C312.127 243.645 311.792 243.922 311.543 244.438C311.342 244.844 311.194 245.406 311.312 246.094C311.474 247.068 310.953 248.875 310.539 250.096C310.287 250.836 310.075 251.363 310.075 251.363C310.075 251.363 309.952 251.971 312.138 252.246Z"/><path fill="#FFB27D" d="M317.129 96.0996C317.129 96.0996 313.235 105.627 308.746 114.899C304.97 122.696 300.775 130.312 298.115 131.935C294.363 134.228 284.031 140.692 277.326 145.513C277.326 145.513 272.094 145.474 271.283 146.475C270.471 147.476 268.595 151.977 269.141 152.432C269.689 152.887 273.846 152.676 274.858 151.639C275.739 150.737 277.702 150.087 278.19 149.936C278.22 149.928 278.25 149.917 278.281 149.909C278.294 149.906 278.302 149.903 278.302 149.903C286.449 147.397 299.225 142.175 303.092 139.622C306.421 137.423 313.805 128.329 319.693 120.236C319.695 120.236 319.695 120.236 319.695 120.236C323.965 114.37 327.448 109.027 328.029 107.226C331.843 95.4277 320.872 92.326 317.129 96.0996Z"/><path fill="#14161B" d="M337.492 58.7422C337.028 58.0676 336.562 57.4724 336.096 56.9404C336.672 56.9514 337.297 56.8965 337.815 56.6826C339.181 56.1177 339.806 51.7792 339.6 50.4902C339.395 49.204 337.497 45.4825 335.155 45.1096C332.814 44.7393 330.395 47.3392 330.395 47.3392C330.828 45.4633 334.788 44.3801 334.788 44.3801C326.63 45.8857 327.044 51.3267 327.102 51.8285C319.632 49.1684 315.25 63.2343 315.25 63.2343L334.596 74.6346C334.596 74.6346 334.645 71.5274 336.494 71.7276C339.37 72.043 341.767 64.973 337.492 58.7422Z"/><path fill="#FFB27D" d="M338.726 88.2563C334.286 90.3487 328.396 87.3348 328.429 87.3019C328.81 86.9207 328.676 85.7826 328.327 84.2907C327.979 82.7357 327.154 80.6131 325.632 78.0764C325.314 77.5361 324.998 76.9986 324.617 76.4281L325.124 76.2389L333.749 72.7834C333.749 72.7834 335.144 75.2873 336.603 77.5717C337.84 79.475 339.14 81.1863 339.71 81.1232C339.74 81.0903 345.447 85.0229 338.726 88.2563Z"/><path fill="#ED975D" d="M333.746 73.6391C333.524 76.7134 332.476 82.2641 328.324 84.2935C327.976 82.7385 327.151 80.6159 325.629 78.0791L333.746 73.6391Z"/><path fill="#FFB27D" d="M325.126 81.5784C325.126 81.5784 336.353 77.1521 333.49 70.2028C330.627 63.2534 330.147 58.0017 322.858 60.5329C315.57 63.0642 315.276 66.2866 315.668 68.8398C316.061 71.3902 322.132 82.5492 325.126 81.5784Z"/><path fill="#14161B" d="M329.313 68.6177C334.496 67.8855 336.009 65.7902 336.009 65.7902C336.009 65.7902 331.235 64.419 328.43 59.7432C328.43 59.7432 322.603 57.7768 318.284 61.0623C318.021 61.4051 317.831 61.8055 317.738 62.2799C316.748 61.9563 315.259 62.0386 314.401 64.8386C313.109 69.04 317.7 73.6309 317.7 73.6309C318.813 73.3155 317.557 69.5721 317.382 67.5728C317.253 66.1029 318.045 64.2188 318.473 63.3248C319.022 64.0378 324.492 70.9104 331.169 71.1846C331.169 71.1846 327.643 69.9615 324.432 67.5673C326.031 68.3517 327.728 68.8398 329.313 68.6177Z"/><path fill="#3DC0B3" d="M360.102 102.577C360.006 102.243 359.904 101.894 359.797 101.538C361.465 98.3512 362.284 95.4771 362.63 93.0473C363.392 87.9107 362.093 84.7405 362.093 84.7405C362.093 84.7405 354.305 80.6104 350.866 80.0838C350.852 80.0783 350.836 80.0729 350.822 80.0701C350.781 80.0646 350.734 80.0591 350.685 80.0564C347.214 79.5765 339.7 81.1122 339.7 81.1122C339.7 81.1122 341.151 84.9708 337.059 87.546C332.971 90.1184 328.602 86.8878 328.602 86.8878C328.471 86.9756 328.331 87.0743 328.186 87.1758C328.186 87.1758 317.425 94.2759 316.457 95.8994C315.492 97.523 311.352 105.556 311.352 105.556C311.352 105.556 312.665 112.302 327.201 112.864C328.397 115.763 329.31 118.59 329.609 120.949C330.763 130.106 329.422 137.327 330.769 142.672C332.115 148.017 356.37 144.97 360.763 143.941C365.156 142.913 364.168 138.223 364.506 133.666C364.931 127.937 361.533 107.626 360.102 102.577Z"/><path fill="#3DC0B3" d="M362.626 93.0446C362.278 95.4853 361.453 98.3704 359.772 101.574C359.39 99.8924 357.838 93.7411 355.332 90.9521C355.335 90.9521 359.552 91.3333 362.626 93.0446Z"/><path fill="#ED975D" d="M263.875 153.052C263.875 153.052 268.394 147.575 269.368 146.928C270.341 146.281 274.608 145.145 274.852 145.373C275.096 145.601 275.107 145.932 274.578 146.399C274.049 146.865 272.03 148.044 272.318 148.176C272.606 148.307 278.697 145.277 279.574 146.297C280.452 147.317 279.078 151.527 276.73 153.545C274.383 155.564 267.38 156.425 266.938 156.705C263.203 159.096 263.875 153.052 263.875 153.052Z"/><path fill="#FFB27D" d="M184.316 140.406C184.316 140.406 190.807 148.11 199.075 144.888C199.075 144.888 200.854 140.585 200.879 137.414C200.882 137.025 200.887 136.647 200.893 136.287C200.937 132.717 201.057 130.712 201.057 130.712C201.057 130.712 201.055 130.712 201.049 130.709C200.673 130.553 188.41 125.518 188.421 125.935C188.633 135.593 184.316 140.406 184.316 140.406Z"/><path fill="#ED975D" d="M189.652 128.238C190.834 130.43 194.893 134.719 200.893 136.285C200.936 132.714 201.057 130.709 201.057 130.709C201.057 130.709 201.054 130.709 201.049 130.706C200.709 130.619 189.301 127.591 189.652 128.238Z"/><path fill="#FFB27D" d="M203.626 130.339C203.626 130.339 189.836 133.581 187.949 124.961C186.063 116.342 183.013 110.955 191.736 108.52C200.462 106.085 202.897 109 204.227 111.723C205.557 114.449 207.164 129.275 203.626 130.339Z"/><path fill="#14161B" d="M188.423 127.311C188.234 127.432 185.267 128.342 179.648 117.148C178.765 115.39 178.164 111.589 180.221 108.229C182.278 104.87 189.569 102.229 195.626 101.08C201.684 99.9309 203.137 103.34 204.566 106.765C206.063 110.36 210.387 113.322 210.387 113.322C205.164 116.24 198.873 112.066 196.693 112.752C194.513 113.437 193.743 116.874 193.581 117.976C193.416 119.076 193.167 119.992 190.425 119.007C187.682 118.023 189.185 122.893 189.624 123.823C189.621 123.823 189.994 126.302 188.423 127.311Z"/><path fill="#2C3A64" d="M152.899 342.535H144.55C142.8 342.535 140.853 340.758 140.368 337.508C139.88 334.253 136.282 332.481 135.503 329.818C134.724 327.155 138.714 323.409 138.714 323.409L139.381 322.54L140.074 321.635L146.688 323.212C146.688 323.212 146.85 324.808 146.954 326.84C147.026 328.307 147.064 330.005 146.982 331.494C146.787 335.045 147.964 338.866 151.073 339.557C154.188 340.245 152.899 342.535 152.899 342.535Z"/><path fill="#2C3A64" d="M211.027 342.614H188.895C188.684 342.571 188.522 342.524 188.427 342.475C186.948 341.712 187.412 335.887 187.59 334.088C187.626 333.756 187.648 333.559 187.648 333.559C187.648 333.559 195.43 327.15 196.502 332.056C196.535 332.21 196.576 332.36 196.617 332.509V332.511C197.969 337.102 204.007 339.189 207.496 339.77C210.158 340.217 210.849 341.816 211.027 342.614Z"/><path fill="#041231" d="M206.565 214.611C206.565 214.611 205.383 229.36 203.992 247.087C202.103 271.171 199.833 300.751 199.608 306.354C199.218 316.084 197.661 331.65 197.661 331.65C197.661 331.65 193.967 335.347 186.571 333.789C186.571 333.789 179.982 311.57 178.098 288.059C178.068 287.673 178.041 287.286 178.01 286.896C176.261 262.963 173.535 212.565 173.535 212.565L206.565 214.611Z"/><path fill="#0C1D35" d="M206.566 214.611C206.566 214.611 205.384 229.36 203.994 247.087L178.102 288.062C178.072 287.675 178.044 287.289 178.014 286.899C176.265 262.966 173.539 212.568 173.539 212.568L206.566 214.611Z"/><path fill="#041231" d="M201.166 216.364C201.166 216.364 179.863 269.775 165.853 294.877C151.843 319.978 147.467 326.983 147.467 326.983C147.467 326.983 139.44 323.771 138.711 321.583C138.711 321.583 144.069 273.124 153.45 261.309C158.751 254.634 164.978 234.604 165.269 227.599C165.559 220.595 167.166 206.73 167.166 206.73L201.166 216.364Z"/><path fill="#ED975D" d="M152.387 207.467C152.387 207.467 151.836 214.137 151.43 215.163C151.027 216.185 148.331 219.361 148.021 219.317C147.709 219.271 147.522 219.021 147.681 218.377C147.84 217.729 148.767 215.733 148.474 215.785C148.18 215.837 145.096 221.462 143.87 221.144C142.641 220.826 141.44 216.827 142.172 214.002C142.902 211.178 147.862 206.743 148.052 206.288C149.656 202.429 152.387 207.467 152.387 207.467Z"/><path fill="#13375B" d="M150.098 209.159C152.456 209.916 152.835 209.746 152.835 209.746C152.835 209.746 164.311 188.849 165.473 186.935C166.636 185.02 189.843 163.501 189.843 163.501L183.879 141.259C183.879 141.259 157.486 175.441 154.634 180.347C149.923 188.451 147.164 207.278 147.164 207.278C147.164 207.278 148.247 208.564 150.098 209.159Z"/><path fill="#8CDEF9" d="M211.061 172.232C210.979 176.801 210.713 181.935 210.356 187.149C210.334 187.458 210.312 187.768 210.291 188.076C210.063 191.306 209.813 194.545 209.528 197.701C209.413 198.968 209.292 200.219 209.166 201.448L209.147 201.612C209.136 202.073 209.081 202.572 209.029 203.027C207.866 214.855 206.646 224.199 206.419 224.341C206.147 224.522 205.843 224.613 205.511 224.572C202.41 224.182 193.158 224.887 185.581 223.236C179.189 221.887 173.685 219.331 167.85 215.884C167.077 215.426 165.311 214.214 165.453 213.309C165.593 212.313 165.854 210.873 166.186 209.066C167.335 202.775 169.317 191.953 169.994 179.289C170.126 176.93 170.318 174.599 170.568 172.309C171.217 166.342 172.259 160.673 173.658 155.638C176.255 146.284 180.072 139.123 184.86 136.32C185.485 135.969 188.852 138.111 191.943 140.097C194.797 141.929 197.805 142.433 200.729 142.178L203.301 145.025C206.416 148.648 209.734 153.471 210.642 160.325C210.71 160.832 210.768 161.37 210.817 161.94C211.069 164.737 211.132 168.272 211.061 172.232Z"/><path fill="#0A3254" d="M211.065 172.232C210.983 176.801 210.717 181.935 210.36 187.149C210.338 187.458 210.316 187.768 210.294 188.075C192.58 176.985 189.852 156.694 189.852 156.694C198.566 157.075 205.49 159.08 210.826 161.946C211.073 164.737 211.136 168.272 211.065 172.232Z"/><path fill="#13375B" d="M266.566 153.6C265.653 151.129 264.232 151.291 264.232 151.291C264.232 151.291 237.894 157.857 235.53 158.136C233.166 158.419 207.168 147.984 207.168 147.984C207.168 147.984 196.934 143.39 192.141 147.583C187.976 151.228 187.786 155.844 188.76 159.721C189.923 164.342 193.83 167.754 198.555 168.357C209.162 169.709 230.326 172.252 234.76 171.635C244.631 170.261 267.002 157.347 267.002 157.347C267.002 157.347 267.282 155.539 266.566 153.6Z"/><path fill="#2C3A64" d="M526.28 201.881C526.28 201.881 529.938 205.273 529.225 207.684C528.512 210.094 525.208 211.702 524.764 214.647C524.32 217.592 522.532 219.199 520.925 219.199C519.318 219.199 513.266 219.199 513.266 219.199C513.266 219.199 512.084 217.126 514.939 216.501C517.796 215.876 518.871 212.415 518.693 209.2C518.514 205.986 518.961 201.703 518.961 201.703L525.03 200.274L526.28 201.881Z"/><path fill="#2C3A64" d="M480.672 218.796C480.302 218.983 478.997 219.112 477.206 219.197H459.887C459.944 218.681 460.347 216.844 463.18 216.388C466.38 215.867 471.922 214.008 473.159 209.916C473.2 209.785 473.236 209.65 473.266 209.516C474.247 205.142 481.385 210.854 481.385 210.854C481.385 210.854 481.407 211.03 481.437 211.329C481.605 212.933 482.027 218.122 480.672 218.796Z"/><path fill="#415485" d="M464.027 101.812C464.027 101.812 465.111 115.343 466.386 131.609C468.119 153.704 470.203 180.844 470.408 185.986C470.765 194.912 472.194 209.195 472.194 209.195C472.194 209.195 475.583 212.587 482.37 211.158C482.37 211.158 488.416 190.771 490.144 169.202C490.171 168.848 490.199 168.492 490.223 168.135C491.83 146.176 494.328 99.939 494.328 99.939L464.027 101.812Z"/><path fill="#334877" d="M464.027 101.812C464.027 101.812 465.111 115.343 466.386 131.609L490.141 169.199C490.168 168.845 490.196 168.489 490.22 168.132C491.827 146.174 494.326 99.9363 494.326 99.9363L464.027 101.812Z"/><path fill="#415485" d="M468.98 103.419C468.98 103.419 488.527 152.424 501.379 175.452C514.232 198.48 518.249 204.909 518.249 204.909C518.249 204.909 525.612 201.963 526.281 199.956C526.281 199.956 521.367 155.495 512.759 144.66C507.894 138.536 502.183 120.159 501.917 113.731C501.648 107.305 500.175 94.5831 500.175 94.5831L468.98 103.419Z"/><path fill="#FCB095" d="M408.694 76.8396C408.694 76.8396 403.393 75.6275 402.499 75.6878C401.608 75.7481 398.485 77.0563 398.444 77.3086C398.403 77.5609 398.551 77.7666 399.088 77.8049C399.628 77.8406 401.403 77.613 401.29 77.8296C401.178 78.0435 396.064 79.05 396.009 80.0784C395.951 81.1068 398.754 83.0211 401.12 83.15C403.487 83.2788 408.14 80.5282 408.54 80.4925C411.927 80.1964 408.694 76.8396 408.694 76.8396Z"/><path fill="#E6EEEF" d="M406.428 78.1861C405.668 75.7646 405.846 75.3779 405.846 75.3779C405.846 75.3779 427.337 63.7554 429.306 62.5762C431.274 61.3969 453.483 37.7599 453.483 37.7599L476.232 44.0209C476.232 44.0209 441.028 70.8391 435.983 73.7297C427.647 78.5015 408.339 81.2028 408.339 81.2028C408.339 81.2028 407.023 80.0894 406.428 78.1861Z"/><path fill="#FCB095" d="M460.372 26.2718C460.372 26.2718 452.398 40.3048 444.602 42.1368C444.602 42.1368 444.925 37.4225 446.826 34.1974C446.047 33.2814 445.367 32.4395 444.775 31.6853C442.811 29.1705 441.879 27.632 441.879 27.632L444.525 20.5182L446.321 15.6915C447.185 17.2574 448.134 18.593 449.126 19.7338C454.232 25.6081 460.372 26.2718 460.372 26.2718Z"/><path fill="#FCB095" d="M449.123 19.7338C449.123 19.7338 450.074 26.7654 444.771 31.6853C442.807 29.1705 441.875 27.632 441.875 27.632L444.521 20.5181C447.359 19.6543 449.123 19.7338 449.123 19.7338Z"/><path fill="#FCB095" d="M439.774 28.6687C439.774 28.6687 451.691 24.023 448.683 16.6459C445.675 9.2687 445.189 3.70156 437.454 6.35624C429.718 9.01091 429.397 12.4252 429.803 15.132C430.206 17.8361 436.598 29.6861 439.774 28.6687Z"/><path fill="#fff" d="M501.333 98.2854C496.526 105.196 460.588 114.433 461.013 109.647C461.174 107.815 461.394 104.588 461.007 100.211C460.917 99.1849 460.79 98.0989 460.626 96.9499C459.713 90.6642 457.544 82.5795 452.707 73.225C452.345 72.523 451.966 71.8182 451.574 71.1024C449.583 67.4796 447.886 63.6512 446.592 59.905C444.102 52.7089 443.098 45.8226 444.354 41.3223C444.359 41.3004 444.368 41.2812 444.373 41.2592C451.887 37.7846 454.796 24.311 454.796 24.311C454.796 24.311 480.427 28.9128 494.782 63.0808C494.785 63.0808 505.515 92.2713 501.333 98.2854Z"/><path fill="#fff" d="M461.004 100.213C460.913 99.1877 460.787 98.1017 460.622 96.9526C459.709 90.6669 457.54 82.5822 452.703 73.2278C453.534 68.1927 454.68 64.005 455.939 62.1209C461.05 54.4586 464.028 53.2629 464.028 53.2629C464.028 53.2629 471.693 85.5934 461.004 100.213Z"/><path fill="#FCB095" d="M420.603 92.5208C420.603 92.5208 413.512 92.8938 412.415 93.2887C411.315 93.6836 407.863 96.4398 407.901 96.7716C407.94 97.1034 408.2 97.3091 408.888 97.1638C409.579 97.0157 411.726 96.097 411.661 96.4068C411.595 96.7167 405.535 99.8075 405.831 101.118C406.127 102.432 410.328 103.831 413.347 103.148C416.366 102.462 421.225 97.3448 421.713 97.161C425.86 95.5759 420.603 92.5208 420.603 92.5208Z"/><path fill="#E6EEEF" d="M419.266 95.2084C417.845 92.913 418.868 91.8654 418.868 91.8654C418.868 91.8654 440.77 74.7142 442.486 72.981C444.203 71.2478 452.155 43.6589 452.155 43.6589C452.155 43.6589 454.892 32.4944 461.303 31.2631C466.872 30.1935 470.722 32.9497 473.242 36.1802C476.245 40.0306 476.538 45.34 474.049 49.5387C468.457 58.9617 457.176 77.6706 453.88 80.8655C446.547 87.9794 422.016 97.918 422.016 97.918C422.016 97.918 420.382 97.0102 419.266 95.2084Z"/><path fill="#14161B" d="M450.394 2.9419C450.476 2.77735 450.72 2.60183 451.312 2.42083C451.312 2.42083 450.758 2.23435 450.111 2.37696C449.777 1.55971 448.965 0.169295 447.438 0.158325C447.438 0.158325 448.312 0.385947 448.636 1.26078C446.546 -0.0638119 442.672 -0.447753 433 2.77187C420.255 7.01715 426.622 14.419 428.552 15.0114C430.486 15.6037 434.042 11.7972 437.24 11.2762C440.437 10.7551 442.17 15.2115 443.388 15.5818C444.608 15.952 443.914 14.9373 445.192 13.9226C446.47 12.9079 447.202 15.2966 447.174 16.9749C447.147 18.6533 449.637 20.2439 449.637 20.2439C449.637 20.2439 449.637 20.2439 451.098 17.5646C452.56 14.8852 452.162 5.16053 450.767 3.40811C450.643 3.25728 450.52 3.10096 450.394 2.9419Z"/><path fill="#4271BC" d="M248.914 342.252V356.68L214.766 342.252H248.914Z"/><path fill="#4A75CB" d="M541.143 219.197H428.215V367.538H541.143V219.197Z"/><path fill="#699DEE" d="M506.325 219.199H393.395V367.54H506.325V219.199Z"/><path fill="#4271BC" d="M541.14 219.199V241.38L506.32 219.199H541.14Z"/></svg>