<svg xmlns="http://www.w3.org/2000/svg" width="683" height="499" fill="none" viewBox="0 0 683 499"><path fill="#213759" d="M490.197 473.358C490.197 473.358 494.991 490.707 490.197 493.348C485.403 495.978 431.376 497.815 432.469 493.348C435.341 481.618 464.571 483.815 473.269 471.569L490.197 473.358Z"/><path fill="#213759" d="M539.419 469.048C539.419 469.048 526.841 488.078 537.617 490.947C548.394 493.817 592.521 492.076 591.993 488.798C590.791 481.378 570.68 478.509 562.775 469.048C555.002 459.755 539.419 469.048 539.419 469.048Z"/><path fill="#415485" d="M476.897 230.268C476.897 230.268 466.409 420.927 473.269 471.557L490.197 473.358L524.329 236.355L476.897 230.268Z"/><path fill="#415485" d="M487.48 466.286C487.468 466.286 487.444 466.286 487.432 466.286C487.24 466.262 487.096 466.082 487.12 465.878L508.024 306.88C508.048 306.688 508.229 306.543 508.433 306.567C508.625 306.591 508.769 306.772 508.745 306.976L487.841 465.974C487.817 466.154 487.66 466.286 487.48 466.286Z"/><path fill="#415485" d="M516.244 292.508C516.256 291.98 516.268 291.452 516.28 290.923C505.672 289.603 494.943 289.158 484.251 289.615C481.896 289.711 477.066 289.194 474.063 290.215C473.895 294.165 473.739 298.247 473.57 302.413C473.57 302.425 473.582 302.425 473.582 302.437C475.613 305.595 478.832 307.792 482.1 309.641C491.375 314.888 501.839 317.997 512.472 318.694L516.244 292.508Z"/><path fill="#415485" d="M524.328 236.355L539.418 469.048C539.418 469.048 551.276 471.197 562.773 469.048C562.773 469.048 570.438 271.989 568.516 234.218L524.328 236.355Z"/><path fill="#415485" d="M532.4 296.986C530.442 297.959 529.241 299.304 528.508 300.948L529.361 314.047C529.553 314.095 529.745 314.143 529.974 314.191C533.398 314.924 536.918 315.368 540.402 315.668C548.355 316.353 556.38 316.064 564.25 314.78C565.427 314.588 566.664 314.323 567.818 313.927C568.034 305.403 568.214 297.118 568.37 289.29C561.006 290.959 535.38 295.51 532.4 296.986Z"/><path fill="#FCB095" d="M580.735 117.529C580.735 117.529 576.782 106.579 564.564 102.089C552.346 97.5983 537.076 90.7787 536.896 78.7485C536.836 74.6183 537.893 71.3166 539.311 68.7593C530.865 69.4917 521.374 70.3201 514.489 70.9564C516.304 73.2736 517.433 76.4073 517.661 81.8941C518.034 90.7547 511.991 92.5436 504.938 95.065C492.167 99.6393 480.43 109.508 475.348 122.283L485.5 145.887C485.5 145.887 479.396 200.468 476.873 230.267C476.873 230.267 516.4 240.677 568.493 234.217L563.459 135.118L580.735 117.529Z"/><path fill="#EF967B" d="M537.327 74.1505C537.759 72.0734 538.468 70.2845 539.309 68.7477C531.296 69.444 522.333 70.2244 515.557 70.8488C515.461 70.9088 515.365 70.9688 515.281 71.0529C515.125 71.209 515.041 71.3891 514.969 71.5932C516.458 73.7783 517.396 76.7078 517.648 81.4263C520.243 82.0986 523.282 81.9666 525.757 81.4863C527.583 81.1261 529.386 80.5258 531.02 79.6373C533.506 78.3167 535.657 76.4077 537.327 74.1505Z"/><path fill="#FCB095" d="M580.736 117.529C580.736 117.529 593.435 157.63 595.345 164.69C595.345 164.69 634.511 132.141 639.184 122.68C643.858 113.219 650.922 98.1389 655.355 97.8988C659.788 97.6587 652.123 115.128 652.123 115.128C652.123 115.128 672.487 106.867 677.869 109.617C683.252 112.366 664.462 118.117 664.462 118.117C664.462 118.117 681.942 115.956 682.543 119.666C683.144 123.376 664.221 124.096 664.221 124.096C664.221 124.096 678.47 124.216 678.831 127.446C679.191 130.676 663.621 129.247 663.621 129.247C663.621 129.247 678.59 136.307 673.797 137.147C669.904 137.832 658.971 136.847 651.354 134.53C648.507 133.665 645.431 134.734 643.798 137.219C637.466 146.908 622.569 169.42 616.43 176.396C608.524 185.376 593.915 205.595 579.787 181.426C565.658 157.258 560.023 145.383 560.023 145.383L563.495 123.616L580.736 117.529Z"/><path fill="#FCB095" d="M475.372 122.284C475.372 122.284 467.562 148.769 464.679 161.688C464.679 161.688 435.221 133.497 423.543 118.057C423.543 118.057 424.804 89.1583 419.951 89.1583C415.097 89.1583 416.539 106.483 416.539 106.483C416.539 106.483 392.282 87.7176 389.327 89.6986C386.359 91.6676 401.269 105.319 401.269 105.319C401.269 105.319 380.244 96.9744 378.01 100.204C375.763 103.434 394.985 110.253 394.985 110.253C394.985 110.253 377.565 109.269 376.748 111.418C375.943 113.567 391.934 116.629 395.526 117.517C395.526 117.517 382.323 118.778 382.323 122.728C382.323 126.678 400.2 123.352 400.2 123.352C400.2 123.352 405.426 128.743 411.421 128.551C412.983 128.503 414.448 129.259 415.277 130.58C420.888 139.693 440.939 171.845 448.532 178.917C457.399 187.177 467.142 197.611 480.514 181.786C493.693 166.19 492.504 146.26 492.504 146.26L475.372 122.284Z"/><path fill="#14161B" d="M502.488 45.9479C502.488 45.9479 490.426 32.4648 493.862 24.2766C497.286 16.1003 497.286 17.9733 496.181 13.7711C495.075 9.56893 496.289 2.94149 511.451 0.50422C526.612 -1.93305 550.28 4.70641 556.816 13.2188C556.816 13.2188 569.322 15.2119 565.442 29.2472C561.573 43.2945 558.798 56.5614 549.403 58.1102C539.996 59.659 519.536 51.4707 519.536 51.4707L502.488 45.9479Z"/><path fill="#FCB095" d="M504.771 25.9575C504.771 25.9575 498.211 50.5583 500.266 63.3449C502.32 76.1436 520.581 81.9306 545.511 67.8953C545.511 67.8953 547.433 71.101 553.416 67.5471C559.387 63.9933 559.038 50.5223 549.547 55.0006C549.547 55.0006 559.026 26.3177 549.896 20.1705C540.765 14.0353 504.771 25.9575 504.771 25.9575Z"/><path fill="#14161B" d="M539.648 20.0504C539.648 20.0504 517.975 35.2503 499.293 28.6709L502.765 11.7901L526.12 4.97058L545.043 8.92064L553.789 18.7297L557.982 29.1392L556.059 45.2996L550.197 55.2647C550.197 55.2647 544.682 54.2802 546.725 44.3391C546.713 44.3391 536.044 36.0908 539.648 20.0504Z"/><path fill="#BAD7FD" d="M631.918 130.172L636.616 124.169C636.616 124.169 640.388 133.329 646.851 136.199L641.998 142.214L631.918 130.172Z"/><path fill="#BAD7FD" d="M427.941 120.495L424.121 116.797C424.121 116.797 418.594 128.395 412.383 129.175L416.011 133.87L424.433 127.674L427.941 120.495Z"/><path fill="#BAD7FD" d="M560.457 100.516C554.293 98.067 547.89 94.9934 543.312 90.9593L530.59 99.2796L515.368 89.6506C513.025 92.304 509.18 93.5527 504.964 95.0534C503.209 95.6778 501.479 96.4222 499.773 97.2386C501.479 106.231 507.607 149.418 522.288 151.987C537.113 154.58 555.363 109.689 560.457 100.516Z"/><path fill="#263A5A" d="M522.887 105.079L516.184 153.548H531.994L529.243 103.518L522.887 105.079Z"/><path fill="#6C3870" d="M524.283 153.548C526.83 152.671 529.352 151.711 531.839 150.666L531.755 149.154C527.791 150.834 523.754 152.287 519.621 153.536H524.283V153.548Z"/><path fill="#263A5A" d="M526.84 93.9489C526.467 94.3571 519.127 100.312 519.523 101.921C519.92 103.53 520.629 105.547 521.542 105.955C523.164 106.675 525.182 105.727 528.354 106.375C529.111 106.531 529.891 106.315 530.432 105.751C531.321 104.839 532.595 103.506 533.075 102.857C533.844 101.813 526.84 93.9489 526.84 93.9489Z"/><path fill="#D0DEE9" d="M516.534 86.4089C516.534 86.4089 521.568 92.9884 526.842 93.9368L519.526 101.909C519.526 101.909 511.116 98.8354 509.266 91.5116L516.534 86.4089Z"/><path fill="#D0DEE9" d="M540.091 86.2048C540.091 86.2048 536.415 92.9884 526.84 93.9489L533.087 102.845C533.087 102.845 540.584 101.981 547.672 92.8683L540.091 86.2048Z"/><path fill="#fff" d="M509.721 93.2284C509.721 93.2284 502.657 133.089 523.129 148.169C523.129 148.169 544.922 135.322 546.965 93.7447C546.965 93.7447 557.921 99.3035 564.577 101.092C571.221 102.893 579.487 107.828 583.259 118.057C587.031 128.287 596.559 160.968 596.559 160.968C596.559 160.968 623.446 139.873 633.382 127.098C633.382 127.098 635.893 137.447 644.699 140.329C644.699 140.329 611.288 199.039 592.786 194.189C574.285 189.338 564.469 154.076 564.469 154.076C564.469 154.076 575.486 247.004 571.774 295.077C571.774 295.077 551.314 306.567 525.603 299.027L521.471 280.178L517.482 299.556C517.482 299.556 486.798 305.127 469.558 293.096L480.515 181.786C480.515 181.786 472.97 197.863 457.34 190.011C441.709 182.147 414.762 132.777 414.762 132.777C414.762 132.777 424.109 128.287 426.8 117.877L464.704 161.688C464.704 161.688 469.017 129.367 476.742 115.548C484.443 101.729 504.627 94.0688 509.721 93.2284Z"/><path fill="#DBD6CC" d="M480.981 179.685C480.945 179.685 480.897 179.673 480.861 179.661C480.669 179.601 480.573 179.397 480.645 179.205L487.181 160.319C487.241 160.127 487.445 160.031 487.637 160.103C487.829 160.163 487.926 160.367 487.853 160.559L481.318 179.445C481.27 179.589 481.126 179.685 480.981 179.685Z"/><path fill="#DBD6CC" d="M520.689 270.837H520.677C520.484 270.825 520.328 270.669 520.328 270.465L524.04 160.595C524.052 160.403 524.221 160.235 524.413 160.247C524.617 160.259 524.761 160.415 524.761 160.62L521.049 270.489C521.049 270.681 520.881 270.837 520.689 270.837Z"/><path fill="#DBD6CC" d="M543.903 257.714C540.527 257.714 537.139 257.45 533.823 256.909C533.63 256.873 533.498 256.693 533.522 256.501C533.558 256.309 533.739 256.165 533.931 256.201C542.713 257.618 551.892 257.126 560.482 254.796C560.674 254.748 560.866 254.856 560.927 255.049C560.975 255.241 560.866 255.433 560.674 255.493C555.232 256.97 549.561 257.714 543.903 257.714Z"/><path fill="#DBD6CC" d="M505.961 255.889C497.647 255.889 489.321 254.376 481.56 251.411C481.38 251.339 481.284 251.134 481.356 250.942C481.428 250.762 481.632 250.666 481.825 250.738C491.412 254.388 501.888 255.829 512.112 254.88C512.316 254.868 512.485 255.013 512.509 255.205C512.533 255.397 512.376 255.577 512.184 255.601C510.118 255.793 508.039 255.889 505.961 255.889Z"/><path fill="#DBD6CC" d="M522.022 149.802C522.07 149.814 522.106 149.826 522.155 149.826C522.299 149.826 522.431 149.742 522.491 149.598C522.563 149.418 522.479 149.201 522.287 149.129C510.501 144.399 500.577 135.73 494.306 124.697L499.087 117.985C499.16 117.877 499.172 117.745 499.124 117.625C499.063 117.505 498.955 117.433 498.823 117.421L492.936 117.073C494.126 109.965 496.396 103.146 499.664 96.7462C499.316 96.9023 498.955 97.0704 498.595 97.2505C495.447 103.59 493.285 110.337 492.155 117.349C492.143 117.445 492.167 117.553 492.227 117.625C492.287 117.709 492.384 117.757 492.492 117.757L498.126 118.093L493.585 124.469C493.501 124.577 493.501 124.733 493.561 124.853C499.904 136.115 510.02 144.975 522.022 149.802Z"/><path fill="#DBD6CC" d="M558.099 129.499C558.123 129.403 558.099 129.307 558.051 129.223L554.183 123.34L563.169 122.163C563.277 122.151 563.373 122.091 563.421 121.995C563.482 121.899 563.494 121.791 563.458 121.695L555.564 97.7668C555.264 97.6347 554.976 97.5146 554.675 97.3826L562.641 121.515L553.51 122.704C553.39 122.716 553.282 122.8 553.234 122.908C553.185 123.016 553.198 123.148 553.258 123.256L557.234 129.307L524.868 149.202C524.7 149.31 524.652 149.526 524.748 149.694C524.82 149.802 524.928 149.862 525.049 149.862C525.109 149.862 525.181 149.85 525.241 149.814L557.931 129.727C558.027 129.679 558.075 129.595 558.099 129.499Z"/><path fill="#DBD6CC" d="M421.248 136.487C421.128 136.487 421.008 136.427 420.936 136.307C420.84 136.139 420.888 135.911 421.056 135.815C425.057 133.425 428.132 129.487 429.49 125.033C429.55 124.841 429.742 124.733 429.934 124.793C430.126 124.853 430.235 125.057 430.175 125.237C428.757 129.859 425.573 133.942 421.428 136.427C421.368 136.475 421.308 136.487 421.248 136.487Z"/><path fill="#DBD6CC" d="M638.693 144.711C638.645 144.711 638.597 144.699 638.561 144.687C634.272 142.922 630.788 139.26 629.226 134.89C629.154 134.698 629.262 134.494 629.442 134.434C629.622 134.362 629.838 134.458 629.898 134.65C631.388 138.828 634.728 142.322 638.837 144.015C639.017 144.087 639.113 144.303 639.029 144.483C638.969 144.627 638.837 144.711 638.693 144.711Z"/><path fill="#3F3E3E" d="M551.674 98.8953C550.533 96.6621 549.199 94.7531 547.674 92.8682L546.652 94.1048C547.986 95.7977 549.187 97.6466 550.196 99.6397C553.873 106.831 555.399 115.596 554.738 125.657C554.149 134.65 551.914 143.571 549.764 152.191C549.656 152.635 549.92 153.079 550.365 153.2C550.413 153.212 550.449 153.212 550.497 153.224C550.893 153.26 551.266 152.995 551.374 152.599C553.548 143.907 555.795 134.914 556.396 125.777C557.069 115.404 555.483 106.351 551.674 98.8953Z"/><path fill="#6F6F6E" d="M555.901 155.277C555.613 158.626 552.657 161.112 549.293 160.812C545.942 160.523 543.455 157.57 543.755 154.208C544.043 150.858 546.999 148.373 550.363 148.673C553.703 148.961 556.19 151.927 555.901 155.277Z"/><path fill="#989797" d="M553.809 155.097C553.617 157.294 551.671 158.927 549.472 158.734C547.273 158.542 545.64 156.597 545.832 154.4C546.024 152.203 547.97 150.57 550.169 150.762C552.368 150.954 554.001 152.887 553.809 155.097Z"/><path fill="#6F6F6E" d="M509.428 155.829C507.338 156.009 505.452 155.289 504.214 154.64C502.448 153.704 500.971 152.395 499.757 151.231C496.465 148.073 493.582 144.507 491.203 140.617C491.071 140.401 491.143 140.113 491.359 139.981C491.575 139.849 491.864 139.921 491.996 140.137C494.339 143.955 497.174 147.461 500.406 150.558C501.571 151.675 503.001 152.947 504.659 153.824C505.848 154.46 507.686 155.145 509.681 154.88C509.921 154.832 510.173 155.025 510.197 155.277C510.233 155.529 510.053 155.769 509.801 155.793C509.669 155.805 509.549 155.817 509.428 155.829Z"/><path fill="#6F6F6E" d="M501.404 158.674C501.176 158.698 500.959 158.542 500.911 158.314C500.851 158.062 501.007 157.822 501.26 157.762C502.269 157.534 503.242 156.826 503.975 155.769C504.624 154.844 505.032 153.776 505.465 152.455C507.183 147.124 508 141.59 507.903 135.983C507.903 135.731 508.108 135.526 508.36 135.514C508.612 135.514 508.829 135.719 508.829 135.971C508.925 141.674 508.084 147.305 506.342 152.743C505.981 153.872 505.525 155.169 504.732 156.309C503.867 157.558 502.701 158.398 501.464 158.674C501.452 158.674 501.428 158.674 501.404 158.674Z"/><path fill="#6F6F6E" d="M509.08 154.556C508.672 154.712 508.275 154.892 507.975 155.217C507.687 155.529 507.531 156.009 507.687 156.405C507.891 156.897 508.48 157.102 509.008 157.162C509.993 157.27 511.003 157.09 511.88 156.633C512.312 156.405 512.757 156.057 512.805 155.577C513.033 153.692 510.005 154.208 509.08 154.556Z"/><path fill="#6F6F6E" d="M501.176 159.947C502.005 159.659 503.086 159.155 503.062 158.11C503.05 157.39 502.366 156.801 501.705 156.633C500.347 156.285 498.845 157.57 498.749 158.939C498.665 160.367 500.239 160.271 501.176 159.947Z"/><path fill="#3F3E3E" d="M492.082 141.541C491.733 141.578 491.373 141.397 491.193 141.073C487.553 134.518 486.868 126.426 489.355 119.414C489.871 117.961 490.748 115.884 492.478 114.491C494.064 113.219 496.203 112.69 498.197 113.087C503.183 114.059 505.778 120.747 506.631 122.944C508.193 126.954 509.118 131.528 509.382 136.523C509.406 137.039 509.034 137.483 508.505 137.495C507.989 137.519 507.556 137.135 507.532 136.619C507.28 131.816 506.391 127.446 504.913 123.616C502.846 118.273 500.528 115.428 497.849 114.9C496.383 114.611 494.809 114.996 493.644 115.932C492.611 116.761 491.794 118.069 491.097 120.026C488.778 126.534 489.415 134.062 492.803 140.161C493.055 140.605 492.887 141.169 492.442 141.421C492.334 141.493 492.214 141.529 492.082 141.541Z"/><path fill="#3F3E3E" d="M509.263 91.5115C508.098 92.3759 506.897 93.3844 505.827 94.369C500.253 99.5196 496.108 106.399 494.162 113.735C494.042 114.179 494.306 114.623 494.75 114.744C494.823 114.768 494.895 114.768 494.967 114.768C495.327 114.768 495.664 114.527 495.772 114.155C497.646 107.12 501.611 100.528 506.957 95.5816C507.87 94.7412 508.831 93.9607 509.816 93.2043C509.648 92.8562 509.408 92.0518 509.263 91.5115Z"/><path fill="#14161B" d="M284.24 39.5845C280.732 45.7197 280.035 53.0195 279.614 60.0672C279.194 67.1268 278.942 74.3666 276.166 80.862C273.764 86.4929 269.547 91.3194 267.865 97.2145C265.053 107.096 270.508 118.189 279.278 123.556C288.036 128.923 299.305 129.151 309.061 125.933C313.638 124.421 318.035 122.199 322.817 121.587C328.043 120.927 333.281 122.235 338.495 122.992C343.709 123.748 349.368 123.856 353.849 121.083C358.763 118.033 361.214 111.994 361.25 106.207C361.286 100.42 359.256 94.8372 356.889 89.5545C354.534 84.2717 351.795 79.1211 350.293 73.5382C347.374 62.7326 349.032 50.4142 342.868 41.0613C338.591 34.5539 331.095 30.6879 323.442 29.2592C311.151 26.954 291.304 27.2421 284.24 39.5845Z"/><path fill="#02231F" d="M282.489 473.454C282.489 473.454 268.877 490.503 279.785 493.625C290.694 496.746 335.266 497.07 335.483 493.997C336.252 483.107 309.16 483.347 301.447 474.259C293.866 465.326 282.489 473.454 282.489 473.454Z"/><path fill="#FCB095" d="M276.207 257.618L282.49 473.454C282.49 473.454 289.603 475.747 301.449 474.259C301.449 474.259 316.106 292.58 315.625 257.57L276.207 257.618Z"/><path fill="#FCB095" d="M299.982 397.887C302.589 397.503 305.28 396.83 307.503 395.473C307.96 389.374 308.416 383.131 308.861 376.84C301.063 374.895 293.098 373.586 285.085 372.962C283.259 372.818 281.264 372.77 279.57 373.346L280.255 396.674C286.262 399.039 294.516 398.715 299.982 397.887Z"/><path fill="#02231F" d="M351.773 475.747C351.773 475.747 347.195 492.316 351.773 494.837C356.35 497.347 407.95 499.111 406.893 494.837C404.154 483.635 376.245 485.724 367.932 474.03L351.773 475.747Z"/><path fill="#FCB095" d="M361.971 245.348C361.971 245.348 368.146 426.39 367.93 474.018L351.771 475.735L323.418 248.877L361.971 245.348Z"/><path fill="#FCB095" d="M365.793 368.087C365.721 368.015 365.661 367.943 365.589 367.871C364.171 366.647 362.045 366.911 360.207 367.283C353.01 368.736 345.898 370.597 338.918 372.854L342.042 397.875C348.565 396.35 354.897 394.009 360.832 390.911C362.706 389.891 364.712 388.714 366.31 387.189C366.154 380.886 365.974 374.487 365.793 368.087Z"/><path fill="#3DC0B3" d="M275.554 301.933C275.554 301.933 275.326 349.189 276.467 382.987C276.467 382.987 323.418 394.393 367.942 378.857V295.762L320.234 276.564L275.554 301.933Z"/><path fill="#3DC0B3" d="M299.942 288.078L275.541 301.933C275.541 301.933 275.469 316.881 275.614 335.983C281.957 336.403 287.592 336.751 288.769 336.727C309.301 336.247 329.749 332.489 349.092 325.609C353.873 323.916 358.583 322.019 363.196 319.954C364.578 319.342 366.284 318.718 367.918 317.949V295.774L345.668 286.817C330.446 287.225 315.188 287.645 299.942 288.078Z"/><path fill="#25998B" d="M283.315 376.287C283.123 376.287 282.955 376.131 282.955 375.927L282.57 322.788C282.57 322.584 282.726 322.427 282.931 322.427C283.123 322.427 283.291 322.584 283.291 322.788L283.676 375.927C283.676 376.119 283.519 376.287 283.315 376.287Z"/><path fill="#25998B" d="M324.223 377.38C324.09 377.38 323.97 377.308 323.898 377.188C323.802 377.008 323.874 376.792 324.054 376.708C330.602 373.334 336.104 367.907 339.54 361.412C339.637 361.232 339.853 361.172 340.021 361.268C340.201 361.364 340.261 361.58 340.165 361.748C336.645 368.375 331.035 373.91 324.367 377.344C324.331 377.368 324.283 377.38 324.223 377.38Z"/><path fill="#FCB095" d="M265.32 135.947C265.32 135.947 269.093 125.489 280.758 121.203C292.424 116.917 307.009 110.397 307.177 98.9193C307.237 94.9813 306.228 91.8237 304.871 89.3744C312.932 90.0708 322.003 90.8752 328.574 91.4755C326.844 93.6846 325.763 96.6862 325.535 101.921C325.174 110.385 330.953 112.09 337.681 114.503C349.875 118.874 361.084 128.299 365.938 140.497L356.243 163.045C356.243 163.045 362.07 215.164 364.472 243.619C364.472 243.619 326.736 253.56 276.986 247.389L281.792 152.755L265.32 135.947Z"/><path fill="#FCB095" d="M306.758 94.537C306.349 92.556 305.664 90.8391 304.859 89.3864C312.512 90.0467 321.078 90.8031 327.542 91.3914C327.638 91.4514 327.722 91.5115 327.806 91.5955C327.95 91.7396 328.035 91.9197 328.107 92.1118C326.689 94.1889 325.788 96.9983 325.548 101.501C323.073 102.149 320.165 102.017 317.811 101.561C316.069 101.225 314.351 100.648 312.789 99.7838C310.422 98.4991 308.367 96.6861 306.758 94.537Z"/><path fill="#4E3454" d="M321.135 164.089C326.205 161.46 330.254 157.246 334.062 152.971C341.655 144.447 348.851 135.01 351.41 123.892C351.531 123.352 351.651 122.788 351.735 122.223C347.446 118.91 342.652 116.268 337.666 114.491C335.804 113.819 334.014 113.207 332.404 112.486C330.554 113.675 327.082 112.198 325.088 113.135C319.645 115.704 316.377 116.917 311.536 115.26C308.544 114.239 305.553 115.068 302.681 113.723C301.672 113.255 300.351 112.739 298.897 112.294C295.221 114.996 290.715 117.205 286.246 119.054C286.462 126.414 287.868 133.858 290.019 140.845C291.388 145.263 293.106 149.586 295.173 153.728C297.395 158.182 300.23 162.636 304.652 164.918C309.734 167.559 316.053 166.719 321.135 164.089Z"/><path fill="#63446B" d="M303.076 107.972C303.076 107.972 306.716 114.491 315.078 115.968L311.882 123.736C311.882 123.736 300.553 121.371 296.324 114.035L303.076 107.972Z"/><path fill="#63446B" d="M327.369 108.896C327.369 108.896 323.644 115.74 315.066 115.968L318.046 123.736C318.046 123.736 328.102 123.052 334.229 113.243L327.369 108.896Z"/><path fill="#FCB095" d="M365.133 140.497C365.133 140.497 375.741 215.764 376.186 269.084C376.186 269.084 384.091 301.081 370.659 304.911C357.227 308.741 357.396 304.911 357.396 304.911L349.562 160.427L365.133 140.497Z"/><path fill="#4E3454" d="M379.635 259.791L380.512 268.279C380.512 268.279 371.249 272.109 365.242 269.828V260.968L379.635 259.791Z"/><path fill="#fff" d="M366.912 138.852C366.912 138.852 374.565 151.555 380.512 258.614C380.512 258.614 377.076 265.47 364.041 262.733L351.738 161.472L366.912 138.852Z"/><path fill="#F2EDE4" d="M364.039 262.721C372.413 264.486 376.822 262.288 378.901 260.487C369.434 243.403 365.385 224.157 362.958 205.067C362.309 200.012 361.769 194.945 361.252 189.867C360.327 180.91 359.474 171.941 358.224 163.021C357.9 160.74 357.564 158.47 357.179 156.189C357.083 155.637 357.047 154.676 356.951 153.692L352.806 159.875C352.734 162.709 352.662 165.542 352.59 168.376L364.039 262.721Z"/><path fill="#fff" d="M296.329 114.047C296.329 114.047 296.846 146.14 316.489 161.004C316.489 161.004 332.828 137.964 334.245 113.255C334.245 113.255 350.308 116.893 359.235 126.486C368.161 136.091 367.692 143.403 367.692 143.403L356.231 163.045C356.231 163.045 369.05 256.585 370.66 304.923C370.66 304.923 340.132 316.689 326.749 315.824L322.976 299.027L321.498 315.14C321.498 315.14 281.756 317.109 270.258 309.569C270.258 309.569 274.595 209.941 279.774 171.509L265.309 135.971C265.309 135.971 267.459 125.369 279.053 121.251C290.658 117.121 296.329 114.047 296.329 114.047Z"/><path fill="#DBD6CC" d="M313.485 162.216C313.593 162.216 313.713 162.156 313.773 162.06C313.87 161.904 313.833 161.688 313.665 161.592C303.85 155.337 295.368 147.425 288.46 138.06L290.947 132.225C290.983 132.129 290.983 132.021 290.935 131.937C290.887 131.841 290.803 131.781 290.706 131.757L284.183 130.292L291.692 116.256C291.367 116.401 291.031 116.545 290.67 116.701L283.366 130.364C283.318 130.46 283.318 130.568 283.354 130.664C283.402 130.76 283.486 130.832 283.594 130.856L290.154 132.333L287.763 137.964C287.715 138.072 287.727 138.204 287.799 138.3C294.779 147.797 303.369 155.817 313.305 162.156C313.353 162.204 313.425 162.216 313.485 162.216Z"/><path fill="#DBD6CC" d="M343.221 140.713C343.317 140.593 343.329 140.437 343.245 140.317L340.289 135.719L345.816 133.209C345.972 133.137 346.044 132.969 346.008 132.813C344.242 125.693 341.875 119.378 340.037 115.008C339.737 114.9 339.448 114.804 339.16 114.708C340.986 119.018 343.437 125.429 345.263 132.705L339.629 135.262C339.533 135.298 339.473 135.382 339.436 135.478C339.412 135.574 339.424 135.683 339.473 135.767L342.5 140.485C340.95 142.346 328.323 157.222 317.511 161.964C317.343 162.036 317.259 162.24 317.331 162.42C317.391 162.553 317.511 162.625 317.643 162.625C317.691 162.625 317.739 162.613 317.775 162.601C329.453 157.474 343.089 140.881 343.221 140.713Z"/><path fill="#DBD6CC" d="M318.24 191.067C318.059 191.067 317.903 190.923 317.903 190.743L316.786 169.48C316.774 169.288 316.918 169.132 317.11 169.12C317.302 169.108 317.459 169.252 317.471 169.444L318.588 190.707C318.6 190.899 318.456 191.055 318.264 191.067C318.252 191.067 318.24 191.067 318.24 191.067Z"/><path fill="#DBD6CC" d="M323.456 293.132C323.276 293.132 323.12 292.988 323.12 292.808L319.059 219.642C319.047 219.45 319.191 219.294 319.384 219.282C319.588 219.27 319.732 219.414 319.744 219.606L323.805 292.772C323.817 292.964 323.673 293.12 323.48 293.132C323.468 293.132 323.468 293.132 323.456 293.132Z"/><path fill="#DBD6CC" d="M280.636 172.134C280.588 172.134 280.54 172.122 280.492 172.098C280.324 172.013 280.252 171.809 280.336 171.641L283.796 164.462C283.88 164.293 284.084 164.221 284.253 164.305C284.421 164.39 284.493 164.594 284.409 164.762L280.949 171.941C280.889 172.062 280.769 172.134 280.636 172.134Z"/><path fill="#DBD6CC" d="M299.991 275.183C292.891 275.183 285.803 274.055 279.039 271.809C278.859 271.749 278.762 271.557 278.823 271.377C278.883 271.197 279.075 271.101 279.255 271.161C289.876 274.679 301.289 275.435 312.282 273.346C312.462 273.31 312.642 273.43 312.678 273.622C312.714 273.802 312.594 273.983 312.402 274.019C308.305 274.787 304.148 275.183 299.991 275.183Z"/><path fill="#DBD6CC" d="M341.427 273.106C339.205 273.106 336.982 272.962 334.784 272.674C334.591 272.65 334.459 272.482 334.483 272.29C334.507 272.097 334.676 271.965 334.868 271.989C344.419 273.25 354.475 271.701 363.197 267.619C363.365 267.535 363.569 267.619 363.653 267.787C363.738 267.955 363.665 268.159 363.485 268.243C356.661 271.437 349.008 273.106 341.427 273.106Z"/><path fill="#7A4C4C" d="M379.344 166.046L317.988 221.719C317.988 221.719 330.387 253.716 359.617 269.06L419.904 210.974C419.904 210.986 393.16 188.27 379.344 166.046Z"/><path fill="#6F6F6E" d="M387.682 182.663C387.718 183.203 388.103 183.648 388.463 184.044C392.332 188.33 396.2 192.616 400.069 196.902C400.706 197.611 401.487 198.379 402.436 198.307C402.916 198.271 403.349 198.019 403.757 197.767L405.259 196.866C406.905 195.882 407.121 193.589 405.691 192.304L399.48 186.745C397.978 185.4 396.477 184.056 394.987 182.711C394.05 181.883 392.596 179.914 391.215 179.926C390.085 179.926 387.586 181.354 387.682 182.663Z"/><path fill="#6F6F6E" d="M404.814 194.369L404.669 193.625C405.679 193.421 406.231 192.16 406.099 191.163C405.955 190.047 405.21 189.05 404.441 188.138C402.471 185.821 400.224 183.768 397.737 182.003C396.8 181.342 395.779 180.694 394.662 180.466C393.496 180.226 392.331 180.526 391.67 181.234L391.105 180.718C391.946 179.806 393.364 179.421 394.806 179.722C396.055 179.986 397.161 180.682 398.17 181.39C400.705 183.179 402.999 185.292 405.006 187.646C405.859 188.642 406.664 189.759 406.844 191.067C407.048 192.424 406.267 194.081 404.814 194.369Z"/><path fill="#FCB095" d="M268.262 190.803C272.226 184.608 293.467 148.013 293.467 148.013L277.032 138.852L258.362 150.75C258.362 150.75 253.364 163.021 245.014 190.059C236.665 217.097 261.858 214.792 274.004 214.852C283.447 214.9 310.539 211.274 322.145 209.653C322.673 209.581 323.19 209.569 323.695 209.629L326.109 196.854C310.695 197.671 268.262 190.803 268.262 190.803Z"/><path fill="#FCB095" d="M362.104 215.272C360.626 209.905 342.545 200.264 342.545 200.264C342.545 200.264 336.442 195.678 334.772 195.534C333.078 195.798 331.3 196.11 329.462 196.446C328.609 196.602 327.479 196.806 326.098 196.878L323.707 209.629C325.858 209.833 328.032 209.905 329.005 211.958C332.165 218.598 338.256 226.726 341.115 228.995C344.636 231.793 340.13 217.241 340.13 217.241C340.13 217.241 348.78 228.839 350.727 226.642C352.673 224.457 343.951 214.564 343.951 214.564C343.951 214.564 356.121 227.17 358.248 224.529C360.374 221.887 348.12 211.13 348.12 211.13C348.12 211.13 363.582 220.639 362.104 215.272Z"/><path fill="#FCB095" d="M334.758 195.534C334.758 195.534 344.261 190.839 349.355 193.24L342.531 200.276L335.947 201.129L334.758 195.534Z"/><path fill="#4E3454" d="M315.057 195.978H323.707C323.707 195.978 320.175 201.693 321.773 210.95L311.141 213.063V198.835L315.057 195.978Z"/><path fill="#fff" d="M267.133 131.348C267.133 131.348 241.435 179.061 242.348 199.184C243.261 219.294 266.532 224.877 313.195 214.564C313.195 214.564 311.261 200.408 315.622 195.209C315.622 195.209 269.956 190.383 271.074 188.546C272.191 186.709 294.958 147.064 294.958 147.064L267.133 131.348Z"/><path fill="#FCB095" d="M337.86 48.5171C337.86 48.5171 344.12 72.0014 342.161 84.2237C340.203 96.4461 322.771 101.969 298.959 88.57C298.959 88.57 297.121 91.6316 291.414 88.2338C285.707 84.848 286.056 71.9773 295.102 76.2516C295.102 76.2516 286.044 48.8533 294.766 42.9943C303.488 37.1232 337.86 48.5171 337.86 48.5171Z"/><path fill="#14161B" d="M318.697 45.4796C318.132 48.9614 315.092 51.4707 312.029 53.2116C308.965 54.9525 305.577 56.3692 303.307 59.0586C299.222 63.9332 299.342 71.4971 295.101 76.2396C287.965 68.8797 285.814 57.6899 288.794 47.8688C289.839 44.399 291.629 41.0373 294.476 38.7801C298.897 35.2743 304.989 34.9981 310.635 35.0101C315.02 35.0101 319.441 35.0942 323.743 35.9826C328.044 36.8711 332.249 38.624 335.468 41.6136C337.559 43.5586 339.169 45.9718 340.394 48.5412C340.983 49.7898 343.614 54.5803 342.1 55.7089C341.319 56.2972 339.193 55.6008 338.316 55.4327C336.898 55.1686 335.48 54.8204 334.099 54.4002C331.371 53.5718 328.728 52.4312 326.241 51.0264C324.884 50.258 323.562 49.4056 322.301 48.4691C321.82 48.157 318.613 46.0318 318.697 45.4796Z"/><path fill="#3F2C44" d="M190.084 475.423C190.084 475.423 185.29 492.772 190.084 495.413C194.877 498.043 248.904 499.892 247.811 495.413C244.94 483.683 217.704 485.881 209.006 473.634L190.084 475.423Z"/><path fill="#3F2C44" d="M147.074 471.113C147.074 471.113 155.7 490.983 144.923 493.853C134.147 496.722 90.0191 494.981 90.5477 491.704C91.7491 484.284 111.861 481.414 119.766 471.953C127.539 462.66 147.074 471.113 147.074 471.113Z"/><path fill="#3DC0B3" d="M204.921 232.345C204.921 232.345 207.167 396.59 208.993 473.634L190.011 475.435L151.734 238.432L204.921 232.345Z"/><path fill="#3DC0B3" d="M164.195 238.42L147.075 471.113C147.075 471.113 133.631 473.262 120.584 471.113C120.584 471.113 111.885 274.054 114.06 236.283L164.195 238.42Z"/><path fill="#6CBFB4" d="M205.27 256.513C191.166 256.009 177.073 255.505 162.969 255.001C147.783 254.46 132.597 253.92 117.423 253.38C116.198 253.332 114.912 253.332 113.723 253.572C113.711 268.916 114.143 290.443 114.792 314.023C121.4 314.672 128.044 314.828 134.675 314.491C142.809 314.071 150.918 312.907 158.848 311.046L160.289 291.367L163.281 309.929C173.997 307.06 184.366 302.905 194.073 297.563C197.845 295.486 201.882 293.204 205.751 290.659C205.57 277.536 205.402 265.89 205.27 256.513Z"/><path fill="#25998B" d="M191.608 460.896C191.44 460.896 191.284 460.763 191.248 460.595L166.451 302.917C166.415 302.725 166.559 302.533 166.751 302.509C166.943 302.485 167.136 302.617 167.16 302.809L191.957 460.487C191.993 460.679 191.849 460.872 191.656 460.896C191.644 460.896 191.632 460.896 191.608 460.896Z"/><path fill="#14161B" d="M118.396 44.2429C115.02 36.8231 114.683 27.4582 119.705 21.0469C117.158 15.2478 119.489 7.74394 124.883 4.41821C128.067 2.44919 131.924 1.92091 135.66 1.65677C143.986 1.06847 152.395 1.57273 160.589 3.16956C163.364 3.70984 166.14 4.38219 168.602 5.76291C171.065 7.14363 173.204 9.30475 173.997 12.0062C177.769 11.8501 181.554 13.9632 183.392 17.2529C185.23 20.5426 185.062 24.8648 182.947 27.9985C185.206 28.2866 186.155 31.036 186.263 33.3052C186.612 41.1573 182.431 48.7933 176.34 53.7879C170.26 58.7825 162.475 61.3518 154.678 62.3723C148.467 63.1888 141.282 63.7411 135.059 62.6125C130.518 61.796 127.262 57.1376 124.523 53.7999C122.132 50.8584 119.982 47.7007 118.396 44.2429Z"/><path fill="#FCB095" d="M101.817 119.594C101.817 119.594 89.1185 159.695 87.2082 166.755C87.2082 166.755 48.0424 134.206 43.3689 124.745C38.6954 115.284 31.6311 100.204 27.1979 99.9639C22.7647 99.7238 30.4297 117.193 30.4297 117.193C30.4297 117.193 10.0779 108.945 4.68357 111.694C-0.710744 114.443 18.0913 120.194 18.0913 120.194C18.0913 120.194 0.610803 118.033 0.0100994 121.743C-0.590604 125.453 18.3316 126.174 18.3316 126.174C18.3316 126.174 4.08287 126.294 3.72245 129.523C3.36203 132.753 18.9323 131.324 18.9323 131.324C18.9323 131.324 3.96273 138.384 8.75634 139.224C12.6489 139.909 23.5817 138.924 31.1986 136.607C34.046 135.742 37.1216 136.811 38.7555 139.296C45.0869 148.985 59.9843 171.497 66.1235 178.473C74.0288 187.453 88.6379 207.672 102.766 183.503C116.895 159.335 122.53 147.461 122.53 147.461L119.058 125.705L101.817 119.594Z"/><path fill="#FCB095" d="M101.816 119.594C101.816 119.594 105.769 108.644 117.987 104.154C130.206 99.6638 145.476 92.8443 145.656 80.814C145.716 76.6839 144.659 73.3822 143.241 70.8248C151.687 71.5572 161.178 72.3856 168.062 73.022C166.248 75.3392 165.119 78.4728 164.89 83.9597C164.518 92.8203 170.561 94.6092 177.613 97.1305C190.384 101.705 202.122 111.574 207.204 124.349L197.028 147.965C197.028 147.965 203.131 202.545 205.654 232.345C205.654 232.345 166.128 242.754 114.035 236.295L119.069 137.195L101.816 119.594Z"/><path fill="#FCB095" d="M145.213 76.2276C144.78 74.1506 144.071 72.3496 143.23 70.8248C151.244 71.5212 160.206 72.3016 166.982 72.9259C167.078 72.986 167.175 73.046 167.259 73.13C167.415 73.2861 167.499 73.4662 167.571 73.6703C166.081 75.8554 165.144 78.785 164.892 83.5034C162.297 84.1758 159.257 84.0437 156.782 83.5635C154.956 83.2033 153.154 82.603 151.52 81.7145C149.045 80.3818 146.895 78.4848 145.213 76.2276Z"/><path fill="#FCB095" d="M177.782 28.0345C177.782 28.0345 184.341 52.6353 182.287 65.422C180.233 78.2207 161.971 84.0077 137.042 69.9724C137.042 69.9724 135.12 73.178 129.137 69.6242C123.166 66.0703 123.514 52.5993 133.005 57.0777C133.005 57.0777 123.526 28.3947 132.657 22.2475C141.788 16.1003 177.782 28.0345 177.782 28.0345Z"/><path fill="#3DC0B3" d="M137.067 92.2799C137.067 92.2799 148.973 107 160.362 110.409C160.362 110.409 170.706 103.23 172.568 93.1804C172.568 93.1804 195.275 101.08 203.18 114.359C211.085 127.65 217.008 148.541 217.729 154.604C218.45 160.667 203.18 164.618 203.18 164.618L196.536 205.007L206.376 231.324L210.004 277.872C210.004 277.872 159.521 298.151 108.738 277.872L116.367 157.786L111.08 172.302C111.08 172.302 92.5186 170.981 84.1328 155.193C84.1328 155.193 96.0508 117.577 106.107 108.957C116.162 100.336 137.067 92.2799 137.067 92.2799Z"/><path fill="#25998B" d="M160.986 116.485C161.058 116.485 161.118 116.46 161.179 116.424C168.856 111.562 174.911 103.986 178.178 95.4616C177.95 95.3655 177.734 95.2695 177.518 95.1734C174.334 103.53 168.423 110.938 160.926 115.74C149.393 112.414 139.253 104.262 133.282 93.8287C133.066 93.9248 132.849 94.0088 132.621 94.1169C138.712 104.778 149.092 113.111 160.89 116.473C160.926 116.485 160.95 116.485 160.986 116.485Z"/><path fill="#25998B" d="M94.6578 161.364C100.136 164.918 106.323 167.187 112.258 169.072L112.499 168.4C106.6 166.527 100.461 164.281 95.0423 160.764C91.9667 158.771 88.1943 155.721 85.3469 151.519C85.2388 151.819 85.1427 152.107 85.0586 152.371C87.942 156.441 91.6303 159.395 94.6578 161.364Z"/><path fill="#25998B" d="M116.919 154.592C116.871 154.592 116.835 154.58 116.787 154.568C116.607 154.496 116.511 154.28 116.583 154.1C119.478 146.812 121.544 139.176 122.698 131.42C122.722 131.228 122.914 131.096 123.106 131.12C123.299 131.144 123.443 131.336 123.407 131.528C122.241 139.344 120.175 147.028 117.255 154.376C117.195 154.508 117.051 154.592 116.919 154.592Z"/><path fill="#25998B" d="M140.384 249.141C132.455 249.141 124.478 247.893 116.969 245.444C116.776 245.384 116.68 245.179 116.74 244.987C116.801 244.795 117.005 244.699 117.197 244.759C126.964 247.941 137.525 249.081 147.749 248.061C147.941 248.049 148.121 248.181 148.145 248.385C148.169 248.577 148.025 248.757 147.821 248.781C145.346 249.021 142.871 249.141 140.384 249.141Z"/><path fill="#25998B" d="M181.46 249.178C178.672 249.178 175.885 248.937 173.146 248.469C172.954 248.433 172.821 248.253 172.857 248.049C172.894 247.857 173.074 247.725 173.278 247.761C182.385 249.346 192.08 248.217 200.586 244.591C200.766 244.519 200.982 244.603 201.055 244.783C201.127 244.963 201.043 245.179 200.862 245.252C194.783 247.845 188.103 249.178 181.46 249.178Z"/><path fill="#D1E0DE" d="M206.374 231.348L202.674 221.467L168.025 210.83L144.91 211.67C144.91 211.67 156.456 237.856 207.035 239.777L206.374 231.348Z"/><path fill="#B35590" d="M173.203 131.84L144.91 211.67C144.91 211.67 173.371 232.237 206.374 231.348L230.57 151.231C230.558 151.231 196.126 144.483 173.203 131.84Z"/><path fill="#6F6F6E" d="M188.592 142.262C188.893 142.718 189.433 142.922 189.95 143.09C195.416 144.939 200.895 146.788 206.361 148.637C207.262 148.937 208.319 149.226 209.112 148.697C209.509 148.433 209.761 148.001 210.001 147.581L210.866 146.056C211.816 144.387 210.878 142.286 209.016 141.866L200.871 140.041C198.9 139.597 196.942 139.164 194.972 138.72C193.746 138.444 191.512 137.447 190.31 138.132C189.361 138.696 187.884 141.169 188.592 142.262Z"/><path fill="#6F6F6E" d="M209.271 144.099L208.778 143.522C209.559 142.85 209.427 141.481 208.826 140.677C208.153 139.777 207.024 139.272 205.895 138.852C203.047 137.796 200.068 137.099 197.052 136.775C195.911 136.655 194.697 136.595 193.616 136.931C192.487 137.291 191.61 138.12 191.382 139.056L190.637 138.876C190.925 137.663 191.97 136.631 193.376 136.199C194.589 135.814 195.899 135.887 197.124 136.007C200.212 136.331 203.252 137.051 206.159 138.132C207.396 138.588 208.634 139.164 209.439 140.221C210.268 141.313 210.4 143.15 209.271 144.099Z"/><path fill="#FCB095" d="M219.528 186.541C219.528 186.541 203.766 179.517 202.865 182.231C201.964 184.944 215.287 191.199 215.287 191.199C215.287 191.199 201.952 185.941 200.69 188.75C199.417 191.56 213.473 196.638 213.473 196.638C213.473 196.638 200.69 193.468 198.876 195.281C197.062 197.094 206.769 201.441 210.662 201.261C210.662 201.261 202.048 204.886 202.865 207.42C203.682 209.953 215.467 207.324 217.642 206.147C219.828 204.982 229.308 191.668 219.528 186.541Z"/><path fill="#14161B" d="M144.384 29.3672C153.767 32.0926 163.727 32.813 173.41 31.4443C175.741 31.1201 178.312 30.4958 179.574 28.5147C180.967 26.3296 180.138 23.4121 178.817 21.1789C175.008 14.7676 167.752 11.1897 160.543 9.28074C154.933 7.79196 148.998 7.10761 143.303 8.28422C133.211 10.3613 124.693 18.6816 122.375 28.7068C120.681 36.0306 122.363 43.9908 126.555 50.186C127.997 52.3111 131.157 56.8495 134.232 54.8684C135.758 53.8839 136.539 51.3866 137.308 49.8138C138.269 47.8328 139.158 45.8277 139.975 43.7867C141.837 39.1163 143.315 34.2897 144.384 29.3672Z"/><path fill="#FCB095" d="M43.3689 124.745C38.6954 115.284 31.6311 100.204 27.1979 99.9639C22.7647 99.7238 30.4297 117.193 30.4297 117.193C30.4297 117.193 10.0779 108.945 4.68357 111.694C-0.710744 114.443 18.0913 120.194 18.0913 120.194C18.0913 120.194 0.610803 118.033 0.0100994 121.743C-0.590604 125.453 18.3316 126.173 18.3316 126.173C18.3316 126.173 4.08287 126.294 3.72245 129.523C3.36202 132.753 18.9323 131.324 18.9323 131.324C18.9323 131.324 3.96273 138.384 8.75634 139.224C12.6489 139.909 23.5817 138.924 31.1986 136.607C34.046 135.742 37.1216 136.811 38.7555 139.296C40.6777 142.238 43.3929 146.356 46.3964 150.858C46.7088 150.642 47.0091 150.414 47.3095 150.186C49.8925 148.205 52.2112 145.888 54.2296 143.33C54.9024 142.478 55.9837 141.229 56.8727 139.897C50.3491 133.653 44.9307 127.902 43.3689 124.745Z"/></svg>