<svg xmlns="http://www.w3.org/2000/svg" width="588" height="462" fill="none" viewBox="0 0 588 462"><path fill="#4F96A4" fill-rule="evenodd" d="M76.2246 439.585H89.2987C93.183 439.585 96.3776 436.411 96.3776 432.521C96.3776 428.645 93.197 425.457 89.2987 425.457H86.9485C83.8664 425.457 81.3332 422.943 81.3332 419.853C81.3332 416.777 83.8664 414.25 86.9485 414.25H442.637C445.719 414.25 448.252 416.777 448.252 419.853C448.252 422.929 445.733 425.457 442.637 425.457H413.196C409.311 425.457 406.117 428.631 406.117 432.521C406.117 436.397 409.297 439.585 413.196 439.585H420.246C426.424 439.585 431.477 444.627 431.477 450.793C431.477 456.958 426.424 462 420.246 462H76.2246C70.0465 462 64.9941 456.958 64.9941 450.793C64.9941 444.627 70.0465 439.585 76.2246 439.585ZM458.483 414.264H462.41C465.506 414.264 468.025 416.792 468.025 419.867C468.025 422.943 465.492 425.471 462.41 425.471H458.483C455.401 425.471 452.868 422.957 452.868 419.867C452.868 416.792 455.401 414.264 458.483 414.264Z" clip-rule="evenodd"/><path fill="#fff" fill-rule="evenodd" d="M381.587 211.479L369.892 271.729H426.157C433.475 271.729 439.442 277.683 439.442 284.986V317.92C439.442 325.223 433.475 331.178 426.157 331.178H358.535L339.156 430.232C337.932 436.524 332.527 440.948 326.11 440.948H291.096C286.986 440.948 283.454 439.276 280.836 436.116C278.219 432.956 277.262 429.164 278.05 425.148L296.429 331.178H230.355L211.455 430.176C210.245 436.496 204.84 440.962 198.395 440.962H163.648C159.567 440.962 156.048 439.318 153.431 436.173C150.813 433.041 149.842 429.277 150.588 425.274L168.095 331.178H117.037C109.719 331.178 103.752 325.223 103.752 317.92V285C103.752 277.697 109.719 271.743 117.037 271.743H179.579L191.71 211.493H137.035C129.717 211.493 123.75 205.538 123.75 198.235V165.821C123.75 158.518 129.717 152.563 137.035 152.563H202.49L221.405 52.0346C222.601 45.7007 228.005 41.2206 234.465 41.2206H270C274.095 41.2206 277.613 42.8778 280.231 46.0097C282.849 49.1556 283.82 52.9194 283.06 56.922L265.06 152.563H331.796L351.203 51.9644C352.413 45.6586 357.817 41.2065 364.249 41.2065H398.475C402.584 41.2065 406.103 42.8638 408.72 46.0237C411.338 49.1837 412.295 52.9616 411.521 56.9782L393.085 152.563H444.565C451.883 152.563 457.864 158.518 457.864 165.821V198.235C457.864 205.538 451.897 211.493 444.565 211.493H381.587V211.479ZM241.67 271.729H307.73L319.496 211.479H253.379L241.67 271.729Z" clip-rule="evenodd"/><path fill="#555050" fill-rule="evenodd" d="M401.163 336.374C400.023 337.245 393.451 342.287 393.127 342.807C392.775 343.382 393.043 344.955 393.676 346.051C394.323 347.146 395.914 345.784 399.291 343.523C402.655 341.248 403.457 340.714 403.809 339.97C404.161 339.225 402.148 336.459 401.881 336.332C401.543 336.192 401.402 336.192 401.163 336.374Z" clip-rule="evenodd"/><path fill="#302C2C" fill-rule="evenodd" d="M393.578 345.91C393.606 345.967 393.634 346.009 393.663 346.065C394.31 347.16 395.9 345.798 399.278 343.537C402.641 341.262 403.444 340.728 403.795 339.984C404.147 339.239 402.135 336.473 401.867 336.346C401.713 336.276 401.6 336.234 401.501 336.248C401.501 336.248 403.12 338.467 403.246 339.141C403.359 339.815 402.163 340.517 401.079 341.444C399.996 342.371 395.689 345.25 394.802 345.658C394.197 345.924 393.874 346.009 393.578 345.91Z" clip-rule="evenodd"/><path fill="#A6D8DC" fill-rule="evenodd" d="M393.957 345.349C393.914 345.264 393.886 345.18 393.858 345.096C393.717 344.717 393.394 343.495 393.605 343.144C393.858 342.835 394.604 342.259 394.928 341.992C395.786 341.29 396.659 340.616 397.517 339.928C398.784 338.944 399.628 338.284 400.895 337.315C401.387 338.003 402.175 339.183 402.246 339.548C402.218 339.843 400.979 340.756 400.698 340.995C399.839 341.739 398.713 342.47 397.77 343.102C397.123 343.537 396.462 343.972 395.786 344.394C395.42 344.632 394.956 344.927 394.562 345.11C394.449 345.152 394.168 345.292 393.957 345.349Z" clip-rule="evenodd"/><path fill="#F9EDC7" fill-rule="evenodd" d="M402.219 338.551C402.247 338.593 402.303 338.607 402.345 338.579C402.387 338.551 402.402 338.495 402.373 338.453C402.373 338.453 402.148 338.06 402.064 337.989C402.022 337.961 401.965 337.961 401.937 337.989C401.909 338.031 401.909 338.088 401.937 338.116C402.007 338.186 402.219 338.551 402.219 338.551Z" clip-rule="evenodd"/><path fill="#F9EDC7" fill-rule="evenodd" d="M401.74 337.779C401.782 337.807 401.839 337.807 401.867 337.779C401.895 337.737 401.895 337.68 401.867 337.652L401.853 337.638C401.811 337.61 401.754 337.61 401.726 337.638C401.698 337.68 401.698 337.737 401.726 337.765L401.74 337.779Z" clip-rule="evenodd"/><path fill="#E27E67" fill-rule="evenodd" d="M390.031 342.245L390.608 342.385C390.608 342.385 391.368 343.916 390.918 345.475C390.468 347.034 390.425 348.031 389.947 348.312C389.468 348.593 388.033 347.525 388.258 346.486C388.483 345.461 389.708 343.593 389.497 342.694C389.286 341.823 390.031 342.245 390.031 342.245Z" clip-rule="evenodd"/><path fill="#3A3735" fill-rule="evenodd" d="M373.551 320.982C373.551 320.982 374.198 316.909 379.659 313.707C385.105 310.491 390.214 308.23 388.046 303.342C385.879 298.455 389.271 294.621 389.031 292.065C388.792 289.509 388.285 287.191 384.964 286.939C384.964 286.939 384.739 280.001 379.11 280.45C373.494 280.9 371.862 285.885 367.288 286.7C362.714 287.514 360.069 288.554 359.998 296.32C359.942 304.087 360.181 308.131 356.874 312.457C353.567 316.783 355.861 323.102 357.873 323.805C359.886 324.507 364.037 321.263 365.585 316.08C367.105 310.898 373.551 320.982 373.551 320.982Z" clip-rule="evenodd"/><path fill="#CD3555" fill-rule="evenodd" d="M371.201 314.283C371.201 314.283 382.896 318.664 387.231 321.389C387.231 321.389 388.554 322.316 389.285 324.395C390.003 326.473 390.932 335.251 391.059 341.107C391.059 341.107 391.101 342.217 391.059 342.694C391.016 343.172 390.2 342.722 389.792 342.849C389.384 342.975 389.314 342.821 389.285 342.484C389.257 342.147 387.034 326.628 386.189 325.546C385.345 324.465 376.676 322.822 375.55 323.06C374.424 323.299 371.201 314.283 371.201 314.283Z" clip-rule="evenodd"/><path fill="#F5AC83" fill-rule="evenodd" d="M392.185 346.177L392.565 347.034C392.565 347.034 394.817 347.624 396.703 346.289C398.589 344.941 399.869 344.492 400.094 343.607C400.305 342.722 398.42 340.897 397.153 341.655C395.886 342.427 393.846 345.11 392.621 345.138C391.383 345.152 392.185 346.177 392.185 346.177Z" clip-rule="evenodd"/><path fill="#2D2828" fill-rule="evenodd" d="M382.432 363.424L381.784 365.095C381.784 365.095 381.334 367.159 384.191 377.145C387.033 387.13 388.863 394.489 388.933 399.138C389.004 403.773 385.95 405.051 383.811 403.225C381.672 401.399 370.54 372.96 368.738 364.505C366.923 356.05 365.91 349.73 368.527 348.438C371.117 347.132 382.432 363.424 382.432 363.424Z" clip-rule="evenodd"/><path fill="#2D2828" fill-rule="evenodd" d="M383.05 410.57C376.619 417.438 368.893 426.735 367.57 427.704C366.247 428.659 362.982 429.389 365.67 424.375C367.682 420.612 374.691 409.194 379.208 402.944C387.512 391.484 394.112 398.745 383.05 410.57Z" clip-rule="evenodd"/><path fill="#3A3735" fill-rule="evenodd" d="M377.857 366.569C374.845 373.493 375.563 374.111 377.35 382.973C379.405 393.197 380.601 400.711 380.137 405.331C379.672 409.952 376.084 410.907 373.86 408.871C373.396 408.449 372.143 406.989 372.185 404.461C372.326 396.132 362.165 375.614 361.321 368.802C360.251 360.193 359.857 353.817 362.953 352.806C366.063 351.795 377.857 366.569 377.857 366.569Z" clip-rule="evenodd"/><path fill="#3A3735" fill-rule="evenodd" d="M379.632 410.415C378.295 419.727 377.281 431.763 376.733 433.293C376.198 434.838 373.932 437.296 373.256 431.65C372.75 427.409 371.962 414.039 372.103 406.343C372.356 392.2 381.94 394.405 379.632 410.415Z" clip-rule="evenodd"/><path fill="#D84D67" fill-rule="evenodd" d="M366.924 427.76C368.401 427.971 369.035 428.336 369.049 428.926C369.063 429.516 368.514 430.274 368.669 430.892C368.823 431.51 370.822 436.018 370.808 436.439C370.794 436.861 370.386 437.015 370.259 437.001C370.132 436.987 370.076 437.591 369.64 437.563C369.203 437.521 366.276 435.807 364.714 432.928C363.152 430.063 361.66 429.122 361.604 428.631C361.548 428.139 362.068 427.83 362.068 427.83C362.561 426.988 364.095 425.597 364.531 426.426C365.193 427.774 365.446 427.549 366.924 427.76Z" clip-rule="evenodd"/><path fill="#FCE4D6" fill-rule="evenodd" d="M370.259 437.001C370.132 436.987 370.076 437.591 369.64 437.563C369.203 437.521 366.276 435.807 364.714 432.928C363.152 430.063 361.66 429.122 361.604 428.631C361.548 428.139 362.068 427.83 362.068 427.83C363.433 429.024 364.348 431.229 366.347 433.869C368.331 436.51 370.259 437.001 370.259 437.001Z" clip-rule="evenodd"/><path fill="#D84D67" fill-rule="evenodd" d="M377.732 433.996C377.732 433.996 378.731 436.201 378.717 437.816C378.703 439.431 378.619 439.993 377.549 440.653C376.48 441.313 373.412 440.863 372.694 440.189C371.976 439.515 371.864 438.223 371.835 437.633C371.807 437.043 372.215 434.431 372.694 433.785C373.172 433.139 373.763 433.223 373.763 433.223C373.763 433.223 374.326 432.226 375.34 432.184C376.353 432.142 376.845 433.322 376.845 433.322C376.845 433.322 377.591 433.476 377.732 433.996Z" clip-rule="evenodd"/><path fill="#FCE9DD" fill-rule="evenodd" d="M378.702 437.802C378.688 439.417 378.604 439.979 377.534 440.639C376.464 441.299 373.396 440.849 372.679 440.175C371.961 439.501 371.848 438.209 371.82 437.619C371.82 437.619 372.327 438.687 372.89 439.052C373.453 439.417 375.606 440.077 377.07 439.571C378.547 439.08 378.702 437.802 378.702 437.802Z" clip-rule="evenodd"/><path fill="#D84D67" fill-rule="evenodd" d="M369.667 314.17C369.667 314.17 376.056 313.089 377.83 324.366C379.603 335.644 376.493 347.146 382.038 356.766C387.653 366.499 373.974 369.055 365.107 366.134C351.062 361.499 350.682 313.075 369.667 314.17Z" clip-rule="evenodd"/><path fill="#F5AC83" fill-rule="evenodd" d="M380.42 288.16C376.198 286.686 371.554 288.933 370.076 293.146L367.641 300.098C366.164 304.311 368.415 308.946 372.637 310.421C376.859 311.881 381.504 309.648 382.981 305.435L385.416 298.483C386.88 294.27 384.628 289.635 380.42 288.16Z" clip-rule="evenodd"/><path fill="#EE9073" fill-rule="evenodd" d="M369.569 294.593L367.641 300.098C366.164 304.311 368.415 308.946 372.637 310.421C373.397 310.687 374.171 310.828 374.931 310.856C370.386 304.789 376.986 301.095 379.421 300.941C381.968 300.772 382.306 299.986 383.938 299.536C384.389 299.41 384.726 299.508 384.966 299.705L385.402 298.469C386.443 295.477 385.613 292.261 383.516 290.127C382.306 290.393 380.73 290.562 378.633 290.309C375.03 289.916 372.159 291.812 369.569 294.593Z" clip-rule="evenodd"/><path fill="#EE9073" fill-rule="evenodd" d="M372.917 309.578C372.917 309.578 371.946 311.319 371.819 312.331C371.693 313.328 372.678 314.844 372.678 314.844C372.678 314.844 371.974 315.49 369.723 314.255C367.471 313.019 366.148 309.157 366.936 308.623C367.71 308.103 370.778 306.938 372.917 309.578Z" clip-rule="evenodd"/><path fill="#CD3555" fill-rule="evenodd" d="M360.632 315.336C360.632 315.336 356.255 316.01 356.452 322.99C356.649 329.97 366.345 343.087 369.596 344.45C372.861 345.798 387.272 347.245 392.254 347.216C392.254 347.216 392.592 347.245 392.634 346.683C392.676 346.121 392.592 345.25 392.789 345.026C392.986 344.801 392.381 344.717 391.804 344.646C391.227 344.576 383.768 343.874 374.606 341.374C374.606 341.374 373.382 341.276 371.595 339.394C369.793 337.512 368.175 322.063 366.697 318.875C365.191 315.701 362.377 315.013 360.632 315.336Z" clip-rule="evenodd"/><path fill="#3A3735" fill-rule="evenodd" d="M387.371 293.919L386.414 298.666L385.555 299.326C385.555 299.326 384.936 298.441 385.063 297.331C385.063 297.331 383.416 300.14 379.236 300.196C375.057 300.253 373.466 300.267 372.129 303.679C370.792 307.092 370.525 310.533 371.468 314.929C372.411 319.325 365.684 330.532 356.48 322.485L355.818 318.327C355.818 318.327 366.331 293.806 366.401 292.907C366.486 292.009 375.521 285.829 375.521 285.829C375.521 285.829 379.419 283.722 380.165 284.804C380.911 285.899 386.934 290.323 386.934 290.323L387.371 293.919Z" clip-rule="evenodd"/><path fill="#75A2F2" fill-rule="evenodd" d="M421.684 106.049L424.104 104.139C424.104 104.139 426.595 104.967 430.353 110.445C434.11 115.922 437.361 122.846 437.221 126.23C437.08 129.615 434.476 129.91 434.476 129.91L433.618 125.303C433.618 125.303 431.436 120.753 429.494 118.955C427.538 117.144 421.684 106.049 421.684 106.049Z" clip-rule="evenodd"/><path fill="#F5AC83" fill-rule="evenodd" d="M447.31 196.831C447.423 196.634 447.338 195.525 447.338 195.525C447.338 195.525 446.55 194.275 445.903 191.48C445.269 188.685 444.664 187.562 443.144 187.73C441.624 187.913 440.273 188.081 440.273 188.081C440.273 188.081 440.752 192.856 441.005 193.179C441.259 193.502 444.059 197.912 444.411 198.095C444.763 198.277 447.31 196.831 447.31 196.831Z" clip-rule="evenodd"/><path fill="#F5AC83" fill-rule="evenodd" d="M477.793 181.087L477.357 180.202C477.357 180.202 476.696 180.329 475.19 178.292C473.684 176.256 471.277 174.065 470.25 173.433C469.209 172.801 469.476 172.998 468.815 172.436C468.153 171.874 466.844 172.338 466.675 172.604C466.507 172.871 466.647 174.739 466.675 174.936C466.704 175.132 474.162 181.298 474.894 181.466C475.626 181.621 477.793 181.087 477.793 181.087Z" clip-rule="evenodd"/><path fill="#D84D67" fill-rule="evenodd" d="M439.796 187.547C439.796 187.547 440.781 187.477 440.823 188.011C440.879 188.545 440.527 188.755 441.794 190.904C443.075 193.067 442.962 195.258 443.891 195.96C444.806 196.662 446.973 196.452 447.255 195.679C447.536 194.907 448.606 196.241 448.606 197.055C448.606 197.87 448.676 199.569 447.015 199.78C445.355 199.991 442.976 199.288 442.441 197.94C441.907 196.592 441.766 195.356 441.456 194.865C441.133 194.373 441.034 195.707 440.682 195.862C440.33 196.002 440.119 195.581 439.866 194.373C439.599 193.165 439.148 187.899 439.796 187.547Z" clip-rule="evenodd"/><path fill="#D84D67" fill-rule="evenodd" d="M466.577 174.43C466.577 174.43 466.141 174.36 466.042 175.933C465.944 177.492 466.873 178.531 468.153 180.497C469.42 182.463 469.926 183.334 470.222 183.924C470.518 184.528 470.926 184.388 471.024 184.065C471.123 183.727 470.419 181.761 470.222 180.596C470.025 179.43 470.686 179.332 471.756 180.259C472.826 181.185 474.233 183.194 476.062 183.559C477.906 183.924 480.664 183.362 480.833 182.73C481.002 182.098 481.34 180.497 480.228 180.202C479.13 179.907 478.258 179.907 477.695 179.907C477.132 179.907 477.653 181.214 475.598 180.301C473.529 179.388 472.122 177.042 469.912 175.806C467.717 174.557 466.577 174.43 466.577 174.43Z" clip-rule="evenodd"/><path fill="#14161B" fill-rule="evenodd" d="M417.896 109.939C417.896 109.939 418.544 105.922 423.934 102.734C429.324 99.5604 434.376 97.3133 432.223 92.4821C430.07 87.6509 433.433 83.8589 433.194 81.331C432.955 78.803 432.448 76.5138 429.155 76.261C429.155 76.261 428.93 69.4074 423.371 69.8428C417.812 70.2922 416.207 75.2217 411.676 76.0222C407.144 76.8228 404.527 77.862 404.47 85.5442C404.414 93.2264 404.653 97.229 401.374 101.498C398.095 105.768 400.375 112.032 402.359 112.72C404.344 113.408 408.467 110.206 409.987 105.08C411.535 99.9677 417.896 109.939 417.896 109.939Z" clip-rule="evenodd"/><path fill="#F5AC83" fill-rule="evenodd" d="M424.68 77.4828C420.515 76.0363 415.899 78.2553 414.449 82.4124L412.043 89.294C410.579 93.4652 412.817 98.0576 416.982 99.5042C421.148 100.951 425.764 98.7318 427.214 94.5747L429.62 87.693C431.084 83.5219 428.86 78.9294 424.68 77.4828Z" clip-rule="evenodd"/><path fill="#EE9073" fill-rule="evenodd" d="M413.956 83.8448L412.056 89.294C410.593 93.4651 412.83 98.0576 416.996 99.5041C417.742 99.771 418.502 99.9114 419.262 99.9395C414.772 93.9286 421.302 90.2771 423.709 90.1226C426.228 89.9541 426.566 89.1816 428.184 88.7463C428.635 88.6199 428.958 88.7182 429.198 88.9148L429.62 87.6929C430.661 84.7296 429.831 81.5556 427.762 79.4349C426.566 79.7018 425.004 79.8703 422.935 79.6175C419.374 79.2102 416.518 81.0781 413.956 83.8448Z" clip-rule="evenodd"/><path fill="#3567D6" fill-rule="evenodd" d="M417.265 102.678C417.265 102.678 417.518 103.408 421.191 103.689C424.85 103.97 424.85 104.504 425.765 105.459C426.666 106.414 429.044 111.47 430.592 115.051C432.14 118.632 432.309 120.627 430.508 125.093C428.692 129.559 429.297 137.859 429.987 138.73C430.676 139.614 430.592 140.401 428.171 139.769C425.751 139.137 416.786 136.974 410.664 141.37C410.664 141.37 409.721 141.244 409.975 140.134C410.228 139.011 409.412 133.351 407.512 130.486C405.612 127.621 404.5 125.303 403.374 120.514C402.248 115.725 399.842 107.509 403.543 105.29C407.259 103.057 410.749 103.816 411.818 102.58C412.902 101.33 417.265 102.678 417.265 102.678Z" clip-rule="evenodd"/><path fill="#EE9073" fill-rule="evenodd" d="M417.124 102.692C417.124 102.692 417.265 103.142 419.038 103.437C419.038 103.437 420.066 106.695 414.366 105.445C411.875 104.897 410.285 104.209 409.412 103.591C410.918 103.282 412.1 103.24 412.621 102.594C413.522 101.484 417.124 102.692 417.124 102.692Z" clip-rule="evenodd"/><path fill="#EE9073" fill-rule="evenodd" d="M417.969 98.6756C417.969 98.6756 416.998 100.403 416.885 101.386C416.758 102.383 417.743 103.872 417.743 103.872C417.743 103.872 417.04 104.504 414.816 103.282C412.593 102.06 411.284 98.2403 412.058 97.7206C412.818 97.201 415.858 96.0634 417.969 98.6756Z" clip-rule="evenodd"/><path fill="#3567D6" fill-rule="evenodd" d="M449.112 163.349C447.058 173.335 446.072 186.017 445.312 187.674C444.552 189.317 441.499 191.929 440.767 185.848C440.218 181.284 439.556 166.903 439.965 158.63C440.725 143.421 452.631 146.173 449.112 163.349Z" clip-rule="evenodd"/><path fill="#1A4AA0" fill-rule="evenodd" d="M447.028 152.999L448.844 151.903C448.844 151.903 447.549 147.816 445.382 146.44C443.2 145.064 428.001 144.586 428.001 144.586L421.049 152.493C421.049 152.493 431.477 152.816 436.304 152.002C441.131 151.187 440.864 152.943 440.568 154.403C440.259 155.878 447.028 152.999 447.028 152.999Z" clip-rule="evenodd"/><path fill="#E1E0E0" fill-rule="evenodd" d="M443.624 124.138C443.821 124.138 444.693 125.079 444.693 125.472C444.693 125.865 439.43 139.011 438.585 139.6C437.741 140.19 426.201 140.106 425.553 139.839C424.906 139.558 424.639 138.617 424.639 138.028C424.639 137.438 429.325 124.91 430.169 124.208C431.014 123.506 443.624 124.138 443.624 124.138Z" clip-rule="evenodd"/><path fill="#ADADAD" fill-rule="evenodd" d="M443.624 124.138C443.821 124.138 444.693 125.079 444.693 125.472C444.693 125.472 436.474 124.924 431.141 125.472C431.141 125.472 430.789 125.514 430.324 126.694C429.874 127.874 425.342 137.396 425.286 139.685C424.836 139.306 424.639 138.547 424.639 138.042C424.639 137.452 429.325 124.924 430.169 124.222C431.014 123.506 443.624 124.138 443.624 124.138Z" clip-rule="evenodd"/><path fill="#ADADAD" fill-rule="evenodd" d="M442.286 131.68C442.286 131.68 445.509 138.351 445.439 138.983C445.382 139.615 435.728 140.429 434.068 140.022C432.407 139.615 429.156 133.098 428.903 132.424C428.649 131.764 428.607 131.244 428.832 131.09C429.057 130.935 439.021 130.879 440.105 130.907C441.203 130.949 441.991 131.146 442.286 131.68Z" clip-rule="evenodd"/><path fill="#3567D6" fill-rule="evenodd" d="M457.852 149.403C462.088 158.673 468.759 169.515 469.125 171.298C469.49 173.068 468.548 176.986 464.368 172.492C461.23 169.121 452.223 157.886 447.663 150.948C439.317 138.21 450.576 133.435 457.852 149.403Z" clip-rule="evenodd"/><path fill="#3567D6" fill-rule="evenodd" d="M410.186 139.853C408.553 156.159 418.953 153.139 429.03 151.819C435.461 150.976 451.097 145.176 450.872 142.662C450.647 140.148 450.562 139.46 446.354 138.842C442.132 138.238 426.961 137.171 422.444 137.016C417.912 136.876 412.452 135.963 410.186 139.853Z" clip-rule="evenodd"/><path fill="#F5AC83" fill-rule="evenodd" d="M429.523 138.351L429.776 139.207C429.776 139.207 431.845 140.022 433.787 138.968C435.729 137.915 437.01 137.634 437.305 136.82C437.601 136.019 436.039 134.053 434.744 134.629C433.449 135.205 431.211 137.522 430.043 137.396C428.875 137.297 429.523 138.351 429.523 138.351Z" clip-rule="evenodd"/><path fill="#75A2F2" fill-rule="evenodd" d="M403.205 105.431C403.205 105.431 398.969 105.557 398.35 112.2C397.716 118.843 405.372 132.41 408.313 134.081C411.241 135.738 424.751 138.786 429.48 139.348C429.48 139.348 429.789 139.418 429.902 138.884C430.014 138.351 430.029 137.522 430.24 137.339C430.451 137.157 429.888 136.988 429.353 136.862C428.804 136.735 421.824 135.191 413.422 131.75C413.422 131.75 412.282 131.525 410.79 129.517C409.313 127.522 409.58 112.678 408.539 109.49C407.483 106.302 404.894 105.319 403.205 105.431Z" clip-rule="evenodd"/><path fill="#14161B" fill-rule="evenodd" d="M431.576 83.1708L430.633 87.8756L429.775 88.5217C429.775 88.5217 429.17 87.6509 429.296 86.5414C429.296 86.5414 427.678 89.3222 423.54 89.3784C419.403 89.4345 417.827 89.4486 416.504 92.8192C415.181 96.1898 414.801 99.6166 415.842 103.942C418.193 113.717 402.318 121.329 399.799 107.622C399.799 107.622 410.762 83.0584 410.846 82.1596C410.931 81.2608 419.867 75.1515 419.867 75.1515C419.867 75.1515 423.737 73.0589 424.469 74.1404C425.201 75.2218 431.168 79.5895 431.168 79.5895L431.576 83.1708Z" clip-rule="evenodd"/><path fill="#E27E67" fill-rule="evenodd" d="M157.469 112.228L156.977 112.888C156.977 112.888 154.936 112.944 153.585 111.428C152.234 109.911 151.221 109.265 151.221 108.464C151.207 107.678 153.191 106.47 154.12 107.369C155.049 108.282 156.259 110.978 157.3 111.245C158.356 111.526 157.469 112.228 157.469 112.228Z" clip-rule="evenodd"/><path fill="#302C2C" fill-rule="evenodd" d="M183.548 141.3L181.817 141.272C181.817 141.272 179.86 140.893 173.204 134.306C166.547 127.719 161.467 123.127 157.681 121.259C153.895 119.391 151.179 121.806 151.503 124.559C151.728 126.455 159.975 137.255 167.054 145.443L186.25 148.392C184.927 144.558 183.548 141.3 183.548 141.3Z" clip-rule="evenodd"/><path fill="#302C2C" fill-rule="evenodd" d="M147.845 129.039C145.396 136.455 141.582 145.682 141.456 147.058C141.329 148.434 142.37 151.341 145.171 147.578C147.282 144.755 153.207 135.443 156.106 129.798C161.411 119.405 152.067 116.287 147.845 129.039Z" clip-rule="evenodd"/><path fill="#895734" fill-rule="evenodd" d="M141.933 148.21C140.512 146.988 139.639 146.693 139.062 147.156C138.485 147.62 138.218 148.785 137.5 149.151C136.783 149.516 130.83 151.341 130.45 151.707C130.07 152.072 130.253 152.591 130.365 152.69C130.478 152.788 129.957 153.364 130.351 153.743C130.745 154.122 134.812 155.485 138.837 154.586C142.862 153.687 144.987 154.333 145.494 153.982C146.001 153.631 145.874 152.886 145.874 152.886C146.268 151.721 146.324 149.123 145.17 149.403C143.341 149.853 143.355 149.431 141.933 148.21Z" clip-rule="evenodd"/><path fill="#FCE4D6" fill-rule="evenodd" d="M130.365 152.69C130.478 152.788 129.957 153.364 130.351 153.743C130.745 154.122 134.812 155.484 138.837 154.586C142.862 153.687 144.987 154.333 145.494 153.982C146.001 153.631 145.874 152.886 145.874 152.886C143.608 152.577 140.751 153.546 136.585 153.827C132.42 154.108 130.365 152.69 130.365 152.69Z" clip-rule="evenodd"/><path fill="#A2B05A" fill-rule="evenodd" d="M188.53 99.6165C183.66 105.066 176.764 111.273 176.215 112.537C175.667 113.801 175.948 117.425 180.128 115.824C183.266 114.616 192.498 109.911 197.325 106.526C206.192 100.291 196.917 90.249 188.53 99.6165Z" clip-rule="evenodd"/><path fill="#A2B05A" fill-rule="evenodd" d="M178.524 112.748C180.016 114.012 179.833 115.739 178.256 116.231C176.666 116.722 162.128 114.686 156.949 113.183C156.949 113.183 156.358 112.748 156.401 111.99C156.443 111.245 156.696 110.754 157.991 110.95C168.363 112.551 172.233 112.102 176.835 112.242C177.708 112.27 178.285 112.537 178.524 112.748Z" clip-rule="evenodd"/><path fill="#3A3735" fill-rule="evenodd" d="M189.36 94.1674C189.205 94.027 189.037 93.8865 188.868 93.7461C183.815 89.5609 178.96 86.4009 181.986 81.7523C185.012 77.1037 182.169 72.6235 182.83 70.0394C183.492 67.4693 184.406 65.1661 187.854 65.4469C187.854 65.4469 189.234 58.3827 194.919 59.759C200.605 61.1354 201.449 66.5283 206.009 68.1013C210.569 69.6743 213.102 71.191 211.892 79.1541C211.343 82.7494 210.85 85.5583 210.724 88.016C210.653 89.2941 211.005 89.266 209.823 89.2098C206.684 89.0693 201.829 88.9008 198.649 88.9991C193.624 89.1536 191.316 93.3247 190.754 94.0831C190.205 94.8275 189.36 94.1674 189.36 94.1674Z" clip-rule="evenodd"/><path fill="#3A3735" fill-rule="evenodd" d="M173.879 137.311L172.781 138.631C172.781 138.631 171.261 139.909 161.959 140.991C152.642 142.072 145.887 143.154 142.059 144.937C138.231 146.721 138.428 150.344 140.778 151.819C143.143 153.28 170.881 153.28 178.537 151.763C186.193 150.232 191.766 148.743 191.766 145.555C191.766 142.367 173.879 137.311 173.879 137.311Z" clip-rule="evenodd"/><path fill="#3A3735" fill-rule="evenodd" d="M138.571 156.734C139.542 165.217 140.006 176.116 140.513 177.548C141.019 178.981 143.384 181.382 144.439 176.354C145.227 172.59 146.846 160.639 147.113 153.701C147.606 140.963 136.896 142.143 138.571 156.734Z" clip-rule="evenodd"/><path fill="#895734" fill-rule="evenodd" d="M140.682 178.054C138.725 177.843 137.797 178.096 137.585 178.84C137.374 179.584 137.825 180.736 137.417 181.48C137.023 182.225 132.984 187.309 132.871 187.842C132.758 188.376 133.223 188.727 133.378 188.741C133.532 188.755 133.42 189.556 133.983 189.654C134.546 189.738 138.852 188.516 141.793 185.371C144.721 182.225 146.944 181.522 147.169 180.919C147.395 180.315 146.846 179.753 146.846 179.753C146.494 178.517 145.002 176.256 144.186 177.169C142.877 178.629 142.638 178.264 140.682 178.054Z" clip-rule="evenodd"/><path fill="#FCE4D6" fill-rule="evenodd" d="M133.391 188.741C133.545 188.755 133.433 189.556 133.996 189.654C134.559 189.738 138.865 188.517 141.806 185.371C144.734 182.225 146.957 181.523 147.182 180.919C147.408 180.315 146.859 179.753 146.859 179.753C144.72 180.82 142.834 183.334 139.428 186.045C136.008 188.741 133.391 188.741 133.391 188.741Z" clip-rule="evenodd"/><path fill="#C6D57B" fill-rule="evenodd" d="M201.941 93.2686C201.941 93.2686 196.241 90.1648 190.781 100.937C185.334 111.709 184.42 124.25 175.934 132.185C167.349 140.204 179.466 147.086 188.853 146.946C203.756 146.721 220.321 98.156 201.941 93.2686Z" clip-rule="evenodd"/><path fill="#F5AC83" fill-rule="evenodd" d="M192.287 67.4553C196.847 66.6407 201.251 69.7023 202.068 74.2527L203.419 81.7804C204.235 86.3307 201.167 90.7266 196.607 91.5411C192.048 92.3557 187.643 89.2941 186.826 84.7437L185.475 77.216C184.659 72.6657 187.727 68.2698 192.287 67.4553Z" clip-rule="evenodd"/><path fill="#EE9073" fill-rule="evenodd" d="M202.35 75.8256L203.419 81.7804C204.235 86.3307 201.168 90.7266 196.608 91.5411C195.792 91.6816 194.975 91.7097 194.187 91.6114C196.791 89.0834 196.889 86.6959 196.003 84.7999C194.961 82.5669 192.555 81.022 191.218 80.713C188.642 80.1232 188.417 79.2665 186.813 78.5362C186.362 78.3396 186.011 78.3817 185.729 78.5502L185.49 77.216C184.913 73.9718 186.292 70.8259 188.783 68.972C189.979 69.4495 191.57 69.8709 193.751 69.9692C197.508 70.1377 200.154 72.5533 202.35 75.8256Z" clip-rule="evenodd"/><path fill="#C6D57B" fill-rule="evenodd" d="M189.346 101.625C184.111 107.341 176.736 113.857 176.145 115.192C175.554 116.526 175.794 120.374 180.255 118.717C183.59 117.481 193.441 112.593 198.606 109.04C208.078 102.538 198.353 91.7799 189.346 101.625Z" clip-rule="evenodd"/><path fill="#EE9073" fill-rule="evenodd" d="M196.242 89.28C196.242 89.28 196.931 91.1479 196.889 92.1591C196.847 93.1703 195.637 94.5045 195.637 94.5045C195.637 94.5045 196.242 95.2488 198.662 94.3921C201.083 93.5214 205.178 94.996 204.489 94.35C204.053 93.9427 204.235 87.7351 201.899 84.6454C201.041 83.5219 197.185 88.4374 196.242 89.28Z" clip-rule="evenodd"/><path fill="#3A3735" fill-rule="evenodd" d="M184.225 72.2162L184.422 77.2441L185.196 78.0586C185.196 78.0586 185.97 77.2441 186.026 76.0924C186.026 76.0924 187.25 79.2383 191.515 79.9827C197.819 81.0781 198.748 85.2352 197.651 89.5187L197.763 89.7715C197.763 89.7715 197.679 90.9653 199.564 90.4035C201.436 89.8417 205.897 88.8025 208.501 89.1536C207.192 82.3 205.827 75.0953 205.869 74.6037C205.94 73.6628 197.693 65.8542 197.693 65.8542C197.693 65.8542 194.034 63.0453 193.091 64.0565C192.148 65.0537 185.252 68.5928 185.252 68.5928L184.225 72.2162Z" clip-rule="evenodd"/><path fill="#555050" fill-rule="evenodd" d="M150.463 101.92C151.223 103.128 155.628 110.136 155.755 110.74C155.881 111.414 155.079 112.79 154.108 113.591C153.123 114.391 152.096 112.565 149.731 109.265C147.367 105.965 146.804 105.192 146.734 104.364C146.663 103.535 149.52 101.639 149.816 101.625C150.168 101.597 150.294 101.653 150.463 101.92Z" clip-rule="evenodd"/><path fill="#302C2C" fill-rule="evenodd" d="M154.233 113.478C154.191 113.52 154.149 113.548 154.092 113.591C153.107 114.391 152.08 112.565 149.716 109.265C147.351 105.965 146.788 105.192 146.718 104.363C146.648 103.535 149.505 101.639 149.8 101.625C149.969 101.611 150.082 101.611 150.18 101.653C150.18 101.653 147.886 103.17 147.534 103.76C147.182 104.349 148.069 105.431 148.759 106.681C149.448 107.931 152.488 112.116 153.178 112.804C153.656 113.282 153.924 113.464 154.233 113.478Z" clip-rule="evenodd"/><path fill="#A6D8DC" fill-rule="evenodd" d="M154.079 112.818C154.149 112.748 154.205 112.692 154.262 112.621C154.529 112.312 155.261 111.287 155.176 110.88C155.05 110.501 154.557 109.714 154.332 109.349C153.769 108.394 153.192 107.453 152.615 106.512C151.771 105.15 151.208 104.237 150.363 102.889C149.66 103.366 148.506 104.209 148.323 104.518C148.252 104.813 149.083 106.091 149.266 106.414C149.814 107.411 150.617 108.478 151.278 109.405C151.742 110.051 152.207 110.683 152.685 111.301C152.953 111.652 153.276 112.102 153.586 112.411C153.685 112.481 153.896 112.692 154.079 112.818Z" clip-rule="evenodd"/><path fill="#F9EDC7" fill-rule="evenodd" d="M148.703 103.577C148.661 103.605 148.604 103.605 148.576 103.563C148.548 103.521 148.548 103.465 148.59 103.437C148.59 103.437 148.942 103.156 149.041 103.1C149.083 103.086 149.139 103.1 149.167 103.156C149.181 103.198 149.167 103.254 149.111 103.282C149.027 103.31 148.703 103.577 148.703 103.577Z" clip-rule="evenodd"/><path fill="#F9EDC7" fill-rule="evenodd" d="M149.434 103.015C149.392 103.029 149.336 103.015 149.321 102.959C149.307 102.917 149.321 102.861 149.378 102.847H149.392C149.434 102.833 149.49 102.847 149.519 102.903C149.533 102.945 149.519 103.001 149.462 103.029L149.434 103.015Z" clip-rule="evenodd"/><path fill="#F5AC83" fill-rule="evenodd" d="M156.049 114.658L155.458 115.388C155.458 115.388 153.136 115.346 151.686 113.548C150.236 111.751 149.125 110.95 149.153 110.051C149.195 109.153 151.503 107.889 152.516 108.97C153.53 110.051 154.754 113.183 155.922 113.548C157.09 113.9 156.049 114.658 156.049 114.658Z" clip-rule="evenodd"/><path fill="#C6D57B" fill-rule="evenodd" d="M178.594 115.43C180.17 116.793 179.959 118.618 178.271 119.124C176.582 119.63 161.172 117.312 155.711 115.641C155.711 115.641 155.092 115.163 155.148 114.377C155.204 113.59 155.472 113.071 156.851 113.296C167.828 115.107 171.938 114.672 176.821 114.869C177.722 114.911 178.341 115.22 178.594 115.43Z" clip-rule="evenodd"/><path fill="#6B4730" fill-rule="evenodd" d="M265.497 229.779C264.399 231.295 268.354 234.483 268.663 240.508C269.099 249.061 270.056 259.005 270.422 262.122C271.027 267.263 275.981 269.917 280.865 269.805C285.734 269.917 290.702 267.263 291.307 262.122C291.673 259.005 292.63 249.061 293.066 240.508C293.362 234.497 297.33 231.295 296.233 229.779C290.406 221.731 271.309 221.731 265.497 229.779Z" clip-rule="evenodd"/><path fill="#555050" fill-rule="evenodd" d="M275.615 245.143C275.615 245.143 274.377 245.101 274.334 246.379C274.292 247.657 274.827 259.833 275.305 260.886C275.798 261.94 282.835 261.687 284.749 261.504C286.649 261.322 286.297 258.766 286.48 256.111C286.663 253.457 286.831 247.221 286.522 246.337C286.212 245.452 285.368 244.567 275.615 245.143Z" clip-rule="evenodd"/><path fill="#302C2C" fill-rule="evenodd" d="M275.615 246.238C275.615 246.238 274.377 246.196 274.334 247.474C274.292 248.752 274.827 260.929 275.305 261.982C275.798 263.049 282.835 262.782 284.749 262.6C286.649 262.417 286.297 259.861 286.48 257.207C286.663 254.552 286.831 248.317 286.522 247.432C286.212 246.561 285.368 245.677 275.615 246.238Z" clip-rule="evenodd"/><path fill="#555050" fill-rule="evenodd" d="M283.905 249.16C283.905 249.16 283.905 248.949 283.694 248.935C283.469 248.921 281.358 249.019 281.175 249.103C280.992 249.188 281.034 250.409 281.062 250.732C281.09 251.07 281.541 250.999 281.991 251.027C282.456 251.055 283.539 251.084 283.68 251.041C283.849 250.985 284.004 250.831 283.905 249.16Z" clip-rule="evenodd"/><path fill="#555050" fill-rule="evenodd" d="M284.65 249.454C284.875 249.454 285.058 249.693 285.058 250.002C285.058 250.297 284.875 250.55 284.65 250.55C284.425 250.55 284.242 250.311 284.242 250.002C284.242 249.693 284.425 249.454 284.65 249.454Z" clip-rule="evenodd"/><path fill="#3A3735" fill-rule="evenodd" d="M270.915 260.072C270.915 260.072 260.248 262.895 258.559 265.212C256.87 267.529 256.096 272.993 258.137 281.939C260.191 290.885 263.189 302.443 264.526 305.842C265.849 309.227 268.734 306.615 268.677 305.379C268.621 304.143 264.709 278.091 265.061 276.237C266.229 270.226 295.459 270.226 296.641 276.237C297.007 278.091 293.08 304.143 293.024 305.379C292.968 306.615 295.853 309.227 297.176 305.842C298.499 302.443 301.51 290.885 303.565 281.939C305.606 272.993 304.832 267.529 303.143 265.212C301.454 262.895 290.787 260.072 290.787 260.072C290.744 260.072 290.702 260.072 290.66 260.086C287.127 261.027 274.11 261.069 270.957 260.086C270.957 260.072 270.929 260.086 270.915 260.072Z" clip-rule="evenodd"/><path fill="#895734" fill-rule="evenodd" d="M265.707 305.379C264.117 304.859 263.329 305.041 263.104 305.87C262.878 306.699 263.16 308.117 262.78 308.932C262.4 309.746 258.713 315.125 258.572 315.743C258.445 316.361 258.797 316.825 258.924 316.853C259.05 316.895 258.896 317.822 259.36 318.004C259.825 318.187 263.455 317.344 266.101 314.072C268.747 310.8 270.619 310.28 270.844 309.606C271.069 308.932 270.661 308.201 270.661 308.201C270.45 306.713 269.38 303.862 268.648 304.817C267.48 306.348 267.297 305.884 265.707 305.379Z" clip-rule="evenodd"/><path fill="#F9EDC7" fill-rule="evenodd" d="M258.953 316.867C259.052 316.965 258.925 317.822 259.375 318.004C259.84 318.187 263.471 317.344 266.116 314.072C268.762 310.8 270.634 310.28 270.859 309.606C271.084 308.932 270.676 308.201 270.676 308.201C267.228 310.673 265.694 314.058 262.626 315.715C259.812 317.232 259.052 316.923 258.953 316.867Z" clip-rule="evenodd"/><path fill="#895734" fill-rule="evenodd" d="M296.007 305.379C297.598 304.859 298.386 305.041 298.611 305.87C298.836 306.699 298.554 308.117 298.934 308.932C299.314 309.746 303.002 315.125 303.142 315.743C303.269 316.361 302.917 316.825 302.791 316.853C302.664 316.895 302.819 317.822 302.354 318.004C301.89 318.187 298.259 317.344 295.613 314.072C292.967 310.8 291.096 310.28 290.87 309.606C290.645 308.932 291.053 308.201 291.053 308.201C291.265 306.713 292.334 303.862 293.066 304.817C294.234 306.348 294.403 305.884 296.007 305.379Z" clip-rule="evenodd"/><path fill="#F9EDC7" fill-rule="evenodd" d="M302.763 316.867C302.664 316.965 302.777 317.822 302.341 318.004C301.876 318.187 298.245 317.344 295.6 314.072C292.954 310.8 291.082 310.28 290.857 309.606C290.632 308.932 291.04 308.201 291.04 308.201C294.488 310.673 296.022 314.058 299.09 315.715C301.904 317.232 302.664 316.923 302.763 316.867Z" clip-rule="evenodd"/><path fill="#895734" fill-rule="evenodd" d="M268.833 242.067C265.371 248.12 262.022 254.693 261.163 255.522C260.164 256.491 257.068 257.46 257.94 252.783C258.602 249.272 261.501 238.556 263.809 232.629C264.583 230.649 265.54 229.217 266.525 228.276C266.947 227.953 270.311 227.265 270.874 231.604C271.465 236 268.847 242.025 268.833 242.067Z" clip-rule="evenodd"/><path fill="#F5AC83" fill-rule="evenodd" d="M272.59 259.37C272.59 259.37 273.28 259.299 273.448 258.555C273.631 257.797 274.096 255.199 274.87 254.819C275.644 254.44 276.826 255.1 276.882 256.28C276.953 257.446 276.713 259.665 275.911 260.353C275.109 261.027 273.069 260.746 272.787 260.69C272.506 260.606 272.59 259.37 272.59 259.37Z" clip-rule="evenodd"/><path fill="#895734" fill-rule="evenodd" d="M260.444 252.909L262.485 253.499C262.485 253.499 261.865 254.468 262.893 255.704C263.906 256.94 270.563 258.541 271.984 258.667C273.406 258.794 273.265 259.777 273.307 260.479C273.349 261.181 271.576 261.448 266.13 260.746C260.683 260.044 257.207 257.109 257.812 253.892L260.444 252.909Z" clip-rule="evenodd"/><path fill="#895734" fill-rule="evenodd" d="M292.644 242.067C296.106 248.12 299.455 254.693 300.314 255.522C301.313 256.491 304.409 257.46 303.536 252.783C302.889 249.272 299.976 238.556 297.668 232.629C296.894 230.649 295.951 229.217 294.952 228.276C294.529 227.953 291.166 227.265 290.603 231.604C290.026 236 292.63 242.025 292.644 242.067Z" clip-rule="evenodd"/><path fill="#F5AC83" fill-rule="evenodd" d="M288.886 259.37C288.886 259.37 288.196 259.299 288.028 258.555C287.845 257.797 287.38 255.199 286.606 254.819C285.832 254.44 284.664 255.1 284.594 256.28C284.523 257.446 284.763 259.665 285.565 260.353C286.367 261.027 288.408 260.746 288.689 260.69C288.985 260.606 288.886 259.37 288.886 259.37Z" clip-rule="evenodd"/><path fill="#895734" fill-rule="evenodd" d="M301.046 252.909L299.005 253.499C299.005 253.499 299.624 254.468 298.597 255.704C297.584 256.94 290.927 258.541 289.506 258.667C288.084 258.794 288.225 259.777 288.169 260.479C288.126 261.181 289.9 261.448 295.346 260.746C300.807 260.044 304.269 257.109 303.663 253.892L301.046 252.909Z" clip-rule="evenodd"/><path fill="#302C2C" fill-rule="evenodd" d="M291.742 216.015C291.742 216.127 291.742 216.226 291.742 216.338V222.939C291.742 228.795 286.943 233.599 281.061 233.599C275.192 233.599 270.379 228.809 270.379 222.939V216.338C270.379 216.226 270.379 216.127 270.379 216.015H291.742Z" clip-rule="evenodd"/><path fill="#EE9073" fill-rule="evenodd" d="M271.942 222.798C273.505 222.798 274.785 224.062 274.785 225.635C274.785 227.194 273.519 228.472 271.942 228.472C270.38 228.472 269.1 227.208 269.1 225.635C269.1 224.062 270.38 222.798 271.942 222.798Z" clip-rule="evenodd"/><path fill="#EE9073" fill-rule="evenodd" d="M290.208 222.798C291.784 222.798 293.051 224.062 293.051 225.635C293.051 227.194 291.784 228.472 290.208 228.472C288.646 228.472 287.365 227.208 287.365 225.635C287.365 224.062 288.646 222.798 290.208 222.798Z" clip-rule="evenodd"/><path fill="#F5AC83" fill-rule="evenodd" d="M281.075 211.479C286.099 211.479 290.209 215.58 290.209 220.594V228.88C290.209 233.893 286.099 237.994 281.075 237.994C276.051 237.994 271.941 233.893 271.941 228.88V220.594C271.941 215.58 276.051 211.479 281.075 211.479Z" clip-rule="evenodd"/><path fill="#3A3735" fill-rule="evenodd" d="M271.942 225.987C271.942 225.987 271.899 224.329 273.518 223.557C275.136 222.784 276.037 221.858 276.164 220.636C276.164 220.636 279.372 223.346 283.749 223.711C288.14 224.077 289.955 224.61 290.195 226.871C300.75 208.01 276.909 200.805 274.784 209.822C274.784 209.85 274.784 209.92 274.756 209.906C265.313 209.653 268.888 224.273 271.942 225.987Z" clip-rule="evenodd"/><path fill="#555050" fill-rule="evenodd" d="M111.001 336.374C112.127 337.245 118.713 342.287 119.037 342.807C119.389 343.382 119.121 344.955 118.488 346.051C117.841 347.146 116.25 345.784 112.873 343.523C109.509 341.248 108.707 340.714 108.355 339.97C108.004 339.225 110.03 336.459 110.283 336.332C110.621 336.192 110.762 336.192 111.001 336.374Z" clip-rule="evenodd"/><path fill="#302C2C" fill-rule="evenodd" d="M118.588 345.911C118.56 345.967 118.532 346.009 118.504 346.066C117.856 347.161 116.266 345.799 112.888 343.538C109.525 341.263 108.723 340.729 108.371 339.985C108.019 339.24 110.046 336.474 110.299 336.347C110.454 336.277 110.566 336.235 110.665 336.249C110.665 336.249 109.046 338.468 108.92 339.142C108.807 339.816 110.003 340.518 111.087 341.445C112.171 342.372 116.477 345.251 117.364 345.658C117.969 345.925 118.293 346.01 118.588 345.911Z" clip-rule="evenodd"/><path fill="#A6D8DC" fill-rule="evenodd" d="M118.207 345.349C118.249 345.264 118.277 345.18 118.305 345.096C118.446 344.717 118.784 343.495 118.559 343.144C118.305 342.835 117.559 342.259 117.236 341.992C116.377 341.29 115.519 340.616 114.646 339.928C113.38 338.944 112.535 338.284 111.269 337.315C110.79 338.003 109.988 339.183 109.932 339.548C109.96 339.843 111.198 340.756 111.48 340.995C112.338 341.739 113.464 342.47 114.407 343.102C115.054 343.537 115.716 343.972 116.391 344.394C116.757 344.632 117.222 344.927 117.616 345.11C117.714 345.152 117.996 345.292 118.207 345.349Z" clip-rule="evenodd"/><path fill="#F9EDC7" fill-rule="evenodd" d="M109.945 338.551C109.917 338.593 109.86 338.607 109.818 338.579C109.776 338.551 109.762 338.495 109.79 338.453C109.79 338.453 110.015 338.06 110.1 337.989C110.142 337.961 110.198 337.961 110.226 337.989C110.254 338.031 110.254 338.088 110.226 338.116C110.156 338.186 109.945 338.551 109.945 338.551Z" clip-rule="evenodd"/><path fill="#F9EDC7" fill-rule="evenodd" d="M110.425 337.765C110.383 337.793 110.327 337.793 110.298 337.765C110.27 337.722 110.27 337.666 110.298 337.638L110.313 337.624C110.355 337.596 110.411 337.596 110.439 337.624C110.467 337.666 110.467 337.723 110.439 337.751L110.425 337.765Z" clip-rule="evenodd"/><path fill="#E27E67" fill-rule="evenodd" d="M122.133 342.245L121.556 342.385C121.556 342.385 120.796 343.916 121.246 345.475C121.696 347.034 121.739 348.031 122.217 348.312C122.696 348.593 124.131 347.525 123.906 346.486C123.681 345.461 122.456 343.593 122.668 342.694C122.879 341.823 122.133 342.245 122.133 342.245Z" clip-rule="evenodd"/><path fill="#CD3555" fill-rule="evenodd" d="M140.964 314.283C140.964 314.283 129.269 318.664 124.935 321.389C124.935 321.389 123.612 322.316 122.88 324.395C122.162 326.473 121.233 335.251 121.107 341.107C121.107 341.107 121.064 342.217 121.107 342.694C121.149 343.172 121.965 342.722 122.373 342.849C122.781 342.975 122.852 342.821 122.88 342.484C122.908 342.146 125.132 326.628 125.976 325.546C126.82 324.465 135.49 322.822 136.615 323.06C137.755 323.299 140.964 314.283 140.964 314.283Z" clip-rule="evenodd"/><path fill="#F5AC83" fill-rule="evenodd" d="M119.98 346.177L119.6 347.034C119.6 347.034 117.348 347.624 115.463 346.29C113.577 344.941 112.282 344.492 112.071 343.607C111.86 342.722 113.746 340.897 115.012 341.655C116.279 342.427 118.32 345.11 119.544 345.138C120.782 345.152 119.98 346.177 119.98 346.177Z" clip-rule="evenodd"/><path fill="#2D2828" fill-rule="evenodd" d="M130 356.753L130.577 358.452C130.577 358.452 130.929 360.545 127.65 370.39C124.371 380.235 122.232 387.509 121.95 392.144C121.669 396.779 124.666 398.183 126.89 396.442C129.113 394.714 141.47 366.794 143.651 358.41C145.832 350.039 147.127 343.762 144.566 342.371C142.033 340.981 130 356.753 130 356.753Z" clip-rule="evenodd"/><path fill="#2D2828" fill-rule="evenodd" d="M129.353 403.632C136.812 409.376 145.945 417.297 147.409 418.028C148.873 418.758 152.208 418.954 148.746 414.432C146.142 411.033 137.389 400.908 131.9 395.472C121.852 385.501 116.518 393.745 129.353 403.632Z" clip-rule="evenodd"/><path fill="#3A3735" fill-rule="evenodd" d="M134.307 366.569C137.319 373.493 136.601 374.111 134.814 382.973C132.759 393.197 131.563 400.711 132.027 405.332C132.492 409.952 136.081 410.907 138.304 408.871C138.769 408.449 140.021 406.989 139.979 404.461C139.838 396.133 149.999 375.614 150.843 368.802C151.913 360.193 152.307 353.817 149.211 352.806C146.101 351.795 134.307 366.569 134.307 366.569Z" clip-rule="evenodd"/><path fill="#3A3735" fill-rule="evenodd" d="M132.532 410.416C133.869 419.727 134.897 431.763 135.431 433.294C135.966 434.838 138.232 437.296 138.907 431.65C139.414 427.409 140.202 414.039 140.061 406.343C139.808 392.2 130.224 394.405 132.532 410.416Z" clip-rule="evenodd"/><path fill="#D84D67" fill-rule="evenodd" d="M147.155 417.087C145.917 417.915 145.495 418.519 145.734 419.053C145.973 419.586 146.789 420.05 146.93 420.668C147.057 421.3 147.183 426.229 147.381 426.594C147.578 426.96 148.014 426.946 148.112 426.875C148.211 426.805 148.535 427.339 148.915 427.114C149.294 426.889 151.208 424.081 151.377 420.822C151.56 417.564 152.503 416.075 152.348 415.612C152.18 415.148 151.588 415.078 151.588 415.078C150.772 414.53 148.802 413.927 148.774 414.868C148.717 416.356 148.394 416.258 147.155 417.087Z" clip-rule="evenodd"/><path fill="#FCE4D6" fill-rule="evenodd" d="M148.113 426.875C148.212 426.805 148.535 427.339 148.915 427.114C149.295 426.889 151.209 424.081 151.378 420.822C151.561 417.564 152.504 416.075 152.349 415.612C152.18 415.148 151.589 415.078 151.589 415.078C150.858 416.735 150.998 419.123 150.309 422.367C149.633 425.597 148.113 426.875 148.113 426.875Z" clip-rule="evenodd"/><path fill="#D84D67" fill-rule="evenodd" d="M134.433 433.996C134.433 433.996 133.433 436.201 133.462 437.816C133.476 439.431 133.56 439.993 134.63 440.653C135.699 441.313 138.767 440.863 139.485 440.189C140.203 439.515 140.329 438.223 140.343 437.633C140.372 437.043 139.963 434.431 139.485 433.785C139.006 433.139 138.415 433.223 138.415 433.223C138.415 433.223 137.852 432.226 136.839 432.184C135.826 432.142 135.333 433.322 135.333 433.322C135.333 433.322 134.573 433.476 134.433 433.996Z" clip-rule="evenodd"/><path fill="#FCE9DD" fill-rule="evenodd" d="M133.447 437.802C133.461 439.417 133.546 439.979 134.615 440.639C135.685 441.299 138.753 440.849 139.471 440.175C140.188 439.501 140.315 438.209 140.329 437.619C140.329 437.619 139.822 438.687 139.26 439.052C138.697 439.417 136.543 440.077 135.08 439.571C133.602 439.08 133.447 437.802 133.447 437.802Z" clip-rule="evenodd"/><path fill="#D84D67" fill-rule="evenodd" d="M142.497 314.17C142.497 314.17 136.108 313.089 134.335 324.367C132.562 335.644 135.672 347.146 130.127 356.767C124.512 366.499 138.191 369.055 147.057 366.134C157.316 362.763 162.003 331.88 154.952 318.37C152.94 314.522 148.352 312.19 144.89 312.26C143.778 312.26 143.454 314.114 142.497 314.17Z" clip-rule="evenodd"/><path fill="#EE9073" fill-rule="evenodd" d="M139.246 309.578C139.246 309.578 140.217 311.319 140.344 312.317C140.47 313.314 139.485 314.83 139.485 314.83C141.104 316.249 148 315.308 148.591 313.581C148.985 312.415 146.226 310.14 146.283 303.96C146.283 303.033 141.385 306.938 139.246 309.578Z" clip-rule="evenodd"/><path fill="#CD3555" fill-rule="evenodd" d="M151.531 315.336C151.531 315.336 155.908 316.01 155.711 322.99C155.514 329.97 145.832 343.087 142.567 344.45C139.316 345.798 124.891 347.245 119.909 347.216C119.909 347.216 119.571 347.245 119.529 346.683C119.487 346.121 119.571 345.25 119.374 345.026C119.177 344.801 119.782 344.717 120.359 344.646C120.936 344.576 128.395 343.874 137.557 341.374C137.557 341.374 138.781 341.276 140.568 339.394C142.37 337.512 143.988 322.063 145.466 318.875C146.972 315.701 149.786 315.013 151.531 315.336Z" clip-rule="evenodd"/><path fill="#F5AC83" fill-rule="evenodd" d="M132.618 288.301C136.84 286.84 141.498 289.073 142.962 293.287L145.396 300.239C146.86 304.452 144.622 309.086 140.4 310.561C136.178 312.022 131.52 309.789 130.057 305.575L127.622 298.623C126.144 294.41 128.396 289.776 132.618 288.301Z" clip-rule="evenodd"/><path fill="#EE9073" fill-rule="evenodd" d="M143.469 294.747L147.522 299.396C150.463 302.752 144.609 309.114 140.401 310.589C139.641 310.856 138.867 310.996 138.107 311.024C142.653 304.957 136.052 301.264 133.618 301.109C131.07 300.941 130.733 300.154 129.1 299.705C128.65 299.578 128.312 299.677 128.073 299.873L127.636 298.637C126.595 295.646 127.425 292.43 129.508 290.295C130.718 290.562 132.295 290.731 134.392 290.478C137.994 290.056 140.865 291.952 143.469 294.747Z" clip-rule="evenodd"/><path fill="#302C2C" fill-rule="evenodd" d="M127.623 298.623C127.623 298.623 125.723 298.483 124.71 295.393C123.696 292.29 122.908 287.613 125.146 285.085C127.383 282.557 128.467 285.661 132.436 285.295C136.404 284.93 143.272 282.262 147.452 289.045C151.646 295.815 149.183 305.028 146.551 307.359C146.551 307.359 146.326 307.331 146.214 306.994C146.101 306.657 145.58 306.502 145.651 306.207C145.721 305.898 147.748 301.39 146.594 299.663C145.44 297.935 144.356 300.421 143.99 301.137C143.624 301.854 143.554 301.25 143.483 300.519C143.413 299.803 142.723 297.458 141.105 297.416C139.487 297.373 138.614 295.801 138.614 295.801C138.614 295.801 133.463 299.944 127.623 298.623Z" clip-rule="evenodd"/><path fill="#fff" fill-rule="evenodd" d="M564.625 103.352L563.429 109.518H569.72C570.409 109.518 571.043 109.799 571.507 110.262C571.971 110.726 572.253 111.357 572.253 112.046V116.315C572.253 117.003 571.971 117.649 571.507 118.099C571.043 118.562 570.409 118.843 569.72 118.843H561.642L559.263 131.005C559.151 131.595 558.827 132.115 558.391 132.48C557.954 132.845 557.391 133.056 556.772 133.056H552.241C551.861 133.056 551.495 132.972 551.157 132.817C550.833 132.663 550.538 132.438 550.285 132.129C550.031 131.834 549.862 131.497 549.778 131.146C549.693 130.795 549.679 130.416 549.75 130.036L551.945 118.843H545.063L542.741 130.991C542.629 131.595 542.305 132.115 541.869 132.48C541.418 132.845 540.855 133.056 540.25 133.056H535.747C535.367 133.056 535.001 132.972 534.663 132.817C534.325 132.663 534.044 132.438 533.791 132.143C533.537 131.848 533.368 131.511 533.284 131.16C533.185 130.809 533.185 130.444 533.242 130.064L535.325 118.843H529.695C529.006 118.843 528.372 118.562 527.908 118.099C527.444 117.635 527.162 117.003 527.162 116.315V112.046C527.162 111.357 527.444 110.711 527.908 110.262C528.372 109.799 529.006 109.518 529.695 109.518H537.126L538.364 103.352H532.285C531.581 103.352 530.948 103.071 530.483 102.608C530.019 102.144 529.738 101.512 529.738 100.824V96.6251C529.738 95.9229 530.019 95.2909 530.483 94.8415C530.948 94.378 531.581 94.0971 532.271 94.0971H540.067L542.389 81.7522C542.502 81.1483 542.826 80.6427 543.262 80.2636C543.698 79.8984 544.275 79.6877 544.88 79.6877H549.482C549.862 79.6877 550.228 79.772 550.566 79.9265C550.904 80.081 551.199 80.3057 551.439 80.6006C551.678 80.8956 551.847 81.2186 551.945 81.5837C552.044 81.9348 552.044 82.314 551.973 82.6932L549.82 94.1112H556.8L559.179 81.7522C559.291 81.1483 559.615 80.6427 560.051 80.2776C560.488 79.9124 561.065 79.7018 561.67 79.7018H566.103C566.483 79.7018 566.849 79.7861 567.187 79.9405C567.524 80.095 567.82 80.3197 568.059 80.6287C568.312 80.9236 568.481 81.2607 568.566 81.6118C568.65 81.9629 568.664 82.3421 568.594 82.7213L566.398 94.1252H572.07C572.774 94.1252 573.407 94.4061 573.857 94.8696C574.322 95.333 574.603 95.965 574.603 96.6532V100.852C574.603 101.555 574.322 102.187 573.857 102.636C573.393 103.099 572.76 103.38 572.056 103.38H564.625V103.352ZM561.642 110.192L563.288 101.723H572.112C572.351 101.723 572.577 101.625 572.745 101.456C572.914 101.288 573.013 101.063 573.013 100.824V96.6251C573.013 96.3723 572.914 96.1476 572.745 95.9931C572.577 95.8246 572.351 95.7263 572.112 95.7263H564.456L567.032 82.3842C567.06 82.2438 567.06 82.1174 567.032 81.991C567.004 81.8646 566.933 81.7522 566.849 81.6399C566.75 81.5275 566.652 81.4433 566.539 81.3871C566.427 81.3309 566.3 81.3028 566.159 81.3028H561.726C561.501 81.3028 561.304 81.3731 561.149 81.4995C560.994 81.6258 560.882 81.8084 560.839 82.0191L558.194 95.7122H547.892L550.397 82.3562C550.425 82.2157 550.425 82.0753 550.397 81.9629C550.369 81.8505 550.299 81.7242 550.214 81.6118C550.116 81.4994 550.017 81.4152 549.905 81.373C549.792 81.3169 549.665 81.2888 549.51 81.2888H544.909C544.683 81.2888 544.486 81.359 544.331 81.4995C544.177 81.6258 544.064 81.8084 544.022 82.0331L541.446 95.7122H532.299C532.046 95.7122 531.82 95.8105 531.666 95.9791C531.497 96.1476 531.398 96.3723 531.398 96.611V100.81C531.398 101.063 531.497 101.288 531.666 101.442C531.834 101.611 532.06 101.709 532.299 101.709H540.377L538.477 111.147H529.709C529.456 111.147 529.231 111.245 529.076 111.414C528.921 111.582 528.809 111.793 528.809 112.046V116.315C528.809 116.568 528.907 116.793 529.076 116.947C529.245 117.116 529.47 117.214 529.709 117.214H537.309L534.86 130.359C534.832 130.5 534.832 130.64 534.874 130.753C534.902 130.879 534.973 130.991 535.057 131.104C535.142 131.216 535.254 131.3 535.367 131.342C535.479 131.399 535.606 131.427 535.761 131.427H540.264C540.49 131.427 540.687 131.356 540.841 131.23C540.996 131.104 541.109 130.921 541.151 130.71L543.726 117.228H553.944L551.368 130.373C551.34 130.514 551.34 130.64 551.368 130.767C551.396 130.893 551.453 131.005 551.551 131.118C551.636 131.23 551.748 131.314 551.861 131.356C551.973 131.413 552.1 131.441 552.255 131.441H556.786C557.012 131.441 557.209 131.371 557.363 131.244C557.518 131.118 557.631 130.935 557.673 130.71L560.305 117.228H569.734C569.987 117.228 570.212 117.13 570.367 116.961C570.536 116.793 570.634 116.568 570.634 116.329V112.06C570.634 111.807 570.536 111.582 570.367 111.428C570.212 111.273 569.987 111.161 569.734 111.161H561.459L561.642 110.192ZM546.837 109.518H553.718L554.929 103.352H548.033L546.837 109.518ZM554.394 111.161H555.069L556.913 101.723H546.682L544.852 111.161H554.394Z" clip-rule="evenodd"/><path fill="#FFE527" fill-rule="evenodd" d="M463.256 83.7887L461.75 81.7101C461.75 81.7101 464.185 81.6118 464.705 72.4971C465.226 63.3824 465.015 51.7819 478.511 51.7819C492.008 51.7819 491.796 63.3824 492.317 72.4971C492.838 81.6118 495.273 81.7101 495.273 81.7101L493.767 83.7887L478.511 83.9993L463.256 83.7887Z" clip-rule="evenodd"/><path fill="#FFE527" fill-rule="evenodd" d="M478.51 82.9601C481.198 82.9601 483.394 85.1369 483.394 87.8334C483.394 90.5159 481.212 92.7068 478.51 92.7068C475.822 92.7068 473.627 90.5299 473.627 87.8334C473.641 85.1369 475.822 82.9601 478.51 82.9601Z" clip-rule="evenodd"/><path fill="#F4AD4C" fill-rule="evenodd" d="M461.749 81.7101H495.272C496.961 81.7101 498.34 83.0864 498.34 84.7717C498.34 86.457 496.961 87.8334 495.272 87.8334H461.749C460.06 87.8334 458.695 86.457 458.695 84.7717C458.695 83.0864 460.074 81.7101 461.749 81.7101Z" clip-rule="evenodd"/><path fill="#FFE527" fill-rule="evenodd" d="M478.51 49.0292C480.03 49.0292 481.254 50.251 481.254 51.7678C481.254 53.2846 480.03 54.5064 478.51 54.5064C476.99 54.5064 475.766 53.2705 475.766 51.7678C475.766 50.2651 476.99 49.0292 478.51 49.0292Z" clip-rule="evenodd"/><path fill="#D84D67" fill-rule="evenodd" d="M490.163 70.0253C494.962 70.0253 498.874 66.121 498.874 61.3319C498.874 56.5429 494.962 52.6385 490.163 52.6385C485.364 52.6385 481.438 56.5429 481.438 61.3319C481.438 66.121 485.364 70.0253 490.163 70.0253Z" clip-rule="evenodd"/><path fill="#fff" fill-rule="evenodd" d="M493.752 64.1408H492.655V66.0508H490.009V64.1408H486.068V62.1887L490.178 56.1777H492.641V62.1606H493.738V64.1408H493.752ZM490.023 62.1465V60.9949C490.023 60.7842 490.023 60.4893 490.051 60.1242C490.065 59.759 490.079 59.5624 490.093 59.5484H490.023C489.868 59.8995 489.699 60.2225 489.502 60.5174L488.405 62.1465H490.023Z" clip-rule="evenodd"/><path fill="#fff" fill-rule="evenodd" d="M176.822 1.96699L158.78 32.3587C158.555 32.7519 158.048 32.8783 157.654 32.6396C157.542 32.5694 157.443 32.4711 157.373 32.3587L146.466 17.4016L141.625 23.6934C141.343 24.0445 140.837 24.1147 140.485 23.8339C140.316 23.6934 140.203 23.5108 140.175 23.3002L138.5 12.135L127.988 7.94983C127.565 7.7813 127.368 7.3038 127.523 6.89652C127.636 6.61563 127.903 6.41901 128.185 6.39092L176.034 0.688966C176.484 0.632789 176.892 0.955807 176.935 1.40522C176.963 1.62993 176.921 1.8125 176.822 1.96699ZM139.274 10.7165L165.268 3.63825L131.562 7.65491L139.274 10.7165ZM168.097 4.56517L140.147 12.1771L141.498 21.1935L145.833 15.5618L145.861 15.5337C145.931 15.4635 146.016 15.3933 146.1 15.3511L168.097 4.56517ZM174.035 3.45568L147.704 16.3623L157.992 30.4627L174.035 3.45568Z" clip-rule="evenodd"/><path fill="#FDCB5D" fill-rule="evenodd" d="M479.974 311.165H512.202C515.312 311.165 517.859 313.707 517.859 316.811V339.394C517.859 342.497 515.312 345.039 512.202 345.039H479.974C476.864 345.039 474.316 342.497 474.316 339.394V316.811C474.316 313.707 476.864 311.165 479.974 311.165Z" clip-rule="evenodd"/><path fill="#fff" fill-rule="evenodd" d="M509.964 326.052H542.192C545.302 326.052 547.849 328.594 547.849 331.697V354.281C547.849 357.384 545.302 359.926 542.192 359.926H512.272L504.307 367.875V354.281V331.697C504.307 328.58 506.854 326.052 509.964 326.052Z" clip-rule="evenodd"/><path fill="#7CC9D8" fill-rule="evenodd" d="M513.904 351.416C513.454 351.416 513.088 351.05 513.088 350.601C513.088 350.152 513.454 349.786 513.904 349.786H527.02C527.471 349.786 527.837 350.152 527.837 350.601C527.837 351.05 527.471 351.416 527.02 351.416H513.904ZM513.904 336.697C513.454 336.697 513.088 336.332 513.088 335.883C513.088 335.433 513.454 335.068 513.904 335.068H538.251C538.701 335.068 539.067 335.433 539.067 335.883C539.067 336.332 538.701 336.697 538.251 336.697H513.904ZM513.904 344.056C513.454 344.056 513.088 343.691 513.088 343.242C513.088 342.792 513.454 342.427 513.904 342.427H538.251C538.701 342.427 539.067 342.792 539.067 343.242C539.067 343.691 538.701 344.056 538.251 344.056H513.904Z" clip-rule="evenodd"/><path fill="#E67629" fill-rule="evenodd" d="M482.367 320.968C481.917 320.968 481.551 320.602 481.551 320.153C481.551 319.704 481.917 319.339 482.367 319.339H506.714C507.164 319.339 507.53 319.704 507.53 320.153C507.53 320.602 507.164 320.968 506.714 320.968H482.367Z" clip-rule="evenodd"/><path fill="#E67629" fill-rule="evenodd" d="M482.367 328.313C481.917 328.313 481.551 327.948 481.551 327.498C481.551 327.049 481.917 326.684 482.367 326.684H495.483C495.934 326.684 496.3 327.049 496.3 327.498C496.3 327.948 495.934 328.313 495.483 328.313H482.367Z" clip-rule="evenodd"/><path fill="#E67629" fill-rule="evenodd" d="M482.367 335.672C481.917 335.672 481.551 335.307 481.551 334.857C481.551 334.408 481.917 334.043 482.367 334.043H495.483C495.934 334.043 496.3 334.408 496.3 334.857C496.3 335.307 495.934 335.672 495.483 335.672H482.367Z" clip-rule="evenodd"/><path fill="#fff" fill-rule="evenodd" d="M66.4444 362.763C67.3733 362.763 68.2177 363.143 68.8369 363.746C69.4561 364.35 69.822 365.193 69.822 366.134C69.822 367.061 69.442 367.904 68.8369 368.522L68.7806 368.564C68.1754 369.154 67.3451 369.505 66.4444 369.505C65.8674 369.505 65.3326 369.364 64.8682 369.111L58.099 375.839C58.3241 376.288 58.4508 376.794 58.4508 377.327C58.4508 378.254 58.0708 379.097 57.4516 379.715C56.8324 380.319 55.988 380.698 55.0591 380.698C54.1303 380.698 53.2859 380.319 52.6667 379.715C52.0475 379.097 51.6815 378.254 51.6815 377.327C51.6815 376.695 51.8645 376.105 52.16 375.6L45.6582 369.139C45.0952 369.547 44.4057 369.786 43.6598 369.786C43.0265 369.786 42.4213 369.603 41.9147 369.308L35.3143 375.895C35.5254 376.33 35.638 376.822 35.638 377.341C35.638 378.268 35.258 379.111 34.6529 379.729L34.5966 379.771C33.9914 380.361 33.1611 380.712 32.2604 380.712C31.3316 380.712 30.4872 380.333 29.8679 379.729C29.2487 379.125 28.8828 378.268 28.8828 377.341C28.8828 376.414 29.2628 375.558 29.8679 374.954C30.4731 374.336 31.3316 373.957 32.2604 373.957C33.0204 373.957 33.71 374.209 34.2729 374.631L40.7466 368.156C40.437 367.651 40.2681 367.047 40.2681 366.415C40.2681 365.488 40.6481 364.645 41.2532 364.027L41.3095 363.985C41.9147 363.395 42.745 363.044 43.6457 363.044C44.5745 363.044 45.4189 363.423 46.0382 364.027C46.6433 364.631 47.0233 365.488 47.0233 366.415C47.0233 366.949 46.8966 367.44 46.6855 367.89L53.2859 374.448C53.7925 374.139 54.3977 373.957 55.031 373.957C55.7628 373.957 56.4524 374.195 57.0153 374.603L63.6298 368.03C63.2639 367.496 63.0528 366.836 63.0528 366.134C63.0528 365.207 63.4328 364.364 64.0379 363.746L64.0942 363.704C64.6993 363.129 65.5297 362.763 66.4444 362.763ZM65.0934 367.258C65.206 367.3 65.3045 367.356 65.3889 367.44C65.4452 367.496 65.4874 367.567 65.5297 367.637C65.7971 367.791 66.1067 367.89 66.4304 367.89C66.8948 367.89 67.317 367.707 67.6266 367.412L67.6547 367.37C67.9643 367.061 68.1614 366.612 68.1614 366.134C68.1614 365.657 67.9643 365.221 67.6547 364.898C67.3451 364.589 66.9089 364.393 66.4163 364.393C65.9519 364.393 65.5297 364.575 65.2201 364.87L65.1919 364.912C64.8823 365.221 64.6853 365.671 64.6853 366.148C64.6993 366.569 64.8401 366.949 65.0934 367.258ZM56.2835 376.105C55.9739 375.796 55.5376 375.6 55.0451 375.6C54.5666 375.6 54.1303 375.796 53.8066 376.105C53.497 376.414 53.3 376.85 53.3 377.341C53.3 377.819 53.497 378.254 53.8066 378.577C54.1162 378.886 54.5525 379.083 55.0451 379.083C55.5236 379.083 55.9598 378.886 56.2835 378.577C56.5931 378.268 56.7902 377.833 56.7902 377.341C56.7902 376.864 56.5931 376.428 56.2835 376.105ZM44.8841 365.193C44.5745 364.87 44.1383 364.687 43.6457 364.687C43.1813 364.687 42.7591 364.87 42.4495 365.165L42.4213 365.207C42.0976 365.516 41.9147 365.966 41.9147 366.443C41.9147 366.921 42.1117 367.356 42.4213 367.679C42.7309 367.988 43.1672 368.184 43.6598 368.184C44.1383 368.184 44.5745 367.988 44.8982 367.679C45.2078 367.37 45.4049 366.935 45.4049 366.443C45.3908 365.951 45.1938 365.516 44.8841 365.193ZM33.4848 376.105C33.1752 375.796 32.7389 375.6 32.2463 375.6C31.7678 375.6 31.3316 375.796 31.0079 376.105C30.6983 376.428 30.5012 376.864 30.5012 377.341C30.5012 377.819 30.6983 378.254 31.0079 378.577C31.3175 378.886 31.7538 379.083 32.2463 379.083C32.7108 379.083 33.1329 378.9 33.4426 378.605L33.4707 378.563C33.7803 378.254 33.9773 377.819 33.9773 377.327C33.9773 376.92 33.8366 376.555 33.6114 376.26L33.5974 376.246C33.5833 376.218 33.5411 376.162 33.4848 376.105Z" clip-rule="evenodd"/><path stroke="#fff" stroke-dasharray="2.13 2.13" stroke-linecap="round" stroke-linejoin="round" stroke-miterlimit="22.926" stroke-width="2.126" d="M100.389 32.2043C100.389 27.4011 104.329 23.4547 109.156 23.4547H132.321"/><path stroke="#fff" stroke-dasharray="2.13 2.13" stroke-linecap="round" stroke-linejoin="round" stroke-miterlimit="22.926" stroke-width="2.126" d="M100.389 32.2042C100.389 37.0074 104.329 40.9538 109.156 40.9538H132.321"/><path stroke="#fff" stroke-dasharray="2.13 2.13" stroke-linecap="round" stroke-linejoin="round" stroke-miterlimit="22.926" stroke-width="2.126" d="M150.504 49.6894C150.504 44.8862 146.563 40.9398 141.736 40.9398H132.293"/><path stroke="#fff" stroke-dasharray="2.13 2.13" stroke-linecap="round" stroke-linejoin="round" stroke-miterlimit="22.926" stroke-width="2.126" d="M150.503 49.6893C150.503 66.3317 136.852 79.9547 120.175 79.9547H87.5254"/><path stroke="#fff" stroke-dasharray="2.13 2.13" stroke-linecap="round" stroke-linejoin="round" stroke-miterlimit="22.926" stroke-width="2.126" d="M21.3809 111.737C21.3809 94.2518 35.7075 79.9547 53.2287 79.9547H87.5253"/><path stroke="#fff" stroke-dasharray="2.13 2.13" stroke-linecap="round" stroke-linejoin="round" stroke-miterlimit="22.926" stroke-width="2.126" d="M21.3809 111.737C21.3809 132.649 38.5362 149.769 59.4913 149.769H88.1305"/><path stroke="#fff" stroke-dasharray="2.13 2.13" stroke-linecap="round" stroke-linejoin="round" stroke-miterlimit="22.926" stroke-width="2.126" d="M106.187 158.518C106.187 153.715 102.246 149.769 97.4192 149.769H88.1309"/><path stroke="#fff" stroke-dasharray="2.13 2.13" stroke-linecap="round" stroke-linejoin="round" stroke-miterlimit="22.926" stroke-width="2.126" d="M106.188 158.518C106.188 163.321 102.247 167.268 97.4201 167.268H74.2695"/><path stroke="#fff" stroke-dasharray="2.13 2.13" stroke-linecap="round" stroke-linejoin="round" stroke-miterlimit="22.926" stroke-width="2.126" d="M39.7324 183.854C39.7324 174.725 47.2194 167.268 56.353 167.268H74.2542"/><path stroke="#fff" stroke-dasharray="2.13 2.13" stroke-linecap="round" stroke-linejoin="round" stroke-miterlimit="22.926" stroke-width="2.126" d="M39.7324 183.854C39.7324 194.766 48.683 203.712 59.6321 203.712H74.592"/><path stroke="#fff" stroke-dasharray="2.13 2.13" stroke-linecap="round" stroke-linejoin="round" stroke-miterlimit="22.926" stroke-width="2.126" d="M109.96 225.495C109.96 213.515 100.137 203.713 88.1323 203.713H74.5938"/><path stroke="#fff" stroke-dasharray="2.13 2.13" stroke-linecap="round" stroke-linejoin="round" stroke-miterlimit="22.926" stroke-width="2.126" d="M109.96 225.495C109.96 239.834 98.2084 251.561 83.8395 251.561H19.5527"/><path stroke="#fff" stroke-dasharray="2.13 2.13" stroke-linecap="round" stroke-linejoin="round" stroke-miterlimit="22.926" stroke-width="2.126" d="M1.49609 260.297C1.49609 255.48 5.43662 251.547 10.2638 251.547H19.5521"/><path stroke="#fff" stroke-dasharray="2.13 2.13" stroke-linecap="round" stroke-linejoin="round" stroke-miterlimit="22.926" stroke-width="2.126" d="M1.49609 260.297C1.49609 265.1 5.43662 269.046 10.2638 269.046H33.4284"/><path stroke="#fff" stroke-dasharray="2.13 2.13" stroke-linecap="round" stroke-linejoin="round" stroke-miterlimit="22.926" stroke-width="2.126" d="M67.9499 285.633C67.9499 276.504 60.4629 269.046 51.3294 269.046H33.4141"/><path stroke="#fff" stroke-dasharray="2.13 2.13" stroke-linecap="round" stroke-linejoin="round" stroke-miterlimit="22.926" stroke-width="2.126" d="M93.8175 340.208C93.8175 340.208 93.719 340.208 84.5854 340.208C75.4378 340.208 67.9648 332.737 67.9648 323.608V305.744V285.646"/><path fill="#FDCB5D" fill-rule="evenodd" d="M309.828 10.6744C317.428 10.6744 323.592 16.7415 323.592 24.2271C323.592 32.3868 316.696 33.9598 316.696 43.0043H309.828H302.96C302.96 33.9598 296.064 32.3868 296.064 24.2271C296.064 16.7415 302.229 10.6744 309.828 10.6744Z" clip-rule="evenodd"/><path fill="#302C2C" fill-rule="evenodd" d="M302.961 43.0043L304.959 49.5068L306.733 49.8017C306.704 49.9141 306.676 50.0405 306.676 50.1668C306.676 51.3044 308.084 52.2173 309.815 52.2173C311.546 52.2173 312.953 51.3044 312.953 50.1668C312.953 50.0405 312.939 49.9141 312.911 49.8017L314.684 49.5068L316.682 43.0043L310.166 42.9622L309.491 43.7065L309.449 42.9622L302.961 43.0043Z" clip-rule="evenodd"/><path fill="#3A3735" fill-rule="evenodd" d="M302.989 42.4987H316.682C317.301 42.4987 317.794 43.0043 317.794 43.6222C317.794 44.2401 317.287 44.7317 316.682 44.7317H302.989C302.37 44.7317 301.877 44.2261 301.877 43.6222C301.877 42.9902 302.37 42.4987 302.989 42.4987Z" clip-rule="evenodd"/><path fill="#3A3735" fill-rule="evenodd" d="M303.636 45.5884H316.034C316.653 45.5884 317.146 46.094 317.146 46.7119C317.146 47.3299 316.639 47.8355 316.034 47.8355H303.636C303.016 47.8355 302.51 47.3299 302.51 46.7119C302.51 46.094 303.016 45.5884 303.636 45.5884Z" clip-rule="evenodd"/><path fill="#3A3735" fill-rule="evenodd" d="M304.776 48.6921H314.895C315.514 48.6921 316.007 49.1977 316.007 49.8157C316.007 50.4336 315.5 50.9392 314.895 50.9392H304.776C304.157 50.9392 303.664 50.4336 303.664 49.8157C303.65 49.1977 304.157 48.6921 304.776 48.6921Z" clip-rule="evenodd"/><path stroke="#fff" stroke-dasharray="2.13 2.13" stroke-linecap="round" stroke-linejoin="round" stroke-miterlimit="22.926" stroke-width="2.126" d="M451.307 132.368C451.307 132.368 476.244 132.368 485.392 132.368C494.54 132.368 502.013 139.839 502.013 148.954V166.818V186.915"/><path stroke="#fff" stroke-dasharray="2.13 2.13" stroke-linecap="round" stroke-linejoin="round" stroke-miterlimit="22.926" stroke-width="2.126" d="M453.643 230.34C453.643 221.619 460.792 214.484 469.531 214.484H486.377"/><path stroke="#fff" stroke-dasharray="2.13 2.13" stroke-linecap="round" stroke-linejoin="round" stroke-miterlimit="22.926" stroke-width="2.126" d="M453.643 230.34C453.643 239.062 460.792 246.196 469.531 246.196H511.526"/><path stroke="#fff" stroke-dasharray="2.13 2.13" stroke-linecap="round" stroke-linejoin="round" stroke-miterlimit="22.926" stroke-width="2.126" d="M488.615 214.484C495.99 214.484 502.013 208.459 502.013 201.114V186.93"/><path fill="#fff" fill-rule="evenodd" d="M510.077 250.241C510.527 250.241 510.893 250.606 510.893 251.056C510.893 251.505 510.527 251.87 510.077 251.87H496.721C496.271 251.87 495.905 251.505 495.905 251.056C495.905 250.606 496.271 250.241 496.721 250.241H510.077ZM535.057 241.618C535.057 242.067 534.691 242.432 534.241 242.432C533.79 242.432 533.424 242.067 533.424 241.618V234.891C529.442 235.705 526.486 236.45 525.276 236.758V238.36V254.159V255.76C526.486 256.069 529.442 256.814 533.424 257.628V244.904C533.424 244.455 533.79 244.09 534.241 244.09C534.691 244.09 535.057 244.455 535.057 244.904V257.951C538.561 258.639 542.699 259.356 547.075 259.889C547.118 259.889 547.174 259.889 547.216 259.903C551.311 260.409 555.604 260.76 559.784 260.802C564.034 260.844 567.876 259.847 571.253 258.359C571.113 258.218 571.028 258.021 571.028 257.797V252.881C571.028 252.432 571.394 252.067 571.844 252.067C572.295 252.067 572.661 252.432 572.661 252.881V257.684C580.077 253.935 584.89 247.952 586.157 246.238C584.89 244.539 580.063 238.542 572.661 234.806V249.932C572.661 250.381 572.295 250.747 571.844 250.747C571.394 250.747 571.028 250.381 571.028 249.932V234.694C571.028 234.483 571.113 234.287 571.253 234.132C567.89 232.629 564.034 231.632 559.784 231.689C555.688 231.731 551.48 232.082 547.469 232.559L547.455 232.573C547.244 232.7 547.005 232.714 546.794 232.644C542.516 233.177 538.477 233.879 535.043 234.554V241.618H535.057ZM550.157 246.252C550.157 247.264 549.749 248.19 549.074 248.851C548.398 249.511 547.484 249.932 546.47 249.932C545.457 249.932 544.528 249.525 543.867 248.851C543.205 248.19 542.783 247.264 542.783 246.252C542.783 245.241 543.191 244.314 543.867 243.654C544.528 242.994 545.457 242.573 546.47 242.573C547.484 242.573 548.412 242.98 549.074 243.654C549.749 244.314 550.157 245.227 550.157 246.252ZM550.242 242.489C551.199 243.444 551.804 244.778 551.804 246.252C551.804 247.727 551.213 249.047 550.242 250.016C549.271 250.985 547.948 251.575 546.47 251.575C545.007 251.575 543.67 250.985 542.699 250.016C541.742 249.061 541.136 247.727 541.136 246.252C541.136 244.792 541.742 243.458 542.699 242.489C543.67 241.519 544.993 240.93 546.47 240.93C547.948 240.93 549.271 241.534 550.242 242.489ZM564.442 246.252C564.442 247.264 564.034 248.19 563.358 248.851C562.697 249.511 561.768 249.932 560.755 249.932C559.741 249.932 558.812 249.525 558.151 248.851C557.49 248.19 557.067 247.264 557.067 246.252C557.067 245.241 557.476 244.314 558.151 243.654C558.812 242.994 559.741 242.573 560.755 242.573C561.768 242.573 562.697 242.98 563.358 243.654C564.034 244.314 564.442 245.227 564.442 246.252ZM564.526 242.489C565.497 243.444 566.088 244.778 566.088 246.252C566.088 247.727 565.497 249.047 564.526 250.016C563.555 250.985 562.232 251.575 560.755 251.575C559.277 251.575 557.954 250.985 556.983 250.016C556.012 249.061 555.421 247.727 555.421 246.252C555.421 244.792 556.012 243.458 556.983 242.489C557.954 241.519 559.277 240.93 560.755 240.93C562.232 240.93 563.555 241.534 564.526 242.489ZM523.629 236.688C522.081 235.846 517.085 232.77 514.707 226.689C514.566 226.324 514.707 225.902 515.031 225.706C515.087 225.664 535.943 212.462 547.427 230.93C551.452 230.453 555.674 230.116 559.784 230.059C576.953 229.863 587.832 245.733 587.86 245.775C588.057 246.07 588.043 246.449 587.846 246.716C587.564 247.123 576.742 262.614 559.784 262.431C555.688 262.389 551.494 262.052 547.469 261.575C536 280.141 515.087 266.897 515.031 266.869C514.707 266.659 514.552 266.251 514.707 265.872C517.085 259.791 522.081 256.701 523.629 255.873V254.96H519.027C518.07 254.96 517.198 254.609 516.55 254.033C515.889 253.443 515.481 252.614 515.481 251.702V240.789C515.481 239.876 515.889 239.048 516.55 238.458C517.184 237.882 518.07 237.531 519.027 237.531H523.629V236.688ZM545.64 231.155C534.902 232.573 525.881 234.905 524.446 235.284C523.179 234.61 518.816 231.983 516.494 226.745C519.787 224.877 536.042 216.703 545.64 231.155ZM524.53 257.235C526.233 257.684 535.141 259.96 545.668 261.35C536.084 275.9 519.787 267.698 516.48 265.83C518.858 260.451 523.404 257.825 524.53 257.235ZM523.629 239.16H519.027C518.478 239.16 518 239.357 517.648 239.666C517.324 239.961 517.113 240.354 517.113 240.789V251.702C517.113 252.137 517.31 252.53 517.648 252.825C518 253.134 518.478 253.331 519.027 253.331H523.629V239.16ZM542.065 237.096C541.629 237.18 541.193 236.885 541.122 236.435C541.038 235.986 541.333 235.565 541.77 235.494C544.781 234.947 547.835 234.497 550.791 234.174C553.605 233.879 556.364 233.697 558.967 233.669C559.122 233.669 559.277 233.669 559.446 233.669C559.615 233.669 559.784 233.669 559.91 233.683C560.361 233.697 560.712 234.076 560.684 234.525C560.67 234.975 560.29 235.326 559.84 235.312C559.685 235.312 559.544 235.298 559.418 235.298C559.277 235.298 559.122 235.298 558.981 235.298C556.448 235.326 553.746 235.509 550.96 235.803C548.032 236.112 545.021 236.562 542.065 237.096ZM562.908 235.733C562.472 235.635 562.19 235.2 562.289 234.764C562.387 234.329 562.823 234.048 563.26 234.146C563.457 234.188 563.654 234.245 563.865 234.301C564.076 234.357 564.287 234.413 564.47 234.469C564.906 234.596 565.145 235.045 565.019 235.48C564.892 235.916 564.442 236.155 564.006 236.028C563.809 235.972 563.626 235.916 563.457 235.874C563.288 235.818 563.091 235.775 562.908 235.733ZM506.966 242.32C506.516 242.32 506.15 241.955 506.15 241.505C506.15 241.056 506.516 240.691 506.966 240.691H507.135C507.586 240.691 507.952 241.056 507.952 241.505C507.952 241.955 507.586 242.32 507.135 242.32H506.966ZM490.332 242.32C489.882 242.32 489.516 241.955 489.516 241.505C489.516 241.056 489.882 240.691 490.332 240.691H503.687C504.138 240.691 504.504 241.056 504.504 241.505C504.504 241.955 504.138 242.32 503.687 242.32H490.332ZM493.428 250.241C493.878 250.241 494.244 250.606 494.244 251.056C494.244 251.505 493.878 251.87 493.428 251.87H493.259C492.809 251.87 492.443 251.505 492.443 251.056C492.443 250.606 492.809 250.241 493.259 250.241H493.428Z" clip-rule="evenodd"/></svg>