<svg xmlns="http://www.w3.org/2000/svg" width="337" height="469" fill="none" viewBox="0 0 337 469"><g opacity=".2"><path fill="#1B2F35" d="M0 456.079C0 463.215 75.4419 468.993 168.503 468.993C261.565 468.993 337 463.209 337 456.079C337 448.943 261.558 443.158 168.503 443.158C75.4419 443.158 0 448.943 0 456.079Z"/></g><path fill="#C2EEFC" d="M124.385 327.28C124.591 298.549 128.872 277.511 137.22 264.171C145.568 250.831 162.216 234.617 187.17 215.52C201.805 203.621 213.51 190.789 222.271 177.031C231.033 163.287 235.417 147.889 235.417 130.85C235.417 111.966 230.42 97.1857 220.417 86.5154C210.415 75.845 196.138 70.5065 177.581 70.5065C162.319 70.5065 149.38 75.0216 138.764 84.0519C128.141 93.0891 122.73 106.326 122.53 123.769H34.6938L34.0734 121.916C33.4599 82.508 46.4885 52.336 73.2006 31.4002C99.899 10.4713 134.697 0 177.588 0C223.774 0 260.013 11.6516 286.305 34.941C312.589 58.2373 325.735 89.8983 325.735 129.924C325.735 155.986 318.056 180.105 302.69 202.276C287.332 224.447 268.099 243.023 245.013 258.002C232.432 267.65 224.181 277.346 220.265 287.097C216.343 296.848 214.385 310.235 214.385 327.273H124.385V327.28ZM215.013 454.741H124.074V377.771H215.013V454.741V454.741Z"/><g opacity=".31"><path fill="#632824" d="M124.033 377.894V395.255C128.197 394.109 140.226 390.472 146.216 388.276C156.301 384.591 160.789 381.503 162.788 377.894H124.033Z" opacity=".31"/></g><path fill="#1D282E" d="M24.1399 443.975L23.2092 444.743L30.4956 453.513C30.4956 453.513 32.5361 451.832 33.9423 450.672C35.907 449.052 15.5989 427.643 10.3667 425.585C10.3805 425.585 8.54688 427.08 8.54688 427.08C8.54688 427.08 13.9789 433.62 16.0125 436.07C18.5424 439.123 21.8788 442.369 24.1399 443.975Z"/><path fill="#213759" d="M25.9669 442.479C28.9932 444.633 32.3434 448.751 33.9496 450.679C36.7483 448.442 40.0847 445.237 42.8421 442.719C45.4823 440.207 39.9882 434.56 34.7423 435.15C27.449 434.464 18.0946 424.706 14.0068 424.418C11.7871 424.26 10.3809 425.585 10.3809 425.585C10.3809 425.585 15.8129 432.124 17.8465 434.574C20.3626 437.627 23.8507 440.976 25.9669 442.479Z"/><path fill="#1D282E" d="M96.5408 453.266L96.5546 454.473L107.984 454.336C107.984 454.336 107.949 451.701 107.929 449.883C107.901 447.344 78.4041 449.636 73.5098 452.394C73.5167 452.38 73.5373 454.748 73.5373 454.748C73.5373 454.748 82.0576 454.645 85.2562 454.61C89.2337 454.556 93.8661 454.007 96.5408 453.266Z"/><path fill="#213759" d="M96.5144 450.919C100.099 449.931 105.421 449.917 107.937 449.883C108.047 446.479 107.978 445.601 107.978 438.835C107.675 435.212 98.4515 433.249 95.6183 437.689C94.1844 445.882 77.6746 445.861 74.8828 448.853C73.3662 450.473 73.5179 452.394 73.5179 452.394C73.5179 452.394 82.0382 452.291 85.2367 452.257C89.2074 452.209 94.0121 451.605 96.5144 450.919Z"/><path fill="#13375B" d="M126.817 348.6C126.817 348.6 88.2138 353.863 73.3929 356.375C66.1272 357.61 47.2598 360.602 55.5871 379.932C65.2517 402.371 93.7285 439.974 93.7285 439.974H109.011L78.9076 379.589L144.747 370.819C144.747 370.819 166.53 344.497 126.817 348.6Z"/><path fill="#415485" d="M168.067 351.345C168.067 351.345 129.795 355.867 121.564 356.046C121.185 356.052 118.304 364.774 117.862 364.952C97.2993 373.303 82.313 380.186 63.2871 397.32C43.9854 414.702 31.9219 434.258 31.9219 434.258L41.9174 445.923C41.9174 445.923 69.2844 415.71 89.4822 403.551C116.367 387.37 150.689 384.152 159.333 377.764C170.48 369.529 168.067 351.345 168.067 351.345Z"/><path fill="#F0F4F7" d="M106.543 262.991C108.122 262.188 108.198 264.336 111.203 266.374C119.055 271.699 110.762 300.354 105.509 319.828C102.786 329.922 97.8574 335.796 92.6252 336.448C88.1376 337.011 81.1614 332.742 82.6366 323.959C85.0218 309.714 89.1372 298.186 93.1354 283.975C95.617 275.178 99.8634 266.388 106.543 262.991Z"/><path fill="#E0A47C" d="M118.111 261.769C118.628 265.454 121.847 269.702 128.134 268.837C134.435 267.973 135.572 262.991 135.069 259.395C134.325 254.125 131.636 235.104 131.636 235.104L115.678 244.525C115.671 244.525 117.339 256.294 118.111 261.769Z"/><path fill="#F2E6DC" d="M133.988 252.183C131.416 253.83 128.521 254.969 125.378 255.408C122.545 255.806 119.753 255.6 117.085 254.921C116.471 250.571 115.92 246.666 115.92 246.666L131.878 237.245C131.871 237.238 132.988 245.15 133.988 252.183Z"/><path fill="#BAD7FD" d="M102.607 269.07C102.607 269.07 113.513 258.016 116.587 256.65L116.918 259.004C117.608 263.903 119.669 268.865 123.605 268.309C127.644 267.739 135.972 261.33 135.282 256.431L134.951 254.077C138.288 254.544 139.439 255.614 139.439 255.614L152.909 358.777C152.909 358.777 144.899 359.655 129.623 358.18C116.835 356.944 112.817 351.455 112.817 351.455L102.607 269.07Z"/><path fill="#263A5A" d="M122.289 281.01L118.49 271.946L123.212 268.178L128.424 272.488L125.218 280.866C125.218 280.866 125.811 296.415 127.114 310.62C128.369 324.337 129.582 343.447 129.582 343.447L123.26 353.857L118.669 341.478C118.669 341.478 119.545 324 119.814 316.459C120.613 294.391 122.289 281.01 122.289 281.01Z"/><g opacity=".26"><g opacity=".26"><path fill="#1F363D" d="M112.713 261.166L117.097 256.939L123.115 268.432L134.703 254.475L140.087 257.33L131.008 280.77L123.453 269.729L116.497 282.3L112.713 261.166Z" opacity=".26"/></g></g><path fill="#D0DEE9" d="M112.906 259.368L117.132 255.161L123.253 268.24L116.608 280.681L112.906 259.368Z"/><path fill="#fff" d="M139.412 255.655L134.18 252.78L123.254 268.24L130.933 278.801L139.412 255.655Z"/><path fill="#fff" d="M170.411 302.845C173.396 331.933 171.638 361.316 170.907 367.231C166.227 371.807 141.982 378.1 132.449 378.553C132.449 378.553 132.676 350.419 132.449 323.314C132.394 316.898 131.794 310.029 131.904 305.912C132.469 284.99 137.564 255.127 137.564 255.127C139.432 255.299 141.362 255.546 143.168 256.053C149.889 257.961 166.006 259.91 170.411 302.845Z"/><g opacity=".25"><g opacity=".25"><path fill="#0D2528" d="M101.311 311.512C109.576 348.381 103.669 348.916 103.669 348.916C103.669 354.083 106.998 364.856 113.078 367.347C113.078 367.347 118.621 361.604 117.001 325.517C116.732 319.574 115.202 304.087 115.153 300.924C115.064 295.393 114.002 273.112 115.036 258.51C113.285 259.189 113.251 259.402 111.61 260.315C105.888 263.478 92.9908 274.416 101.311 311.512Z" opacity=".25"/></g></g><g opacity=".76"><g opacity=".76"><path fill="#0D2528" d="M106.73 263.409L114.147 258.503C114.147 258.503 113.141 268.343 111.748 283.179C110.57 295.798 113.975 324.645 113.975 324.645L102.904 290.137L108.095 284.331L102.463 280.914L106.73 263.409Z" opacity=".76"/></g></g><path fill="#fff" d="M99.8773 314.435C107.067 341.615 104.565 345.712 100.808 349.451C99.3534 350.899 104.027 363.525 110.831 366.73C110.831 366.73 116.456 346.761 113.981 324.652C113.32 318.744 113.251 313.941 112.954 310.791C110.748 287.303 114.912 258.311 114.912 258.311C113.168 258.99 111.424 259.834 109.783 260.74C104.055 263.91 90.1507 277.675 99.8773 314.435Z"/><path fill="#DFE9F2" d="M106.619 262.359L115.146 257.179C115.146 257.179 114.14 267.019 112.747 281.854C111.569 294.473 113.974 324.652 113.974 324.652L103.91 288.812L109.101 283.007L103.469 279.59L106.619 262.359Z"/><path fill="#334F57" d="M109.7 330.8C109.824 331.679 110.637 332.29 111.519 332.166C112.402 332.042 113.015 331.233 112.891 330.354C112.767 329.476 111.954 328.865 111.071 328.989C110.189 329.112 109.575 329.922 109.7 330.8Z"/><path fill="#334F57" d="M110.389 348.209C110.333 349.094 110.892 349.849 111.643 349.89C112.388 349.938 113.043 349.259 113.098 348.374C113.153 347.489 112.588 346.734 111.836 346.686C111.092 346.645 110.444 347.324 110.389 348.209Z"/><path fill="#EAAE86" d="M95.4664 230.527C98.0583 230.163 99.8644 227.768 99.506 225.195C99.1406 222.615 96.7348 220.81 94.1497 221.174L90.4273 221.696C87.8353 222.059 86.0293 224.454 86.3946 227.034C86.76 229.614 89.1589 231.412 91.7508 231.055L95.4664 230.527Z"/><path fill="#F2E6DC" d="M95.0673 227.686C96.0806 227.542 96.7906 226.602 96.6528 225.593C96.508 224.578 95.5636 223.864 94.5503 224.008L90.8278 224.53C89.8145 224.674 89.1044 225.614 89.2492 226.629C89.394 227.645 90.3384 228.352 91.3517 228.208L95.0673 227.686Z"/><path fill="#EAAE86" d="M145.264 223.548C147.856 223.185 149.669 220.797 149.304 218.217C148.938 215.637 146.533 213.832 143.941 214.196L140.225 214.717C137.633 215.081 135.82 217.476 136.185 220.056C136.551 222.636 138.957 224.434 141.549 224.07L145.264 223.548Z"/><path fill="#F2E6DC" d="M144.857 220.707C145.878 220.563 146.588 219.63 146.443 218.615C146.298 217.599 145.354 216.885 144.333 217.029L140.618 217.551C139.598 217.695 138.888 218.635 139.032 219.651C139.177 220.666 140.122 221.373 141.135 221.229L144.857 220.707Z"/><path fill="#FCC49A" d="M112.039 181.54C98.7136 183.406 89.1111 193.438 90.9861 206.709L95.329 237.457C97.204 250.722 109.819 262.03 123.151 260.164C136.476 258.297 145.472 243.963 143.597 230.698L139.247 199.95C137.379 186.679 125.364 179.673 112.039 181.54Z"/><path fill="#E2A479" d="M115.307 229.909C115.307 229.909 116.485 230.39 118.822 230.06C120.911 229.765 122.221 228.99 122.221 228.99C122.221 228.99 122.641 231.899 119.367 232.441C116.472 232.922 115.382 230.877 115.307 229.909Z"/><path fill="#3F2615" d="M122.447 207.636L129.865 210.36C130.389 210.552 130.968 210.284 131.161 209.763C131.354 209.241 131.085 208.665 130.561 208.473L123.137 205.749C122.613 205.556 122.034 205.824 121.841 206.346C121.661 206.867 121.93 207.443 122.447 207.636Z"/><path fill="#3F2615" d="M107.012 214.312C107.336 214.058 107.481 213.619 107.336 213.201C107.157 212.672 106.585 212.398 106.054 212.569L98.3746 215.17C97.8507 215.348 97.568 215.918 97.7473 216.446C97.9265 216.968 98.4986 217.249 99.0225 217.071L106.702 214.477C106.819 214.436 106.922 214.381 107.012 214.312Z"/><path fill="#774A07" d="M87.6143 195.14C86.1047 183.79 94.8662 176.386 94.8662 176.386C98.4715 172.976 103.393 170.883 108.15 169.62C107.281 171.377 105.799 174.458 106.702 173.346C109.17 170.286 115.547 168.557 118.221 167.939C121.454 167.692 123.612 167.802 123.612 167.925C123.646 170.883 119.262 174.06 121.447 173.779C124.625 173.367 127.383 169.147 127.975 169.538C137.523 175.878 138.812 184.669 139.308 189.664C139.887 195.497 141.363 214.36 141.363 214.36C141.363 214.36 139.329 203.477 138.757 199.387C137.695 191.778 131.229 185.657 125.397 189.602C121.296 192.381 118.235 193.431 111.831 193.603C101.987 193.87 99.5882 193.747 97.21 193.836C91.971 194.042 90.4613 199.065 91.0955 203.539C91.516 206.517 92.9292 220.138 92.9292 220.138C92.9292 220.138 88.6621 202.983 87.6143 195.14Z"/><path fill="#EAAE86" d="M95.4664 230.527C98.0583 230.163 99.8644 227.768 99.506 225.195C99.1406 222.615 96.7348 220.81 94.1497 221.174L90.4273 221.696C87.8353 222.059 86.0293 224.454 86.3946 227.034C86.76 229.614 89.1589 231.412 91.7508 231.055L95.4664 230.527Z"/><path fill="#F2E6DC" d="M95.0673 227.686C96.0806 227.542 96.7906 226.602 96.6528 225.593C96.508 224.578 95.5636 223.864 94.5503 224.008L90.8278 224.53C89.8145 224.674 89.1044 225.614 89.2492 226.629C89.394 227.645 90.3384 228.352 91.3517 228.208L95.0673 227.686Z"/><path fill="#FCB095" d="M145.264 223.548C147.856 223.185 149.669 220.797 149.304 218.217C148.938 215.637 146.533 213.832 143.941 214.196L140.225 214.717C137.633 215.081 135.82 217.476 136.185 220.056C136.551 222.636 138.957 224.434 141.549 224.07L145.264 223.548Z"/><path fill="#FCC49A" d="M112.039 181.54C98.7136 183.406 89.1111 193.438 90.9861 206.709L95.329 237.457C97.204 250.722 109.819 262.03 123.151 260.164C136.476 258.297 145.472 243.963 143.597 230.698L139.247 199.95C137.379 186.679 125.364 179.673 112.039 181.54Z"/><path fill="#E2A479" d="M115.307 229.909C115.307 229.909 116.485 230.39 118.822 230.06C120.911 229.765 122.221 228.99 122.221 228.99C122.221 228.99 122.641 231.899 119.367 232.441C116.472 232.922 115.382 230.877 115.307 229.909Z"/><path fill="#3F2615" d="M122.447 207.636L129.865 210.36C130.389 210.552 130.968 210.284 131.161 209.763C131.354 209.241 131.085 208.665 130.561 208.473L123.137 205.749C122.613 205.556 122.034 205.824 121.841 206.346C121.661 206.867 121.93 207.443 122.447 207.636Z"/><path fill="#3F2615" d="M107.012 214.312C107.336 214.058 107.481 213.619 107.336 213.201C107.157 212.672 106.585 212.398 106.054 212.569L98.3746 215.17C97.8507 215.348 97.568 215.918 97.7473 216.446C97.9265 216.968 98.4986 217.249 99.0225 217.071L106.702 214.477C106.819 214.436 106.922 214.381 107.012 214.312Z"/><path fill="#774A07" d="M87.6143 195.14C86.1047 183.79 94.8662 176.386 94.8662 176.386C98.4715 172.976 103.393 170.883 108.15 169.62C107.281 171.377 105.799 174.458 106.702 173.346C109.17 170.286 115.547 168.557 118.221 167.939C121.454 167.692 123.612 167.802 123.612 167.925C123.646 170.883 119.262 174.06 121.447 173.779C124.625 173.367 127.383 169.147 127.975 169.538C137.523 175.878 138.812 184.669 139.308 189.664C139.887 195.497 141.363 214.36 141.363 214.36C141.363 214.36 139.329 203.477 138.757 199.387C137.695 191.778 131.229 185.657 125.397 189.602C121.296 192.381 118.235 193.431 111.831 193.603C101.987 193.87 99.5882 193.747 97.21 193.836C91.971 194.042 90.4613 199.065 91.0955 203.539C91.516 206.517 92.9292 220.138 92.9292 220.138C92.9292 220.138 88.6621 202.983 87.6143 195.14Z"/><path fill="#FCB095" d="M95.4664 230.527C98.0583 230.163 99.8644 227.768 99.506 225.195C99.1406 222.615 96.7348 220.81 94.1497 221.174L90.4273 221.696C87.8353 222.059 86.0293 224.454 86.3946 227.034C86.76 229.614 89.1589 231.412 91.7508 231.055L95.4664 230.527Z"/><path fill="#FCB095" d="M112.039 181.54C98.7136 183.406 89.1111 193.438 90.9861 206.709L95.329 237.457C97.204 250.722 109.819 262.03 123.151 260.164C136.476 258.297 145.472 243.963 143.597 230.698L139.247 199.95C137.379 186.679 125.364 179.673 112.039 181.54Z"/><path fill="#14161B" d="M87.6143 195.14C86.1047 183.79 94.8662 176.386 94.8662 176.386C98.4715 172.976 103.393 170.883 108.15 169.62C107.281 171.377 105.799 174.458 106.702 173.346C109.17 170.286 115.547 168.557 118.221 167.939C121.454 167.692 123.612 167.802 123.612 167.925C123.646 170.883 119.262 174.06 121.447 173.779C124.625 173.367 127.383 169.147 127.975 169.538C137.523 175.878 138.812 184.669 139.308 189.664C139.887 195.497 141.363 214.36 141.363 214.36C141.363 214.36 139.329 203.477 138.757 199.387C137.695 191.778 131.229 185.657 125.397 189.602C121.296 192.381 118.235 193.431 111.831 193.603C101.987 193.87 99.5882 193.747 97.21 193.836C91.971 194.042 90.4613 199.065 91.0955 203.539C91.516 206.517 92.9292 220.138 92.9292 220.138C92.9292 220.138 88.6621 202.983 87.6143 195.14Z"/><path fill="#B4C6D3" d="M145.691 256.884L138.136 254.942C138.136 254.942 133.338 269.626 132.973 287.385C132.628 304.176 133.345 322.175 133.345 322.175L144.547 286.685L137.791 280.317L145.491 278.025L145.691 256.884Z"/><path fill="#DFE9F2" d="M145.817 256.465L137.021 254.111C137.021 254.111 132.216 268.796 131.858 286.555C131.513 303.346 133.347 322.182 133.347 322.182L143.439 285.855L136.683 279.487L144.383 277.195L145.817 256.465Z"/><g opacity=".37"><path fill="#E2A479" d="M138.985 248.999C138.985 248.999 139.426 247.044 136.91 247.586C134.394 248.128 130.244 252.588 130.244 252.588C130.244 252.588 126.528 245.301 121.834 239.537C120.166 237.492 119.614 236.943 118.56 236.819C117.919 236.744 116.078 237.258 117.36 239.104C120.745 243.997 122.172 247.915 122.172 247.915C122.172 247.915 121.221 246.948 119.656 248.135C118.47 249.027 118.78 250.749 118.78 250.749C118.78 250.749 117.76 250.365 116.919 250.969C115.72 251.84 116.044 253.034 116.044 253.034C116.044 253.034 114.182 253.686 114.403 255.209C114.506 255.916 115.354 257.913 116.471 260.026C118.649 260.418 120.89 260.486 123.158 260.17C126.577 259.69 129.706 258.386 132.443 256.499C134.628 252.396 138.985 248.999 138.985 248.999Z" opacity=".37"/></g><g opacity=".29"><g opacity=".29"><path fill="#243F47" d="M158.294 269.674C160.562 271.808 160.886 279.123 160.755 282.52C160.279 295.105 155.681 309.364 148.719 319.321C138.861 333.422 124.509 325.517 128.893 312.136C131.547 304.032 137.221 301.672 143.294 281.957C144.542 277.922 147.037 274.1 149.732 271.98C151.311 270.752 156.798 268.268 158.294 269.674Z" opacity=".29"/></g></g><path fill="#fff" d="M157.169 265.207C159.437 267.348 160.754 270.011 160.63 273.4C160.154 285.985 154.226 302.344 144.768 318.044C136.896 331.109 124.163 323.705 128.548 310.325C131.202 302.221 137.743 294.775 143.817 275.061C145.064 271.026 147.56 267.204 150.255 265.084C151.82 263.855 155.673 263.801 157.169 265.207Z"/><g opacity=".22"><path fill="#152429" d="M141.239 282.65C136.007 296.793 130.879 303.291 128.576 310.215C129.141 313.968 129.727 317.132 130.327 319.108C133.505 329.641 139.73 320.81 142.136 318.161C144.121 315.972 144.755 307.154 143.928 300.944C143.087 294.652 142.101 288.133 141.239 282.65Z" opacity=".22"/></g><g opacity=".3"><path fill="#0D2528" d="M150.684 331.672C150.684 331.672 152.821 330.595 152.193 328.941C151.656 327.534 149.608 328.138 149.608 328.138C149.608 328.138 151.242 327.28 150.884 325.819C150.553 324.488 149.236 324.426 148.457 324.577C138.462 326.443 134.774 325.64 134.443 325.812C134.298 325.887 136.835 321.811 137.634 320.844C138.427 319.876 138.565 318.902 137.669 318.181C136.669 317.385 135.111 318.847 135.111 318.847C135.111 318.847 129.99 322.566 127.418 325.311L127.384 324.927L125.157 325.27C125.143 324.968 125.137 324.755 125.143 324.659L103.85 323.149C104.112 330.08 104.222 336.208 104.222 336.208L104.436 341.498C113.852 340.771 126.398 338.726 126.398 338.726C126.398 338.726 126.377 338.534 126.343 338.198L128.632 338.012L128.542 337.113C131.127 337.896 135.049 338.692 136.952 338.815C140.792 339.069 145.155 338.877 148.733 337.21C151.159 336.084 150.394 334.76 150.394 334.76C150.394 334.76 152.131 333.95 151.787 332.701C151.511 331.713 150.684 331.672 150.684 331.672Z" opacity=".3"/></g><path fill="#FCB095" d="M124.873 328.79C124.749 327.068 124.99 325.819 126.721 323.637C128.906 320.892 135.103 316.39 135.103 316.39C135.103 316.39 136.661 314.929 137.661 315.725C138.564 316.445 138.419 317.42 137.626 318.387C136.826 319.355 134.29 323.431 134.434 323.355C134.765 323.184 138.46 323.987 148.449 322.12C149.228 321.976 150.544 322.031 150.875 323.362C151.234 324.824 149.6 325.682 149.6 325.682C149.6 325.682 151.654 325.078 152.185 326.491C152.812 328.152 150.675 329.222 150.675 329.222C150.675 329.222 151.51 329.27 151.778 330.252C152.123 331.507 150.386 332.31 150.386 332.31C150.386 332.31 151.158 333.635 148.725 334.76C145.147 336.42 140.783 336.619 136.944 336.366C134.262 336.187 127.548 334.671 126.266 333.758C124.46 332.468 124.984 330.382 124.873 328.79Z"/><path fill="#BAD7FD" d="M124.515 322.916L127.376 322.47L128.63 335.563L124.246 335.92L124.515 322.916Z"/><path fill="#fff" d="M125.142 322.203L83.6296 319.266C83.6296 319.266 81.2169 326.121 82.9127 331.288C84.8567 337.203 91.5571 339.323 99.0158 339.302C107.964 339.275 126.39 336.276 126.39 336.276C126.39 336.276 125.052 323.184 125.142 322.203Z"/><path fill="#E99F85" d="M134.634 274.684C134.634 274.684 132.056 263.389 132.608 260.555C133.628 255.285 140.253 250.111 140.253 250.111C140.253 250.111 140.687 248.155 138.178 248.697C135.661 249.239 131.512 253.7 131.512 253.7C131.512 253.7 127.796 246.412 123.102 240.648C121.433 238.603 120.882 238.055 119.827 237.931C119.186 237.856 117.346 238.37 118.628 240.216C122.012 245.109 123.439 249.027 123.439 249.027C123.439 249.027 122.488 248.059 120.923 249.246C119.738 250.138 120.048 251.861 120.048 251.861C120.048 251.861 119.028 251.476 118.187 252.08C116.987 252.952 117.311 254.146 117.311 254.146C117.311 254.146 115.45 254.798 115.671 256.321C115.822 257.405 117.745 261.543 119.717 264.48C121.682 267.417 124.853 268.178 124.853 268.178L126.734 276.022L134.634 274.684Z"/><path fill="#BAD7FD" d="M135.096 272.213C135.213 271.74 134.144 267.225 134.144 267.225L122.336 270.072L123.17 275.651L135.096 272.213Z"/><path fill="#fff" d="M144.402 313.536L135.571 269.249L121.736 273.05C121.736 273.05 124.48 307.957 127.341 317.461C130.519 327.994 137.481 325.181 141.3 321.976C144.347 319.403 144.402 313.536 144.402 313.536Z"/><path fill="#0E3C54" d="M203.028 403.043H205.4V401.273C205.4 399.324 206.992 397.739 208.95 397.739H224.708C226.666 397.739 228.258 399.324 228.258 401.273V402.913H230.63V401.273C230.63 398.027 227.976 395.378 224.708 395.378H208.95C205.682 395.378 203.021 398.027 203.021 401.273V403.043H203.028Z"/><path fill="#F99920" d="M226.561 405.534C226.561 405.973 226.912 406.323 227.353 406.323H231.434C231.869 406.323 232.227 405.973 232.227 405.534V402.913C232.227 402.48 231.869 402.13 231.434 402.13H227.353C226.919 402.13 226.561 402.48 226.561 402.913V405.534Z"/><path fill="#F99920" d="M201.283 405.534C201.283 405.973 201.635 406.323 202.069 406.323H206.15C206.584 406.323 206.943 405.973 206.943 405.534V402.913C206.943 402.48 206.591 402.13 206.15 402.13H202.069C201.635 402.13 201.283 402.48 201.283 402.913V405.534Z"/><path fill="#234354" d="M181.678 450.027C181.678 452.634 183.801 454.748 186.42 454.748H246.841C249.461 454.748 251.584 452.641 251.584 450.027V407.572C251.584 406.268 250.523 405.211 249.213 405.211H184.049C182.739 405.211 181.678 406.268 181.678 407.572V450.027Z"/><path fill="#082633" d="M184.165 407.572H249.329C250.632 407.572 251.694 408.629 251.694 409.932V424.088C251.694 429.297 247.447 433.524 242.215 433.524H220.184V435.946C220.184 437.902 218.591 439.487 216.627 439.487C214.662 439.487 213.07 437.902 213.07 435.946V433.524H191.266C186.033 433.524 181.787 429.297 181.787 424.088V409.932C181.794 408.629 182.856 407.572 184.165 407.572Z"/><path fill="#366377" d="M181.795 421.721C181.795 426.929 186.041 431.156 191.273 431.156H242.223C247.455 431.156 251.701 426.929 251.701 421.721V407.572C251.701 406.268 250.64 405.211 249.337 405.211H184.173C182.863 405.211 181.802 406.268 181.802 407.572V421.721H181.795Z"/><path fill="#F99920" d="M213.078 433.579C213.078 435.534 214.671 437.119 216.635 437.119C218.6 437.119 220.192 435.534 220.192 433.579V427.945H213.078V433.579Z"/><path fill="#FFAF57" d="M213.869 433.345C213.869 434.869 215.11 436.097 216.633 436.097C218.157 436.097 219.398 434.869 219.398 433.345V428.96H213.869V433.345Z"/><path fill="#F99920" d="M219.839 431.17H213.752V432.117H219.839V431.17Z"/></svg>