<svg xmlns="http://www.w3.org/2000/svg" width="752" height="538" fill="none" viewBox="0 0 752 538"><path fill="#86B1F2" d="M242.578 179.817L307.637 178.397C309.734 178.353 311.397 176.613 311.352 174.516L310.617 140.851C310.57 138.754 308.833 137.091 306.736 137.136L241.677 138.556C239.58 138.603 237.918 140.34 237.962 142.437L238.697 176.102C238.744 178.199 240.481 179.862 242.578 179.817Z"/><path fill="#fff" d="M277.632 157.718C277.78 164.425 283.335 169.744 290.042 169.596C296.749 169.448 302.068 163.893 301.92 157.186C301.773 150.479 296.217 145.16 289.51 145.308C282.803 145.455 277.484 151.011 277.632 157.718Z"/><path fill="#86B1F2" d="M286.087 152.673C286.131 154.652 287.767 156.22 289.746 156.176C291.725 156.132 293.293 154.495 293.249 152.517C293.204 150.538 291.568 148.97 289.59 149.014C287.611 149.055 286.043 150.694 286.087 152.673Z"/><path fill="#86B1F2" d="M284.192 164.085L295.636 163.834L295.609 162.549C295.559 160.207 293.616 158.347 291.274 158.4L288.315 158.465C285.973 158.515 284.112 160.458 284.165 162.8L284.192 164.085Z"/><path fill="#fff" d="M273.852 152.062C274.464 151.829 274.863 151.235 274.848 150.579C274.83 149.726 274.118 149.047 273.265 149.064L244.824 149.684C244.647 149.687 244.473 149.723 244.304 149.785C243.693 150.018 243.294 150.612 243.309 151.267C243.327 152.121 244.038 152.8 244.892 152.783L273.333 152.162C273.513 152.159 273.687 152.127 273.852 152.062Z"/><path fill="#fff" d="M269.479 160.881C270.091 160.647 270.489 160.054 270.475 159.398C270.457 158.545 269.745 157.865 268.892 157.883L246.68 158.367C246.502 158.37 246.328 158.406 246.16 158.468C245.548 158.701 245.15 159.295 245.164 159.95C245.173 160.364 245.342 160.751 245.643 161.034C245.941 161.321 246.334 161.474 246.747 161.462L268.96 160.978C269.137 160.978 269.311 160.946 269.479 160.881Z"/><path fill="#96D9C9" d="M322.055 353.02L322.055 176.138L113.097 176.138L113.097 353.02H322.055Z"/><path fill="#50BFA5" d="M314.711 345.678L314.711 183.486L120.443 183.486L120.443 345.678H314.711Z"/><path fill="#96D9C9" d="M270.007 192.889H150.68V210.709H270.007V192.889Z"/><path fill="#50BFA5" d="M169.664 201.994C169.664 205.417 166.888 208.193 163.465 208.193C160.042 208.193 157.266 205.417 157.266 201.994C157.266 198.571 160.042 195.795 163.465 195.795C166.888 195.795 169.664 198.568 169.664 201.994Z"/><path fill="#9BC1F9" d="M185.684 373.17L185.684 237.378L25.2696 237.378L25.2696 373.17H185.684Z"/><path fill="#96D9C9" d="M180.047 367.529L180.047 243.016L30.9088 243.016L30.9088 367.529H180.047Z"/><path fill="#fff" d="M124.554 254.918C124.554 254.918 122.049 267.077 127.058 273.155C132.064 279.236 135.641 279.951 135.641 279.951C135.641 279.951 137.788 288.533 141.004 289.605C141.004 289.605 141.6 294.372 140.289 294.611C138.978 294.85 136.594 299.974 137.667 304.147C137.667 304.147 129.323 305.577 128.727 311.897C128.727 311.897 126.58 312.733 124.436 312.015C122.288 311.3 117.761 313.326 114.424 312.969C111.086 312.612 105.723 306.77 100.478 309.153C95.2328 311.537 96.6623 336.451 96.6623 336.451H101.55C101.55 336.451 101.193 318.332 103.815 317.975C106.438 317.618 109.418 320.955 117.404 326.439C125.389 331.924 147.921 335.261 160.912 318.214C166.919 310.332 168.476 299.836 167.336 290.196C166.37 282.024 162.929 267.402 153.157 265.565C149.374 264.856 144.297 264.782 141.482 267.91C139.338 270.293 132.303 268.864 131.349 266.002C130.395 263.14 131.11 255.036 131.11 255.036L124.554 254.918Z"/><path fill="#3FA68E" d="M273.095 348.359L583.055 348.359V99.5337L273.095 99.5337L273.095 348.359Z"/><path fill="#96D9C9" d="M577.539 340.569V107.328L278.613 107.328L278.613 340.569L577.539 340.569Z"/><path fill="#fff" d="M359.217 149.392C364.609 149.392 368.981 143.003 368.981 135.122C368.981 127.24 364.609 120.851 359.217 120.851C353.825 120.851 349.453 127.24 349.453 135.122C349.453 143.003 353.825 149.392 359.217 149.392Z"/><path fill="#fff" d="M367.212 137.833C367.035 139.501 367.705 140.94 368.706 141.046C369.708 141.152 370.662 139.885 370.839 138.217C371.016 136.548 370.345 135.11 369.344 135.003C368.34 134.897 367.386 136.164 367.212 137.833Z"/><path fill="#fff" d="M348.029 138.231C348.221 139.897 349.184 141.158 350.185 141.043C351.186 140.928 351.842 139.484 351.65 137.818C351.458 136.152 350.495 134.891 349.494 135.006C348.496 135.122 347.837 136.566 348.029 138.231Z"/><path fill="#fff" d="M322.347 233.069C323.561 229.945 325.905 226.3 325.905 226.3C325.905 226.3 326.254 209.289 327.553 205.296C328.856 201.303 330.33 197.396 330.592 195.054C330.852 192.712 330.244 176.217 331.375 171.271C332.503 166.324 335.433 161.808 338.469 160.16C341.508 158.512 352.205 155.039 353.162 153.043C354.116 151.046 352.988 141.846 352.988 141.846L359.213 139.998V139.992L359.225 139.995L359.237 139.992V139.998L365.463 141.846C365.463 141.846 364.334 151.046 365.288 153.043C366.242 155.039 377.353 159.422 380.392 161.073C383.431 162.721 385.947 166.324 387.075 171.271C388.203 176.217 387.595 192.709 387.858 195.054C388.118 197.399 389.594 201.303 390.897 205.296C392.199 209.289 392.545 226.3 392.545 226.3C392.545 226.3 394.89 229.945 396.104 233.069C397.317 236.194 393.587 245.742 391.417 245.134C389.246 244.525 391.936 238.45 390.897 236.888C389.854 235.326 388.9 235.5 388.552 236.628C388.203 237.756 388.726 239.838 388.118 239.838C387.509 239.838 386.036 236.454 386.295 233.675C386.555 230.899 387.424 228.468 386.904 226.383C386.384 224.301 380.09 205.06 379.222 201.501C378.354 197.942 378.224 181.333 377.356 181.073C377.356 181.073 375.708 189.493 373.971 196.87L375.359 208.326C375.359 208.326 377.441 224.038 378.05 228.896C378.658 233.757 376.402 267.175 376.402 267.175C376.402 267.175 378.138 278.371 378.05 284.36C377.964 290.35 374.317 314.738 374.317 314.738C374.317 314.738 375.185 320.902 377.093 323.504C379.004 326.109 377.613 328.191 375.616 329.145C373.62 330.099 369.975 330.793 369.018 330.533C369.018 330.533 368.15 330.533 368.41 325.412C368.67 320.291 368.93 315.778 368.324 314.215C367.716 312.653 368.41 311.871 368.844 310.048C369.278 308.226 363.983 280.754 364.766 276.935C365.548 273.117 365.678 268.087 365.938 264.963C366.198 261.838 359.819 234.534 359.819 234.534H358.626C358.626 234.534 352.205 262.033 352.465 265.157C352.725 268.282 353.05 273.837 353.832 277.656C354.615 281.475 349.166 308.226 349.6 310.048C350.034 311.871 350.728 312.653 350.12 314.215C349.512 315.778 349.771 320.291 350.034 325.412C350.294 330.533 349.426 330.533 349.426 330.533C348.472 330.793 344.825 330.099 342.828 329.145C340.832 328.191 339.444 326.106 341.351 323.504C343.262 320.899 344.131 314.738 344.131 314.738C344.131 314.738 340.486 290.347 340.398 284.36C340.312 278.371 342.045 267.175 342.045 267.175C342.045 267.175 339.789 233.757 340.398 228.896C341.006 224.035 343.088 208.326 343.088 208.326L344.476 196.87C342.74 189.493 341.092 181.073 341.092 181.073C340.223 181.333 340.052 197.552 339.184 201.111C338.315 204.67 332.066 224.298 331.543 226.383C331.024 228.465 331.889 230.896 332.152 233.675C332.412 236.454 330.938 239.838 330.33 239.838C329.721 239.838 330.244 237.756 329.895 236.628C329.547 235.5 328.593 235.326 327.55 236.888C326.508 238.45 329.198 244.525 327.031 245.134C324.863 245.739 321.133 236.194 322.347 233.069Z"/><path fill="#50BFA5" d="M425.256 333.309H560.457V115.942L425.256 115.942V333.309Z"/><path fill="#F48C7F" d="M375.773 177.585C375.773 181.007 372.997 183.784 369.574 183.784C366.151 183.784 363.375 181.007 363.375 177.585C363.375 174.162 366.151 171.385 369.574 171.385C372.997 171.385 375.773 174.162 375.773 177.585Z"/><path fill="#F48C7F" d="M350.203 215.166C350.203 218.589 347.427 221.365 344.004 221.365C340.581 221.365 337.805 218.589 337.805 215.166C337.805 211.743 340.581 208.967 344.004 208.967C347.427 208.967 350.203 211.743 350.203 215.166Z"/><path fill="#F48C7F" d="M381.968 270.178C381.968 273.601 379.192 276.377 375.769 276.377C372.346 276.377 369.57 273.601 369.57 270.178C369.57 266.755 372.346 263.979 375.769 263.979C379.192 263.982 381.968 266.755 381.968 270.178Z"/><path fill="#F48C7F" d="M369.57 225.049C369.57 228.472 366.794 231.248 363.371 231.248C359.948 231.248 357.172 228.472 357.172 225.049C357.172 221.626 359.948 218.85 363.371 218.85C366.794 218.85 369.57 221.626 369.57 225.049Z"/><path fill="#96D9C9" d="M555.921 136.131H436.594V153.952H555.921V136.131Z"/><path fill="#50BFA5" d="M455.578 145.234C455.578 148.657 452.802 151.433 449.379 151.433C445.956 151.433 443.18 148.657 443.18 145.234C443.18 141.811 445.956 139.035 449.379 139.035C452.802 139.035 455.578 141.811 455.578 145.234Z"/><path fill="#96D9C9" d="M555.921 161.315H436.594V179.135H555.921V161.315Z"/><path fill="#50BFA5" d="M455.578 170.417C455.578 173.84 452.802 176.616 449.379 176.616C445.956 176.616 443.18 173.84 443.18 170.417C443.18 166.994 445.956 164.218 449.379 164.218C452.802 164.218 455.578 166.994 455.578 170.417Z"/><path fill="#96D9C9" d="M555.921 187.659H436.594V205.479H555.921V187.659Z"/><path fill="#50BFA5" d="M455.578 196.764C455.578 200.187 452.802 202.963 449.379 202.963C445.956 202.963 443.18 200.187 443.18 196.764C443.18 193.341 445.956 190.565 449.379 190.565C452.802 190.565 455.578 193.338 455.578 196.764Z"/><path fill="#F48C7F" d="M45.6229 140.63L42.7168 144.569L36.1988 141.456L31.2785 146.79L25.9093 145.287L24.793 148.039L31.9726 150.051L36.6359 144.998L43.4168 148.234L47.7877 142.307L45.6229 140.63Z"/><path fill="#466EB6" d="M751.904 142.632L745.986 138.488L741.771 143.739L735.759 139.918L731.113 144.436L726.145 142.313L725.07 144.826L731.712 147.67L736.116 143.385L742.371 147.363L746.515 142.198L751.881 145.952L751.904 142.632Z"/><path fill="#50BFA5" d="M122.117 48.0126L116.889 50.588L117.022 56.5271L110.959 58.9991L113.05 65.2809L106.316 68.3789L107.527 74.4038L101.535 78.4439L100.008 76.1758L104.485 73.1545L103.209 66.7989L109.68 63.8219L107.557 57.4309L114.246 54.7049L114.119 48.9046L118.962 46.5183L118.082 42.7262L120.746 42.106L122.117 48.0126Z"/><path fill="#9BC1F9" d="M696.603 109.516L694.32 109.51L689.61 102.968L685.986 117.682L683.316 92.1208L675.862 108.745L672.634 102.833L668.467 110.254L662.843 103.335L660.259 115.892L657.944 94.2827L649.775 108.919L630.247 108.857C629.757 108.857 629.358 109.253 629.355 109.743C629.355 110.234 629.751 110.632 630.241 110.635L651.671 110.706L656.125 102.723L659.406 133.344L664.403 109.044L668.916 114.599L672.592 108.048L676.11 114.49L681.639 102.162L684.89 133.276L690.891 108.917L692.595 111.282L697.784 111.3C697.333 110.689 696.943 110.095 696.603 109.516Z"/><path fill="#F48C7F" d="M712.783 99.3122C712.783 99.3122 715.388 95.7269 720.509 95.7446C725.075 95.7594 728.211 99.4599 728.199 103.754C728.182 108.727 723.873 114.596 712.718 119.676C701.596 114.525 697.325 108.627 697.34 103.654C697.355 99.3565 700.515 95.6796 705.081 95.6944C710.205 95.7121 712.783 99.3122 712.783 99.3122Z"/><path fill="#86B1F2" d="M180.773 58.7009L188.824 58.014L188.163 50.2659L180.112 50.9527L180.773 58.7009Z"/><path fill="#86B1F2" d="M182.189 61.2281L187.859 60.7444L187.674 58.5668L182.003 59.0505L182.189 61.2281Z"/><path fill="#86B1F2" d="M176.371 34.6549C177.656 34.5456 178.61 33.4145 178.5 32.1268L178.137 27.8828L186.209 27.1947L186.572 31.4387C186.681 32.7234 187.812 33.6773 189.1 33.568L190.272 47.3188C190.376 48.5179 189.487 49.5722 188.285 49.6756L179.9 50.3903C178.988 50.4671 178.161 49.9739 177.771 49.203C177.597 47.8002 176.371 34.6549 176.371 34.6549Z"/><path fill="#86B1F2" d="M176.191 28.0562L188.133 27.0363L187.889 24.1818L175.947 25.2017L176.191 28.0562Z"/><path fill="#86B1F2" d="M168.147 79.3446L179.785 78.3506L179.118 70.5406L167.48 71.5346L168.147 79.3446Z"/><path fill="#86B1F2" d="M158.792 84.3359L201.996 80.6472L201.887 79.3566C201.751 77.7677 200.354 76.5893 198.762 76.7251L161.314 79.9207C159.725 80.0565 158.547 81.4534 158.683 83.0453L158.792 84.3359Z"/><path fill="#96D9C9" d="M173.974 71.0484L196.203 69.1521L195.87 65.2471L173.641 67.1434L173.974 71.0484Z"/><path fill="#86B1F2" d="M181.658 46.8519C178.876 46.9819 175.858 47.1207 175.891 47.1177L175.589 47.1414C168.746 47.6582 162.671 54.6931 167.107 63.875L167.255 64.1467C169.606 68.2224 172.748 69.7906 177.022 73.3759L173.277 77.8207C168.726 74.5927 164.331 72.6701 160.879 67.0085C160.823 66.8609 155.625 58.6889 159.228 50.0268C162.181 43.0362 168.324 38.8809 174.892 38.0332L181.213 37.2506L181.658 46.8519Z"/><path fill="#F7CC7F" d="M617.001 45.5791C625.569 51.2761 622.837 64.6607 612.695 66.6247C610.873 66.9761 609.254 68.0127 608.106 69.4717L604.157 74.4894C603.07 75.8716 601.1 76.1876 599.635 75.213L596.39 73.0541C594.925 72.0795 594.452 70.1421 595.309 68.6034C598.428 62.9891 599.981 61.1462 599.26 57.6878C597.146 47.5756 608.43 39.8792 617.001 45.5791Z"/><path fill="#FAE0B2" d="M604.443 69.5573C607.125 65.1213 610.246 60.3399 611.472 58.5915C609.809 57.6464 608.333 56.3942 607.125 54.9175C605.084 58.7008 602.925 62.4663 600.695 66.1284L600.223 65.842C602.488 62.1178 604.679 58.2903 606.753 54.442C606.05 53.5117 605.273 52.3777 605.361 51.2318C605.403 50.6943 605.695 50.1567 606.123 49.823C607.261 48.94 608.625 49.9441 608.607 51.3706C608.595 52.3156 608.052 53.1928 607.411 54.3889C608.616 55.9069 610.11 57.1887 611.8 58.1426C612.452 57.2773 613.179 56.5478 614.168 56.2141C617.641 55.0445 617.136 61.5448 611.962 58.8603C610.999 60.2277 607.774 65.1213 604.918 69.8467L604.443 69.5573ZM614.346 56.7368C613.516 57.0144 612.878 57.6464 612.296 58.4054C613.424 58.9784 614.316 59.1113 615.016 58.816C616.188 58.3198 616.212 56.1077 614.346 56.7368ZM607.172 50.0593C606.543 49.95 605.964 50.6322 605.914 51.2761C605.843 52.1946 606.481 53.1308 607.042 53.9045C607.55 52.9595 608.04 52.1591 608.052 51.3647C608.058 50.8065 607.24 50.0711 607.172 50.0593Z"/><path fill="#96D9C9" d="M608.209 69.3475C608.174 69.3889 608.138 69.4273 608.106 69.4686L604.157 74.4863C603.07 75.8685 601.1 76.1845 599.635 75.2099L596.39 73.051C594.925 72.0764 594.452 70.139 595.309 68.6003C596.697 66.1018 597.772 64.3534 598.478 62.8738L608.209 69.3475Z"/><path fill="#FAE0B2" d="M625.76 44.4538L630.805 40.6499C631.292 40.2808 631.39 39.5867 631.023 39.0994C630.654 38.6121 629.96 38.5147 629.473 38.8809L624.429 42.6848C623.941 43.054 623.844 43.748 624.21 44.2353C624.579 44.7256 625.273 44.8201 625.76 44.4538Z"/><path fill="#FAE0B2" d="M626.301 59.4008L632.571 61.5951C633.147 61.7959 633.779 61.4917 633.983 60.9158C634.184 60.3399 633.879 59.7079 633.304 59.5041L627.034 57.3098C626.458 57.109 625.826 57.4132 625.622 57.9891C625.418 58.5679 625.722 59.197 626.301 59.4008Z"/><path fill="#FAE0B2" d="M623.937 80.591C624.507 80.3724 624.793 79.7316 624.572 79.1586C623.751 77.0233 622.72 74.9589 621.509 73.0186C621.184 72.4988 620.502 72.3423 619.983 72.6642C619.463 72.9891 619.306 73.6713 619.628 74.1911C620.765 76.0133 621.731 77.9507 622.505 79.9531C622.726 80.5231 623.364 80.8125 623.937 80.591Z"/><path fill="#FAE0B2" d="M610.982 37.4573C611.585 37.5577 612.155 37.1472 612.255 36.5447C612.725 33.68 613.496 30.8536 614.547 28.1454C614.768 27.5754 614.485 26.9345 613.915 26.713C613.345 26.4915 612.704 26.7751 612.483 27.3451C611.378 30.195 610.566 33.1691 610.07 36.1844C609.969 36.7928 610.383 37.3599 610.982 37.4573Z"/><path fill="#FAE0B2" d="M601.274 42.4101C601.675 41.9494 601.628 41.2495 601.164 40.8478L595.745 36.1283C595.284 35.7267 594.584 35.7739 594.183 36.2376C593.781 36.6983 593.828 37.3983 594.292 37.7999L599.711 42.5194C600.172 42.9181 600.869 42.8708 601.274 42.4101Z"/><path fill="#FAE0B2" d="M583.444 54.4479C583.535 54.4893 583.633 54.5188 583.733 54.5336C586.181 54.9027 588.677 55.0091 591.149 54.8496C591.76 54.8112 592.221 54.2825 592.183 53.6741C592.144 53.0628 591.616 52.6021 591.007 52.6405C588.692 52.7911 586.359 52.6907 584.067 52.3451C583.461 52.2536 582.897 52.67 582.806 53.2754C582.729 53.7746 583.004 54.2501 583.444 54.4479Z"/><path fill="#466EB6" d="M84.6183 110.281C84.5445 110.349 84.4677 110.411 84.3821 110.47C83.4813 111.081 82.2527 110.845 81.6414 109.944C80.9562 108.931 80.1735 107.951 79.32 107.032C73.6851 100.954 65.8557 98.6624 62.2231 102.032C56.8421 107.02 46.8834 104.732 39.5473 96.8195C37.7724 94.9057 40.6666 92.2182 42.4416 94.1349C48.0766 100.213 55.9059 102.505 59.5385 99.1379C64.9195 94.1497 74.8782 96.4385 82.2114 104.351C83.2007 105.417 84.1074 106.554 84.9048 107.732C85.463 108.544 85.3212 109.628 84.6183 110.281Z"/><path fill="#86B1F2" d="M66.2547 125.124C57.1496 117.93 52.9204 105.275 59.5418 99.135C63.1744 95.7682 61.4792 87.7882 55.8442 81.7102C54.0692 79.7965 56.9635 77.1089 58.7385 79.0257C66.0716 86.9377 67.6044 97.0411 62.2234 102.029C58.5908 105.396 60.2831 113.376 65.921 119.454C66.7893 120.39 67.7255 121.256 68.7001 122.026C70.7527 123.645 68.3014 126.74 66.2547 125.124Z"/><path fill="#86B1F2" d="M54.4808 99.9206L60.1306 94.6814C60.1719 94.1262 60.1571 93.5385 60.0892 92.9271L53.5859 98.9579C53.3201 99.2059 53.3024 99.6224 53.5505 99.8882C53.7986 100.151 54.212 100.166 54.4808 99.9206Z"/><path fill="#86B1F2" d="M49.6605 98.1781L59.1703 89.3623C59.0049 88.9371 58.8218 88.5088 58.618 88.0776L48.7656 97.2123C48.4998 97.4604 48.4821 97.8768 48.7302 98.1426C48.9783 98.4084 49.3947 98.4262 49.6605 98.1781Z"/><path fill="#86B1F2" d="M72.4126 105.721L63.5703 113.919C63.78 114.309 64.0045 114.702 64.2437 115.089L73.3075 106.687C73.5733 106.439 73.591 106.022 73.3429 105.756C73.0949 105.488 72.6784 105.473 72.4126 105.721Z"/><path fill="#86B1F2" d="M45.6458 95.6972L56.963 85.207C56.715 84.8466 56.4551 84.4893 56.1834 84.1349L44.7539 94.7315C44.4881 94.9796 44.4704 95.396 44.7185 95.6618C44.9636 95.9306 45.38 95.9453 45.6458 95.6972Z"/><path fill="#86B1F2" d="M76.726 110.916L67.6562 119.324C67.9723 119.634 68.2912 119.935 68.622 120.222L77.6208 111.879C77.8866 111.631 77.9044 111.214 77.6563 110.948C77.4082 110.686 76.9918 110.671 76.726 110.916Z"/><path fill="#86B1F2" d="M66.8909 101.642L61.6339 106.515C61.5955 107.071 61.6103 107.655 61.6812 108.264L67.7828 102.605C68.0486 102.357 68.0663 101.941 67.8182 101.675C67.5731 101.409 67.1597 101.394 66.8909 101.642Z"/><path fill="#50BFA5" d="M629.418 80.9012L633.606 82.1888L636.42 75.6767L642.776 76.8019L645.679 72.2715L647.971 73.7393L644.09 79.7966L638.065 78.7334L635.138 85.5054L628.836 83.571L629.418 80.9012Z"/><path fill="#50BFA5" d="M365.82 33.6504L370.008 34.9381L372.822 28.426L379.178 29.5512L382.081 25.0208L384.373 26.4886L380.492 32.5459L374.467 31.4827L371.541 38.2547L365.238 36.3203L365.82 33.6504Z"/><path fill="#F7CC7F" d="M226.418 33.7451L235.006 34.9264L235.482 24.6458L232.703 24.5159L232.369 31.7575L226.796 30.9896L226.418 33.7451Z"/><path fill="#466EB6" d="M511.509 2.0987L508.77 13.9636L511.883 14.6826L514.623 2.8177L511.509 2.0987Z"/><path fill="#466EB6" d="M504.493 17.7349L503.695 16.3498L510.99 12.1412L515.521 18.4407L514.224 19.374L510.535 14.247L504.493 17.7349Z"/><path fill="#F48C7F" d="M506.125 13.996C506.125 13.996 503.984 23.2666 503.453 25.5643C502.921 27.862 500.771 30.4137 497.815 30.3546C494.861 30.2985 488.765 30.3723 486.97 29.9589C484.598 29.4095 481.607 28.4852 486.748 19.7521C491.89 11.0191 495.735 5.19211 499.439 2.68767C503.142 0.183237 505.833 -0.292252 507.076 1.40592C509.427 4.6044 506.125 13.996 506.125 13.996Z"/><path fill="#F48C7F" d="M513.541 15.7119C513.541 15.7119 511.4 24.9825 510.868 27.2802C510.337 29.5779 511.152 32.8148 513.834 34.0581C516.515 35.3015 521.958 38.0451 523.754 38.4586C526.125 39.0079 529.218 39.4864 528.429 29.383C527.638 19.2796 526.74 12.354 524.51 8.48213C522.28 4.60734 520.071 3.00072 518.207 3.98123C514.693 5.82117 513.541 15.7119 513.541 15.7119Z"/><path fill="#86B1F2" d="M332.802 37.8473L302.371 32.6907L302.731 30.5555L333.163 35.712C336.81 36.3292 339.444 32.2064 337.28 29.1556C336.633 28.243 335.667 27.6376 334.563 27.4515L327.563 26.2642C324.595 25.7622 322.587 22.9358 323.092 19.9677C323.594 16.9996 326.423 14.9913 329.388 15.4963L350.977 19.1526L350.617 21.2879L329.028 17.6316C327.235 17.3274 325.531 18.5383 325.227 20.331C324.923 22.1237 326.134 23.8277 327.926 24.1319L334.926 25.3192C340.455 26.2554 342.176 33.4763 337.545 36.7634C336.456 37.5372 334.501 38.1367 332.802 37.8473Z"/><path fill="#86B1F2" d="M309.263 27.8C310.887 35.0918 306.292 42.3216 299 43.9459C291.708 45.5703 284.478 40.9749 282.854 33.6831C281.229 26.3912 285.825 19.1614 293.117 17.5371C300.409 15.9098 307.638 20.5052 309.263 27.8Z"/><path fill="#fff" d="M307.148 28.2696C308.513 34.3948 304.653 40.4669 298.527 41.8313C292.402 43.1958 286.33 39.3358 284.966 33.2105C283.601 27.0853 287.461 21.0132 293.586 19.6488C299.712 18.2843 305.784 22.1443 307.148 28.2696Z"/><path fill="#86B1F2" d="M298.902 43.5029C298.61 43.5678 298.321 43.3847 298.256 43.0923L297.361 39.0728C297.296 38.7805 297.479 38.491 297.771 38.4261C298.064 38.3611 298.353 38.5442 298.418 38.8366L299.313 42.8561C299.378 43.1514 299.195 43.4379 298.902 43.5029Z"/><path fill="#86B1F2" d="M294.34 23.0215C294.048 23.0864 293.759 22.9033 293.694 22.6109L292.728 18.2666C292.663 17.9742 292.846 17.6848 293.138 17.6198C293.431 17.5548 293.72 17.7379 293.785 18.0303L294.754 22.3747C294.816 22.6671 294.63 22.9565 294.34 23.0215Z"/><path fill="#86B1F2" d="M307.925 28.4202L304.316 29.2236C304.024 29.2885 303.734 29.1054 303.669 28.813C303.604 28.5207 303.787 28.2312 304.08 28.1663L307.689 27.3629C307.981 27.298 308.271 27.4811 308.336 27.7735C308.401 28.0658 308.217 28.3553 307.925 28.4202Z"/><path fill="#86B1F2" d="M287.938 32.8708L284.066 33.7332C283.774 33.7982 283.484 33.615 283.419 33.3227C283.354 33.0303 283.537 32.7409 283.83 32.6759L287.702 31.8135C287.994 31.7485 288.284 31.9316 288.348 32.224C288.413 32.5164 288.23 32.8058 287.938 32.8708Z"/><path fill="#86B1F2" d="M288.948 41.7014C288.806 41.7339 288.652 41.7073 288.525 41.6217C288.277 41.4533 288.215 41.1166 288.384 40.8686L290.799 37.3275C290.968 37.0794 291.304 37.0174 291.553 37.1857C291.801 37.3541 291.863 37.6908 291.694 37.9388L289.278 41.4799C289.196 41.5951 289.078 41.6719 288.948 41.7014Z"/><path fill="#86B1F2" d="M300.827 24.2972C300.685 24.3297 300.531 24.3031 300.404 24.2175C300.156 24.0492 300.094 23.7125 300.263 23.4644L302.723 19.8613C302.891 19.6132 303.228 19.5512 303.476 19.7195C303.724 19.8879 303.786 20.2246 303.618 20.4726L301.157 24.0757C301.075 24.1909 300.957 24.2677 300.827 24.2972Z"/><path fill="#86B1F2" d="M306.124 37.9742C305.982 38.0067 305.828 37.9801 305.701 37.8945L302.748 35.8803C302.5 35.7119 302.438 35.3753 302.606 35.1272C302.775 34.8791 303.111 34.8171 303.359 34.9854L306.313 37.0026C306.561 37.1709 306.623 37.5076 306.454 37.7557C306.372 37.8679 306.251 37.9447 306.124 37.9742Z"/><path fill="#86B1F2" d="M289.294 26.4857C289.152 26.5182 288.999 26.4916 288.872 26.406L285.514 24.1142C285.266 23.9458 285.204 23.6091 285.372 23.3611C285.54 23.113 285.877 23.051 286.125 23.2193L289.483 25.5111C289.731 25.6794 289.793 26.0161 289.625 26.2642C289.542 26.3823 289.424 26.4562 289.294 26.4857Z"/><path fill="#86B1F2" d="M292.998 17.0055C294.681 16.6304 296.362 16.5743 297.974 16.7988L297.826 14.2294C297.738 12.6995 296.427 11.53 294.897 11.6186C293.367 11.7072 292.197 13.0185 292.286 14.5483L292.437 17.1414C292.62 17.0941 292.809 17.0498 292.998 17.0055Z"/><path fill="#86B1F2" d="M285.198 21.8017C286.368 20.3782 287.824 19.1732 289.499 18.2902L288.353 16.8371C287.405 15.6322 285.659 15.4254 284.457 16.3735C283.252 17.3215 283.045 19.0669 283.993 20.2689L285.198 21.8017Z"/><path fill="#86B1F2" d="M297.336 30.2691C297.498 30.9985 297.038 31.7221 296.308 31.8845C295.579 32.047 294.855 31.5862 294.693 30.8568C294.53 30.1273 294.991 29.4037 295.721 29.2413C296.453 29.0818 297.174 29.5396 297.336 30.2691Z"/><path fill="#86B1F2" d="M295.582 30.0357C295.89 29.888 296.259 30.015 296.406 30.3192C296.575 30.6618 296.395 31.0812 296.008 31.1846L290.833 32.5461C290.786 32.5579 290.736 32.5283 290.721 32.4811C290.689 32.3452 290.603 32.4958 295.582 30.0357Z"/><path fill="#86B1F2" d="M352.868 16.1727C356.06 16.7131 358.311 19.1437 357.894 21.598C357.478 24.0522 354.554 25.6057 351.361 25.0652C348.169 24.5247 345.918 22.0941 346.335 19.6399C346.748 17.1827 349.675 15.6322 352.868 16.1727Z"/><path fill="#86B1F2" d="M346.355 17.7202C347.173 17.859 347.69 18.8336 347.51 19.8968C347.33 20.96 346.52 21.7101 345.702 21.5713C344.884 21.4325 344.367 20.4579 344.548 19.3947C344.728 18.3315 345.537 17.5813 346.355 17.7202Z"/><path fill="#F47458" d="M426.859 25.0091C426.225 23.7598 426.015 21.8756 426.638 20.3635C427.689 17.8089 430.72 16.7043 430.427 13.8484C430.353 13.1278 430.02 12.5548 429.535 12.1945C428.268 11.2406 426.278 11.8106 424.866 12.5312C423.965 12.9919 423.132 13.6328 422.367 14.4568L421.848 9.40953C423.534 8.15141 425.593 7.46623 427.66 7.25359C431.895 6.81945 435.212 8.33156 435.646 12.5696C436.041 16.4326 433.466 18.2105 431.759 20.1892C430.811 21.2879 430.61 22.1207 430.708 23.0776C430.758 23.5708 430.959 24.1792 431.266 24.5632L426.859 25.0091ZM430.073 31.852C425.956 32.2743 425.344 26.7457 429.503 26.3174C433.602 25.8981 434.175 31.4326 430.073 31.852Z"/><path fill="#F47458" d="M452.359 23.9311L452.442 18.1307L454.187 18.1544L454.131 21.9849L457.929 21.5743L458.115 23.308L452.359 23.9311Z"/><path fill="#F8A492" d="M515.268 317.798C514.97 318.891 514.798 319.254 514.42 319.989C511.981 324.726 506.322 331.487 506.322 331.487L501.945 320.961C501.945 320.961 502.66 317.656 503.897 312.931C508.127 314.112 512.152 314.794 515.268 317.798Z"/><path fill="#13375B" d="M490.172 308.669C490.172 308.669 514.587 319.889 515.376 319.676C515.884 319.537 525.391 302.555 525.491 286.587C525.538 279.212 518.362 270.34 510.352 272.095C506.321 272.978 506.383 274.174 500.42 283.424C494.454 292.674 490.172 308.669 490.172 308.669Z"/><path fill="#F7A491" d="M469.33 509.842C469.33 509.842 469.909 520.075 469.912 520.096C470.124 521.396 470.963 524.606 470.963 525.787C470.963 530.223 451.22 522.022 455.647 520.055C456.049 519.878 458.145 518.531 458.278 517.022C458.482 514.694 458.996 509.987 458.996 509.987L469.33 509.842Z"/><path fill="#2D3F65" d="M455.697 520.01C455.697 520.01 460.33 521.369 462.705 521.706C465.079 522.045 468.21 519.186 469.887 519.96C471.736 520.811 471.662 528.457 471.662 528.457C471.662 528.457 446.807 530.633 439.816 528.38C437.052 527.488 446.222 523.17 455.697 520.01Z"/><path fill="#F7A491" d="M509.715 509.842C509.715 509.842 510.294 520.075 510.297 520.096C510.509 521.396 511.348 524.606 511.348 525.787C511.348 530.223 491.605 522.022 496.029 520.055C496.431 519.878 499.151 517.527 499.281 516.015C499.484 513.687 499.375 509.987 499.375 509.987L509.715 509.842Z"/><path fill="#2D3F65" d="M496.082 520.01C496.082 520.01 500.716 521.369 503.091 521.706C505.465 522.045 508.596 519.186 510.273 519.96C512.122 520.811 512.196 528.457 512.196 528.457C512.196 528.457 487.228 530.994 480.205 528.38C477.476 527.367 486.605 523.17 496.082 520.01Z"/><path fill="#F7A491" d="M486.344 297.31C486.27 297.083 486.113 296.616 485.871 295.905C484.997 293.326 483.175 287.957 481.586 282.617L481.568 282.561C481.069 280.695 480.012 277.44 478.99 274.289C477.853 270.786 476.441 266.445 476.394 265.704C476.438 265.577 477.047 264.859 477.153 264.558C477.791 262.792 478.257 259.094 478.432 257.248C478.541 256.085 478.225 249.109 476.928 249.109C475.357 249.109 475.658 252.839 475.331 254.767C475.254 255.213 474.619 255.213 474.539 254.77C474.421 254.094 474.309 253.273 474.102 251.953L473.762 246.427C473.697 246.011 473.582 239.543 472.15 239.552C470.505 239.561 471.355 246.306 470.821 251.787C470.653 251.155 470.481 250.396 470.354 249.696C470.369 249.321 469.888 246.684 469.693 245.816C469.95 244.289 470.056 237.969 468.529 238.196C467.764 238.311 467.56 245.429 467.56 245.429C467.569 245.89 467.853 250.588 467.829 251.291C467.673 250.098 466.689 238.778 465.493 238.778C464.501 238.778 464.637 243.054 464.814 247.461C464.84 248.102 465.266 252.278 465.298 252.919C464.831 252.083 463.889 244.525 463.426 244.525C461.491 244.525 462.764 255.47 463.476 257.269C463.544 257.452 463.615 257.815 463.694 258.232C463.937 259.463 464.341 261.522 465.354 263.37C466.568 265.588 468.015 266.841 468.269 267.381C468.455 268.483 469.267 274.711 470 279.694C470.313 281.826 470.655 284.162 471.013 286.584L471.031 286.581C471.096 287.104 471.459 288.769 472.835 295.019C474.716 303.571 474.914 303.941 474.997 304.097C475.815 305.642 494.56 332.813 495.36 333.967L495.83 334.649L503.724 323.306L486.344 297.31Z"/><path fill="#F47458" d="M471.078 260.054C471.078 260.054 472.49 256.203 475.003 256.194C475.003 256.194 473.6 255.653 472.395 256.669C471.19 257.691 471.078 260.054 471.078 260.054Z"/><path fill="#F7A491" d="M507.885 255.396L510.124 270.503C510.124 270.503 501.594 277.812 496.624 276.271C492.451 274.977 495.313 269.156 495.313 269.156C495.313 269.156 497.534 261.091 496.854 256.864C496.169 252.638 507.885 255.396 507.885 255.396Z"/><path fill="#F47458" d="M506.28 259.965C504.142 261.043 499.916 262.514 496.629 262.868C496.945 260.754 497.122 258.518 496.856 256.867C496.54 254.915 498.868 254.454 501.464 254.522C504.86 254.832 507.89 255.399 507.89 255.399L508.321 258.302C507.671 259.029 506.992 259.608 506.28 259.965Z"/><path fill="#F7A491" d="M518.647 237.972C518.999 237.975 515.275 254.85 509.516 257.753C503.754 260.656 495.159 259.144 493.547 254.599C491.763 249.573 498.269 232.354 506.373 230.166C514.477 227.978 518.647 237.972 518.647 237.972Z"/><path fill="#0A0F14" d="M511.98 222.467C516.581 225.299 518.696 229.502 519.405 231.223C521.564 232.316 524.18 234.685 525.432 241.061C526.974 248.899 521.49 254.945 515.675 256.761C509.859 258.577 508.941 262.567 508.941 262.567L508.3 258.267C508.3 258.267 509.594 254.419 511.54 252.493C513.486 250.568 510.618 247.762 510.367 245.47C510.172 243.707 511.389 240.284 511.126 237.393C511.126 237.393 507.895 232.165 504.709 230.875C499.281 228.672 506.073 218.831 511.98 222.467Z"/><path fill="#F7A491" d="M509.529 248.406C508.776 250.355 509.084 252.289 510.218 252.73C511.349 253.167 512.879 251.941 513.632 249.995C514.385 248.046 514.078 246.111 512.944 245.671C511.812 245.231 510.283 246.457 509.529 248.406Z"/><path fill="#F8A492" d="M488.069 323.888L454.531 318.052C454.531 318.052 458.347 307.798 459.711 307.798C461.076 307.798 485.072 318.979 485.072 318.979L486.98 323.069L488.069 323.888Z"/><path fill="#041231" d="M505.248 348.43C505.248 348.43 508.594 365.692 507.229 378.781C505.865 391.871 505.758 438.368 505.758 438.368L510.962 512.763L498.617 513.049C498.617 513.049 483.978 438.69 484.252 440.601C484.524 442.509 479.344 388.244 479.344 388.244L496.795 346.797L505.248 348.43Z"/><path fill="#041231" d="M501.977 347.612C501.977 347.612 504.16 363.155 501.431 369.971C498.705 376.788 478.043 443.678 477.768 449.13C477.497 454.585 470.624 514.863 470.624 514.863L456.268 514.431L453.164 447.411L459.667 363.179L465.982 341.882L501.977 347.612Z"/><path fill="#F7A491" d="M510.123 270.506C510.123 270.506 506.582 272.984 503.28 272.697C499.978 272.411 495.309 269.159 495.309 269.159L495.958 266.811C495.958 266.811 504.499 265.482 504.715 265.627C504.931 265.772 510.123 270.506 510.123 270.506Z"/><path fill="#F8A492" d="M472.396 307.293C472.396 307.293 459.708 320.069 453.985 317.889C448.258 315.707 445.89 308.249 459.862 297.34C472.364 287.576 472.396 307.293 472.396 307.293Z"/><path fill="#8CDEF9" d="M463.799 323.07C465.683 312.127 479.342 278.075 480.432 271.805C480.961 268.755 488.329 268.687 495.346 269.085C502.759 269.505 510.122 270.506 510.122 270.506C510.122 270.506 516.684 271.655 519.57 274.543C522.458 277.431 523.223 285.414 519.073 300.571C515.798 312.535 511.737 319.106 509.726 327.821C509.319 330.745 508.97 333.628 508.509 336.998C507.771 350.028 508.518 367.246 508.518 367.246C508.518 367.246 472.797 375.155 459.434 363.155C459.437 363.155 461.867 334.28 463.799 323.07Z"/><path fill="#13375B" d="M454.688 299.54C454.688 299.54 468.704 311.888 469.522 311.888C470.048 311.888 489.525 296.599 494.02 284.038C496.507 277.095 491.291 269.324 485.337 269.351C481.211 269.369 479.375 270.503 471.194 277.866C463.016 285.228 454.688 299.54 454.688 299.54Z"/><path fill="#003056" d="M24.1442 515.521C24.1442 515.521 21.209 524.011 20.8346 526.037C20.4452 528.063 21.0892 529.836 22.4969 530.729C23.9046 531.623 35.1065 532.249 37.5326 531.37C39.9587 530.476 39.5693 528.584 39.5693 527.691C39.5693 526.797 37.7872 522.239 37.3978 520.719C37.0084 519.2 36.3794 515.521 36.3794 515.521H24.1442Z"/><path fill="#003056" d="M20.9519 516.399L19.9336 455.937L40.705 457.084L38.1591 516.414C38.1591 516.399 30.3867 518.172 20.9519 516.399Z"/><path fill="#07345A" d="M50.6464 516.548C50.6464 516.548 49.3884 522.551 49.628 526.35C49.628 526.35 53.2671 526.976 54.7947 527.139L55.3637 526.365C55.3637 526.365 57.7599 527.184 61.0246 527.72C64.2743 528.257 77.3782 527.988 78.1269 526.737C78.8757 525.486 78.082 523.415 78.067 522.656C78.0521 521.896 77.0936 520.958 75.8506 520.883C74.6076 520.809 71.3579 520.466 69.9052 519.915C68.4676 519.364 64.469 516.131 64.469 516.131L50.6464 516.548Z"/><path fill="#003056" d="M49.3746 517.189L47.2031 457.337H65.6833L64.5451 516.131C64.5451 516.131 62.8978 518.604 49.3746 517.189Z"/><path fill="#FDB1A1" d="M129.393 328.993C129.393 328.993 129.393 328.993 129.408 329.008C129.408 329.023 129.423 329.052 129.453 329.082C129.648 329.529 130.516 331.48 130.741 332.449C130.995 333.506 130.696 337.796 130.202 338.973C130.202 339.018 130.187 339.033 130.157 339.077C130.022 339.346 129.498 339.673 128.809 340.016C127.012 340.88 123.912 341.788 122.699 341.863C121.036 341.982 116.214 341.297 116.214 341.297L115.48 332.449C115.48 332.449 119.12 329.246 120.827 328.427C122.549 327.607 129.438 326.073 131.984 324.673C132.029 324.673 132.778 327.459 129.393 328.993Z"/><path fill="#fff" d="M66.4481 306.753C66.4481 306.753 78.249 320.055 87.2345 336.024C87.2345 336.024 105.205 333.655 115.524 332.464C115.524 332.464 118.01 342.474 117.051 352.662C117.051 352.662 81.8731 352.633 79.5818 351.843C77.2905 351.054 65.25 335.085 65.25 335.085L66.4481 306.753Z"/><path fill="#F8A492" d="M130.216 338.973C130.216 339.018 130.201 339.033 130.171 339.077C130.037 339.346 129.512 339.673 128.824 340.016C127.071 340.239 124.66 340.433 123.986 340.195C123.058 339.897 120.377 335.219 120.467 334.4C120.542 333.581 122.743 329.916 123.462 329.767C124.151 329.604 129.228 329.023 129.408 329.023C129.408 329.037 129.423 329.067 129.453 329.097C129.647 329.544 130.516 331.495 130.74 332.464C130.995 333.506 130.696 337.796 130.216 338.973Z"/><path fill="#F7A491" d="M36.1211 300.154L53.4481 301.927C53.4481 301.927 55.7843 304.206 54.2568 306.753C52.7293 309.315 50.1834 313.963 46.3945 312.071C42.6056 310.164 39.1612 308.481 38.008 306.753C36.8549 305.025 36.1211 300.154 36.1211 300.154Z"/><path fill="#2C6496" d="M36.1211 300.154C36.1211 300.154 44.5974 310.552 49.18 308.079C53.7626 305.606 53.4481 301.927 53.4481 301.927L56.6379 308.466L54.152 340.597L37.1394 308.645L36.1211 300.154Z"/><path fill="#fff" d="M71.5405 457.843C65.7 459.869 55.7411 459.869 55.7411 459.869C55.7411 459.869 53.0604 397.351 52.6411 361.913C52.4763 349.862 52.6261 340.954 53.1952 338.69C55.5014 329.827 53.4498 301.927 53.4498 301.927C53.4498 301.927 55.3068 302.433 57.613 303.148C61.1623 304.251 65.8348 305.844 66.4488 306.768C67.4821 308.287 69.6386 326.788 69.8932 331.093C70.1478 335.398 67.2125 367.588 67.2125 369.644C67.2125 371.655 71.5405 457.843 71.5405 457.843Z"/><path fill="url(#paint0_linear)" d="M61.4008 357.965L52.7148 367.529C52.9694 382.857 53.5535 401.849 54.1375 418.622L68.7839 402.519C67.9303 385.27 67.2114 370.463 67.2114 369.629C67.2114 369.137 67.3911 366.829 67.6457 363.581L61.4008 357.965Z"/><path fill="#CDE0EB" d="M59.2005 322.081L61.4918 327.548C56.8493 336.426 53.4498 356.67 52.6411 361.913C52.4763 349.862 52.6261 340.954 53.1952 338.69C55.5014 329.827 53.4498 301.927 53.4498 301.927C53.4498 301.927 55.3068 302.433 57.613 303.148L62.7497 322.096H59.2005V322.081Z"/><path fill="#fff" d="M57.0267 461.15C22.8669 461.15 9.61328 456.83 9.61328 456.83C9.61328 456.83 16.0529 409.699 19.048 384.525C20.0215 376.466 20.6355 370.672 20.5756 369.376C20.5606 369.003 20.5306 368.393 20.5157 367.588C20.1562 356.67 19.1379 308.69 20.321 307.245C21.1297 306.276 27.3596 303.655 31.7325 301.897C31.7325 301.897 31.7325 301.897 31.7325 301.882C34.2185 300.884 36.1204 300.154 36.1204 300.154C36.1204 300.154 39.1755 311.565 47.3373 322.96C55.4991 334.37 55.7387 346.287 55.7387 346.287C55.7387 346.287 55.3194 357.087 55.1996 364.773C55.1846 367.484 55.1846 369.823 55.2445 371.134C55.4991 376.213 57.0267 461.15 57.0267 461.15Z"/><path fill="#B6DDF4" d="M55.2466 371.134C55.1867 369.823 55.1867 367.484 55.2017 364.773L40.3906 381.069C40.2409 380.92 40.0911 380.756 39.9414 380.637C36.1076 377.479 21.7158 368.333 20.5028 367.573C20.5178 368.378 20.5477 368.989 20.5627 369.361C20.6226 370.657 20.0086 376.451 19.0352 384.51C22.0453 387.757 25.5197 391.481 28.2902 394.371L27.5564 395.176L53.8988 418.86L56.1751 416.358C55.8007 395.027 55.3664 373.606 55.2466 371.134Z"/><path fill="#CDE0EB" d="M55.7406 346.287C55.7406 346.287 55.3213 357.087 55.2014 364.773C53.5092 355.329 49.7053 339.539 42.1126 329.052L44.5387 324.867L39.2972 325.001C39.2972 325.001 33.4566 309.181 31.7344 301.897C31.7344 301.897 31.7344 301.897 31.7344 301.882C34.2204 300.884 36.1223 300.154 36.1223 300.154C36.1223 300.154 39.1773 311.565 47.3392 322.96C55.501 334.37 55.7406 346.287 55.7406 346.287Z"/><path fill="#50BFA5" d="M53.6745 415.732L27.332 392.048L61.1624 354.823L87.5048 378.507L53.6745 415.732Z"/><path fill="#fff" d="M83.688 378.697L61.3477 358.608L52.8113 368.001L75.1516 388.089L83.688 378.697Z"/><path fill="#F8A492" d="M42.3059 367.588C42.3059 367.588 44.6571 369.376 47.0832 370.314L46.3794 371.089C46.3794 371.089 52.175 376.154 53.1334 377.092C54.0919 378.045 55.1102 380.384 55.1701 381.218C55.23 382.037 52.8788 384.957 51.531 385.657C50.1982 386.357 48.3412 387.117 48.3412 387.117C48.3412 387.117 42.6654 384.078 41.5272 382.872C40.3741 381.665 37.3789 376.407 37.3789 376.407L42.3059 367.588Z"/><path fill="#E6F5FE" d="M20.3228 307.245C20.3228 307.245 1.5881 344.202 1.01902 347.24C0.44994 350.279 2.17216 351.62 3.11563 352.946C4.07408 354.271 31.0305 385.642 31.0305 385.642C31.0305 385.642 38.2938 380.131 42.3073 367.573L19.1697 345.155L26.0586 333.372C26.0586 333.357 29.8774 313.829 20.3228 307.245Z"/><path fill="#F7A491" d="M51.7259 301.748C51.7259 301.748 48.8655 303.208 47.2032 303.327C45.5409 303.461 36.1211 300.169 36.1211 300.169C36.1211 300.169 37.2143 298.769 37.4689 298.009C37.6336 297.562 38.1578 295.671 38.5621 294.27C38.8167 293.421 38.9964 292.751 38.9964 292.751L51.1718 297.056L51.621 300.705L51.7259 301.748Z"/><path fill="#F47458" d="M51.6058 300.705C45.8401 302.478 40.329 296.46 38.5469 294.255C38.8015 293.406 38.9812 292.736 38.9812 292.736L51.1565 297.041L51.6058 300.705Z"/><path fill="#F7A491" d="M37.1409 286.778C37.1409 286.778 37.9646 290.904 38.9829 292.736C40.0013 294.568 43.6853 295.968 45.4375 296.609C47.2046 297.25 50.4244 298.069 51.2631 298.039C52.1017 298.009 55.9954 293.257 57.0138 291.157C58.0321 289.072 56.7592 285.705 57.0138 284.052C57.2684 282.398 58.9906 276.321 58.4215 272.388C57.8524 268.456 55.1717 264.657 51.3529 263.257C47.5341 261.857 43.7752 260.531 39.9414 264.21C36.1225 267.89 34.9694 272.254 34.7747 275.114C34.595 277.974 37.1409 286.778 37.1409 286.778Z"/><path fill="#0A0F14" d="M39.1775 280.506C39.1775 280.506 39.2374 284.126 39.8664 285.362L40.2558 284.796L40.735 286.226L42.592 275.054L42.9814 276.723L43.9398 273.535C43.9398 273.535 47.1447 271.733 52.3562 272.686C57.5678 273.639 60.7127 277.199 60.7127 277.199C60.7127 277.199 62.8093 270.779 59.1403 265.983L60.7577 266.31C60.7577 266.31 52.6857 257.209 42.0679 261.857C42.0679 261.857 30.3119 263.599 30.1172 273.967L31.3152 272.641C31.3152 272.641 27.4964 286.137 36.6616 293.704C36.6616 293.704 36.8114 292.095 36.9461 292.229C37.0959 292.378 38.1891 293.317 38.1891 293.317L38.9829 292.766C38.9829 292.766 37.7099 287.09 37.4703 286.614C37.2307 286.137 36.7964 283.903 36.7964 283.903L39.1775 280.506Z"/><path fill="url(#paint1_linear)" d="M39.1788 280.506C39.1788 280.506 37.1421 277.974 35.4798 278.6C33.8175 279.24 31.5262 283.918 37.3218 285.958L39.1788 280.506Z"/><path fill="#F7A491" d="M332.917 236.108C332.642 233.556 325.589 231.501 323.513 230.889C321.44 230.278 322.784 230.774 320.483 231.516C320.202 231.607 313.233 242.23 313.233 242.23C311.035 245.692 290.873 276.504 284.08 281.182C277.143 285.961 249.502 294.292 249.502 294.292L248.238 311.935C248.238 311.935 286.401 298.855 294.57 291.841C301.334 286.034 314.819 258.069 321.248 247.762L321.254 247.765C322.928 245.609 333.191 238.657 332.917 236.108Z"/><path fill="#50595B" d="M368.27 181.264L321.427 240.571L321.385 240.624C320.511 241.731 318.905 241.917 317.8 241.046C316.693 240.172 316.504 238.565 317.378 237.461C317.398 237.437 317.425 237.405 317.446 237.378L366.746 180.045L366.764 180.027C367.115 179.616 367.732 179.572 368.14 179.924C368.539 180.26 368.592 180.854 368.27 181.264Z"/><path fill="#F47458" d="M327.908 232.36L321.423 240.571L321.382 240.624C320.561 241.663 319.093 241.894 318 241.191C318.148 241.424 318.337 241.637 318.567 241.817C319.675 242.691 321.278 242.502 322.152 241.395L322.194 241.341L328.942 232.797C328.603 232.644 328.257 232.499 327.908 232.36Z"/><path fill="#F7A491" d="M327.678 228.707C327.678 228.707 334.606 234.847 332.864 237.416C330.938 240.255 328.478 241.787 328.348 240.934C328.215 240.08 329.834 235.94 329.834 235.94C329.834 235.94 327.642 233.164 327.211 231.663C326.78 230.166 326.458 228.615 327.678 228.707Z"/><path fill="#F7A491" d="M324.44 231.985C324.44 231.985 320.08 233.861 319.832 233.323C319.584 232.786 320.482 231.513 320.482 231.513C320.482 231.513 326.347 227.059 326.563 228.657C326.776 230.255 324.44 231.985 324.44 231.985Z"/><path fill="#F7A491" d="M332.143 230.889C332.143 230.889 328.378 226.619 328.23 228.042C328.053 229.761 331.195 234.744 332.737 234.744C334.278 234.744 334.278 233.261 332.143 230.889Z"/><path fill="#fff" d="M243.77 292.585C243.77 292.585 275.184 282.482 280.819 279.785C286.454 277.092 309.233 243.533 309.233 243.533L321.726 249.9C321.726 249.9 293.864 295.216 292.639 297.174L254.012 315.866L243.77 292.585Z"/><path fill="#F7A491" d="M237.846 512.157C237.846 512.157 236.227 521.573 235.368 523.097C234.508 524.623 241.656 533.008 245.554 531.644C247.751 530.876 248.126 523.968 248.126 523.968L246.535 522.01L248.735 513.773L237.846 512.157Z"/><path fill="#07345A" d="M235.26 522.71C235.26 522.71 239.82 523.625 241.958 523.714C244.717 523.829 247.88 523.543 247.88 523.543C247.88 523.543 253.568 525.681 255.387 526.57C259.43 528.551 264.247 531.015 265.535 532.961C265.948 533.587 265.907 535.699 264.386 536.1C258.527 537.651 237.936 537.332 234.15 535.784C229.785 533.997 235.26 522.71 235.26 522.71Z"/><path fill="#F7A491" d="M201.654 512.157C201.654 512.157 200.036 521.573 199.177 523.097C198.317 524.623 205.464 533.008 209.363 531.644C211.56 530.876 211.935 523.968 211.935 523.968L210.343 522.01L212.543 513.773L201.654 512.157Z"/><path fill="#07345A" d="M199.072 522.71C199.072 522.71 203.632 523.625 205.77 523.714C208.528 523.829 211.691 523.543 211.691 523.543C211.691 523.543 217.38 525.681 219.199 526.57C223.242 528.551 228.059 531.015 229.346 532.961C229.76 533.587 229.766 535.982 228.198 536.1C221.677 536.59 201.346 536.67 197.56 535.123C193.192 533.339 199.072 522.71 199.072 522.71Z"/><path fill="#13375B" d="M263.522 366.259L270.643 384.7C270.643 384.7 275.288 428.705 272.583 455.049C271.452 466.065 249.287 520.908 249.287 520.908C249.287 520.908 246.224 521.827 242.305 521.274C240.637 521.041 235.66 520.173 235.66 520.173L251.085 453.463L245.09 426.755L236.605 373.964L263.522 366.259Z"/><path fill="#355389" d="M229.184 367.219L223.076 387.751L220.445 453.421L198.215 516.313C198.215 516.313 204.827 519.987 214.934 519.621L239.55 459.792L260.926 384.151L260.079 367.854L229.184 367.219Z"/><path fill="#AFD9FF" d="M231.39 291.935C231.39 291.935 222.211 293.211 219.798 294.986C217.078 296.982 208.652 306.303 208.652 306.303C208.652 306.303 226.186 356.531 225.507 365.468C224.828 374.404 222.905 387.641 222.905 387.641C222.905 387.641 256.957 389.791 269.852 384.7C269.852 384.7 265.779 364.452 265.779 359.133C265.779 353.817 259.792 301.401 258.165 298.616C256.538 295.834 247.805 291.699 246.068 291.602C239.565 291.229 231.39 291.935 231.39 291.935Z"/><path fill="#fff" d="M279.303 427.033C279.522 425.964 270.559 375.736 270.411 373.938C268.952 356.088 264.011 301.38 257.735 293.84C256.982 293.137 255.113 292.552 253.063 292.301C249.622 291.879 246.055 291.59 246.055 291.59C246.055 291.59 250.299 295.057 251.344 296.536C256.022 303.152 257.93 310.828 258.964 319.006C261.958 342.727 264.681 429.23 265.745 429.614C266.932 430.042 278.819 429.402 279.303 427.033Z"/><path fill="#0A0F14" d="M235.104 245.925C235.104 245.925 228.872 241.71 226.238 249.091C226.259 249.032 224.038 249.053 223.736 249.156C222.455 249.59 221.217 250.925 220.074 251.657C216.005 254.262 214.129 259.324 213.908 263.973C213.639 269.614 215.969 273.74 219.682 277.815C220.774 279.017 221.944 280.187 223.373 280.955C225.101 281.879 226.465 281.147 228.09 281.539C229.457 281.87 229.936 283.314 231.548 282.792C233.807 282.062 236.179 279.233 238.982 279.652C241.778 280.072 248.24 277.552 248.258 277.546C256.557 274.31 250.955 258.246 249.363 252.543C247.862 247.18 240.24 243.985 235.104 245.925Z"/><path fill="#F7A491" d="M242.605 282.425L244.761 288.308L245.922 291.595C245.922 291.595 246.001 297.481 244.631 299.005C242.268 301.631 232.558 291.906 232.558 291.906L229.48 273.4L242.605 282.425Z"/><path fill="#F47458" d="M230.479 279.395C234.173 285.122 240.538 287.738 244.782 288.362L242.605 282.422L229.48 273.4L230.479 279.395Z"/><path fill="#F7A491" d="M232.003 254.392C236.949 251.368 243.438 253.663 245.476 259C246.362 261.318 247.348 264.265 248.137 267.549C250.033 275.447 247.632 284.073 244.032 284.868C240.431 285.662 229.345 282.727 226.498 271.548C224.737 264.646 226.814 257.567 232.003 254.392Z"/><path fill="#F7A491" d="M229.344 271.852C229.731 273.601 228.883 275.275 227.454 275.591C226.025 275.907 224.551 274.747 224.164 272.995C223.777 271.247 224.625 269.572 226.054 269.256C227.486 268.94 228.957 270.104 229.344 271.852Z"/><path fill="#fff" d="M232.479 291.849C232.479 291.849 217.432 293.394 213.586 295.922C211.141 297.529 213.055 315.444 213.055 315.444C213.055 315.444 216.516 342.505 216.035 356.179C215.988 357.502 215.923 358.802 215.84 360.075C214.496 380.651 203.498 429.918 204.458 430.79C210.651 434.245 244.455 434.106 244.845 431.371C248.152 408.223 232.479 291.849 232.479 291.849Z"/><path fill="#355389" d="M216.065 355.072C216.059 355.45 216.048 355.819 216.036 356.176C215.991 357.479 215.926 358.755 215.844 360.01L236.429 350.42L216.065 355.072Z"/><path fill="#F8A492" d="M258.609 335.275C257.909 335.597 256.758 336.161 255.99 336.678C255.163 337.234 254.227 337.488 253.462 337.851C251.941 338.574 250.842 339.121 250.848 339.044C250.854 338.944 250.458 338.879 251.214 338.356C252.124 337.727 254.348 336.808 255.618 335.783C256.338 335.202 257.915 334.076 257.915 334.076C257.915 334.076 259.989 331.944 259.909 331.788C259.463 330.931 257.644 332.003 256.763 332.916C255.91 333.223 254.283 334.451 254.283 334.451C254.283 334.451 250.449 336.223 250.201 335.701C250.095 335.476 252.325 334.115 254.303 332.446C256.143 330.899 257.753 329.044 257.508 328.645C257.091 327.972 254.87 329.481 254.87 329.481C254.87 329.481 253.37 330.618 252.841 330.961C252.224 331.359 250.284 332.42 250.284 332.42C250.284 332.42 243.37 335.804 243.178 335.287C242.986 334.77 243.042 333.232 243.4 332.877C243.757 332.523 244.684 332.121 245.11 331.85C245.665 331.495 246.521 330.594 246.126 330.14C245.73 329.682 242.469 330.899 242.469 330.899C242.469 330.899 240.541 331.788 239.675 332.969C236.675 337.068 237.472 337.381 237.074 337.898C236.601 338.509 226.896 342.05 226.896 342.05C226.896 342.05 197.759 349.28 196.199 349.8L200.074 361.551C201.87 361.3 234.478 348.238 237.785 346.69C237.785 346.69 242.384 346.262 245.263 345.899C248.143 345.535 250.748 343.932 251.545 343.707C251.663 343.675 254.283 342.774 257.233 340.825C259.776 339.144 256.616 339.611 256.616 339.611C256.616 339.611 251.362 341.903 251.264 341.469C251.188 341.132 254.126 340.048 256.958 338.217C257.688 337.747 258.403 337.281 259.058 336.847C260.783 335.71 260.594 334.363 258.609 335.275Z"/><path fill="#E6F5FE" d="M214.872 295.308C214.872 295.308 209.972 295.981 205.746 302.044C201.52 308.108 192.202 334.248 189.293 344.251C186.355 354.354 187.846 359.965 194.459 361.619C201.071 363.273 236.426 350.42 236.426 350.42L233.118 338.294C233.118 338.294 209.695 343.474 208.868 343.069L216.216 330.394C216.219 330.397 221.975 309.883 214.872 295.308Z"/><path fill="#0A0F14" d="M240.466 275.131C240.466 275.131 235.72 276.681 235.333 278.424C234.946 280.166 235.528 282.685 237.852 284.623C240.177 286.56 245.15 285.364 246.506 284.301C247.861 283.235 248.895 278.716 247.539 276.197C246.181 273.678 240.466 275.131 240.466 275.131Z"/><path fill="#F7A491" d="M238.914 278.778C238.914 278.778 238.944 280.721 239.593 281.07C240.222 281.409 241.02 281.693 241.755 281.764C242.948 281.876 244.026 281.368 244.655 280.447C244.717 280.355 244.774 280.261 244.821 280.166C245.305 279.197 245.403 277.487 245.403 277.487C245.403 277.487 243.4 277.003 242.24 277.198C241.079 277.39 238.914 278.778 238.914 278.778Z"/><path fill="#0A0F14" d="M624.317 282.965C626.328 273.148 621.703 263.417 612.864 259.763C612.923 254.178 611.115 247.102 607.308 243.278C599.798 235.735 585.462 233.089 579.94 242.708C572.645 246.842 566.904 255.797 569.08 263.954C562.01 271.29 564.694 284.565 575.005 290.832C574.842 299.063 579.187 307.244 586.372 310.762C588.097 311.606 590.796 312.782 591.136 313.148C590.687 312.723 596.458 328.821 614.387 321.453C632.683 313.937 636.242 292.773 624.317 282.965Z"/><path fill="#F7A491" d="M538.16 377.628C538.16 377.628 539.35 376.349 539.713 375.895C540.139 375.363 541.287 373.668 541.287 373.668C541.287 373.668 545.009 367.587 544.53 367.357C544.052 367.126 542.823 367.823 542.46 368.119C542.097 368.414 541.642 368.73 541.279 369.025C540.915 369.321 540.393 369.303 539.988 368.889C539.583 368.473 540.771 366.981 541.284 366.547C542.888 365.189 547.915 362.404 548.434 362.088C549.049 361.713 553.532 350.012 555.393 346.119C555.393 346.119 555.393 346.119 555.39 346.119C558.243 339.66 560.844 332.885 561.143 332.2L564.734 302.306L576.397 299.273C576.397 299.273 572.885 332.501 572.516 334.143C572.342 334.926 564.554 349.394 564.548 349.394C560.257 356.284 556.459 362.345 555.765 363.532C555.765 363.532 554.648 367.619 554.096 370.263C553.541 372.906 551.952 375.124 551.68 375.844C551.639 375.951 550.841 378.476 548.774 381.019C546.993 383.21 547.664 380.319 547.664 380.319C547.664 380.319 550.224 375.67 549.817 375.531C549.504 375.425 548.257 378.045 546.311 380.49C545.812 381.119 545.316 381.736 544.855 382.3C543.647 383.783 542.38 383.467 543.393 381.716C543.75 381.098 544.371 380.085 544.917 379.424C545.508 378.712 545.815 377.868 546.217 377.194C547.014 375.856 547.613 374.891 547.54 374.888C547.445 374.885 547.413 374.507 546.86 375.156C546.196 375.939 545.162 377.912 544.093 378.987C543.488 379.595 542.303 380.945 542.303 380.945C542.303 380.945 540.141 382.927 539.997 382.832C539.214 382.327 540.354 380.472 541.284 379.752C541.639 378.99 542.924 377.605 542.924 377.605C542.924 377.605 544.888 374.22 544.406 373.937C544.01 373.703 537.72 380.898 536.973 380.337C536.367 379.879 538.16 377.628 538.16 377.628Z"/><path fill="#F47458" d="M549.831 367.052C549.831 367.052 546.408 368.99 544.586 367.398C544.586 367.398 545.265 368.689 546.771 368.706C548.275 368.721 549.831 367.052 549.831 367.052Z"/><path fill="#F7A491" d="M587.364 381.796L580.571 443.237C580.571 443.237 583.891 456.229 583.492 459.92C583.09 463.612 576.109 512.032 576.109 512.032L576.425 514.693L576.596 522.573L550.488 522.771C550.488 522.771 555.99 520.275 563.687 515.349C564.257 514.983 565.568 513.822 565.887 511.504C567.943 496.577 563.876 446.796 563.876 446.796L560.668 381.993L587.364 381.796Z"/><path fill="#F7A491" d="M607.941 393.107C609.406 393.482 611.659 446.211 612.87 448.55C620.558 463.367 622.383 508.414 622.383 508.414L625.555 514.723L624.828 520.801C624.828 520.801 619.09 524.129 615.068 521.885L615.691 515.798L616.166 507.667L596.772 451.545L586.16 394.297L607.941 393.107Z"/><path fill="#184655" d="M558.251 421.686L557.33 385.304C557.17 375.021 560.555 365.156 564.716 355.794L573.517 340.812C576.352 341.722 577.914 333.237 580.894 333.576C583.142 333.83 584.681 334.356 586.766 334.48C590.699 334.716 593.086 342.489 597.297 342.002C597.318 342.25 598.13 344.232 598.195 344.406C600.209 349.905 607.15 354.784 609.896 371.113C613.012 389.645 612.997 421.497 612.607 423.674C582.82 425 575.72 426.054 558.251 421.686Z"/><path fill="#F47458" d="M612.654 426.013C612.651 426.023 612.648 426.023 612.645 426.013H612.654Z"/><path fill="#F47458" d="M576.718 524.596H549.766C548.768 524.504 548.525 523.68 548.871 523.172C549.583 522.127 552.728 521.359 556.26 519.693C562.459 520.355 575.442 516.143 576.423 514.687C576.987 517.602 577.273 524.472 576.718 524.596Z"/><path fill="#F47458" d="M625.543 514.705C625.543 514.705 623.148 521.586 620.561 521.388C617.974 521.191 615.708 515.765 615.708 515.765C615.708 515.765 614.737 520.331 615.192 522.844C615.643 525.358 619.332 527.939 621.857 526.814C624.376 525.688 627.805 519.864 625.543 514.705Z"/><path fill="#3C8F7C" d="M575.441 317.268C575.441 317.268 571.684 316.798 568.09 315.531C565.931 314.769 562.34 313.104 562.34 313.104C562.34 313.104 564.357 295.962 569.437 285.584C571.383 281.606 573.598 279.421 576.232 278.744C576.436 278.688 575.441 317.268 575.441 317.268Z"/><path fill="#50BFA5" d="M568.918 297.87C569.68 295.088 571.378 291.432 572.35 288.913C573.995 284.63 574.485 280.632 575.938 278.919C576.724 277.997 586.777 278.133 588.012 278.012C588.522 277.959 590.534 278.089 592.48 278.207L592.474 278.201C593.617 278.331 604.946 279.226 606.591 279.938C614.754 287.938 618.703 298.709 624.837 310.478C624.837 310.478 620.241 313.121 616.576 314.79C614.984 315.514 611.934 316.671 611.934 316.671C611.934 316.671 608.068 309.923 605.876 306.973L604.86 304.755C604.784 304.695 604.414 304.303 604.308 304.557C604.146 304.952 597.258 342.014 597.258 342.014C597.258 342.014 578.041 343.804 573.127 341.444C573.127 341.444 572.217 316.657 570.41 309.38C569.742 306.707 567.692 302.351 568.918 297.87Z"/><path fill="#F7A491" d="M593.856 266.81C593.856 266.81 592.285 275.457 592.601 278.868C592.914 282.28 591.404 293.272 584.621 293.307C577.84 293.343 582.447 281.893 583.088 278.552C583.726 275.209 584.762 262.3 584.762 262.3L593.856 266.81Z"/><path fill="#F47458" d="M584.344 267.197C584.45 264.368 584.961 262.117 584.961 262.117L593.856 266.813C593.856 266.813 593.535 268.582 593.213 270.832C589.232 271.683 586.069 269.819 584.344 267.197Z"/><path fill="#F7A491" d="M594.051 241.692C594.051 241.692 597.872 243.056 599.952 247.218C602.031 251.379 602.716 263.03 594.334 267.504C585.953 271.978 580.424 263.727 580.944 256.329C581.464 248.931 583.788 239.241 594.051 241.692Z"/><path fill="#F7A491" d="M578.456 254.267C578.235 256.184 578.911 257.82 579.968 257.92C581.023 258.021 582.059 256.547 582.281 254.63C582.502 252.714 581.826 251.078 580.769 250.977C579.711 250.877 578.675 252.35 578.456 254.267Z"/><path fill="#F7A491" d="M599.211 257.495C598.476 259.35 598.842 261.299 600.029 261.845C601.22 262.392 602.779 261.332 603.517 259.477C604.256 257.622 603.887 255.673 602.699 255.127C601.509 254.577 599.95 255.638 599.211 257.495Z"/><path fill="#F47458" d="M595.799 306.231L596.183 306.781C596.015 308.464 596.921 309.755 598.558 310.171L619.399 339.953L594.337 357.492C592.911 358.491 590.944 358.145 589.943 356.716L569.83 327.977C568.903 326.654 569.225 324.828 570.551 323.901L595.799 306.231Z"/><path fill="#FAE0B2" d="M598.555 310.171L574.589 326.946C573.195 327.921 571.535 327.953 570.879 327.014C570.552 326.547 570.537 325.924 570.779 325.298C571.021 324.672 571.517 324.04 572.214 323.553L596.184 306.778V306.781C596.039 308.446 596.943 309.737 598.555 310.171Z"/><path fill="#F8A492" d="M623.105 311.453C621.428 312.365 618.826 313.762 616.576 314.79C615.512 315.271 613.797 315.948 612.778 316.344C615.238 320.989 617.568 325.774 617.267 326.766C617.004 327.634 595.004 344.052 595.004 344.052L590.61 343.464C590.61 343.464 582.86 344.362 582.683 345.269C582.497 346.166 585.952 345.93 586.41 346.069C586.667 346.146 587.178 346.32 587.615 346.603C586.915 346.928 585.994 347.363 585.117 347.696C587.701 349.208 589.508 351.444 590.43 354.073C592.589 353.544 595.571 352.333 599.34 349.589C604.464 347.029 630.22 332.336 630.598 329.539C630.823 327.885 626.903 319.261 623.105 311.453Z"/><path fill="#F8A492" d="M582.336 345.853C582.336 345.853 581.352 347.717 581.674 349.137C581.996 350.558 582.353 350.945 582.708 352.238C583.062 353.529 583.095 353.821 584.385 354.95C585.676 356.081 591.875 353.659 591.875 353.659L587.613 346.603L585.159 347.525C585.159 347.525 583.609 347.362 583.189 346.911C582.773 346.459 582.336 345.853 582.336 345.853Z"/><path fill="#21263D" d="M251.67 321.508C251.688 321.766 251.937 322.353 252.193 322.334L253.617 321.842C253.873 321.826 254.068 321.603 254.05 321.342C254.032 321.084 253.81 320.889 253.552 320.906L252.085 320.732C251.828 320.75 251.651 321.25 251.67 321.508Z"/><path fill="#21263D" d="M249.803 321.638C249.823 321.895 249.655 322.511 249.397 322.527L247.922 322.238C247.664 322.256 247.442 322.06 247.424 321.802C247.406 321.544 247.6 321.32 247.858 321.302L249.287 320.926C249.545 320.907 249.785 321.378 249.803 321.638Z"/><path fill="#21263D" d="M247.554 321.994C247.611 321.994 247.67 321.992 247.728 321.987L247.708 321.689C245.838 321.808 245.253 319.604 245.229 319.51C244.279 314.547 248.207 306.503 248.245 306.424C248.734 305.422 249.487 305.54 249.518 305.547L249.555 305.553L249.593 305.542C249.623 305.531 250.35 305.308 250.97 306.234C251.022 306.31 256.005 313.74 255.737 318.795C255.726 318.883 255.442 321.154 253.581 321.284L253.601 321.582C255.711 321.437 256.033 318.845 256.036 318.82C256.31 313.654 251.427 306.375 251.219 306.066C250.543 305.057 249.72 305.2 249.536 305.246C249.347 305.226 248.512 305.198 247.98 306.29C247.817 306.623 243.969 314.504 244.941 319.575C244.947 319.609 245.582 321.994 247.554 321.994Z"/><path fill="#21263D" d="M249.747 305.365H250.047C250.047 305.245 249.871 293.334 246.338 291.911L246.227 292.19C249.137 293.361 249.744 302.88 249.747 305.365Z"/><path fill="#21263D" d="M232.911 311.572C232.928 311.572 232.943 311.569 232.96 311.564C233.046 311.537 233.095 311.444 233.066 311.357C231.387 305.974 230.554 302.105 230.336 300.283C230.295 299.945 230.251 299.61 230.208 299.278C229.813 296.265 229.473 293.663 232.139 292.157C232.218 292.113 232.245 292.012 232.201 291.933C232.157 291.853 232.057 291.827 231.978 291.87C229.117 293.488 229.489 296.32 229.883 299.322C229.925 299.652 229.969 299.987 230.01 300.321C230.231 302.16 231.068 306.05 232.754 311.456C232.776 311.528 232.841 311.572 232.911 311.572Z"/><path fill="#93B2C4" d="M235.41 314.111C236.62 313.583 237.174 312.172 236.65 310.957C236.124 309.742 234.717 309.185 233.508 309.712L232.387 310.201L234.289 314.603L235.41 314.111Z"/><path fill="#A6CADF" d="M231.238 313.318C231.764 314.532 233.171 315.089 234.378 314.563C235.588 314.035 236.144 312.623 235.618 311.407C235.092 310.194 233.687 309.637 232.476 310.163C231.268 310.691 230.714 312.104 231.238 313.318Z"/><path fill="#6E9FB7" d="M232.333 312.842C232.593 313.449 233.3 313.727 233.903 313.461C234.507 313.197 234.785 312.492 234.521 311.885C234.26 311.277 233.556 310.998 232.952 311.262C232.347 311.528 232.07 312.233 232.333 312.842Z"/><path fill="#21263D" d="M233.159 314.908C233.162 314.908 233.165 314.908 233.169 314.908C234.661 314.807 235.366 314.189 235.696 313.691C236.108 313.069 236.191 312.229 235.924 311.448C235.723 310.865 235.228 310.363 234.566 310.07C233.846 309.754 233.06 309.73 232.411 310.014C232.328 310.049 232.291 310.146 232.328 310.229C232.364 310.311 232.463 310.349 232.542 310.313C233.098 310.07 233.805 310.091 234.434 310.369C235.012 310.626 235.444 311.057 235.614 311.555C235.85 312.24 235.778 312.971 235.423 313.508C235.008 314.136 234.221 314.506 233.145 314.58C233.056 314.586 232.987 314.664 232.995 314.754C233.001 314.842 233.072 314.908 233.159 314.908Z"/><path fill="#21263D" d="M234.517 314.604C234.531 314.604 234.544 314.603 234.555 314.6C235.74 314.299 236.468 313.778 236.784 313.008C237.159 312.086 236.939 310.934 236.234 310.14C235.476 309.283 234.523 309.194 233.045 309.837C232.961 309.872 232.925 309.969 232.961 310.052C232.996 310.136 233.095 310.172 233.175 310.139C234.515 309.554 235.333 309.617 235.989 310.357C236.614 311.059 236.811 312.075 236.478 312.884C236.38 313.13 236.074 313.878 234.476 314.282C234.388 314.303 234.335 314.392 234.357 314.48C234.376 314.554 234.443 314.604 234.517 314.604Z"/><path fill="#21263D" d="M231.553 313.655C231.599 313.655 231.643 313.635 231.676 313.6C231.736 313.531 231.73 313.427 231.661 313.368C231.392 313.131 231.236 312.588 231.274 312.017C231.309 311.495 231.491 311.073 231.768 310.89C231.844 310.838 231.862 310.737 231.812 310.661C231.762 310.586 231.657 310.565 231.585 310.616C231.221 310.861 230.988 311.363 230.949 311.994C230.905 312.674 231.101 313.31 231.447 313.614C231.476 313.641 231.515 313.655 231.553 313.655Z"/><defs><linearGradient id="paint0_linear" x1="52.719" x2="68.785" y1="388.288" y2="388.288" gradientUnits="userSpaceOnUse"><stop stop-color="#F5F3FE"/><stop offset="1" stop-color="#D4D2FA"/></linearGradient><linearGradient id="paint1_linear" x1="36.21" x2="36.437" y1="285.464" y2="280.196" gradientUnits="userSpaceOnUse"><stop stop-color="#FFD6CA"/><stop offset="1" stop-color="#F9AA9F"/></linearGradient></defs></svg>