<svg xmlns="http://www.w3.org/2000/svg" width="160" height="41" fill="none" viewBox="0 0 160 41"><path fill="#3CD0FF" d="M13.43 13.5437V26.8723C6.07277 26.8723 0.105469 20.9032 0.105469 13.5437H13.43Z"/><path fill="#3567D6" d="M13.43 13.5437H0.105469V0.215088C7.46273 0.215088 13.43 6.1842 13.43 13.5437Z"/><path fill="#3567D6" d="M26.7543 13.5437C26.7543 20.9032 20.7869 26.8723 13.4297 26.8723C13.4297 19.5128 19.3969 13.5437 26.7543 13.5437Z"/><path fill="#3CD0FF" d="M26.7543 13.5437C19.3969 13.5437 13.4297 7.5746 13.4297 0.215088C20.7869 0.215088 26.7543 6.1842 26.7543 13.5437Z"/><path fill="#1C2C50" d="M38.0064 38.6216C37.4531 38.6216 36.9464 38.5516 36.4864 38.4116C36.0264 38.2649 35.6364 38.0616 35.3164 37.8016L35.6464 36.9816C35.9797 37.2349 36.3364 37.4249 36.7164 37.5516C37.0964 37.6783 37.5264 37.7416 38.0064 37.7416C38.5731 37.7416 38.9897 37.6416 39.2564 37.4416C39.5297 37.2349 39.6664 36.9683 39.6664 36.6416C39.6664 36.3749 39.5697 36.1649 39.3764 36.0116C39.1831 35.8516 38.8597 35.7249 38.4064 35.6316L37.3364 35.4116C36.7031 35.2783 36.2297 35.0583 35.9164 34.7516C35.6097 34.4449 35.4564 34.0316 35.4564 33.5116C35.4564 33.0916 35.5664 32.7216 35.7864 32.4016C36.0131 32.0816 36.3264 31.8349 36.7264 31.6616C37.1264 31.4816 37.5864 31.3916 38.1064 31.3916C38.5864 31.3916 39.0297 31.4649 39.4364 31.6116C39.8497 31.7516 40.1997 31.9583 40.4864 32.2316L40.1464 33.0216C39.5797 32.5216 38.8964 32.2716 38.0964 32.2716C37.6031 32.2716 37.2097 32.3816 36.9164 32.6016C36.6297 32.8216 36.4864 33.1149 36.4864 33.4816C36.4864 33.7616 36.5764 33.9849 36.7564 34.1516C36.9364 34.3183 37.2364 34.4449 37.6564 34.5316L38.7164 34.7516C39.3831 34.8916 39.8797 35.1083 40.2064 35.4016C40.5331 35.6883 40.6964 36.0783 40.6964 36.5716C40.6964 36.9849 40.5864 37.3449 40.3664 37.6516C40.1464 37.9583 39.8364 38.1983 39.4364 38.3716C39.0364 38.5383 38.5597 38.6216 38.0064 38.6216Z"/><path fill="#1C2C50" d="M41.7871 38.5316V33.6516H42.7671V34.4416C42.9138 34.1616 43.1171 33.9449 43.3771 33.7916C43.6371 33.6383 43.9404 33.5616 44.2871 33.5616C45.0338 33.5616 45.5171 33.8883 45.7371 34.5416C45.8904 34.2349 46.1104 33.9949 46.3971 33.8216C46.6838 33.6483 47.0104 33.5616 47.3771 33.5616C48.4704 33.5616 49.0171 34.2149 49.0171 35.5216V38.5316H48.0071V35.5716C48.0071 35.1583 47.9338 34.8549 47.7871 34.6616C47.6471 34.4683 47.4138 34.3716 47.0871 34.3716C46.7204 34.3716 46.4304 34.5016 46.2171 34.7616C46.0038 35.0149 45.8971 35.3616 45.8971 35.8016V38.5316H44.8871V35.5716C44.8871 35.1583 44.8171 34.8549 44.6771 34.6616C44.5371 34.4683 44.3038 34.3716 43.9771 34.3716C43.6104 34.3716 43.3204 34.5016 43.1071 34.7616C42.9004 35.0149 42.7971 35.3616 42.7971 35.8016V38.5316H41.7871Z"/><path fill="#1C2C50" d="M51.9892 38.6216C51.6492 38.6216 51.3459 38.5549 51.0792 38.4216C50.8126 38.2883 50.5992 38.1083 50.4392 37.8816C50.2859 37.6549 50.2092 37.3983 50.2092 37.1116C50.2092 36.7516 50.2992 36.4683 50.4792 36.2616C50.6659 36.0549 50.9692 35.9049 51.3892 35.8116C51.8159 35.7183 52.3892 35.6716 53.1092 35.6716H53.4492V35.4116C53.4492 35.0316 53.3692 34.7583 53.2092 34.5916C53.0492 34.4249 52.7859 34.3416 52.4192 34.3416C52.1392 34.3416 51.8592 34.3849 51.5792 34.4716C51.2992 34.5516 51.0126 34.6816 50.7192 34.8616L50.4092 34.1516C50.6626 33.9716 50.9792 33.8283 51.3592 33.7216C51.7392 33.6149 52.1026 33.5616 52.4492 33.5616C53.1159 33.5616 53.6092 33.7216 53.9292 34.0416C54.2492 34.3549 54.4092 34.8483 54.4092 35.5216V38.5316H53.4592V37.7216C53.3392 38.0016 53.1526 38.2216 52.8992 38.3816C52.6459 38.5416 52.3426 38.6216 51.9892 38.6216ZM52.1892 37.9016C52.5492 37.9016 52.8492 37.7749 53.0892 37.5216C53.3292 37.2683 53.4492 36.9483 53.4492 36.5616V36.2916H53.1192C52.6326 36.2916 52.2492 36.3149 51.9692 36.3616C51.6959 36.4083 51.4992 36.4883 51.3792 36.6016C51.2659 36.7083 51.2092 36.8583 51.2092 37.0516C51.2092 37.3049 51.2959 37.5116 51.4692 37.6716C51.6426 37.8249 51.8826 37.9016 52.1892 37.9016Z"/><path fill="#1C2C50" d="M55.8003 38.5316V33.6516H56.7803V34.5216C57.0336 33.9416 57.5603 33.6183 58.3603 33.5516L58.6903 33.5316L58.7603 34.3916L58.1503 34.4516C57.2636 34.5383 56.8203 34.9949 56.8203 35.8216V38.5316H55.8003Z"/><path fill="#1C2C50" d="M61.8842 38.6216C61.2709 38.6216 60.8142 38.4649 60.5142 38.1516C60.2142 37.8383 60.0642 37.3849 60.0642 36.7916V34.4316H59.1142V33.6516H60.0642V32.1816H61.0742V33.6516H62.5842V34.4316H61.0742V36.7116C61.0742 37.0649 61.1476 37.3316 61.2942 37.5116C61.4476 37.6916 61.6942 37.7816 62.0342 37.7816C62.1409 37.7816 62.2442 37.7716 62.3442 37.7516C62.4442 37.7249 62.5442 37.6949 62.6442 37.6616L62.8042 38.4216C62.7042 38.4816 62.5642 38.5283 62.3842 38.5616C62.2109 38.6016 62.0442 38.6216 61.8842 38.6216Z"/><path fill="#1C2C50" d="M66.1935 38.5316V31.4816H69.1135C69.8735 31.4816 70.4602 31.6649 70.8735 32.0316C71.2868 32.3916 71.4935 32.8983 71.4935 33.5516C71.4935 34.0783 71.3535 34.5116 71.0735 34.8516C70.7935 35.1849 70.3969 35.4083 69.8835 35.5216C70.2035 35.6283 70.4735 35.8849 70.6935 36.2916L71.9135 38.5316H70.7735L69.5535 36.2816C69.4135 36.0216 69.2502 35.8483 69.0635 35.7616C68.8835 35.6683 68.6502 35.6216 68.3635 35.6216H67.2335V38.5316H66.1935ZM67.2335 34.8416H68.9435C69.9702 34.8416 70.4835 34.4183 70.4835 33.5716C70.4835 32.7316 69.9702 32.3116 68.9435 32.3116H67.2335V34.8416Z"/><path fill="#1C2C50" d="M75.0239 38.6216C74.2239 38.6216 73.5939 38.3983 73.1339 37.9516C72.6739 37.4983 72.4439 36.8816 72.4439 36.1016C72.4439 35.6016 72.5439 35.1616 72.7439 34.7816C72.9506 34.3949 73.2339 34.0949 73.5939 33.8816C73.9539 33.6683 74.3672 33.5616 74.8339 33.5616C75.5072 33.5616 76.0372 33.7783 76.4239 34.2116C76.8106 34.6383 77.0039 35.2283 77.0039 35.9816V36.3216H73.4239C73.4972 37.3349 74.0339 37.8416 75.0339 37.8416C75.3139 37.8416 75.5872 37.7983 75.8539 37.7116C76.1272 37.6249 76.3839 37.4816 76.6239 37.2816L76.9239 37.9816C76.7039 38.1816 76.4206 38.3383 76.0739 38.4516C75.7272 38.5649 75.3772 38.6216 75.0239 38.6216ZM74.8739 34.2716C74.4539 34.2716 74.1206 34.4016 73.8739 34.6616C73.6272 34.9216 73.4772 35.2683 73.4239 35.7016H76.1539C76.1339 35.2483 76.0139 34.8983 75.7939 34.6516C75.5739 34.3983 75.2672 34.2716 74.8739 34.2716Z"/><path fill="#1C2C50" d="M78.105 40.3316V33.6516H79.095V34.4816C79.235 34.2016 79.4483 33.9783 79.735 33.8116C80.0217 33.6449 80.3517 33.5616 80.725 33.5616C81.1583 33.5616 81.535 33.6649 81.855 33.8716C82.1817 34.0783 82.4317 34.3716 82.605 34.7516C82.785 35.1249 82.875 35.5716 82.875 36.0916C82.875 36.6116 82.785 37.0616 82.605 37.4416C82.4317 37.8216 82.1817 38.1149 81.855 38.3216C81.535 38.5216 81.1583 38.6216 80.725 38.6216C80.365 38.6216 80.0417 38.5449 79.755 38.3916C79.475 38.2316 79.2617 38.0149 79.115 37.7416V40.3316H78.105ZM80.475 37.8416C80.895 37.8416 81.2283 37.6916 81.475 37.3916C81.7283 37.0916 81.855 36.6583 81.855 36.0916C81.855 35.5249 81.7283 35.0949 81.475 34.8016C81.2283 34.5016 80.895 34.3516 80.475 34.3516C80.055 34.3516 79.7183 34.5016 79.465 34.8016C79.2183 35.0949 79.095 35.5249 79.095 36.0916C79.095 36.6583 79.2183 37.0916 79.465 37.3916C79.7183 37.6916 80.055 37.8416 80.475 37.8416Z"/><path fill="#1C2C50" d="M86.1332 38.6216C85.6399 38.6216 85.2132 38.5183 84.8532 38.3116C84.4932 38.1049 84.2132 37.8149 84.0132 37.4416C83.8199 37.0616 83.7232 36.6116 83.7232 36.0916C83.7232 35.5716 83.8199 35.1249 84.0132 34.7516C84.2132 34.3716 84.4932 34.0783 84.8532 33.8716C85.2132 33.6649 85.6399 33.5616 86.1332 33.5616C86.6132 33.5616 87.0332 33.6649 87.3932 33.8716C87.7532 34.0783 88.0332 34.3716 88.2332 34.7516C88.4332 35.1249 88.5332 35.5716 88.5332 36.0916C88.5332 36.6116 88.4332 37.0616 88.2332 37.4416C88.0332 37.8149 87.7532 38.1049 87.3932 38.3116C87.0332 38.5183 86.6132 38.6216 86.1332 38.6216ZM86.1332 37.8416C86.5465 37.8416 86.8799 37.6916 87.1332 37.3916C87.3865 37.0916 87.5132 36.6583 87.5132 36.0916C87.5132 35.5249 87.3865 35.0949 87.1332 34.8016C86.8799 34.5016 86.5465 34.3516 86.1332 34.3516C85.7132 34.3516 85.3765 34.5016 85.1232 34.8016C84.8699 35.0949 84.7432 35.5249 84.7432 36.0916C84.7432 36.6583 84.8699 37.0916 85.1232 37.3916C85.3765 37.6916 85.7132 37.8416 86.1332 37.8416Z"/><path fill="#1C2C50" d="M89.6675 38.5316V33.6516H90.6475V34.5216C90.9008 33.9416 91.4275 33.6183 92.2275 33.5516L92.5575 33.5316L92.6275 34.3916L92.0175 34.4516C91.1308 34.5383 90.6875 34.9949 90.6875 35.8216V38.5316H89.6675Z"/><path fill="#1C2C50" d="M95.7514 38.6216C95.1381 38.6216 94.6814 38.4649 94.3814 38.1516C94.0814 37.8383 93.9314 37.3849 93.9314 36.7916V34.4316H92.9814V33.6516H93.9314V32.1816H94.9414V33.6516H96.4514V34.4316H94.9414V36.7116C94.9414 37.0649 95.0147 37.3316 95.1614 37.5116C95.3147 37.6916 95.5614 37.7816 95.9014 37.7816C96.0081 37.7816 96.1114 37.7716 96.2114 37.7516C96.3114 37.7249 96.4114 37.6949 96.5114 37.6616L96.6714 38.4216C96.5714 38.4816 96.4314 38.5283 96.2514 38.5616C96.0781 38.6016 95.9114 38.6216 95.7514 38.6216Z"/><path fill="#1C2C50" d="M97.87 39.7616L97.43 39.4216C97.5833 39.2549 97.6967 39.1016 97.77 38.9616C97.8433 38.8216 97.89 38.6783 97.91 38.5316H97.36V37.3416H98.55V38.1516C98.55 38.4583 98.5 38.7383 98.4 38.9916C98.3 39.2516 98.1233 39.5083 97.87 39.7616Z"/><path fill="#1C2C50" d="M104.94 38.6216C104.387 38.6216 103.88 38.5516 103.42 38.4116C102.96 38.2649 102.57 38.0616 102.25 37.8016L102.58 36.9816C102.913 37.2349 103.27 37.4249 103.65 37.5516C104.03 37.6783 104.46 37.7416 104.94 37.7416C105.507 37.7416 105.923 37.6416 106.19 37.4416C106.463 37.2349 106.6 36.9683 106.6 36.6416C106.6 36.3749 106.503 36.1649 106.31 36.0116C106.117 35.8516 105.793 35.7249 105.34 35.6316L104.27 35.4116C103.637 35.2783 103.163 35.0583 102.85 34.7516C102.543 34.4449 102.39 34.0316 102.39 33.5116C102.39 33.0916 102.5 32.7216 102.72 32.4016C102.947 32.0816 103.26 31.8349 103.66 31.6616C104.06 31.4816 104.52 31.3916 105.04 31.3916C105.52 31.3916 105.963 31.4649 106.37 31.6116C106.783 31.7516 107.133 31.9583 107.42 32.2316L107.08 33.0216C106.513 32.5216 105.83 32.2716 105.03 32.2716C104.537 32.2716 104.143 32.3816 103.85 32.6016C103.563 32.8216 103.42 33.1149 103.42 33.4816C103.42 33.7616 103.51 33.9849 103.69 34.1516C103.87 34.3183 104.17 34.4449 104.59 34.5316L105.65 34.7516C106.317 34.8916 106.813 35.1083 107.14 35.4016C107.467 35.6883 107.63 36.0783 107.63 36.5716C107.63 36.9849 107.52 37.3449 107.3 37.6516C107.08 37.9583 106.77 38.1983 106.37 38.3716C105.97 38.5383 105.493 38.6216 104.94 38.6216Z"/><path fill="#1C2C50" d="M108.721 38.5316V33.6516H109.701V34.4416C109.847 34.1616 110.051 33.9449 110.311 33.7916C110.571 33.6383 110.874 33.5616 111.221 33.5616C111.967 33.5616 112.451 33.8883 112.671 34.5416C112.824 34.2349 113.044 33.9949 113.331 33.8216C113.617 33.6483 113.944 33.5616 114.311 33.5616C115.404 33.5616 115.951 34.2149 115.951 35.5216V38.5316H114.941V35.5716C114.941 35.1583 114.867 34.8549 114.721 34.6616C114.581 34.4683 114.347 34.3716 114.021 34.3716C113.654 34.3716 113.364 34.5016 113.151 34.7616C112.937 35.0149 112.831 35.3616 112.831 35.8016V38.5316H111.821V35.5716C111.821 35.1583 111.751 34.8549 111.611 34.6616C111.471 34.4683 111.237 34.3716 110.911 34.3716C110.544 34.3716 110.254 34.5016 110.041 34.7616C109.834 35.0149 109.731 35.3616 109.731 35.8016V38.5316H108.721Z"/><path fill="#1C2C50" d="M118.923 38.6216C118.583 38.6216 118.279 38.5549 118.013 38.4216C117.746 38.2883 117.533 38.1083 117.373 37.8816C117.219 37.6549 117.143 37.3983 117.143 37.1116C117.143 36.7516 117.233 36.4683 117.413 36.2616C117.599 36.0549 117.903 35.9049 118.323 35.8116C118.749 35.7183 119.323 35.6716 120.043 35.6716H120.383V35.4116C120.383 35.0316 120.303 34.7583 120.143 34.5916C119.983 34.4249 119.719 34.3416 119.353 34.3416C119.073 34.3416 118.793 34.3849 118.513 34.4716C118.233 34.5516 117.946 34.6816 117.653 34.8616L117.343 34.1516C117.596 33.9716 117.913 33.8283 118.293 33.7216C118.673 33.6149 119.036 33.5616 119.383 33.5616C120.049 33.5616 120.543 33.7216 120.863 34.0416C121.183 34.3549 121.343 34.8483 121.343 35.5216V38.5316H120.393V37.7216C120.273 38.0016 120.086 38.2216 119.833 38.3816C119.579 38.5416 119.276 38.6216 118.923 38.6216ZM119.123 37.9016C119.483 37.9016 119.783 37.7749 120.023 37.5216C120.263 37.2683 120.383 36.9483 120.383 36.5616V36.2916H120.053C119.566 36.2916 119.183 36.3149 118.903 36.3616C118.629 36.4083 118.433 36.4883 118.313 36.6016C118.199 36.7083 118.143 36.8583 118.143 37.0516C118.143 37.3049 118.229 37.5116 118.403 37.6716C118.576 37.8249 118.816 37.9016 119.123 37.9016Z"/><path fill="#1C2C50" d="M122.734 38.5316V33.6516H123.714V34.5216C123.967 33.9416 124.494 33.6183 125.294 33.5516L125.624 33.5316L125.694 34.3916L125.084 34.4516C124.197 34.5383 123.754 34.9949 123.754 35.8216V38.5316H122.734Z"/><path fill="#1C2C50" d="M128.818 38.6216C128.204 38.6216 127.748 38.4649 127.448 38.1516C127.148 37.8383 126.998 37.3849 126.998 36.7916V34.4316H126.048V33.6516H126.998V32.1816H128.008V33.6516H129.518V34.4316H128.008V36.7116C128.008 37.0649 128.081 37.3316 128.228 37.5116C128.381 37.6916 128.628 37.7816 128.968 37.7816C129.074 37.7816 129.178 37.7716 129.278 37.7516C129.378 37.7249 129.478 37.6949 129.578 37.6616L129.738 38.4216C129.638 38.4816 129.498 38.5283 129.318 38.5616C129.144 38.6016 128.978 38.6216 128.818 38.6216Z"/><path fill="#1C2C50" d="M132.631 38.6216C131.831 38.6216 131.201 38.3983 130.741 37.9516C130.281 37.4983 130.051 36.8816 130.051 36.1016C130.051 35.6016 130.151 35.1616 130.351 34.7816C130.558 34.3949 130.841 34.0949 131.201 33.8816C131.561 33.6683 131.975 33.5616 132.441 33.5616C133.115 33.5616 133.645 33.7783 134.031 34.2116C134.418 34.6383 134.611 35.2283 134.611 35.9816V36.3216H131.031C131.105 37.3349 131.641 37.8416 132.641 37.8416C132.921 37.8416 133.195 37.7983 133.461 37.7116C133.735 37.6249 133.991 37.4816 134.231 37.2816L134.531 37.9816C134.311 38.1816 134.028 38.3383 133.681 38.4516C133.335 38.5649 132.985 38.6216 132.631 38.6216ZM132.481 34.2716C132.061 34.2716 131.728 34.4016 131.481 34.6616C131.235 34.9216 131.085 35.2683 131.031 35.7016H133.761C133.741 35.2483 133.621 34.8983 133.401 34.6516C133.181 34.3983 132.875 34.2716 132.481 34.2716Z"/><path fill="#1C2C50" d="M135.712 38.5316V33.6516H136.692V34.5216C136.946 33.9416 137.472 33.6183 138.272 33.5516L138.602 33.5316L138.672 34.3916L138.062 34.4516C137.176 34.5383 136.732 34.9949 136.732 35.8216V38.5316H135.712Z"/><path fill="#1C2C50" d="M143.87 38.5316V35.2416L141.17 31.4816H142.37L144.41 34.3316L146.45 31.4816H147.6L144.9 35.2516V38.5316H143.87Z"/><path fill="#1C2C50" d="M149.444 38.6216C148.95 38.6216 148.524 38.5183 148.164 38.3116C147.804 38.1049 147.524 37.8149 147.324 37.4416C147.13 37.0616 147.034 36.6116 147.034 36.0916C147.034 35.5716 147.13 35.1249 147.324 34.7516C147.524 34.3716 147.804 34.0783 148.164 33.8716C148.524 33.6649 148.95 33.5616 149.444 33.5616C149.924 33.5616 150.344 33.6649 150.704 33.8716C151.064 34.0783 151.344 34.3716 151.544 34.7516C151.744 35.1249 151.844 35.5716 151.844 36.0916C151.844 36.6116 151.744 37.0616 151.544 37.4416C151.344 37.8149 151.064 38.1049 150.704 38.3116C150.344 38.5183 149.924 38.6216 149.444 38.6216ZM149.444 37.8416C149.857 37.8416 150.19 37.6916 150.444 37.3916C150.697 37.0916 150.824 36.6583 150.824 36.0916C150.824 35.5249 150.697 35.0949 150.444 34.8016C150.19 34.5016 149.857 34.3516 149.444 34.3516C149.024 34.3516 148.687 34.5016 148.434 34.8016C148.18 35.0949 148.054 35.5249 148.054 36.0916C148.054 36.6583 148.18 37.0916 148.434 37.3916C148.687 37.6916 149.024 37.8416 149.444 37.8416Z"/><path fill="#1C2C50" d="M154.718 38.6216C153.538 38.6216 152.948 37.9649 152.948 36.6516V33.6516H153.958V36.6616C153.958 37.0549 154.038 37.3449 154.198 37.5316C154.358 37.7183 154.611 37.8116 154.958 37.8116C155.338 37.8116 155.645 37.6849 155.878 37.4316C156.118 37.1783 156.238 36.8383 156.238 36.4116V33.6516H157.248V38.5316H156.268V37.7516C156.108 38.0383 155.895 38.2549 155.628 38.4016C155.361 38.5483 155.058 38.6216 154.718 38.6216Z"/><path fill="#3567D6" d="M38.0065 12.8622C38.0447 10.3414 39.4198 9.23381 41.1006 9.23381C42.9723 9.23381 44.1565 10.3414 44.1565 12.9768V20.0426H47.2888V12.9768C47.2888 9.15743 45.7226 6.67484 41.8645 6.67484C40.1074 6.67484 38.6558 7.62968 38.0065 8.85188V7.09497H34.8359V20.0426H38.0065V12.8622ZM50.3872 15.0774C50.3872 17.8274 50.8837 20.0044 53.3667 20.1954C53.6341 20.2336 53.9013 20.2336 54.2071 20.2336C54.6272 20.1954 55.0092 20.0808 55.544 19.8516L55.3148 17.7128C55.2002 17.7128 55.1238 17.751 55.0474 17.751C53.6723 17.751 53.5195 16.9107 53.5195 15.0774V7.09497H50.3872V15.0774ZM51.9915 1.28955C50.8837 1.28955 50.0434 2.168 50.0434 3.27562C50.0434 4.34504 50.8837 5.22349 51.9915 5.22349C53.0993 5.22349 53.9779 4.34504 53.9779 3.27562C53.9779 2.168 53.0993 1.28955 51.9915 1.28955ZM60.6498 12.8622C60.6498 10.265 61.9868 9.27201 63.6675 9.27201C64.1259 9.27201 64.5843 9.38659 65.0045 9.53936L66.3033 6.98039C65.7685 6.78943 65.1573 6.67484 64.5079 6.67484C62.7508 6.67484 61.2992 7.62968 60.6498 8.85188V7.09497H57.5175V20.0426H60.6498V12.8622ZM73.3292 20.4627C77.9513 20.4627 80.3196 17.2163 80.3196 13.5497C80.3196 9.8831 77.9513 6.67484 73.3292 6.67484C68.7453 6.67484 66.377 9.9213 66.377 13.5497C66.377 17.1781 68.7453 20.4627 73.3292 20.4627ZM73.3292 18.2093C71.1519 18.2093 69.5093 16.376 69.5093 13.5497C69.5093 10.7998 71.1901 8.96646 73.3292 8.96646C75.5064 8.96646 77.1873 10.7998 77.1873 13.5497C77.1873 16.376 75.5064 18.2093 73.3292 18.2093ZM82.2692 13.6643C82.2692 17.2927 84.714 20.5773 88.6103 20.5773C90.5584 20.5773 92.1246 19.5461 93.0795 17.9801V20.3481C93.0795 23.2127 91.0168 24.7022 88.3811 24.7022C86.4329 24.7022 84.8668 23.862 83.7208 22.2196L82.0018 23.6328C83.377 26.1154 86.0891 27.032 88.763 27.032C93.2323 27.032 96.2118 24.3967 96.2118 20.2336V7.09497H93.0795V9.3102C92.1246 7.70607 90.5966 6.67484 88.5721 6.67484C84.714 6.67484 82.2692 10.0359 82.2692 13.6643ZM85.4015 13.6261C85.4015 11.3345 87.0059 9.38659 89.2214 9.38659C91.4752 9.38659 93.0795 11.3727 93.0795 13.6261C93.0795 15.9177 91.5134 17.8274 89.2214 17.8274C87.0059 17.8274 85.4015 15.9941 85.4015 13.6261ZM98.9066 13.6643C98.9066 17.2927 101.351 20.5773 105.248 20.5773C107.196 20.5773 108.762 19.5461 109.717 17.9801V20.3481C109.717 23.2127 107.654 24.7022 105.018 24.7022C103.07 24.7022 101.504 23.862 100.358 22.2196L98.6392 23.6328C100.014 26.1154 102.726 27.032 105.4 27.032C109.87 27.032 112.849 24.3967 112.849 20.2336V7.09497H109.717V9.3102C108.762 7.70607 107.234 6.67484 105.209 6.67484C101.351 6.67484 98.9066 10.0359 98.9066 13.6643ZM102.039 13.6261C102.039 11.3345 103.643 9.38659 105.859 9.38659C108.113 9.38659 109.717 11.3727 109.717 13.6261C109.717 15.9177 108.151 17.8274 105.859 17.8274C103.643 17.8274 102.039 15.9941 102.039 13.6261ZM129.372 7.09497H125.934L122.076 15.4594L118.333 7.09497H114.895L120.395 18.7058L116.308 26.9174H119.593L129.372 7.09497ZM129.681 13.6643C129.681 17.2927 132.127 20.5773 136.061 20.5773C138.009 20.5773 139.575 19.5461 140.492 17.9801V20.0426H143.586V7.09497H140.492V9.3102C139.537 7.70607 138.009 6.67484 136.022 6.67484C132.164 6.67484 129.681 10.0359 129.681 13.6643ZM132.852 13.6261C132.852 11.3345 134.418 9.38659 136.672 9.38659C138.925 9.38659 140.453 11.3727 140.453 13.6261C140.453 15.8795 138.925 17.8274 136.672 17.8274C134.418 17.8274 132.852 15.9941 132.852 13.6261ZM150.254 12.8622C150.291 10.3414 151.666 9.23381 153.347 9.23381C155.22 9.23381 156.403 10.3414 156.403 12.9768V20.0426H159.536V12.9768C159.536 9.15743 157.969 6.67484 154.111 6.67484C152.355 6.67484 150.902 7.62968 150.254 8.85188V7.09497H147.083V20.0426H150.254V12.8622Z"/></svg>