<svg xmlns="http://www.w3.org/2000/svg" width="266.667" height="266.667" preserveAspectRatio="xMidYMid meet" version="1.0" viewBox="0 0 200 200"><metadata>Created by potrace 1.14, written by Peter Selinger 2001-2017</metadata><g fill="#000" stroke="none"><path d="M0 1000 l0 -1000 1000 0 1000 0 0 1000 0 1000 -1000 0 -1000 0 0 -1000z m340 759 c240 -54 463 -231 574 -455 77 -156 79 -175 84 -664 l4 -435 23 91 c40 159 113 285 230 399 124 120 299 208 479 239 l71 12 -67 12 c-206 37 -369 123 -504 264 -133 139 -208 301 -229 502 l-7 59 89 -6 c112 -8 204 -34 318 -92 304 -153 483 -459 462 -793 -8 -123 -27 -194 -83 -307 -84 -170 -216 -301 -389 -386 -135 -65 -237 -89 -391 -89 -206 0 -392 62 -549 183 -132 101 -225 232 -284 400 l-36 102 -3 497 -3 498 63 -6 c35 -3 101 -15 148 -25z" transform="translate(0.000000,200.000000) scale(0.100000,-0.100000)"/></g></svg>