<svg xmlns="http://www.w3.org/2000/svg" width="44" height="44" fill="none" viewBox="0 0 44 44"><g filter="url(#filter0_d)"><path fill="#395398" d="M35.2531 18.401C35.2531 21.8424 34.2327 25.2065 32.3207 28.0679C30.4088 30.9293 27.6913 33.1595 24.5118 34.4765C21.3324 35.7934 17.8338 36.138 14.4586 35.4666C11.0833 34.7953 7.98291 33.1381 5.54948 30.7046C3.11604 28.2712 1.45885 25.1708 0.787469 21.7955C0.116087 18.4203 0.460663 14.9217 1.77763 11.7423C3.09459 8.56284 5.3248 5.84535 8.18621 3.93341C11.0476 2.02147 14.4117 1.00098 17.8531 1.00098C22.4679 1.00098 26.8936 2.83419 30.1568 6.09732C33.4199 9.36045 35.2531 13.7862 35.2531 18.401Z"/></g><g style="mix-blend-mode:screen" opacity=".13"><g style="mix-blend-mode:screen" opacity=".13"><path stroke="#fff" stroke-miterlimit="10" stroke-width="5" d="M32.1773 17.783C32.1773 20.6158 31.3372 23.385 29.7634 25.7404C28.1896 28.0958 25.9526 29.9316 23.3354 31.0157C20.7182 32.0998 17.8384 32.3834 15.06 31.8307C12.2816 31.2781 9.72947 29.914 7.72636 27.9108C5.72325 25.9077 4.35912 23.3556 3.80647 20.5772C3.25381 17.7989 3.53746 14.919 4.62153 12.3018C5.70561 9.6846 7.54141 7.44764 9.89682 5.87381C12.2522 4.29998 15.0214 3.45996 17.8543 3.45996C21.653 3.45996 25.2961 4.96898 27.9822 7.65506C30.6682 10.3411 32.1773 13.9843 32.1773 17.783V17.783Z"/></g></g><g filter="url(#filter1_d)"><path fill="#395398" d="M32.1812 18.3999C32.1812 21.2327 31.3411 24.0019 29.7673 26.3573C28.1935 28.7127 25.9565 30.5486 23.3393 31.6326C20.7222 32.7167 17.8423 33.0003 15.0639 32.4477C12.2855 31.895 9.73337 30.5309 7.73027 28.5278C5.72716 26.5247 4.36303 23.9726 3.81037 21.1942C3.25772 18.4158 3.54136 15.5359 4.62544 12.9187C5.70951 10.3015 7.54532 8.06458 9.90072 6.49075C12.2561 4.91692 15.0253 4.0769 17.8582 4.0769C21.6569 4.0769 25.3 5.58592 27.9861 8.272C30.6721 10.9581 32.1812 14.6012 32.1812 18.3999Z"/></g><path fill="#fff" d="M24.6956 22.64L25.2106 18.646H21.2566V16.096C21.2566 14.94 21.5776 14.152 23.2356 14.152H25.3506V10.58C24.3269 10.4718 23.298 10.4194 22.2686 10.423C19.2206 10.423 17.1326 12.284 17.1326 15.702V18.647H13.6836V22.641H17.1336L17.1426 32.709C18.5516 32.7747 19.9626 32.6376 21.3326 32.302L21.2576 22.641L24.6956 22.64Z"/><defs><filter id="filter0_d" width="42.8" height="42.8" x=".453" y="1.001" color-interpolation-filters="sRGB" filterUnits="userSpaceOnUse"><feFlood flood-opacity="0" result="BackgroundImageFix"/><feColorMatrix in="SourceAlpha" result="hardAlpha" type="matrix" values="0 0 0 0 0 0 0 0 0 0 0 0 0 0 0 0 0 0 127 0"/><feOffset dx="4" dy="4"/><feGaussianBlur stdDeviation="2"/><feColorMatrix type="matrix" values="0 0 0 0 0 0 0 0 0 0 0 0 0 0 0 0 0 0 0.2 0"/><feBlend in2="BackgroundImageFix" mode="normal" result="effect1_dropShadow"/><feBlend in="SourceGraphic" in2="effect1_dropShadow" mode="normal" result="shape"/></filter><filter id="filter1_d" width="36.646" height="36.646" x="3.535" y="4.077" color-interpolation-filters="sRGB" filterUnits="userSpaceOnUse"><feFlood flood-opacity="0" result="BackgroundImageFix"/><feColorMatrix in="SourceAlpha" result="hardAlpha" type="matrix" values="0 0 0 0 0 0 0 0 0 0 0 0 0 0 0 0 0 0 127 0"/><feOffset dx="4" dy="4"/><feGaussianBlur stdDeviation="2"/><feColorMatrix type="matrix" values="0 0 0 0 0 0 0 0 0 0 0 0 0 0 0 0 0 0 0.2 0"/><feBlend in2="BackgroundImageFix" mode="normal" result="effect1_dropShadow"/><feBlend in="SourceGraphic" in2="effect1_dropShadow" mode="normal" result="shape"/></filter></defs></svg>