<svg xmlns="http://www.w3.org/2000/svg" width="43" height="44" fill="none" viewBox="0 0 43 44"><g filter="url(#filter0_d)"><path fill="#3D83D9" d="M34.8039 18.401C34.8039 21.8424 33.7834 25.2065 31.8715 28.0679C29.9596 30.9293 27.242 33.1595 24.0626 34.4765C20.8832 35.7935 17.3846 36.138 14.0093 35.4666C10.6341 34.7953 7.5337 33.1381 5.10027 30.7046C2.66684 28.2712 1.00963 25.1708 0.338247 21.7955C-0.333136 18.4203 0.0114553 14.9217 1.32842 11.7423C2.64539 8.56284 4.87557 5.84535 7.73699 3.93341C10.5984 2.02147 13.9625 1.00098 17.4039 1.00098C22.0187 1.00098 26.4444 2.83419 29.7076 6.09732C32.9707 9.36045 34.8039 13.7862 34.8039 18.401Z"/></g><g style="mix-blend-mode:screen" opacity=".13"><g style="mix-blend-mode:screen" opacity=".13"><path stroke="#fff" stroke-miterlimit="10" stroke-width="5" d="M31.7241 17.783C31.7241 20.6158 30.8841 23.3851 29.3102 25.7405C27.7364 28.0959 25.4993 29.9317 22.8821 31.0158C20.2648 32.0998 17.3849 32.3834 14.6065 31.8307C11.8281 31.2779 9.27596 29.9137 7.27289 27.9105C5.26983 25.9073 3.90576 23.3551 3.35322 20.5766C2.80067 17.7982 3.08448 14.9183 4.16871 12.3011C5.25293 9.68392 7.08893 7.44705 9.44446 5.87334C11.8 4.29963 14.5693 3.45976 17.4022 3.45996C21.2007 3.46023 24.8436 4.96937 27.5294 7.65543C30.2153 10.3415 31.7241 13.9844 31.7241 17.783V17.783Z"/></g></g><g filter="url(#filter1_d)"><path fill="#3D83D9" d="M31.7202 18.4C31.7202 21.2329 30.8802 24.0021 29.3063 26.3576C27.7325 28.713 25.4954 30.5488 22.8782 31.6328C20.2609 32.7169 17.381 33.0005 14.6026 32.4477C11.8242 31.895 9.27206 30.5308 7.26899 28.5276C5.26592 26.5243 3.90185 23.9721 3.34931 21.1937C2.79677 18.4152 3.08057 15.5353 4.1648 12.9182C5.24903 10.301 7.08502 8.06411 9.44056 6.4904C11.7961 4.91669 14.5654 4.07683 17.3983 4.07703C21.1968 4.07729 24.8397 5.58642 27.5255 8.27248C30.2114 10.9585 31.7202 14.6015 31.7202 18.4V18.4Z"/></g><path fill="#fff" d="M15.0196 13.744H11V25.232H15.0196V13.744Z"/><path fill="#fff" d="M13.0089 8C12.611 7.99968 12.222 8.1174 11.891 8.33826C11.56 8.55912 11.302 8.87319 11.1495 9.24074C10.9971 9.6083 10.9571 10.0128 11.0346 10.4031C11.1122 10.7934 11.3037 11.1519 11.5851 11.4333C11.8664 11.7147 12.2249 11.9063 12.6152 11.9839C13.0054 12.0615 13.4099 12.0215 13.7775 11.8692C14.1451 11.7168 14.4592 11.4588 14.6801 11.1278C14.9011 10.7969 15.0188 10.4079 15.0186 10.0099C15.0179 9.47714 14.8059 8.96635 14.4292 8.58957C14.0525 8.21279 13.5418 8.00077 13.0089 8V8Z"/><path fill="#fff" d="M28.2308 17.2729C27.9605 15.1075 26.8773 13.7444 23.9503 13.7444C21.8727 13.7444 21.0469 14.0681 20.5704 14.9745V13.7444H17.3164V25.2321H20.6652V19.2184C20.6652 17.7173 20.9495 16.5834 22.8056 16.5834C24.6353 16.5834 24.7822 17.9789 24.7822 19.3155V25.2317H28.2308C28.2308 25.2317 28.2945 17.7792 28.2308 17.2729Z"/><defs><filter id="filter0_d" width="42.801" height="42.8" x=".004" y="1.001" color-interpolation-filters="sRGB" filterUnits="userSpaceOnUse"><feFlood flood-opacity="0" result="BackgroundImageFix"/><feColorMatrix in="SourceAlpha" result="hardAlpha" type="matrix" values="0 0 0 0 0 0 0 0 0 0 0 0 0 0 0 0 0 0 127 0"/><feOffset dx="4" dy="4"/><feGaussianBlur stdDeviation="2"/><feColorMatrix type="matrix" values="0 0 0 0 0 0 0 0 0 0 0 0 0 0 0 0 0 0 0.2 0"/><feBlend in2="BackgroundImageFix" mode="normal" result="effect1_dropShadow"/><feBlend in="SourceGraphic" in2="effect1_dropShadow" mode="normal" result="shape"/></filter><filter id="filter1_d" width="36.645" height="36.646" x="3.074" y="4.077" color-interpolation-filters="sRGB" filterUnits="userSpaceOnUse"><feFlood flood-opacity="0" result="BackgroundImageFix"/><feColorMatrix in="SourceAlpha" result="hardAlpha" type="matrix" values="0 0 0 0 0 0 0 0 0 0 0 0 0 0 0 0 0 0 127 0"/><feOffset dx="4" dy="4"/><feGaussianBlur stdDeviation="2"/><feColorMatrix type="matrix" values="0 0 0 0 0 0 0 0 0 0 0 0 0 0 0 0 0 0 0.2 0"/><feBlend in2="BackgroundImageFix" mode="normal" result="effect1_dropShadow"/><feBlend in="SourceGraphic" in2="effect1_dropShadow" mode="normal" result="shape"/></filter></defs></svg>