<svg xmlns="http://www.w3.org/2000/svg" width="583" height="144" fill="none" viewBox="0 0 583 144"><path fill="#D6D6D6" d="M60.7746 60.793V121.586C27.2174 121.586 0 94.3603 0 60.793H60.7746Z"/><path fill="#fff" d="M60.7746 60.7931H0V0C33.5572 0 60.7746 27.2257 60.7746 60.7931Z"/><path fill="#fff" d="M121.548 60.793C121.548 94.3603 94.3305 121.586 60.7734 121.586C60.7734 88.0188 87.9906 60.793 121.548 60.793Z"/><path fill="#D6D6D6" d="M121.548 60.7931C87.9906 60.7931 60.7734 33.5674 60.7734 0C94.3305 0 121.548 27.2257 121.548 60.7931Z"/><path fill="#fff" d="M153.175 137.449C151.207 137.449 149.395 137.185 147.739 136.657C146.107 136.129 144.703 135.349 143.527 134.317L144.859 131.581C146.107 132.589 147.391 133.321 148.711 133.777C150.055 134.209 151.555 134.425 153.211 134.425C155.107 134.425 156.571 134.077 157.603 133.381C158.635 132.661 159.151 131.653 159.151 130.357C159.151 129.253 158.671 128.437 157.711 127.909C156.751 127.357 155.215 126.841 153.103 126.361C151.087 125.929 149.431 125.437 148.135 124.885C146.839 124.333 145.819 123.589 145.075 122.653C144.355 121.693 143.995 120.481 143.995 119.017C143.995 117.529 144.379 116.221 145.147 115.093C145.939 113.965 147.055 113.089 148.495 112.465C149.935 111.817 151.603 111.493 153.499 111.493C155.275 111.493 156.943 111.769 158.503 112.321C160.087 112.849 161.383 113.617 162.391 114.625L161.095 117.361C159.919 116.401 158.707 115.693 157.459 115.237C156.235 114.757 154.927 114.517 153.535 114.517C151.711 114.517 150.271 114.901 149.215 115.669C148.183 116.413 147.667 117.457 147.667 118.801C147.667 119.953 148.123 120.829 149.035 121.429C149.947 122.005 151.411 122.533 153.427 123.013C155.539 123.493 157.243 123.997 158.539 124.525C159.859 125.029 160.903 125.737 161.671 126.649C162.463 127.537 162.859 128.701 162.859 130.141C162.859 131.605 162.463 132.889 161.671 133.993C160.903 135.097 159.787 135.949 158.323 136.549C156.883 137.149 155.167 137.449 153.175 137.449Z"/><path fill="#fff" d="M187.158 119.161C191.094 119.161 193.062 121.525 193.062 126.253V137.161H189.426V126.397C189.426 124.909 189.162 123.829 188.634 123.157C188.13 122.461 187.302 122.113 186.15 122.113C184.83 122.113 183.786 122.569 183.018 123.481C182.25 124.393 181.866 125.641 181.866 127.225V137.161H178.23V126.397C178.23 124.909 177.966 123.829 177.438 123.157C176.91 122.461 176.082 122.113 174.954 122.113C173.61 122.113 172.554 122.569 171.786 123.481C171.018 124.393 170.634 125.641 170.634 127.225V137.161H166.998V119.593H170.562V122.257C171.114 121.273 171.858 120.517 172.794 119.989C173.73 119.437 174.798 119.161 175.998 119.161C178.71 119.161 180.474 120.289 181.29 122.545C181.842 121.489 182.634 120.661 183.666 120.061C184.698 119.461 185.862 119.161 187.158 119.161Z"/><path fill="#fff" d="M205.385 119.161C207.737 119.161 209.477 119.749 210.605 120.925C211.757 122.101 212.333 123.889 212.333 126.289V137.161H208.841V134.245C208.385 135.277 207.701 136.069 206.789 136.621C205.901 137.149 204.857 137.413 203.657 137.413C202.505 137.413 201.449 137.185 200.489 136.729C199.529 136.249 198.773 135.589 198.221 134.749C197.693 133.909 197.429 132.973 197.429 131.941C197.429 130.669 197.753 129.673 198.401 128.953C199.073 128.209 200.165 127.681 201.677 127.369C203.213 127.057 205.313 126.901 207.977 126.901H208.805V125.857C208.805 124.513 208.517 123.541 207.941 122.941C207.389 122.341 206.477 122.041 205.205 122.041C203.213 122.041 201.221 122.653 199.229 123.877L198.149 121.321C199.085 120.673 200.213 120.157 201.533 119.773C202.877 119.365 204.161 119.161 205.385 119.161ZM204.305 134.713C205.625 134.713 206.705 134.269 207.545 133.381C208.385 132.469 208.805 131.305 208.805 129.889V128.953H208.157C206.285 128.953 204.845 129.037 203.837 129.205C202.829 129.373 202.109 129.661 201.677 130.069C201.245 130.453 201.029 131.017 201.029 131.761C201.029 132.601 201.329 133.309 201.929 133.885C202.553 134.437 203.345 134.713 204.305 134.713Z"/><path fill="#fff" d="M227.998 122.221L225.802 122.437C224.074 122.605 222.826 123.133 222.058 124.021C221.314 124.909 220.942 126.037 220.942 127.405V137.161H217.306V119.593H220.834V122.653C221.77 120.589 223.678 119.449 226.558 119.233L227.746 119.161L227.998 122.221Z"/><path fill="#fff" d="M240.318 134.605C240.87 134.605 241.41 134.569 241.938 134.497L241.758 137.269C241.158 137.365 240.534 137.413 239.886 137.413C237.606 137.413 235.902 136.861 234.774 135.757C233.67 134.629 233.118 133.009 233.118 130.897V122.401H229.698V119.593H233.118V114.301H236.754V119.593H241.578V122.401H236.754V130.753C236.754 133.321 237.942 134.605 240.318 134.605Z"/><path fill="#fff" d="M275.209 137.161H271.105L266.785 129.025C266.305 128.161 265.729 127.561 265.057 127.225C264.409 126.865 263.545 126.685 262.465 126.685H258.289V137.161H254.617V111.781H265.417C268.225 111.781 270.361 112.405 271.825 113.653C273.313 114.901 274.057 116.725 274.057 119.125C274.057 121.069 273.505 122.665 272.401 123.913C271.321 125.161 269.773 125.953 267.757 126.289C269.005 126.673 270.037 127.609 270.853 129.097L275.209 137.161ZM264.985 123.697C266.857 123.697 268.237 123.337 269.125 122.617C270.037 121.873 270.493 120.733 270.493 119.197C270.493 117.661 270.049 116.545 269.161 115.849C268.273 115.129 266.881 114.769 264.985 114.769H258.253V123.697H264.985Z"/><path fill="#fff" d="M294.089 128.989H281.669C281.933 132.709 283.781 134.569 287.213 134.569C289.229 134.569 291.053 133.909 292.685 132.589L293.801 135.145C292.985 135.841 291.977 136.393 290.777 136.801C289.577 137.209 288.353 137.413 287.105 137.413C284.297 137.413 282.077 136.609 280.445 135.001C278.837 133.393 278.033 131.173 278.033 128.341C278.033 126.541 278.381 124.945 279.077 123.553C279.797 122.161 280.793 121.081 282.065 120.313C283.361 119.545 284.825 119.161 286.457 119.161C288.833 119.161 290.693 119.929 292.037 121.465C293.405 123.001 294.089 125.125 294.089 127.837V128.989ZM286.529 121.825C285.137 121.825 284.021 122.269 283.181 123.157C282.365 124.021 281.873 125.269 281.705 126.901H290.957C290.885 125.269 290.465 124.021 289.697 123.157C288.953 122.269 287.897 121.825 286.529 121.825Z"/><path fill="#fff" d="M307.527 119.161C309.039 119.161 310.383 119.545 311.559 120.313C312.759 121.081 313.683 122.161 314.331 123.553C315.003 124.945 315.339 126.553 315.339 128.377C315.339 130.177 315.015 131.761 314.367 133.129C313.719 134.497 312.795 135.553 311.595 136.297C310.419 137.041 309.063 137.413 307.527 137.413C306.207 137.413 305.043 137.137 304.035 136.585C303.027 136.009 302.259 135.193 301.731 134.137V143.641H298.095V119.593H301.731V122.473C302.259 121.417 303.027 120.601 304.035 120.025C305.043 119.449 306.207 119.161 307.527 119.161ZM306.663 134.533C308.247 134.533 309.471 134.005 310.335 132.949C311.199 131.869 311.631 130.345 311.631 128.377C311.631 126.385 311.187 124.837 310.299 123.733C309.435 122.629 308.223 122.077 306.663 122.077C305.079 122.077 303.855 122.617 302.991 123.697C302.151 124.777 301.731 126.313 301.731 128.305C301.731 130.297 302.151 131.833 302.991 132.913C303.855 133.993 305.079 134.533 306.663 134.533Z"/><path fill="#fff" d="M326.997 137.413C325.269 137.413 323.745 137.041 322.425 136.297C321.129 135.553 320.121 134.497 319.401 133.129C318.705 131.737 318.357 130.129 318.357 128.305C318.357 126.457 318.705 124.849 319.401 123.481C320.121 122.089 321.129 121.021 322.425 120.277C323.745 119.533 325.269 119.161 326.997 119.161C328.725 119.161 330.237 119.533 331.533 120.277C332.853 121.021 333.861 122.089 334.557 123.481C335.277 124.849 335.637 126.457 335.637 128.305C335.637 130.129 335.277 131.737 334.557 133.129C333.861 134.497 332.853 135.553 331.533 136.297C330.237 137.041 328.725 137.413 326.997 137.413ZM326.997 134.533C328.605 134.533 329.829 134.005 330.669 132.949C331.533 131.893 331.965 130.345 331.965 128.305C331.965 126.289 331.533 124.753 330.669 123.697C329.805 122.617 328.581 122.077 326.997 122.077C325.413 122.077 324.189 122.617 323.325 123.697C322.461 124.753 322.029 126.289 322.029 128.305C322.029 130.345 322.449 131.893 323.289 132.949C324.153 134.005 325.389 134.533 326.997 134.533Z"/><path fill="#fff" d="M350.377 122.221L348.181 122.437C346.453 122.605 345.205 123.133 344.437 124.021C343.693 124.909 343.321 126.037 343.321 127.405V137.161H339.685V119.593H343.213V122.653C344.149 120.589 346.057 119.449 348.937 119.233L350.125 119.161L350.377 122.221Z"/><path fill="#fff" d="M362.696 134.605C363.248 134.605 363.788 134.569 364.316 134.497L364.136 137.269C363.536 137.365 362.912 137.413 362.264 137.413C359.984 137.413 358.28 136.861 357.152 135.757C356.048 134.629 355.496 133.009 355.496 130.897V122.401H352.076V119.593H355.496V114.301H359.132V119.593H363.956V122.401H359.132V130.753C359.132 133.321 360.32 134.605 362.696 134.605Z"/><path fill="#fff" d="M371.558 132.877V135.793C371.558 136.921 371.366 137.941 370.982 138.853C370.622 139.789 369.998 140.701 369.11 141.589L367.526 140.329C368.534 139.249 369.11 138.193 369.254 137.161H367.274V132.877H371.558Z"/><path fill="#fff" d="M394.488 137.449C392.52 137.449 390.708 137.185 389.052 136.657C387.42 136.129 386.016 135.349 384.84 134.317L386.172 131.581C387.42 132.589 388.704 133.321 390.024 133.777C391.368 134.209 392.868 134.425 394.524 134.425C396.42 134.425 397.884 134.077 398.916 133.381C399.948 132.661 400.464 131.653 400.464 130.357C400.464 129.253 399.984 128.437 399.024 127.909C398.064 127.357 396.528 126.841 394.416 126.361C392.4 125.929 390.744 125.437 389.448 124.885C388.152 124.333 387.132 123.589 386.388 122.653C385.668 121.693 385.308 120.481 385.308 119.017C385.308 117.529 385.692 116.221 386.46 115.093C387.252 113.965 388.368 113.089 389.808 112.465C391.248 111.817 392.916 111.493 394.812 111.493C396.588 111.493 398.256 111.769 399.816 112.321C401.4 112.849 402.696 113.617 403.704 114.625L402.408 117.361C401.232 116.401 400.02 115.693 398.772 115.237C397.548 114.757 396.24 114.517 394.848 114.517C393.024 114.517 391.584 114.901 390.528 115.669C389.496 116.413 388.98 117.457 388.98 118.801C388.98 119.953 389.436 120.829 390.348 121.429C391.26 122.005 392.724 122.533 394.74 123.013C396.852 123.493 398.556 123.997 399.852 124.525C401.172 125.029 402.216 125.737 402.984 126.649C403.776 127.537 404.172 128.701 404.172 130.141C404.172 131.605 403.776 132.889 402.984 133.993C402.216 135.097 401.1 135.949 399.636 136.549C398.196 137.149 396.48 137.449 394.488 137.449Z"/><path fill="#fff" d="M428.47 119.161C432.406 119.161 434.374 121.525 434.374 126.253V137.161H430.738V126.397C430.738 124.909 430.474 123.829 429.946 123.157C429.442 122.461 428.614 122.113 427.462 122.113C426.142 122.113 425.098 122.569 424.33 123.481C423.562 124.393 423.178 125.641 423.178 127.225V137.161H419.542V126.397C419.542 124.909 419.278 123.829 418.75 123.157C418.222 122.461 417.394 122.113 416.266 122.113C414.922 122.113 413.866 122.569 413.098 123.481C412.33 124.393 411.946 125.641 411.946 127.225V137.161H408.31V119.593H411.874V122.257C412.426 121.273 413.17 120.517 414.106 119.989C415.042 119.437 416.11 119.161 417.31 119.161C420.022 119.161 421.786 120.289 422.602 122.545C423.154 121.489 423.946 120.661 424.978 120.061C426.01 119.461 427.174 119.161 428.47 119.161Z"/><path fill="#fff" d="M446.697 119.161C449.049 119.161 450.789 119.749 451.917 120.925C453.069 122.101 453.645 123.889 453.645 126.289V137.161H450.153V134.245C449.697 135.277 449.013 136.069 448.101 136.621C447.213 137.149 446.169 137.413 444.969 137.413C443.817 137.413 442.761 137.185 441.801 136.729C440.841 136.249 440.085 135.589 439.533 134.749C439.005 133.909 438.741 132.973 438.741 131.941C438.741 130.669 439.065 129.673 439.713 128.953C440.385 128.209 441.477 127.681 442.989 127.369C444.525 127.057 446.625 126.901 449.289 126.901H450.117V125.857C450.117 124.513 449.829 123.541 449.253 122.941C448.701 122.341 447.789 122.041 446.517 122.041C444.525 122.041 442.533 122.653 440.541 123.877L439.461 121.321C440.397 120.673 441.525 120.157 442.845 119.773C444.189 119.365 445.473 119.161 446.697 119.161ZM445.617 134.713C446.937 134.713 448.017 134.269 448.857 133.381C449.697 132.469 450.117 131.305 450.117 129.889V128.953H449.469C447.597 128.953 446.157 129.037 445.149 129.205C444.141 129.373 443.421 129.661 442.989 130.069C442.557 130.453 442.341 131.017 442.341 131.761C442.341 132.601 442.641 133.309 443.241 133.885C443.865 134.437 444.657 134.713 445.617 134.713Z"/><path fill="#fff" d="M469.311 122.221L467.115 122.437C465.387 122.605 464.139 123.133 463.371 124.021C462.627 124.909 462.255 126.037 462.255 127.405V137.161H458.619V119.593H462.147V122.653C463.083 120.589 464.991 119.449 467.871 119.233L469.059 119.161L469.311 122.221Z"/><path fill="#fff" d="M481.63 134.605C482.182 134.605 482.722 134.569 483.25 134.497L483.07 137.269C482.47 137.365 481.846 137.413 481.198 137.413C478.918 137.413 477.214 136.861 476.086 135.757C474.982 134.629 474.43 133.009 474.43 130.897V122.401H471.01V119.593H474.43V114.301H478.066V119.593H482.89V122.401H478.066V130.753C478.066 133.321 479.254 134.605 481.63 134.605Z"/><path fill="#fff" d="M501.053 128.989H488.633C488.897 132.709 490.745 134.569 494.177 134.569C496.193 134.569 498.017 133.909 499.649 132.589L500.765 135.145C499.949 135.841 498.941 136.393 497.741 136.801C496.541 137.209 495.317 137.413 494.069 137.413C491.261 137.413 489.041 136.609 487.409 135.001C485.801 133.393 484.997 131.173 484.997 128.341C484.997 126.541 485.345 124.945 486.041 123.553C486.761 122.161 487.757 121.081 489.029 120.313C490.325 119.545 491.789 119.161 493.421 119.161C495.797 119.161 497.657 119.929 499.001 121.465C500.369 123.001 501.053 125.125 501.053 127.837V128.989ZM493.493 121.825C492.101 121.825 490.985 122.269 490.145 123.157C489.329 124.021 488.837 125.269 488.669 126.901H497.921C497.849 125.269 497.429 124.021 496.661 123.157C495.917 122.269 494.861 121.825 493.493 121.825Z"/><path fill="#fff" d="M515.752 122.221L513.556 122.437C511.828 122.605 510.58 123.133 509.812 124.021C509.068 124.909 508.696 126.037 508.696 127.405V137.161H505.06V119.593H508.588V122.653C509.524 120.589 511.432 119.449 514.312 119.233L515.5 119.161L515.752 122.221Z"/><path fill="#fff" d="M548.184 111.781L538.068 125.317V137.161H534.36V125.317L524.244 111.781H528.492L536.232 122.257L543.972 111.781H548.184Z"/><path fill="#fff" d="M554.598 137.413C552.87 137.413 551.346 137.041 550.026 136.297C548.73 135.553 547.722 134.497 547.002 133.129C546.306 131.737 545.958 130.129 545.958 128.305C545.958 126.457 546.306 124.849 547.002 123.481C547.722 122.089 548.73 121.021 550.026 120.277C551.346 119.533 552.87 119.161 554.598 119.161C556.326 119.161 557.838 119.533 559.134 120.277C560.454 121.021 561.462 122.089 562.158 123.481C562.878 124.849 563.238 126.457 563.238 128.305C563.238 130.129 562.878 131.737 562.158 133.129C561.462 134.497 560.454 135.553 559.134 136.297C557.838 137.041 556.326 137.413 554.598 137.413ZM554.598 134.533C556.206 134.533 557.43 134.005 558.27 132.949C559.134 131.893 559.566 130.345 559.566 128.305C559.566 126.289 559.134 124.753 558.27 123.697C557.406 122.617 556.182 122.077 554.598 122.077C553.014 122.077 551.79 122.617 550.926 123.697C550.062 124.753 549.63 126.289 549.63 128.305C549.63 130.345 550.05 131.893 550.89 132.949C551.754 134.005 552.99 134.533 554.598 134.533Z"/><path fill="#fff" d="M582.695 119.593V137.161H579.167V134.317C578.615 135.325 577.847 136.093 576.863 136.621C575.903 137.149 574.823 137.413 573.623 137.413C569.351 137.413 567.215 135.061 567.215 130.357V119.593H570.851V130.321C570.851 131.737 571.139 132.781 571.715 133.453C572.291 134.125 573.179 134.461 574.379 134.461C575.795 134.461 576.923 134.005 577.763 133.093C578.627 132.181 579.059 130.969 579.059 129.457V119.593H582.695Z"/><path fill="#fff" d="M152.886 48.4329C153.018 39.7031 157.781 35.8673 163.601 35.8673C170.084 35.8673 174.184 39.7031 174.184 48.8297V73.2994H185.032V48.8297C185.032 35.6028 179.608 27.0053 166.247 27.0053C160.162 27.0053 155.135 30.312 152.886 34.5446V28.4602H141.906V73.2994H152.886V48.4329ZM195.762 56.1045C195.762 65.6278 197.482 73.1672 206.08 73.8285C207.006 73.9608 207.932 73.9608 208.991 73.9608C210.446 73.8285 211.769 73.4317 213.621 72.6381L212.827 65.231C212.43 65.231 212.166 65.3633 211.901 65.3633C207.139 65.3633 206.61 62.4534 206.61 56.1045V28.4602H195.762V56.1045ZM201.318 8.35535C197.482 8.35535 194.571 11.3975 194.571 15.2333C194.571 18.9369 197.482 21.9791 201.318 21.9791C205.154 21.9791 208.197 18.9369 208.197 15.2333C208.197 11.3975 205.154 8.35535 201.318 8.35535ZM231.303 48.4329C231.303 39.4386 235.933 35.9996 241.754 35.9996C243.341 35.9996 244.929 36.3964 246.384 36.9255L250.881 28.0634C249.029 27.4021 246.913 27.0053 244.664 27.0053C238.579 27.0053 233.552 30.312 231.303 34.5446V28.4602H220.455V73.2994H231.303V48.4329ZM275.213 74.7544C291.22 74.7544 299.422 63.5115 299.422 50.8137C299.422 38.1159 291.22 27.0053 275.213 27.0053C259.339 27.0053 251.137 38.2481 251.137 50.8137C251.137 63.3793 259.339 74.7544 275.213 74.7544ZM275.213 66.9505C267.673 66.9505 261.984 60.6016 261.984 50.8137C261.984 41.2903 267.805 34.9414 275.213 34.9414C282.753 34.9414 288.574 41.2903 288.574 50.8137C288.574 60.6016 282.753 66.9505 275.213 66.9505ZM306.174 51.2105C306.174 63.7761 314.64 75.1512 328.133 75.1512C334.88 75.1512 340.304 71.5799 343.611 66.1569V74.3576C343.611 84.2778 336.467 89.4363 327.34 89.4363C320.593 89.4363 315.169 86.5264 311.201 80.8388L305.248 85.7327C310.01 94.3302 319.402 97.5047 328.662 97.5047C344.14 97.5047 354.459 88.3781 354.459 73.9608V28.4602H343.611V36.1318C340.304 30.5765 335.012 27.0053 328.001 27.0053C314.64 27.0053 306.174 38.645 306.174 51.2105ZM317.021 51.0782C317.021 43.1421 322.577 36.3964 330.25 36.3964C338.055 36.3964 343.611 43.2744 343.611 51.0782C343.611 59.0144 338.187 65.6278 330.25 65.6278C322.577 65.6278 317.021 59.2789 317.021 51.0782ZM363.791 51.2105C363.791 63.7761 372.257 75.1512 385.751 75.1512C392.497 75.1512 397.921 71.5799 401.228 66.1569V74.3576C401.228 84.2778 394.085 89.4363 384.957 89.4363C378.21 89.4363 372.786 86.5264 368.818 80.8388L362.865 85.7327C367.627 94.3302 377.02 97.5047 386.28 97.5047C401.757 97.5047 412.076 88.3781 412.076 73.9608V28.4602H401.228V36.1318C397.921 30.5765 392.63 27.0053 385.618 27.0053C372.257 27.0053 363.791 38.645 363.791 51.2105ZM374.638 51.0782C374.638 43.1421 380.194 36.3964 387.867 36.3964C395.672 36.3964 401.228 43.2744 401.228 51.0782C401.228 59.0144 395.804 65.6278 387.867 65.6278C380.194 65.6278 374.638 59.2789 374.638 51.0782ZM469.297 28.4602H457.391L444.03 57.4272L431.066 28.4602H419.16L438.209 68.67L424.054 97.1079H435.431L469.297 28.4602ZM470.367 51.2105C470.367 63.7761 478.836 75.1512 492.459 75.1512C499.207 75.1512 504.632 71.5799 507.806 66.1569V73.2994H518.522V28.4602H507.806V36.1318C504.499 30.5765 499.207 27.0053 492.326 27.0053C478.964 27.0053 470.367 38.645 470.367 51.2105ZM481.348 51.0782C481.348 43.1421 486.773 36.3964 494.577 36.3964C502.381 36.3964 507.673 43.2744 507.673 51.0782C507.673 58.8821 502.381 65.6278 494.577 65.6278C486.773 65.6278 481.348 59.2789 481.348 51.0782ZM541.613 48.4329C541.741 39.7031 546.504 35.8673 552.324 35.8673C558.81 35.8673 562.907 39.7031 562.907 48.8297V73.2994H573.757V48.8297C573.757 35.6028 568.332 27.0053 554.97 27.0053C548.888 27.0053 543.859 30.312 541.613 34.5446V28.4602H530.63V73.2994H541.613V48.4329Z"/></svg>