<svg width="246" height="71" viewBox="0 0 246 71" fill="none" xmlns="http://www.w3.org/2000/svg">
<path d="M20.0923 22.7576V45.5149C8.99818 45.5149 0 35.3232 0 22.7576H20.0923Z" fill="#D6D6D6"/>
<path d="M20.0923 22.7577H0V0.000244141C11.0941 0.000244141 20.0923 10.192 20.0923 22.7577Z" fill="white"/>
<path d="M40.1822 22.7576C40.1822 35.3232 31.1839 45.5149 20.0898 45.5149C20.0898 32.9493 29.0879 22.7576 40.1822 22.7576Z" fill="white"/>
<path d="M40.1822 22.7574C29.0879 22.7574 20.0898 12.5657 20.0898 0C31.1839 0 40.1822 10.1917 40.1822 22.7574Z" fill="#D6D6D6"/>
<path d="M56.8091 61.1812C56.0344 61.1812 55.3251 61.0832 54.6811 60.8872C54.0371 60.6818 53.4911 60.3972 53.0431 60.0332L53.5051 58.8852C53.9718 59.2398 54.4711 59.5058 55.0031 59.6832C55.5351 59.8605 56.1371 59.9492 56.8091 59.9492C57.6024 59.9492 58.1858 59.8092 58.5591 59.5292C58.9418 59.2398 59.1331 58.8665 59.1331 58.4092C59.1331 58.0358 58.9978 57.7418 58.7271 57.5272C58.4564 57.3032 58.0038 57.1258 57.3691 56.9952L55.8711 56.6872C54.9844 56.5005 54.3218 56.1925 53.8831 55.7632C53.4538 55.3338 53.2391 54.7552 53.2391 54.0272C53.2391 53.4392 53.3931 52.9212 53.7011 52.4732C54.0184 52.0252 54.4571 51.6798 55.0171 51.4372C55.5771 51.1852 56.2211 51.0592 56.9491 51.0592C57.6211 51.0592 58.2418 51.1618 58.8111 51.3672C59.3898 51.5632 59.8798 51.8525 60.2811 52.2352L59.8051 53.3412C59.0118 52.6412 58.0551 52.2912 56.9351 52.2912C56.2444 52.2912 55.6938 52.4452 55.2831 52.7532C54.8818 53.0612 54.6811 53.4718 54.6811 53.9852C54.6811 54.3772 54.8071 54.6898 55.0591 54.9232C55.3111 55.1565 55.7311 55.3338 56.3191 55.4552L57.8031 55.7632C58.7364 55.9592 59.4318 56.2625 59.8891 56.6732C60.3464 57.0745 60.5751 57.6205 60.5751 58.3112C60.5751 58.8898 60.4211 59.3938 60.1131 59.8232C59.8051 60.2525 59.3711 60.5885 58.8111 60.8312C58.2511 61.0645 57.5838 61.1812 56.8091 61.1812ZM62.1021 61.0552V54.2232H63.4741V55.3292C63.6794 54.9372 63.9641 54.6338 64.3281 54.4192C64.6921 54.2045 65.1167 54.0972 65.6021 54.0972C66.6474 54.0972 67.3241 54.5545 67.6321 55.4692C67.8467 55.0398 68.1547 54.7038 68.5561 54.4612C68.9574 54.2185 69.4147 54.0972 69.9281 54.0972C71.4587 54.0972 72.2241 55.0118 72.2241 56.8412V61.0552H70.8101V56.9112C70.8101 56.3325 70.7074 55.9078 70.5021 55.6372C70.3061 55.3665 69.9794 55.2312 69.5221 55.2312C69.0087 55.2312 68.6027 55.4132 68.3041 55.7772C68.0054 56.1318 67.8561 56.6172 67.8561 57.2332V61.0552H66.4421V56.9112C66.4421 56.3325 66.3441 55.9078 66.1481 55.6372C65.9521 55.3665 65.6254 55.2312 65.1681 55.2312C64.6547 55.2312 64.2487 55.4132 63.9501 55.7772C63.6607 56.1318 63.5161 56.6172 63.5161 57.2332V61.0552H62.1021ZM76.385 61.1812C75.909 61.1812 75.4844 61.0878 75.111 60.9012C74.7377 60.7145 74.439 60.4625 74.215 60.1452C74.0004 59.8278 73.893 59.4685 73.893 59.0672C73.893 58.5632 74.019 58.1665 74.271 57.8772C74.5324 57.5878 74.957 57.3778 75.545 57.2472C76.1424 57.1165 76.945 57.0512 77.953 57.0512H78.429V56.6872C78.429 56.1552 78.317 55.7725 78.093 55.5392C77.869 55.3058 77.5004 55.1892 76.987 55.1892C76.595 55.1892 76.203 55.2498 75.811 55.3712C75.419 55.4832 75.0177 55.6652 74.607 55.9172L74.173 54.9232C74.5277 54.6712 74.971 54.4705 75.503 54.3212C76.035 54.1718 76.5437 54.0972 77.029 54.0972C77.9624 54.0972 78.653 54.3212 79.101 54.7692C79.549 55.2078 79.773 55.8985 79.773 56.8412V61.0552H78.443V59.9212C78.275 60.3132 78.0137 60.6212 77.659 60.8452C77.3044 61.0692 76.8797 61.1812 76.385 61.1812ZM76.665 60.1732C77.169 60.1732 77.589 59.9958 77.925 59.6412C78.261 59.2865 78.429 58.8385 78.429 58.2972V57.9192H77.967C77.2857 57.9192 76.749 57.9518 76.357 58.0172C75.9744 58.0825 75.699 58.1945 75.531 58.3532C75.3724 58.5025 75.293 58.7125 75.293 58.9832C75.293 59.3378 75.4144 59.6272 75.657 59.8512C75.8997 60.0658 76.2357 60.1732 76.665 60.1732ZM81.7206 61.0552V54.2232H83.0926V55.4412C83.4472 54.6292 84.1846 54.1765 85.3046 54.0832L85.7666 54.0552L85.8646 55.2592L85.0106 55.3432C83.7692 55.4645 83.1486 56.1038 83.1486 57.2612V61.0552H81.7206ZM90.238 61.1812C89.3794 61.1812 88.74 60.9618 88.32 60.5232C87.9 60.0845 87.69 59.4498 87.69 58.6192V55.3152H86.36V54.2232H87.69V52.1652H89.104V54.2232H91.218V55.3152H89.104V58.5072C89.104 59.0018 89.2067 59.3752 89.412 59.6272C89.6267 59.8792 89.972 60.0052 90.448 60.0052C90.5974 60.0052 90.742 59.9912 90.882 59.9632C91.022 59.9258 91.162 59.8838 91.302 59.8372L91.526 60.9012C91.386 60.9852 91.19 61.0505 90.938 61.0972C90.6954 61.1532 90.462 61.1812 90.238 61.1812ZM92.5933 61.0552V51.1852H96.6813C97.7453 51.1852 98.5666 51.4418 99.1453 51.9552C99.724 52.4592 100.013 53.1685 100.013 54.0832C100.013 54.8205 99.8173 55.4272 99.4253 55.9032C99.0333 56.3698 98.478 56.6825 97.7593 56.8412C98.2073 56.9905 98.5853 57.3498 98.8933 57.9192L100.601 61.0552H99.0053L97.2973 57.9052C97.1013 57.5412 96.8726 57.2985 96.6113 57.1772C96.3593 57.0465 96.0326 56.9812 95.6313 56.9812H94.0493V61.0552H92.5933ZM94.0493 55.8892H96.4433C97.8806 55.8892 98.5993 55.2965 98.5993 54.1112C98.5993 52.9352 97.8806 52.3472 96.4433 52.3472H94.0493V55.8892ZM104.956 61.1812C103.836 61.1812 102.954 60.8685 102.31 60.2432C101.666 59.6085 101.344 58.7452 101.344 57.6532C101.344 56.9532 101.484 56.3372 101.764 55.8052C102.053 55.2638 102.45 54.8438 102.954 54.5452C103.458 54.2465 104.037 54.0972 104.69 54.0972C105.633 54.0972 106.375 54.4005 106.916 55.0072C107.457 55.6045 107.728 56.4305 107.728 57.4852V57.9612H102.716C102.819 59.3798 103.57 60.0892 104.97 60.0892C105.362 60.0892 105.745 60.0285 106.118 59.9072C106.501 59.7858 106.86 59.5852 107.196 59.3052L107.616 60.2852C107.308 60.5652 106.911 60.7845 106.426 60.9432C105.941 61.1018 105.451 61.1812 104.956 61.1812ZM104.746 55.0912C104.158 55.0912 103.691 55.2732 103.346 55.6372C103.001 56.0012 102.791 56.4865 102.716 57.0932H106.538C106.51 56.4585 106.342 55.9685 106.034 55.6232C105.726 55.2685 105.297 55.0912 104.746 55.0912ZM109.269 63.5752V54.2232H110.655V55.3852C110.851 54.9932 111.15 54.6805 111.551 54.4472C111.953 54.2138 112.415 54.0972 112.937 54.0972C113.544 54.0972 114.071 54.2418 114.519 54.5312C114.977 54.8205 115.327 55.2312 115.569 55.7632C115.821 56.2858 115.947 56.9112 115.947 57.6392C115.947 58.3672 115.821 58.9972 115.569 59.5292C115.327 60.0612 114.977 60.4718 114.519 60.7612C114.071 61.0412 113.544 61.1812 112.937 61.1812C112.433 61.1812 111.981 61.0738 111.579 60.8592C111.187 60.6352 110.889 60.3318 110.683 59.9492V63.5752H109.269ZM112.587 60.0892C113.175 60.0892 113.642 59.8792 113.987 59.4592C114.342 59.0392 114.519 58.4325 114.519 57.6392C114.519 56.8458 114.342 56.2438 113.987 55.8332C113.642 55.4132 113.175 55.2032 112.587 55.2032C111.999 55.2032 111.528 55.4132 111.173 55.8332C110.828 56.2438 110.655 56.8458 110.655 57.6392C110.655 58.4325 110.828 59.0392 111.173 59.4592C111.528 59.8792 111.999 60.0892 112.587 60.0892ZM120.509 61.1812C119.818 61.1812 119.221 61.0365 118.717 60.7472C118.213 60.4578 117.821 60.0518 117.541 59.5292C117.27 58.9972 117.135 58.3672 117.135 57.6392C117.135 56.9112 117.27 56.2858 117.541 55.7632C117.821 55.2312 118.213 54.8205 118.717 54.5312C119.221 54.2418 119.818 54.0972 120.509 54.0972C121.181 54.0972 121.769 54.2418 122.273 54.5312C122.777 54.8205 123.169 55.2312 123.449 55.7632C123.729 56.2858 123.869 56.9112 123.869 57.6392C123.869 58.3672 123.729 58.9972 123.449 59.5292C123.169 60.0518 122.777 60.4578 122.273 60.7472C121.769 61.0365 121.181 61.1812 120.509 61.1812ZM120.509 60.0892C121.088 60.0892 121.554 59.8792 121.909 59.4592C122.264 59.0392 122.441 58.4325 122.441 57.6392C122.441 56.8458 122.264 56.2438 121.909 55.8332C121.554 55.4132 121.088 55.2032 120.509 55.2032C119.921 55.2032 119.45 55.4132 119.095 55.8332C118.74 56.2438 118.563 56.8458 118.563 57.6392C118.563 58.4325 118.74 59.0392 119.095 59.4592C119.45 59.8792 119.921 60.0892 120.509 60.0892ZM125.457 61.0552V54.2232H126.829V55.4412C127.184 54.6292 127.921 54.1765 129.041 54.0832L129.503 54.0552L129.601 55.2592L128.747 55.3432C127.506 55.4645 126.885 56.1038 126.885 57.2612V61.0552H125.457ZM133.974 61.1812C133.116 61.1812 132.476 60.9618 132.056 60.5232C131.636 60.0845 131.426 59.4498 131.426 58.6192V55.3152H130.096V54.2232H131.426V52.1652H132.84V54.2232H134.954V55.3152H132.84V58.5072C132.84 59.0018 132.943 59.3752 133.148 59.6272C133.363 59.8792 133.708 60.0052 134.184 60.0052C134.334 60.0052 134.478 59.9912 134.618 59.9632C134.758 59.9258 134.898 59.8838 135.038 59.8372L135.262 60.9012C135.122 60.9852 134.926 61.0505 134.674 61.0972C134.432 61.1532 134.198 61.1812 133.974 61.1812ZM138.57 61.1812C138.01 61.1812 137.487 61.1112 137.002 60.9712C136.516 60.8218 136.11 60.6165 135.784 60.3552L136.19 59.4032C136.535 59.6458 136.913 59.8325 137.324 59.9632C137.744 60.0938 138.164 60.1592 138.584 60.1592C139.078 60.1592 139.452 60.0705 139.704 59.8932C139.956 59.7158 140.082 59.4778 140.082 59.1792C140.082 58.9365 139.998 58.7498 139.83 58.6192C139.662 58.4792 139.41 58.3718 139.074 58.2972L137.744 58.0312C136.568 57.7885 135.98 57.1818 135.98 56.2112C135.98 55.5672 136.236 55.0538 136.75 54.6712C137.263 54.2885 137.935 54.0972 138.766 54.0972C139.242 54.0972 139.694 54.1672 140.124 54.3072C140.562 54.4472 140.926 54.6572 141.216 54.9372L140.81 55.8892C140.53 55.6465 140.208 55.4598 139.844 55.3292C139.48 55.1985 139.12 55.1332 138.766 55.1332C138.28 55.1332 137.912 55.2265 137.66 55.4132C137.408 55.5905 137.282 55.8332 137.282 56.1412C137.282 56.6078 137.59 56.9065 138.206 57.0372L139.536 57.3032C140.142 57.4245 140.6 57.6298 140.908 57.9192C141.225 58.2085 141.384 58.6005 141.384 59.0952C141.384 59.7485 141.127 60.2618 140.614 60.6352C140.1 60.9992 139.419 61.1812 138.57 61.1812ZM143.435 62.7772L142.819 62.3012C143.033 62.0678 143.192 61.8532 143.295 61.6572C143.397 61.4612 143.463 61.2605 143.491 61.0552H142.721V59.3892H144.387V60.5232C144.387 60.9525 144.317 61.3445 144.177 61.6992C144.037 62.0632 143.789 62.4225 143.435 62.7772ZM153.333 61.1812C152.558 61.1812 151.849 61.0832 151.205 60.8872C150.561 60.6818 150.015 60.3972 149.567 60.0332L150.029 58.8852C150.495 59.2398 150.995 59.5058 151.527 59.6832C152.059 59.8605 152.661 59.9492 153.333 59.9492C154.126 59.9492 154.709 59.8092 155.083 59.5292C155.465 59.2398 155.657 58.8665 155.657 58.4092C155.657 58.0358 155.521 57.7418 155.251 57.5272C154.98 57.3032 154.527 57.1258 153.893 56.9952L152.395 56.6872C151.508 56.5005 150.845 56.1925 150.407 55.7632C149.977 55.3338 149.763 54.7552 149.763 54.0272C149.763 53.4392 149.917 52.9212 150.225 52.4732C150.542 52.0252 150.981 51.6798 151.541 51.4372C152.101 51.1852 152.745 51.0592 153.473 51.0592C154.145 51.0592 154.765 51.1618 155.335 51.3672C155.913 51.5632 156.403 51.8525 156.805 52.2352L156.329 53.3412C155.535 52.6412 154.579 52.2912 153.459 52.2912C152.768 52.2912 152.217 52.4452 151.807 52.7532C151.405 53.0612 151.205 53.4718 151.205 53.9852C151.205 54.3772 151.331 54.6898 151.583 54.9232C151.835 55.1565 152.255 55.3338 152.843 55.4552L154.327 55.7632C155.26 55.9592 155.955 56.2625 156.413 56.6732C156.87 57.0745 157.099 57.6205 157.099 58.3112C157.099 58.8898 156.945 59.3938 156.637 59.8232C156.329 60.2525 155.895 60.5885 155.335 60.8312C154.775 61.0645 154.107 61.1812 153.333 61.1812ZM158.626 61.0552V54.2232H159.998V55.3292C160.203 54.9372 160.488 54.6338 160.852 54.4192C161.216 54.2045 161.64 54.0972 162.126 54.0972C163.171 54.0972 163.848 54.5545 164.156 55.4692C164.37 55.0398 164.678 54.7038 165.08 54.4612C165.481 54.2185 165.938 54.0972 166.452 54.0972C167.982 54.0972 168.748 55.0118 168.748 56.8412V61.0552H167.334V56.9112C167.334 56.3325 167.231 55.9078 167.026 55.6372C166.83 55.3665 166.503 55.2312 166.046 55.2312C165.532 55.2312 165.126 55.4132 164.828 55.7772C164.529 56.1318 164.38 56.6172 164.38 57.2332V61.0552H162.966V56.9112C162.966 56.3325 162.868 55.9078 162.672 55.6372C162.476 55.3665 162.149 55.2312 161.692 55.2312C161.178 55.2312 160.772 55.4132 160.474 55.7772C160.184 56.1318 160.04 56.6172 160.04 57.2332V61.0552H158.626ZM172.908 61.1812C172.432 61.1812 172.008 61.0878 171.634 60.9012C171.261 60.7145 170.962 60.4625 170.738 60.1452C170.524 59.8278 170.416 59.4685 170.416 59.0672C170.416 58.5632 170.542 58.1665 170.794 57.8772C171.056 57.5878 171.48 57.3778 172.068 57.2472C172.666 57.1165 173.468 57.0512 174.476 57.0512H174.952V56.6872C174.952 56.1552 174.84 55.7725 174.616 55.5392C174.392 55.3058 174.024 55.1892 173.51 55.1892C173.118 55.1892 172.726 55.2498 172.334 55.3712C171.942 55.4832 171.541 55.6652 171.13 55.9172L170.696 54.9232C171.051 54.6712 171.494 54.4705 172.026 54.3212C172.558 54.1718 173.067 54.0972 173.552 54.0972C174.486 54.0972 175.176 54.3212 175.624 54.7692C176.072 55.2078 176.296 55.8985 176.296 56.8412V61.0552H174.966V59.9212C174.798 60.3132 174.537 60.6212 174.182 60.8452C173.828 61.0692 173.403 61.1812 172.908 61.1812ZM173.188 60.1732C173.692 60.1732 174.112 59.9958 174.448 59.6412C174.784 59.2865 174.952 58.8385 174.952 58.2972V57.9192H174.49C173.809 57.9192 173.272 57.9518 172.88 58.0172C172.498 58.0825 172.222 58.1945 172.054 58.3532C171.896 58.5025 171.816 58.7125 171.816 58.9832C171.816 59.3378 171.938 59.6272 172.18 59.8512C172.423 60.0658 172.759 60.1732 173.188 60.1732ZM178.244 61.0552V54.2232H179.616V55.4412C179.971 54.6292 180.708 54.1765 181.828 54.0832L182.29 54.0552L182.388 55.2592L181.534 55.3432C180.293 55.4645 179.672 56.1038 179.672 57.2612V61.0552H178.244ZM186.761 61.1812C185.903 61.1812 185.263 60.9618 184.843 60.5232C184.423 60.0845 184.213 59.4498 184.213 58.6192V55.3152H182.883V54.2232H184.213V52.1652H185.627V54.2232H187.741V55.3152H185.627V58.5072C185.627 59.0018 185.73 59.3752 185.935 59.6272C186.15 59.8792 186.495 60.0052 186.971 60.0052C187.121 60.0052 187.265 59.9912 187.405 59.9632C187.545 59.9258 187.685 59.8838 187.825 59.8372L188.049 60.9012C187.909 60.9852 187.713 61.0505 187.461 61.0972C187.219 61.1532 186.985 61.1812 186.761 61.1812ZM192.1 61.1812C190.98 61.1812 190.098 60.8685 189.454 60.2432C188.81 59.6085 188.488 58.7452 188.488 57.6532C188.488 56.9532 188.628 56.3372 188.908 55.8052C189.198 55.2638 189.594 54.8438 190.098 54.5452C190.602 54.2465 191.181 54.0972 191.834 54.0972C192.777 54.0972 193.519 54.4005 194.06 55.0072C194.602 55.6045 194.872 56.4305 194.872 57.4852V57.9612H189.86C189.963 59.3798 190.714 60.0892 192.114 60.0892C192.506 60.0892 192.889 60.0285 193.262 59.9072C193.645 59.7858 194.004 59.5852 194.34 59.3052L194.76 60.2852C194.452 60.5652 194.056 60.7845 193.57 60.9432C193.085 61.1018 192.595 61.1812 192.1 61.1812ZM191.89 55.0912C191.302 55.0912 190.836 55.2732 190.49 55.6372C190.145 56.0012 189.935 56.4865 189.86 57.0932H193.682C193.654 56.4585 193.486 55.9685 193.178 55.6232C192.87 55.2685 192.441 55.0912 191.89 55.0912ZM196.414 61.0552V54.2232H197.786V55.4412C198.141 54.6292 198.878 54.1765 199.998 54.0832L200.46 54.0552L200.558 55.2592L199.704 55.3432C198.463 55.4645 197.842 56.1038 197.842 57.2612V61.0552H196.414ZM207.834 61.0552V56.4492L204.054 51.1852H205.734L208.59 55.1752L211.446 51.1852H213.056L209.276 56.4632V61.0552H207.834ZM215.638 61.1812C214.947 61.1812 214.35 61.0365 213.846 60.7472C213.342 60.4578 212.95 60.0518 212.67 59.5292C212.399 58.9972 212.264 58.3672 212.264 57.6392C212.264 56.9112 212.399 56.2858 212.67 55.7632C212.95 55.2312 213.342 54.8205 213.846 54.5312C214.35 54.2418 214.947 54.0972 215.638 54.0972C216.31 54.0972 216.898 54.2418 217.402 54.5312C217.906 54.8205 218.298 55.2312 218.578 55.7632C218.858 56.2858 218.998 56.9112 218.998 57.6392C218.998 58.3672 218.858 58.9972 218.578 59.5292C218.298 60.0518 217.906 60.4578 217.402 60.7472C216.898 61.0365 216.31 61.1812 215.638 61.1812ZM215.638 60.0892C216.216 60.0892 216.683 59.8792 217.038 59.4592C217.392 59.0392 217.57 58.4325 217.57 57.6392C217.57 56.8458 217.392 56.2438 217.038 55.8332C216.683 55.4132 216.216 55.2032 215.638 55.2032C215.05 55.2032 214.578 55.4132 214.224 55.8332C213.869 56.2438 213.692 56.8458 213.692 57.6392C213.692 58.4325 213.869 59.0392 214.224 59.4592C214.578 59.8792 215.05 60.0892 215.638 60.0892ZM223.022 61.1812C221.37 61.1812 220.544 60.2618 220.544 58.4232V54.2232H221.958V58.4372C221.958 58.9878 222.07 59.3938 222.294 59.6552C222.518 59.9165 222.872 60.0472 223.358 60.0472C223.89 60.0472 224.319 59.8698 224.646 59.5152C224.982 59.1605 225.15 58.6845 225.15 58.0872V54.2232H226.564V61.0552H225.192V59.9632C224.968 60.3645 224.669 60.6678 224.296 60.8732C223.922 61.0785 223.498 61.1812 223.022 61.1812Z" fill="white"/>
<path d="M57.152 21.5935C57.2096 17.2895 59.2832 15.3983 61.8176 15.3983C64.6401 15.3983 66.4257 17.2895 66.4257 21.7891V33.8534H71.149V21.7891C71.149 15.2679 68.7873 11.0291 62.9696 11.0291C60.32 11.0291 58.1312 12.6594 57.152 14.7462V11.7465H52.3711V33.8534H57.152V21.5935ZM75.821 25.3758C75.821 30.0711 76.5698 33.7881 80.3139 34.1142C80.7171 34.1794 81.1201 34.1794 81.5811 34.1794C82.2147 34.1142 82.7907 33.9186 83.5971 33.5273L83.2515 29.8754C83.0787 29.8754 82.9635 29.9406 82.8483 29.9406C80.7747 29.9406 80.5443 28.506 80.5443 25.3758V11.7465H75.821V25.3758ZM78.2403 1.83423C76.5698 1.83423 75.3026 3.33411 75.3026 5.22526C75.3026 7.05119 76.5698 8.55107 78.2403 8.55107C79.9107 8.55107 81.2355 7.05119 81.2355 5.22526C81.2355 3.33411 79.9107 1.83423 78.2403 1.83423ZM91.2962 21.5935C91.2962 17.1591 93.3123 15.4635 95.8467 15.4635C96.5379 15.4635 97.2291 15.6592 97.8627 15.92L99.8212 11.5508C99.0147 11.2248 98.0931 11.0291 97.1139 11.0291C94.4643 11.0291 92.2755 12.6594 91.2962 14.7462V11.7465H86.573V33.8534H91.2962V21.5935ZM110.416 34.5707C117.385 34.5707 120.957 29.0277 120.957 22.7673C120.957 16.5069 117.385 11.0291 110.416 11.0291C103.504 11.0291 99.9324 16.5722 99.9324 22.7673C99.9324 28.9624 103.504 34.5707 110.416 34.5707ZM110.416 30.7232C107.132 30.7232 104.656 27.593 104.656 22.7673C104.656 18.072 107.19 14.9419 110.416 14.9419C113.699 14.9419 116.233 18.072 116.233 22.7673C116.233 27.593 113.699 30.7232 110.416 30.7232ZM123.896 22.9629C123.896 29.1581 127.583 34.7663 133.458 34.7663C136.396 34.7663 138.758 33.0056 140.198 30.3319V34.375C140.198 39.266 137.087 41.8092 133.113 41.8092C130.175 41.8092 127.813 40.3746 126.085 37.5704L123.493 39.9833C125.567 44.2221 129.657 45.7872 133.689 45.7872C140.428 45.7872 144.921 41.2875 144.921 34.1794V11.7465H140.198V15.5288C138.758 12.7899 136.453 11.0291 133.401 11.0291C127.583 11.0291 123.896 16.7678 123.896 22.9629ZM128.62 22.8977C128.62 18.985 131.039 15.6592 134.38 15.6592C137.778 15.6592 140.198 19.0502 140.198 22.8977C140.198 26.8104 137.836 30.0711 134.38 30.0711C131.039 30.0711 128.62 26.9409 128.62 22.8977ZM148.984 22.9629C148.984 29.1581 152.671 34.7663 158.546 34.7663C161.484 34.7663 163.845 33.0056 165.285 30.3319V34.375C165.285 39.266 162.175 41.8092 158.2 41.8092C155.263 41.8092 152.901 40.3746 151.173 37.5704L148.581 39.9833C150.655 44.2221 154.744 45.7872 158.776 45.7872C165.516 45.7872 170.009 41.2875 170.009 34.1794V11.7465H165.285V15.5288C163.845 12.7899 161.541 11.0291 158.488 11.0291C152.671 11.0291 148.984 16.7678 148.984 22.9629ZM153.708 22.8977C153.708 18.985 156.127 15.6592 159.468 15.6592C162.866 15.6592 165.285 19.0502 165.285 22.8977C165.285 26.8104 162.924 30.0711 159.468 30.0711C156.127 30.0711 153.708 26.9409 153.708 22.8977ZM194.924 11.7465H189.74L183.922 26.0279L178.277 11.7465H173.093L181.387 31.5709L175.224 45.5915H180.178L194.924 11.7465ZM195.39 22.9629C195.39 29.1581 199.077 34.7663 205.009 34.7663C207.947 34.7663 210.309 33.0056 211.691 30.3319V33.8534H216.357V11.7465H211.691V15.5288C210.251 12.7899 207.947 11.0291 204.951 11.0291C199.133 11.0291 195.39 16.7678 195.39 22.9629ZM200.171 22.8977C200.171 18.985 202.533 15.6592 205.931 15.6592C209.329 15.6592 211.633 19.0502 211.633 22.8977C211.633 26.7452 209.329 30.0711 205.931 30.0711C202.533 30.0711 200.171 26.9409 200.171 22.8977ZM226.412 21.5935C226.468 17.2895 228.542 15.3983 231.076 15.3983C233.9 15.3983 235.684 17.2895 235.684 21.7891V33.8534H240.408V21.7891C240.408 15.2679 238.046 11.0291 232.228 11.0291C229.58 11.0291 227.39 12.6594 226.412 14.7462V11.7465H221.629V33.8534H226.412V21.5935Z" fill="white"/>
</svg>
