<svg xmlns="http://www.w3.org/2000/svg" width="44" height="44" fill="none" viewBox="0 0 44 44"><g filter="url(#filter0_d)"><path fill="#7BC5F8" d="M35.2571 18.401C35.2571 21.8424 34.2366 25.2065 32.3246 28.0679C30.4127 30.9293 27.6952 33.1595 24.5157 34.4765C21.3363 35.7934 17.8377 36.138 14.4625 35.4666C11.0872 34.7953 7.98683 33.1381 5.5534 30.7046C3.11996 28.2712 1.46275 25.1708 0.791372 21.7955C0.119989 18.4203 0.46458 14.9217 1.78155 11.7423C3.09851 8.56284 5.3287 5.84535 8.19011 3.93341C11.0515 2.02147 14.4157 1.00098 17.857 1.00098C22.4718 1.00098 26.8976 2.83419 30.1607 6.09732C33.4238 9.36045 35.2571 13.7862 35.2571 18.401Z"/></g><g style="mix-blend-mode:screen" opacity=".13"><g style="mix-blend-mode:screen" opacity=".13"><path stroke="#fff" stroke-miterlimit="10" stroke-width="5" d="M32.1773 17.783C32.1773 20.6158 31.3372 23.3851 29.7634 25.7405C28.1895 28.0959 25.9525 29.9317 23.3352 31.0158C20.718 32.0998 17.8381 32.3834 15.0596 31.8307C12.2812 31.2779 9.72909 29.9137 7.72602 27.9105C5.72295 25.9073 4.35888 23.3551 3.80634 20.5766C3.2538 17.7982 3.53761 14.9183 4.62183 12.3011C5.70606 9.68392 7.54205 7.44705 9.89759 5.87334C12.2531 4.29963 15.0224 3.45976 17.8553 3.45996C21.6538 3.46023 25.2967 4.96937 27.9825 7.65543C30.6684 10.3415 32.1773 13.9844 32.1773 17.783V17.783Z"/></g></g><g filter="url(#filter1_d)"><path fill="#7BC5F8" d="M32.1733 18.3999C32.1733 21.2328 31.3333 24.002 29.7595 26.3574C28.1856 28.7129 25.9485 30.5487 23.3313 31.6327C20.7141 32.7168 17.8341 33.0004 15.0557 32.4476C12.2773 31.8949 9.72518 30.5306 7.72211 28.5274C5.71905 26.5242 4.35498 23.972 3.80244 21.1936C3.24989 18.4151 3.5337 15.5352 4.61793 12.918C5.70215 10.3009 7.53815 8.06399 9.89368 6.49028C12.2492 4.91657 15.0185 4.07671 17.8514 4.0769C21.6499 4.07717 25.2928 5.5863 27.9786 8.27235C30.6645 10.9584 32.1733 14.6014 32.1733 18.3999Z"/></g><path fill="#fff" d="M26.2787 13.4501C26.0638 13.5111 25.841 13.54 25.6177 13.5361L25.6297 13.4661C26.1629 13.0477 26.613 12.5332 26.9567 11.9491C27.0057 11.7781 26.9477 11.7191 26.9467 11.7131L25.8377 12.1841L24.9097 12.6031C24.559 12.2452 24.1393 11.9623 23.6761 11.7715C23.2128 11.5807 22.7156 11.486 22.2147 11.4931C21.3477 11.4397 20.4946 11.7303 19.8405 12.3018C19.1864 12.8734 18.7841 13.6797 18.7207 14.5461C18.7186 14.9346 18.7667 15.3218 18.8637 15.6981C18.8637 15.7861 18.8637 15.6091 18.8637 15.6981C17.3742 15.5735 15.9262 15.1439 14.6097 14.4361C11.8097 13.0191 11.6367 12.0361 11.6367 12.0361C11.3663 12.5244 11.2065 13.0661 11.1683 13.623C11.1301 14.1799 11.2146 14.7384 11.4157 15.2591C11.7108 15.8454 12.1451 16.3505 12.6807 16.7301C12.3748 16.7275 12.0713 16.6776 11.7807 16.5821C11.5529 16.5178 11.3385 16.4131 11.1477 16.2731C10.8747 16.9391 11.4227 18.128 12.3687 18.9811C12.837 19.3404 13.3651 19.6143 13.9287 19.7901L12.3537 19.8341C12.2657 21.3641 15.5637 22.2731 15.5637 22.2731C14.6309 23.0284 13.4727 23.4508 12.2727 23.4731C11.663 23.4732 11.0566 23.3843 10.4727 23.2091C12.0907 24.6166 14.1779 25.3659 16.3217 25.3091C22.2097 25.0001 25.5337 19.9381 25.6917 14.9671L25.6997 14.9771C26.0203 14.7755 26.3116 14.5309 26.5657 14.2501C26.9394 13.8672 27.2612 13.4369 27.5227 12.9701C27.5227 12.9701 26.6537 13.3481 26.2787 13.4501Z"/><defs><filter id="filter0_d" width="42.8" height="42.8" x=".457" y="1.001" color-interpolation-filters="sRGB" filterUnits="userSpaceOnUse"><feFlood flood-opacity="0" result="BackgroundImageFix"/><feColorMatrix in="SourceAlpha" result="hardAlpha" type="matrix" values="0 0 0 0 0 0 0 0 0 0 0 0 0 0 0 0 0 0 127 0"/><feOffset dx="4" dy="4"/><feGaussianBlur stdDeviation="2"/><feColorMatrix type="matrix" values="0 0 0 0 0 0 0 0 0 0 0 0 0 0 0 0 0 0 0.2 0"/><feBlend in2="BackgroundImageFix" mode="normal" result="effect1_dropShadow"/><feBlend in="SourceGraphic" in2="effect1_dropShadow" mode="normal" result="shape"/></filter><filter id="filter1_d" width="36.646" height="36.646" x="3.527" y="4.077" color-interpolation-filters="sRGB" filterUnits="userSpaceOnUse"><feFlood flood-opacity="0" result="BackgroundImageFix"/><feColorMatrix in="SourceAlpha" result="hardAlpha" type="matrix" values="0 0 0 0 0 0 0 0 0 0 0 0 0 0 0 0 0 0 127 0"/><feOffset dx="4" dy="4"/><feGaussianBlur stdDeviation="2"/><feColorMatrix type="matrix" values="0 0 0 0 0 0 0 0 0 0 0 0 0 0 0 0 0 0 0.2 0"/><feBlend in2="BackgroundImageFix" mode="normal" result="effect1_dropShadow"/><feBlend in="SourceGraphic" in2="effect1_dropShadow" mode="normal" result="shape"/></filter></defs></svg>